<?xml version="1.0" encoding="UTF-8"?>
<!-- This file is generated by npm run build:icons -->
<svg xmlns="http://www.w3.org/2000/svg" xmlns:xlink="http://www.w3.org/1999/xlink" width="0" height="0">
<defs>
<symbol viewBox="0 0 24 24" id="arrowUpRight">
<path fill-rule="evenodd" clip-rule="evenodd" d="M6.30097 17.7105C6.48079 17.8902 6.74054 18 7.01028 18L6.99929 17.988C7.25903 17.988 7.51878 17.8782 7.70859 17.6985L7.70959 17.6995L16.0029 9.41196V16.0033C16.0029 16.5524 16.4425 17.0016 17.002 17.0016C17.5514 17.0016 18.001 16.5524 18.001 16.0033V7.01835C18.001 6.79086 17.9266 6.58321 17.8012 6.41692C17.771 6.37556 17.7372 6.33599 17.6998 6.29862C17.4485 6.04806 17.1062 5.95511 16.7898 6.02002H8.01074C7.45129 6.02002 7.01172 6.45928 7.01172 7.01835C7.01172 7.56742 7.45129 8.01667 8.01074 8.01667H14.563L6.29098 16.2829V16.2929C5.90136 16.6822 5.90136 17.3211 6.30097 17.7105Z"></path>
</symbol>
<symbol viewBox="0 0 24 24" id="bookmark">
<path fill-rule="evenodd" clip-rule="evenodd" d="M15 3C16.5977 3 17.9037 4.24892 17.9949 5.82373L18 6V20C18 20.7384 17.2347 21.2087 16.5867 20.911L16.4855 20.8575L11.999 18.166L7.5145 20.8575C6.8813 21.2374 6.08434 20.8231 6.00623 20.1143L6 20V6C6 4.40232 7.24892 3.09634 8.82373 3.00509L9 3H15ZM8.88278 5.00673C8.4237 5.06005 8.05945 5.4243 8.00613 5.88338L7.9994 6V18.233L11.4849 16.1425C11.762 15.9762 12.0995 15.9555 12.3917 16.0802L12.5139 16.1425L15.9994 18.234V6C15.9994 5.48716 15.6134 5.06449 15.116 5.00673L14.9994 5H8.9994L8.88278 5.00673Z"></path>
</symbol>
<symbol viewBox="0 0 24 24" id="bookmarkFilled">
<path fill-rule="evenodd" clip-rule="evenodd" d="M15 3C16.5977 3 17.9037 4.24892 17.9949 5.82373L18 6V20C18 20.7384 17.2347 21.2087 16.5867 20.911L16.4855 20.8575L11.999 18.166L7.5145 20.8575C6.8813 21.2374 6.08434 20.8231 6.00623 20.1143L6 20V6C6 4.40232 7.24892 3.09634 8.82373 3.00509L9 3H15Z"></path>
</symbol>
<symbol viewBox="0 0 24 24" id="brand">
<path fill-rule="evenodd" clip-rule="evenodd" d="M9.5 2C5.35786 2 2 5.35786 2 9.5C2 13.4741 5.09098 16.7263 9 16.9836V19C9 20.6569 10.3431 22 12 22H19C20.6569 22 22 20.6569 22 19V12C22 10.3431 20.6569 9 19 9H16.9836C16.7263 5.09098 13.4741 2 9.5 2ZM14.9776 9C14.725 6.19675 12.369 4 9.5 4C6.46243 4 4 6.46243 4 9.5C4 12.369 6.19675 14.725 9 14.9776V12C9 10.3431 10.3431 9 12 9H14.9776ZM11 14.793V12C11 11.4477 11.4477 11 12 11H14.793C14.2749 12.8317 12.8317 14.2749 11 14.793ZM11 16.85C13.9387 16.2534 16.2534 13.9387 16.85 11H19C19.5523 11 20 11.4477 20 12V19C20 19.5523 19.5523 20 19 20H12C11.4477 20 11 19.5523 11 19V16.85Z"></path>
</symbol>
<symbol viewBox="0 0 24 24" id="check">
<path fill-rule="evenodd" clip-rule="evenodd" d="M19.2929 6.29289C19.6834 5.90237 20.3166 5.90237 20.7071 6.29289C21.0676 6.65338 21.0953 7.22061 20.7903 7.6129L20.7071 7.70711L10.7071 17.7071C10.3466 18.0676 9.77939 18.0953 9.3871 17.7903L9.29289 17.7071L4.29289 12.7071C3.90237 12.3166 3.90237 11.6834 4.29289 11.2929C4.65338 10.9324 5.22061 10.9047 5.6129 11.2097L5.70711 11.2929L10 15.585L19.2929 6.29289Z"></path>
</symbol>
<symbol viewBox="0 0 24 24" id="chevronDown">
<path fill-rule="evenodd" clip-rule="evenodd" d="M5.29289 8.29289C5.65338 7.93241 6.22061 7.90468 6.6129 8.2097L6.70711 8.29289L12 13.585L17.2929 8.29289C17.6534 7.93241 18.2206 7.90468 18.6129 8.2097L18.7071 8.29289C19.0676 8.65338 19.0953 9.22061 18.7903 9.6129L18.7071 9.70711L12.7071 15.7071C12.3466 16.0676 11.7794 16.0953 11.3871 15.7903L11.2929 15.7071L5.29289 9.70711C4.90237 9.31658 4.90237 8.68342 5.29289 8.29289Z"></path>
</symbol>
<symbol viewBox="0 0 24 25" id="clipboard">
<path fill-rule="evenodd" clip-rule="evenodd" d="M13 2.5H11C9.69378 2.5 8.58254 3.33481 8.17071 4.5H7L6.82373 4.50509C5.24892 4.59634 4 5.90232 4 7.5V19.5L4.00509 19.6763C4.09634 21.2511 5.40232 22.5 7 22.5H17L17.1763 22.4949C18.7511 22.4037 20 21.0977 20 19.5V7.5L19.9949 7.32373C19.9037 5.74892 18.5977 4.5 17 4.5H15.8293C15.4175 3.33481 14.3062 2.5 13 2.5ZM15.8293 6.5H17L17.1166 6.50673C17.614 6.56449 18 6.98716 18 7.5V19.5L17.9933 19.6166C17.9355 20.114 17.5128 20.5 17 20.5H7L6.88338 20.4933C6.38604 20.4355 6 20.0128 6 19.5V7.5L6.00673 7.38338C6.06449 6.88604 6.48716 6.5 7 6.5H8.17071C8.58254 7.66519 9.69378 8.5 11 8.5H13C14.3062 8.5 15.4175 7.66519 15.8293 6.5ZM10 5.5C10 6.05228 10.4477 6.5 11 6.5H13C13.5523 6.5 14 6.05228 14 5.5C14 4.94772 13.5523 4.5 13 4.5H11C10.4477 4.5 10 4.94772 10 5.5Z"></path>
</symbol>
<symbol viewBox="0 0 24 24" id="close">
<path fill-rule="evenodd" clip-rule="evenodd" d="M6.6129 5.2097C6.22061 4.90468 5.65338 4.93241 5.29289 5.29289C4.90237 5.68342 4.90237 6.31658 5.29289 6.70711L10.5858 12L5.29289 17.2929L5.2097 17.3871C4.90468 17.7794 4.93241 18.3466 5.29289 18.7071C5.68342 19.0976 6.31658 19.0976 6.70711 18.7071L12 13.4142L17.2929 18.7071L17.3871 18.7903C17.7794 19.0953 18.3466 19.0676 18.7071 18.7071C19.0976 18.3166 19.0976 17.6834 18.7071 17.2929L13.4142 12L18.7071 6.70711L18.7903 6.6129C19.0953 6.22061 19.0676 5.65338 18.7071 5.29289C18.3166 4.90237 17.6834 4.90237 17.2929 5.29289L12 10.5858L6.70711 5.29289L6.6129 5.2097Z"></path>
</symbol>
<symbol viewBox="0 0 24 24" id="copy">
<path fill-rule="evenodd" clip-rule="evenodd" d="M16.9949 5.82373C16.9037 4.24892 15.5977 3 14 3H6L5.82373 3.00509C4.24892 3.09634 3 4.40232 3 6V14L3.00509 14.1763C3.09634 15.7511 4.40232 17 6 17H7V18C7 19.6569 8.34315 21 10 21H18C19.6569 21 21 19.6569 21 18V10C21 8.34315 19.6569 7 18 7H17V6L16.9949 5.82373ZM15 7V6C15 5.48716 14.614 5.06449 14.1166 5.00673L14 5H6C5.48716 5 5.06449 5.38604 5.00673 5.88338L5 6V14C5 14.5128 5.38604 14.9355 5.88338 14.9933L6 15H7V10C7 8.34315 8.34315 7 10 7H15ZM9 16V18C9 18.5523 9.44772 19 10 19H18C18.5523 19 19 18.5523 19 18V10C19 9.44772 18.5523 9 18 9H16H10C9.44772 9 9 9.44772 9 10V16Z"></path>
</symbol>
<symbol viewBox="0 0 24 24" id="dark">
<path fill-rule="evenodd" clip-rule="evenodd" d="M2.0876 10.6846C2.74355 5.71117 6.98283 1.9934 11.9993 1.99219L12.0581 1.99387L12.116 1.99889L12.3926 2.00019C13.2634 2.00019 13.7017 3.0233 13.1508 3.65297L13.0733 3.73275C10.7759 5.86749 10.3303 9.33822 12.014 11.9841C13.6976 14.6299 17.0304 15.6963 19.9373 14.5193C20.76 14.1862 21.5767 15.0103 21.236 15.83C19.3108 20.4623 14.2513 22.9514 9.4067 21.6496C4.56205 20.3478 1.43165 15.658 2.0876 10.6846ZM10.043 4.40853L10.1566 4.20719L10.0156 4.2414C6.91514 5.03476 4.50587 7.64461 4.07043 10.9461C3.54567 14.9249 6.04999 18.6767 9.92571 19.7181C13.0431 20.5558 16.2717 19.4314 18.2173 17.0308L18.2726 16.9582L18.101 16.9741C15.1431 17.1843 12.2115 15.8299 10.4766 13.2854L10.3266 13.0578C8.62531 10.3842 8.58656 7.06651 10.043 4.40853ZM17 3L17.1166 3.00673C17.5757 3.06005 17.94 3.4243 17.9933 3.88338L18 4C18 4.51284 18.386 4.93551 18.8834 4.99327L19 5C20.2874 5 20.3317 6.86445 19.1332 6.99303L19 7C18.4872 7 18.0645 7.38604 18.0067 7.88338L18 8C18 9.28736 16.1356 9.33175 16.007 8.13317L16 8C16 7.48716 15.614 7.06449 15.1166 7.00673L15 7C13.7126 7 13.6683 5.13555 14.8668 5.00697L15 5C15.5128 5 15.9355 4.61396 15.9933 4.11662L16 4C16 3.48716 16.386 3.06449 16.8834 3.00673L17 3ZM18.8834 10.0067C18.386 10.0645 18 10.4872 18 11C18 11.5523 18.4477 12 19 12L19.0067 12.1166C19.0645 12.614 19.4872 13 20 13C20.5523 13 21 12.5523 21 12L21.1166 11.9933C21.614 11.9355 22 11.5128 22 11C22 10.4477 21.5523 10 21 10L20.9933 9.88338C20.9355 9.38604 20.5128 9 20 9C19.4477 9 19 9.44772 19 10L18.8834 10.0067Z"></path>
</symbol>
<symbol viewBox="0 0 24 24" id="discord">
<path d="M20.307 4.52009C18.787 3.8115 17.1412 3.2972 15.4269 3.00005C15.4119 2.99957 15.3969 3.00239 15.3831 3.00832C15.3693 3.01424 15.3569 3.02312 15.3469 3.03434C15.1412 3.41149 14.9012 3.90293 14.7412 4.28009C12.9228 4.00579 11.0736 4.00579 9.2553 4.28009C9.0953 3.89151 8.85529 3.41149 8.63814 3.03434C8.62671 3.01148 8.59242 3.00005 8.55814 3.00005C6.8438 3.2972 5.20947 3.8115 3.678 4.52009C3.66657 4.52009 3.65515 4.53152 3.64372 4.54295C0.53506 9.19451 -0.322107 13.7203 0.100762 18.2005C0.100762 18.2233 0.112191 18.2462 0.135048 18.2576C2.19225 19.7662 4.16945 20.6805 6.12378 21.2863C6.15807 21.2977 6.19236 21.2863 6.20379 21.2634C6.66094 20.6348 7.07238 19.9719 7.42668 19.2748C7.44954 19.2291 7.42668 19.1834 7.38096 19.1719C6.72952 18.9205 6.11236 18.6233 5.50662 18.2805C5.46091 18.2576 5.46091 18.189 5.4952 18.1548C5.62091 18.0633 5.74663 17.9605 5.87235 17.869C5.89521 17.8462 5.92949 17.8462 5.95235 17.8576C9.88389 19.6519 14.124 19.6519 18.0098 17.8576C18.0327 17.8462 18.067 17.8462 18.0898 17.869C18.2155 17.9719 18.3413 18.0633 18.467 18.1662C18.5127 18.2005 18.5127 18.269 18.4556 18.2919C17.8612 18.6462 17.2327 18.9319 16.5812 19.1834C16.5355 19.1948 16.5241 19.2519 16.5355 19.2862C16.9012 19.9834 17.3127 20.6462 17.7584 21.2748C17.7927 21.2863 17.827 21.2977 17.8612 21.2863C19.827 20.6805 21.8042 19.7662 23.8614 18.2576C23.8843 18.2462 23.8957 18.2233 23.8957 18.2005C24.3986 13.0232 23.0614 8.53163 20.3527 4.54295C20.3413 4.53152 20.3299 4.52009 20.307 4.52009ZM8.02098 15.469C6.8438 15.469 5.86092 14.3832 5.86092 13.046C5.86092 11.7089 6.82095 10.6231 8.02098 10.6231C9.23244 10.6231 10.1925 11.7203 10.181 13.046C10.181 14.3832 9.22101 15.469 8.02098 15.469ZM15.9869 15.469C14.8097 15.469 13.8269 14.3832 13.8269 13.046C13.8269 11.7089 14.7869 10.6231 15.9869 10.6231C17.1984 10.6231 18.1584 11.7203 18.147 13.046C18.147 14.3832 17.1984 15.469 15.9869 15.469Z"></path>
</symbol>
<symbol viewBox="0 0 20 20" id="discourse">
<path d="M10.0858 0C15.555 0 20 4.57083 20 9.9975C20 15.4225 15.5583 19.9892 10.0833 19.9892L0 20V9.825C0 4.4 4.61 0 10.0858 0ZM10.1825 3.8025C9.12053 3.80134 8.07629 4.07464 7.15105 4.59588C6.2258 5.11713 5.45096 5.86863 4.90167 6.7775C4.3569 7.68207 4.05883 8.71366 4.03719 9.76938C4.01555 10.8251 4.27109 11.868 4.77833 12.7942L3.66667 16.3417L7.66167 15.4467C8.77956 15.9462 10.0205 16.1028 11.2275 15.8966C12.4344 15.6904 13.553 15.1307 14.4417 14.2883C15.3254 13.4521 15.9363 12.3687 16.1945 11.1798C16.4528 9.99085 16.3464 8.75166 15.8892 7.62417C15.4267 6.49266 14.6374 5.52475 13.6221 4.84414C12.6067 4.16354 11.4115 3.80116 10.1892 3.80333L10.1825 3.8025Z"></path>
</symbol>
<symbol viewBox="0 0 20 20" id="doubleChevronRight">
<path fill-rule="evenodd" clip-rule="evenodd" d="M6.34408 5.17475C6.01717 4.92057 5.54448 4.94367 5.24408 5.24408L5.17475 5.32258C4.92057 5.64949 4.94367 6.12219 5.24408 6.42259L8.82083 10L5.24408 13.5774L5.17475 13.6559C4.92057 13.9828 4.94367 14.4555 5.24408 14.7559C5.56951 15.0814 6.09715 15.0814 6.42259 14.7559L10.5893 10.5893L10.6586 10.5107C10.9128 10.1838 10.8897 9.71115 10.5893 9.41074L6.42259 5.24408L6.34408 5.17475ZM11.3441 5.17475C11.0172 4.92057 10.5445 4.94367 10.2441 5.24408L10.1748 5.32258C9.92057 5.64949 9.94367 6.12219 10.2441 6.42259L13.8208 10L10.2441 13.5774L10.1748 13.6559C9.92057 13.9828 9.94367 14.4555 10.2441 14.7559C10.5695 15.0814 11.0972 15.0814 11.4226 14.7559L15.5893 10.5893L15.6586 10.5107C15.9128 10.1838 15.8897 9.71115 15.5893 9.41074L11.4226 5.24408L11.3441 5.17475Z"></path>
</symbol>
<symbol viewBox="0 0 24 24" id="download">
<path fill-rule="evenodd" clip-rule="evenodd" d="M11.559 16.899C11.6914 16.9637 11.8409 17 12 17C12.2209 17 12.4257 16.9274 12.5916 16.8049C12.6335 16.7754 12.6732 16.743 12.7102 16.7079L17.7102 11.7079C18.1002 11.3079 18.1002 10.6779 17.7102 10.2879C17.3102 9.8889 16.6802 9.88889 16.2902 10.2889L13 13.5868V4C13 3.44 12.55 3 12 3C11.44 3 11 3.44 11 4V13.5863L7.71023 10.2889C7.31023 9.88989 6.68023 9.88989 6.29023 10.2899C5.89023 10.6799 5.89023 11.3099 6.29023 11.7099L11.2902 16.7099C11.3671 16.7867 11.4585 16.8508 11.559 16.899ZM21 19C21 20.65 19.65 22 18 22H6C4.34 22 3 20.65 3 19V17C3 16.44 3.44 16 4 16C4.55 16 5 16.44 5 17V19C5 19.55 5.44 20 6 20H18C18.55 20 19 19.55 19 19V17C19 16.44 19.44 16 20 16C20.55 16 21 16.44 21 17V19Z"></path>
</symbol>
<symbol viewBox="0 0 24 24" id="edit">
<path fill-rule="evenodd" clip-rule="evenodd" d="M13.7929 4.7932C15.288 3.2981 17.712 3.2981 19.2071 4.7932C20.6506 6.23673 20.7004 8.54625 19.3564 10.0495L19.2071 10.2074L18.2071 11.2074L8.70711 20.7074C8.55083 20.8637 8.34815 20.9629 8.13144 20.9916L8 21.0003H4C3.48716 21.0003 3.06449 20.6143 3.00673 20.1169L3 20.0003V16.0003C3 15.7793 3.07316 15.5658 3.20608 15.3923L3.29289 15.2932L12.7927 5.79334C12.7928 5.79329 12.7928 5.79324 12.7929 5.7932C12.7929 5.79315 12.793 5.7931 12.793 5.79305L13.7929 4.7932ZM13.5 7.9145L5 16.4143V18.9993H7.585L16.0856 10.5002L13.5 7.9145ZM17.5 9.08606L14.9142 6.5003L15.2071 6.20741L15.3301 6.09501C16.0484 5.49557 17.1185 5.53303 17.7929 6.20741L17.9053 6.33037C18.5047 7.04872 18.4673 8.11882 17.7929 8.7932L17.5 9.08606Z"></path>
</symbol>
<symbol viewBox="0 0 24 24" id="flag">
<path fill-rule="evenodd" clip-rule="evenodd" d="M15.5193 7.42426H15.5183C13.9552 7.42426 12.4518 6.81485 11.3367 5.7259C9.88074 4.29306 7.61117 4.20336 6.06156 5.45597V12.1096C8.24478 11.1095 10.9047 11.5019 12.7223 13.2868C14.173 14.7142 16.4507 14.7998 18.0088 13.5428V6.85685C17.2264 7.2134 16.3702 7.40228 15.4984 7.40228L15.5193 7.42426ZM19.4716 14.8894C19.7854 14.7208 20 14.3883 20 14.008V5.01668C20 4.67857 19.8364 4.38424 19.586 4.20427C19.1957 3.90723 18.6385 3.93174 18.2861 4.28528C16.733 5.80382 14.2539 5.80382 12.7106 4.28528C10.3809 1.99849 6.66719 1.99849 4.34739 4.28628C4.31752 4.31625 4.27769 4.35622 4.24783 4.39618C3.99094 4.68877 3.9374 5.08339 4.07031 5.4208V21.0013C4.07031 21.5507 4.50839 22.0003 5.06594 22.0003C5.61353 22.0003 6.06156 21.5507 6.06156 21.0013V14.4488C7.61121 13.1948 9.88192 13.284 11.3384 14.7174C12.4535 15.8063 13.9569 16.4157 15.52 16.4157L15.4902 16.3928C16.953 16.3928 18.3716 15.8611 19.4716 14.8894Z"></path>
</symbol>
<symbol viewBox="0 0 24 24" id="flagFilled">
<path fill-rule="evenodd" clip-rule="evenodd" d="M15.5193 7.42426H15.5183C13.9552 7.42426 12.4518 6.81485 11.3367 5.7259C9.88074 4.29306 7.61117 4.20336 6.06156 5.45597V12.1096C8.24478 11.1095 10.9047 11.5019 12.7223 13.2868C14.173 14.7142 16.4507 14.7998 18.0088 13.5428V6.85685C17.2264 7.2134 16.3702 7.40228 15.4984 7.40228L15.5193 7.42426ZM19.4716 14.8894C19.7854 14.7208 20 14.3883 20 14.008V5.01668C20 4.67857 19.8364 4.38424 19.586 4.20427C19.1957 3.90723 18.6385 3.93174 18.2861 4.28528C16.733 5.80382 14.2539 5.80382 12.7106 4.28528C10.3809 1.99849 6.66719 1.99849 4.34739 4.28628C4.31752 4.31625 4.27769 4.35622 4.24783 4.39618C3.99094 4.68877 3.9374 5.08339 4.07031 5.4208V21.0013C4.07031 21.5507 4.50839 22.0003 5.06594 22.0003C5.61353 22.0003 6.06156 21.5507 6.06156 21.0013V14.4488C7.61121 13.1948 9.88192 13.284 11.3384 14.7174C12.4535 15.8063 13.9569 16.4157 15.52 16.4157L15.4902 16.3928C16.953 16.3928 18.3716 15.8611 19.4716 14.8894Z"></path>
<path d="M5 13.5V5C5.66667 4.5 7.4 3.5 9 3.5C11 3.5 13 6 15.5 6.5C17.5 6.9 18.6667 6 19 5.5V14C18.3333 14.5 16.5 15.5 14.5 15.5C12 15.5 11.5 13 9 12.5C7 12.1 5.5 13 5 13.5Z"></path>
</symbol>
<symbol viewBox="0 0 24 24" id="github">
<path d="M12.001 2C6.47598 2 2.00098 6.475 2.00098 12C1.99977 14.0992 2.65958 16.1454 3.88679 17.8484C5.114 19.5515 6.84631 20.8249 8.83798 21.488C9.33798 21.575 9.52598 21.275 9.52598 21.012C9.52598 20.775 9.51298 19.988 9.51298 19.15C7.00098 19.613 6.35098 18.538 6.15098 17.975C6.03798 17.687 5.55098 16.8 5.12598 16.562C4.77598 16.375 4.27598 15.912 5.11298 15.9C5.90098 15.887 6.46298 16.625 6.65098 16.925C7.55098 18.437 8.98798 18.012 9.56298 17.75C9.65098 17.1 9.91298 16.663 10.201 16.413C7.97598 16.163 5.65098 15.3 5.65098 11.475C5.65098 10.387 6.03798 9.488 6.67598 8.788C6.57598 8.538 6.22598 7.513 6.77598 6.138C6.77598 6.138 7.61298 5.875 9.52598 7.162C10.3401 6.9364 11.1812 6.82302 12.026 6.825C12.876 6.825 13.726 6.937 14.526 7.162C16.439 5.862 17.276 6.138 17.276 6.138C17.826 7.513 17.476 8.538 17.376 8.788C18.013 9.488 18.401 10.375 18.401 11.475C18.401 15.313 16.064 16.163 13.839 16.413C14.201 16.725 14.514 17.325 14.514 18.263C14.514 19.6 14.501 20.675 14.501 21.013C14.501 21.275 14.689 21.587 15.189 21.487C17.1738 20.8166 18.8985 19.5408 20.1203 17.8389C21.3421 16.1371 21.9995 14.095 22 12C22 6.475 17.525 2 12 2"></path>
</symbol>
<symbol viewBox="0 0 24 24" id="heart">
<path fill-rule="evenodd" clip-rule="evenodd" d="M11.9671 5.49838L12.004 5.53185L12.0383 5.50118C13.3231 4.37335 15.0451 3.83599 16.7708 4.06092L17.0174 4.09826C19.2354 4.4813 21.0525 6.07355 21.7235 8.2221C22.3945 10.3706 21.8065 12.714 20.2007 14.2913L20.153 14.3319L12.7037 21.7104C12.3439 22.0667 11.7812 22.0941 11.3902 21.7926L11.2963 21.7104L3.79198 14.2779L3.62038 14.1034C2.14008 12.5331 1.61285 10.2804 2.25756 8.20697C2.92806 6.05057 4.75257 4.45327 6.9787 4.07378C8.79258 3.76456 10.6228 4.30655 11.9671 5.49838ZM5.20367 12.8613L12 19.5919L18.7963 12.8613L18.835 12.8259L18.9547 12.703C19.9069 11.657 20.2394 10.1791 19.8144 8.81831C19.3671 7.38595 18.1557 6.32445 16.677 6.06909C15.1983 5.81372 13.7011 6.40746 12.7992 7.60683C12.3978 8.14072 11.5958 8.13848 11.1974 7.60237C10.2993 6.39406 8.79888 5.79234 7.31479 6.04533C5.83071 6.29833 4.61437 7.36319 4.16737 8.8008C3.74272 10.1665 4.08073 11.6489 5.04067 12.6939L5.20367 12.8613Z"></path>
</symbol>
<symbol viewBox="0 0 24 24" id="heartFilled">
<path fill-rule="evenodd" clip-rule="evenodd" d="M11.9671 5.49838L12.004 5.53185L12.0383 5.50118C13.3231 4.37335 15.0451 3.83599 16.7708 4.06092L17.0174 4.09826C19.2354 4.4813 21.0525 6.07355 21.7235 8.2221C22.3945 10.3706 21.8065 12.714 20.2007 14.2913L20.153 14.3319L12.7037 21.7104C12.3439 22.0667 11.7812 22.0941 11.3902 21.7926L11.2963 21.7104L3.79198 14.2779L3.62038 14.1034C2.14008 12.5331 1.61285 10.2804 2.25756 8.20697C2.92806 6.05057 4.75257 4.45327 6.9787 4.07378C8.79258 3.76456 10.6228 4.30655 11.9671 5.49838Z"></path>
</symbol>
<symbol viewBox="0 0 24 24" id="hide">
<path fill-rule="evenodd" clip-rule="evenodd" d="M12 4C16.2909 4 19.8627 6.4287 22.6646 11.154L22.8844 11.5329L22.9302 11.6328L22.9591 11.716L22.9736 11.7706L22.988 11.853L22.999 11.9535L22.9982 12.0639L22.9849 12.1744C22.9784 12.2112 22.9698 12.2477 22.9591 12.284L22.9203 12.3916L22.8844 12.4671L22.8682 12.4962C20.1039 17.3334 16.5685 19.8773 12.3127 19.9957L12 20C7.6044 20 3.96348 17.4514 1.13177 12.4962C0.956077 12.1887 0.956077 11.8113 1.13177 11.5038C3.96348 6.54862 7.6044 4 12 4ZM12 6C8.59033 6 5.69918 7.89478 3.27859 11.8059L3.161 12L3.27859 12.1941C5.63002 15.9935 8.42551 17.8901 11.709 17.9954L12 18C15.4097 18 18.3008 16.1052 20.7214 12.1941L20.838 12L20.7214 11.8059C18.37 8.00652 15.5745 6.10992 12.291 6.00464L12 6ZM12 9C10.3431 9 9 10.3431 9 12C9 13.6569 10.3431 15 12 15C13.6569 15 15 13.6569 15 12C15 10.3431 13.6569 9 12 9ZM12 11C12.5523 11 13 11.4477 13 12C13 12.5523 12.5523 13 12 13C11.4477 13 11 12.5523 11 12C11 11.4477 11.4477 11 12 11Z"></path>
</symbol>
<symbol viewBox="0 0 24 24" id="light">
<path fill-rule="evenodd" clip-rule="evenodd" d="M12 15C13.6569 15 15 13.6569 15 12C15 10.3431 13.6569 9 12 9C10.3431 9 9 10.3431 9 12C9 13.6569 10.3431 15 12 15ZM12 17C14.7614 17 17 14.7614 17 12C17 9.23858 14.7614 7 12 7C9.23858 7 7 9.23858 7 12C7 14.7614 9.23858 17 12 17Z"></path>
<path d="M11 3C11 2.44772 11.4477 2 12 2C12.5523 2 13 2.44772 13 3V4C13 4.55228 12.5523 5 12 5C11.4477 5 11 4.55228 11 4V3Z"></path>
<path d="M5.636 7.05086C6.02653 7.44138 6.65969 7.44138 7.05022 7.05086C7.44074 6.66033 7.44074 6.02717 7.05022 5.63664L6.34311 4.92954C5.95259 4.53901 5.31942 4.53901 4.9289 4.92954C4.53837 5.32006 4.53837 5.95323 4.9289 6.34375L5.636 7.05086Z"></path>
<path d="M19.0711 4.92976C18.6806 4.53924 18.0474 4.53924 17.6569 4.92976L16.9498 5.63687C16.5593 6.02739 16.5593 6.66056 16.9498 7.05108C17.3403 7.44161 17.9735 7.44161 18.364 7.05108L19.0711 6.34398C19.4616 5.95345 19.4616 5.32029 19.0711 4.92976Z"></path>
<path d="M7.05037 16.9493C6.65984 16.5588 6.02668 16.5588 5.63615 16.9493L4.92905 17.6564C4.53852 18.0469 4.53852 18.6801 4.92905 19.0706C5.31957 19.4611 5.95274 19.4611 6.34326 19.0706L7.05037 18.3635C7.44089 17.973 7.44089 17.3398 7.05037 16.9493Z"></path>
<path d="M19.071 19.0704C18.6804 19.4609 18.0473 19.4609 17.6568 19.0704L16.9496 18.3633C16.5591 17.9728 16.5591 17.3396 16.9496 16.9491C17.3402 16.5585 17.9733 16.5585 18.3639 16.9491L19.071 17.6562C19.4615 18.0467 19.4615 18.6799 19.071 19.0704Z"></path>
<path d="M12 19C11.4477 19 11 19.4477 11 20V21C11 21.5523 11.4477 22 12 22C12.5523 22 13 21.5523 13 21V20C13 19.4477 12.5523 19 12 19Z"></path>
<path d="M21 11C21.5523 11 22 11.4477 22 12C22 12.5523 21.5523 13 21 13H20C19.4477 13 19 12.5523 19 12C19 11.4477 19.4477 11 20 11H21Z"></path>
<path d="M5 12C5 11.4477 4.55228 11 4 11H3C2.44772 11 2 11.4477 2 12C2 12.5523 2.44772 13 3 13H4C4.55228 13 5 12.5523 5 12Z"></path>
</symbol>
<symbol viewBox="0 0 24 24" id="link">
<path fill-rule="evenodd" clip-rule="evenodd" d="M19.7071 4.29327C17.9359 2.52203 15.0641 2.52203 13.2929 4.29327L12.7929 4.79327L12.7097 4.88748C12.4047 5.27977 12.4324 5.847 12.7929 6.20748C13.1834 6.59801 13.8166 6.59801 14.2071 6.20748L14.7071 5.70748L14.8397 5.58395C15.8357 4.71917 17.3458 4.76035 18.2929 5.70748C19.2831 6.69767 19.2831 8.30308 18.2929 9.29327L14.2929 13.2933L14.1448 13.4329C13.6865 13.8318 13.1047 14.0509 12.5 14.0509C11.8281 14.0509 11.1845 13.7804 10.7143 13.3005C10.3278 12.906 9.69465 12.8996 9.30016 13.2861C8.90567 13.6726 8.89921 14.3057 9.28573 14.7002C10.1321 15.5641 11.2906 16.0509 12.5 16.0509C13.7094 16.0509 14.8679 15.5641 15.7143 14.7002L19.7071 10.7075L19.868 10.5383C21.4766 8.75784 21.423 6.00916 19.7071 4.29327ZM14.7143 9.30052C13.8679 8.43667 12.7094 7.94987 11.5 7.94987C10.2906 7.94987 9.13213 8.43667 8.28573 9.30052L4.2929 13.2933L4.13204 13.4625C2.5234 15.2429 2.57702 17.9916 4.2929 19.7075C6.06414 21.4787 8.93588 21.4787 10.7071 19.7075L11.2071 19.2075L11.2903 19.1133C11.5953 18.721 11.5676 18.1538 11.2071 17.7933C10.8166 17.4027 10.1834 17.4027 9.7929 17.7933L9.2929 18.2933L9.16036 18.4168C8.16428 19.2816 6.65425 19.2404 5.70712 18.2933C4.71693 17.3031 4.71693 15.6977 5.70712 14.7075L9.70712 10.7075L9.85519 10.5679C10.3135 10.1689 10.8953 9.94987 11.5 9.94987C12.1719 9.94987 12.8155 10.2203 13.2857 10.7002C13.6722 11.0947 14.3054 11.1012 14.6999 10.7147C15.0944 10.3281 15.1008 9.69501 14.7143 9.30052Z"></path>
</symbol>
<symbol viewBox="0 0 24 24" id="logout">
<path fill-rule="evenodd" clip-rule="evenodd" d="M14.9949 5.82373C14.9037 4.24892 13.5977 3 12 3H5L4.82373 3.00509C3.24892 3.09634 2 4.40232 2 6V18L2.00509 18.1763C2.09634 19.7511 3.40232 21 5 21H12L12.1763 20.9949C13.7511 20.9037 15 19.5977 15 18V16L14.9933 15.8834C14.9355 15.386 14.5128 15 14 15C13.4477 15 13 15.4477 13 16V18L12.9933 18.1166C12.9355 18.614 12.5128 19 12 19H5L4.88338 18.9933C4.38604 18.9355 4 18.5128 4 18V6L4.00673 5.88338C4.06449 5.38604 4.48716 5 5 5H12L12.1166 5.00673C12.614 5.06449 13 5.48716 13 6V8L13.0067 8.11662C13.0645 8.61396 13.4872 9 14 9C14.5523 9 15 8.55228 15 8V6L14.9949 5.82373ZM18.7071 8.29289L18.6129 8.2097L18.5114 8.14038C18.1275 7.91161 17.6233 7.96245 17.2929 8.29289L17.2097 8.3871C16.9047 8.77939 16.9324 9.34662 17.2929 9.70711L18.585 11H7L6.88338 11.0067C6.38604 11.0645 6 11.4872 6 12C6 12.5523 6.44772 13 7 13H18.584L17.2929 14.2929L17.2097 14.3871C16.9047 14.7794 16.9324 15.3466 17.2929 15.7071C17.6834 16.0976 18.3166 16.0976 18.7071 15.7071L21.6663 12.7489C21.7702 12.6552 21.8527 12.5407 21.9101 12.4151L21.9506 12.3111L21.9871 12.1651C22.0387 11.8678 21.9589 11.5446 21.7071 11.2929L18.7071 8.29289Z"></path>
</symbol>
<symbol viewBox="0 0 24 24" id="reply">
<path fill-rule="evenodd" clip-rule="evenodd" d="M9.70711 12.2929C10.0676 12.6534 10.0953 13.2206 9.7903 13.6129L9.70711 13.7071C9.34662 14.0676 8.77939 14.0953 8.3871 13.7903L8.29289 13.7071L4.29289 9.70711C4.2575 9.67171 4.22531 9.63433 4.19633 9.59531L4.12467 9.48406L4.07123 9.37134L4.03585 9.26599L4.01102 9.14847L4.00398 9.0898L4 9L4.00279 8.92476L4.02024 8.79927L4.04974 8.68786L4.09367 8.57678L4.146 8.47929L4.2097 8.3871L4.29289 8.29289L8.29289 4.29289C8.68342 3.90237 9.31658 3.90237 9.70711 4.29289C10.0676 4.65338 10.0953 5.22061 9.7903 5.6129L9.70711 5.70711L7.415 8H16C18.7614 8 21 10.2386 21 13C21 15.6888 18.8777 17.8818 16.2169 17.9954L16 18H15C14.4477 18 14 17.5523 14 17C14 16.4872 14.386 16.0645 14.8834 16.0067L15 16H16C17.6569 16 19 14.6569 19 13C19 11.4023 17.7511 10.0963 16.1763 10.0051L16 10H7.415L9.70711 12.2929Z"></path>
</symbol>
<symbol viewBox="0 0 24 24" id="show">
<path fill-rule="evenodd" clip-rule="evenodd" d="M2.29289 2.29289C2.65338 1.93241 3.22061 1.90468 3.6129 2.2097L3.70711 2.29289L17.9832 16.569C18.0385 16.6134 18.0897 16.6643 18.1356 16.7214L21.7071 20.2929C22.0976 20.6834 22.0976 21.3166 21.7071 21.7071C21.3466 22.0676 20.7794 22.0953 20.3871 21.7903L20.2929 21.7071L17.206 18.6203C15.6021 19.5382 13.8623 20 12 20C7.6044 20 3.96348 17.4514 1.13177 12.4962C0.956057 12.1887 0.956079 11.8112 1.13182 11.5037C2.32272 9.42032 3.65271 7.76402 5.12709 6.5413L2.29289 3.70711C1.90237 3.31658 1.90237 2.68342 2.29289 2.29289ZM6.54861 7.96282C5.40937 8.87487 4.34586 10.11 3.3617 11.6732L3.161 12L3.27859 12.1941C5.63002 15.9935 8.42551 17.8901 11.709 17.9954L12 18C13.326 18 14.5644 17.7155 15.7281 17.1423L13.2947 14.7089C12.1786 15.2434 10.8005 15.0479 9.8761 14.1229C8.95222 13.1984 8.75747 11.8212 9.29159 10.7058L6.54861 7.96282ZM11.2385 12.6527L11.3478 12.762C11.3283 12.7453 11.3093 12.7277 11.2908 12.7092C11.2725 12.6909 11.2551 12.672 11.2385 12.6527ZM11.9996 3.99994C16.3951 3.99994 20.0361 6.54859 22.8678 11.5038C23.0435 11.8113 23.0435 12.1888 22.8677 12.4963C22.0529 13.9217 21.1749 15.1455 20.2309 16.1668C19.8561 16.5723 19.2234 16.5972 18.8178 16.2224C18.4122 15.8475 18.3873 15.2148 18.7622 14.8092C19.4125 14.1056 20.0351 13.283 20.6292 12.3407L20.8386 12L20.721 11.8059C18.3695 8.00649 15.5739 6.10986 12.2873 6.00458L11.9961 5.99993C11.1984 5.99716 10.4044 6.10708 9.6376 6.32643C9.10661 6.47833 8.55302 6.17102 8.40113 5.64003C8.24923 5.10905 8.55654 4.55546 9.08753 4.40357C10.0355 4.1324 11.017 3.99652 11.9996 3.99994Z"></path>
</symbol>
<symbol viewBox="0 0 24 24" id="star">
<path d="M8.24295 7.33995L1.86352 8.26529L1.74968 8.2882C1.01366 8.47934 0.743465 9.4206 1.30944 9.97153L5.93195 14.471L4.84235 20.8259L4.82932 20.936C4.77991 21.6974 5.59302 22.2483 6.29332 21.8801L11.999 18.88L17.6918 21.8796L17.7925 21.9262C18.5014 22.2092 19.2774 21.6061 19.1436 20.8259L18.053 14.471L22.6765 9.97153L22.7551 9.8861C23.2384 9.299 22.9041 8.37858 22.1224 8.26529L15.742 7.33995L12.8897 1.55939C12.5229 0.81614 11.463 0.81614 11.0962 1.55939L8.24295 7.33995Z"></path>
</symbol>
<symbol viewBox="0 0 24 24" id="system">
<path fill-rule="evenodd" clip-rule="evenodd" d="M20 3H4C2.89543 3 2 3.89543 2 5V15C2 16.1046 2.89543 17 4 17H8V19H7L6.88338 19.0067C6.38604 19.0645 6 19.4872 6 20C6 20.5523 6.44772 21 7 21H9H15H17L17.1166 20.9933C17.614 20.9355 18 20.5128 18 20C18 19.4477 17.5523 19 17 19H16V17H20C21.1046 17 22 16.1046 22 15V5C22 3.89543 21.1046 3 20 3ZM15 15H20V5H4V15H9H15ZM14 17V19H10V17H14Z"></path>
</symbol>
<symbol viewBox="0 0 24 24" id="threeDots">
<path fill-rule="evenodd" clip-rule="evenodd" d="M5 10C3.89543 10 3 10.8954 3 12C3 13.1046 3.89543 14 5 14C6.10457 14 7 13.1046 7 12C7 10.8954 6.10457 10 5 10ZM12 10C10.8954 10 10 10.8954 10 12C10 13.1046 10.8954 14 12 14C13.1046 14 14 13.1046 14 12C14 10.8954 13.1046 10 12 10ZM17 12C17 10.8954 17.8954 10 19 10C20.1046 10 21 10.8954 21 12C21 13.1046 20.1046 14 19 14C17.8954 14 17 13.1046 17 12Z"></path>
</symbol>
<symbol viewBox="0 0 24 24" id="trash">
<path fill-rule="evenodd" clip-rule="evenodd" d="M15.9945 3.85074C15.9182 2.81588 15.0544 2 14 2H10L9.85074 2.00549C8.81588 2.08183 8 2.94564 8 4V6H5.01169H4.99054H4L3.88338 6.00673C3.38604 6.06449 3 6.48716 3 7C3 7.55228 3.44772 8 4 8H4.07987L5.00345 19.083L5.00819 19.2507C5.09634 20.7511 6.40232 22 8 22H16L16.1763 21.9949C17.7511 21.9037 19 20.5977 19 19L19.9199 8H20L20.1166 7.99327C20.614 7.93551 21 7.51284 21 7C21 6.44772 20.5523 6 20 6H16V4L15.9945 3.85074ZM14 6V4H10V6H14ZM9 8H6.08649L7 19C7 19.5128 7.38604 19.9355 7.88338 19.9933L8 20H16C16.5155 20 16.9398 19.61 16.9969 19.0414L17.0035 18.917L17.9132 8H15H9ZM10 10C10.5128 10 10.9355 10.386 10.9933 10.8834L11 11V17C11 17.5523 10.5523 18 10 18C9.48716 18 9.06449 17.614 9.00673 17.1166L9 17V11C9 10.4477 9.44772 10 10 10ZM14.9933 10.8834C14.9355 10.386 14.5128 10 14 10C13.4477 10 13 10.4477 13 11V17L13.0067 17.1166C13.0645 17.614 13.4872 18 14 18C14.5523 18 15 17.5523 15 17V11L14.9933 10.8834Z"></path>
</symbol>
<symbol viewBox="0 0 24 24" id="user">
<path fill-rule="evenodd" clip-rule="evenodd" d="M9 16C7.34315 16 6 17.3431 6 19C6 19.5523 6.44772 20 7 20H17C17.5523 20 18 19.5523 18 19C18 17.3431 16.6569 16 15 16H9ZM4 19C4 16.2386 6.23858 14 9 14H15C17.7614 14 20 16.2386 20 19C20 20.6569 18.6569 22 17 22H7C5.34315 22 4 20.6569 4 19Z"></path>
<path fill-rule="evenodd" clip-rule="evenodd" d="M12 4C10.3431 4 9 5.34315 9 7C9 8.65685 10.3431 10 12 10C13.6569 10 15 8.65685 15 7C15 5.34315 13.6569 4 12 4ZM7 7C7 4.23858 9.23858 2 12 2C14.7614 2 17 4.23858 17 7C17 9.76142 14.7614 12 12 12C9.23858 12 7 9.76142 7 7Z"></path>
</symbol>
<symbol viewBox="0 0 20 20" id="x">
<path d="M15.7508 0.960938H18.8175L12.1175 8.61927L20 19.0384H13.8283L8.995 12.7184L3.46333 19.0384H0.395L7.56167 10.8468L0 0.961771H6.32833L10.6975 6.73844L15.7508 0.960938ZM14.675 17.2034H16.3742L5.405 2.7001H3.58167L14.675 17.2034Z"></path>
</symbol>
<symbol viewBox="0 0 24 24" id="youtube">
<path d="M12.244 4C12.778 4.003 14.114 4.016 15.534 4.073L16.038 4.095C17.467 4.162 18.895 4.278 19.604 4.475C20.549 4.741 21.291 5.515 21.542 6.497C21.942 8.057 21.992 11.099 21.998 11.836L21.999 11.988V12.162C21.992 12.899 21.942 15.942 21.542 17.501C21.288 18.486 20.545 19.261 19.604 19.523C18.895 19.72 17.467 19.836 16.038 19.903L15.534 19.926C14.114 19.982 12.778 19.996 12.244 19.998L12.009 19.999H11.754C10.624 19.992 5.898 19.941 4.394 19.523C3.45 19.257 2.707 18.483 2.456 17.501C2.056 15.941 2.006 12.899 2 12.162V11.836C2.006 11.099 2.056 8.056 2.456 6.497C2.71 5.512 3.453 4.737 4.395 4.476C5.898 4.057 10.625 4.006 11.755 4H12.244ZM9.999 8.5V15.5L15.999 12L9.999 8.5Z"></path>
</symbol>
</defs>
</svg>
