<?xml version="1.0" encoding="UTF-8"?>
<!-- This file is generated by npm run build:icons -->
<svg xmlns="http://www.w3.org/2000/svg" xmlns:xlink="http://www.w3.org/1999/xlink" width="0" height="0">
<defs>
<symbol viewBox="0 0 24 24" id="arrowUpRight">
<path fill-rule="evenodd" clip-rule="evenodd" d="M6.30097 17.7105C6.48079 17.8902 6.74054 18 7.01028 18L6.99929 17.988C7.25903 17.988 7.51878 17.8782 7.70859 17.6985L7.70959 17.6995L16.0029 9.41196V16.0033C16.0029 16.5524 16.4425 17.0016 17.002 17.0016C17.5514 17.0016 18.001 16.5524 18.001 16.0033V7.01835C18.001 6.79086 17.9266 6.58321 17.8012 6.41692C17.771 6.37556 17.7372 6.33599 17.6998 6.29862C17.4485 6.04806 17.1062 5.95511 16.7898 6.02002H8.01074C7.45129 6.02002 7.01172 6.45928 7.01172 7.01835C7.01172 7.56742 7.45129 8.01667 8.01074 8.01667H14.563L6.29098 16.2829V16.2929C5.90136 16.6822 5.90136 17.3211 6.30097 17.7105Z"></path>
</symbol>
<symbol viewBox="0 0 24 24" id="chevronDown">
<path fill-rule="evenodd" clip-rule="evenodd" d="M5.29289 8.29289C5.65338 7.93241 6.22061 7.90468 6.6129 8.2097L6.70711 8.29289L12 13.585L17.2929 8.29289C17.6534 7.93241 18.2206 7.90468 18.6129 8.2097L18.7071 8.29289C19.0676 8.65338 19.0953 9.22061 18.7903 9.6129L18.7071 9.70711L12.7071 15.7071C12.3466 16.0676 11.7794 16.0953 11.3871 15.7903L11.2929 15.7071L5.29289 9.70711C4.90237 9.31658 4.90237 8.68342 5.29289 8.29289Z"></path>
</symbol>
<symbol viewBox="0 0 24 25" id="clipboard">
<g style="mix-blend-mode:screen">
<path fill-rule="evenodd" clip-rule="evenodd" d="M13 2.5H11C9.69378 2.5 8.58254 3.33481 8.17071 4.5H7L6.82373 4.50509C5.24892 4.59634 4 5.90232 4 7.5V19.5L4.00509 19.6763C4.09634 21.2511 5.40232 22.5 7 22.5H17L17.1763 22.4949C18.7511 22.4037 20 21.0977 20 19.5V7.5L19.9949 7.32373C19.9037 5.74892 18.5977 4.5 17 4.5H15.8293C15.4175 3.33481 14.3062 2.5 13 2.5ZM15.8293 6.5H17L17.1166 6.50673C17.614 6.56449 18 6.98716 18 7.5V19.5L17.9933 19.6166C17.9355 20.114 17.5128 20.5 17 20.5H7L6.88338 20.4933C6.38604 20.4355 6 20.0128 6 19.5V7.5L6.00673 7.38338C6.06449 6.88604 6.48716 6.5 7 6.5H8.17071C8.58254 7.66519 9.69378 8.5 11 8.5H13C14.3062 8.5 15.4175 7.66519 15.8293 6.5ZM10 5.5C10 6.05228 10.4477 6.5 11 6.5H13C13.5523 6.5 14 6.05228 14 5.5C14 4.94772 13.5523 4.5 13 4.5H11C10.4477 4.5 10 4.94772 10 5.5Z"></path>
</g>
</symbol>
<symbol viewBox="0 0 24 24" id="discord">
<path d="M19.27 5.33005C17.94 4.71005 16.5 4.26005 15 4.00005C14.9868 3.99963 14.9738 4.00209 14.9617 4.00728C14.9496 4.01246 14.9388 4.02023 14.93 4.03005C14.75 4.36005 14.54 4.79005 14.4 5.12005C12.809 4.88005 11.191 4.88005 9.6 5.12005C9.46 4.78005 9.25 4.36005 9.06 4.03005C9.05 4.01005 9.02 4.00005 8.99 4.00005C7.49 4.26005 6.06 4.71005 4.72 5.33005C4.71 5.33005 4.7 5.34005 4.69 5.35005C1.97 9.42005 1.22 13.38 1.59 17.3C1.59 17.32 1.6 17.34 1.62 17.35C3.42 18.67 5.15 19.47 6.86 20C6.89 20.01 6.91999 20 6.93 19.98C7.33 19.43 7.69 18.85 8 18.24C8.02 18.2 8 18.16 7.96 18.15C7.39 17.93 6.85 17.67 6.32 17.37C6.28 17.35 6.27999 17.29 6.31 17.26C6.42 17.18 6.52999 17.09 6.64 17.01C6.66 16.99 6.69 16.99 6.71 17C10.15 18.57 13.86 18.57 17.26 17C17.28 16.99 17.31 16.99 17.33 17.01C17.44 17.1 17.55 17.18 17.66 17.27C17.7 17.3 17.7 17.36 17.65 17.38C17.13 17.69 16.58 17.94 16.01 18.16C15.97 18.17 15.96 18.22 15.97 18.25C16.29 18.86 16.65 19.44 17.04 19.99C17.07 20 17.1 20.01 17.13 20C18.85 19.47 20.58 18.67 22.38 17.35C22.4 17.34 22.41 17.32 22.41 17.3C22.85 12.77 21.68 8.84005 19.31 5.35005C19.3 5.34005 19.29 5.33005 19.27 5.33005ZM8.52 14.91C7.49 14.91 6.63 13.96 6.63 12.79C6.63 11.62 7.47 10.67 8.52 10.67C9.58 10.67 10.42 11.63 10.41 12.79C10.41 13.96 9.57 14.91 8.52 14.91ZM15.49 14.91C14.46 14.91 13.6 13.96 13.6 12.79C13.6 11.62 14.44 10.67 15.49 10.67C16.55 10.67 17.39 11.63 17.38 12.79C17.38 13.96 16.55 14.91 15.49 14.91Z"></path>
</symbol>
<symbol viewBox="0 0 20 20" id="discourse">
<g clip-path="url(#clip0_27_327)">
<path d="M10.0858 0C15.555 0 20 4.57083 20 9.9975C20 15.4225 15.5583 19.9892 10.0833 19.9892L0 20V9.825C0 4.4 4.61 0 10.0858 0ZM10.1825 3.8025C9.12053 3.80134 8.07629 4.07464 7.15105 4.59588C6.2258 5.11713 5.45096 5.86863 4.90167 6.7775C4.3569 7.68207 4.05883 8.71366 4.03719 9.76938C4.01555 10.8251 4.27109 11.868 4.77833 12.7942L3.66667 16.3417L7.66167 15.4467C8.77956 15.9462 10.0205 16.1028 11.2275 15.8966C12.4344 15.6904 13.553 15.1307 14.4417 14.2883C15.3254 13.4521 15.9363 12.3687 16.1945 11.1798C16.4528 9.99085 16.3464 8.75166 15.8892 7.62417C15.4267 6.49266 14.6374 5.52475 13.6221 4.84414C12.6067 4.16354 11.4115 3.80116 10.1892 3.80333L10.1825 3.8025Z"></path>
</g>
<defs>
<clipPath id="clip0_27_327">
<rect width="20" height="20" fill="white"></rect>
</clipPath>
</defs>
</symbol>
<symbol viewBox="0 0 20 20" id="doubleChevronRight">
<path fill-rule="evenodd" clip-rule="evenodd" d="M6.34408 5.17475C6.01717 4.92057 5.54448 4.94367 5.24408 5.24408L5.17475 5.32258C4.92057 5.64949 4.94367 6.12219 5.24408 6.42259L8.82083 10L5.24408 13.5774L5.17475 13.6559C4.92057 13.9828 4.94367 14.4555 5.24408 14.7559C5.56951 15.0814 6.09715 15.0814 6.42259 14.7559L10.5893 10.5893L10.6586 10.5107C10.9128 10.1838 10.8897 9.71115 10.5893 9.41074L6.42259 5.24408L6.34408 5.17475ZM11.3441 5.17475C11.0172 4.92057 10.5445 4.94367 10.2441 5.24408L10.1748 5.32258C9.92057 5.64949 9.94367 6.12219 10.2441 6.42259L13.8208 10L10.2441 13.5774L10.1748 13.6559C9.92057 13.9828 9.94367 14.4555 10.2441 14.7559C10.5695 15.0814 11.0972 15.0814 11.4226 14.7559L15.5893 10.5893L15.6586 10.5107C15.9128 10.1838 15.8897 9.71115 15.5893 9.41074L11.4226 5.24408L11.3441 5.17475Z"></path>
</symbol>
<symbol viewBox="0 0 24 24" id="github">
<path d="M12.001 2C6.47598 2 2.00098 6.475 2.00098 12C1.99977 14.0992 2.65958 16.1454 3.88679 17.8484C5.114 19.5515 6.84631 20.8249 8.83798 21.488C9.33798 21.575 9.52598 21.275 9.52598 21.012C9.52598 20.775 9.51298 19.988 9.51298 19.15C7.00098 19.613 6.35098 18.538 6.15098 17.975C6.03798 17.687 5.55098 16.8 5.12598 16.562C4.77598 16.375 4.27598 15.912 5.11298 15.9C5.90098 15.887 6.46298 16.625 6.65098 16.925C7.55098 18.437 8.98798 18.012 9.56298 17.75C9.65098 17.1 9.91298 16.663 10.201 16.413C7.97598 16.163 5.65098 15.3 5.65098 11.475C5.65098 10.387 6.03798 9.488 6.67598 8.788C6.57598 8.538 6.22598 7.513 6.77598 6.138C6.77598 6.138 7.61298 5.875 9.52598 7.162C10.3401 6.9364 11.1812 6.82302 12.026 6.825C12.876 6.825 13.726 6.937 14.526 7.162C16.439 5.862 17.276 6.138 17.276 6.138C17.826 7.513 17.476 8.538 17.376 8.788C18.013 9.488 18.401 10.375 18.401 11.475C18.401 15.313 16.064 16.163 13.839 16.413C14.201 16.725 14.514 17.325 14.514 18.263C14.514 19.6 14.501 20.675 14.501 21.013C14.501 21.275 14.689 21.587 15.189 21.487C17.1738 20.8166 18.8985 19.5408 20.1203 17.8389C21.3421 16.1371 21.9995 14.095 22 12C22 6.475 17.525 2 12 2"></path>
</symbol>
<symbol viewBox="0 0 20 20" id="x">
<g clip-path="url(#clip0_27_331)">
<path d="M15.7508 0.960938H18.8175L12.1175 8.61927L20 19.0384H13.8283L8.995 12.7184L3.46333 19.0384H0.395L7.56167 10.8468L0 0.961771H6.32833L10.6975 6.73844L15.7508 0.960938ZM14.675 17.2034H16.3742L5.405 2.7001H3.58167L14.675 17.2034Z"></path>
</g>
<defs>
<clipPath id="clip0_27_331">
<rect width="20" height="20" fill="white"></rect>
</clipPath>
</defs>
</symbol>
<symbol viewBox="0 0 24 24" id="youtube">
<path d="M12.244 4C12.778 4.003 14.114 4.016 15.534 4.073L16.038 4.095C17.467 4.162 18.895 4.278 19.604 4.475C20.549 4.741 21.291 5.515 21.542 6.497C21.942 8.057 21.992 11.099 21.998 11.836L21.999 11.988V12.162C21.992 12.899 21.942 15.942 21.542 17.501C21.288 18.486 20.545 19.261 19.604 19.523C18.895 19.72 17.467 19.836 16.038 19.903L15.534 19.926C14.114 19.982 12.778 19.996 12.244 19.998L12.009 19.999H11.754C10.624 19.992 5.898 19.941 4.394 19.523C3.45 19.257 2.707 18.483 2.456 17.501C2.056 15.941 2.006 12.899 2 12.162V11.836C2.006 11.099 2.056 8.056 2.456 6.497C2.71 5.512 3.453 4.737 4.395 4.476C5.898 4.057 10.625 4.006 11.755 4H12.244ZM9.999 8.5V15.5L15.999 12L9.999 8.5Z"></path>
</symbol>
</defs>
</svg>
