<?xml version="1.0" encoding="UTF-8"?>
<!-- This file is generated by npm run build:icons -->
<svg xmlns="http://www.w3.org/2000/svg" xmlns:xlink="http://www.w3.org/1999/xlink" width="0" height="0">
<defs>
<symbol viewBox="0 0 24 24" id="arrowUpRight">
<path fill-rule="evenodd" clip-rule="evenodd" d="M6.30097 17.7105C6.48079 17.8902 6.74054 18 7.01028 18L6.99929 17.988C7.25903 17.988 7.51878 17.8782 7.70859 17.6985L7.70959 17.6995L16.0029 9.41196V16.0033C16.0029 16.5524 16.4425 17.0016 17.002 17.0016C17.5514 17.0016 18.001 16.5524 18.001 16.0033V7.01835C18.001 6.79086 17.9266 6.58321 17.8012 6.41692C17.771 6.37556 17.7372 6.33599 17.6998 6.29862C17.4485 6.04806 17.1062 5.95511 16.7898 6.02002H8.01074C7.45129 6.02002 7.01172 6.45928 7.01172 7.01835C7.01172 7.56742 7.45129 8.01667 8.01074 8.01667H14.563L6.29098 16.2829V16.2929C5.90136 16.6822 5.90136 17.3211 6.30097 17.7105Z"></path>
</symbol>
<symbol viewBox="0 0 24 24" id="check">
<path fill-rule="evenodd" clip-rule="evenodd" d="M19.2929 6.29289C19.6834 5.90237 20.3166 5.90237 20.7071 6.29289C21.0676 6.65338 21.0953 7.22061 20.7903 7.6129L20.7071 7.70711L10.7071 17.7071C10.3466 18.0676 9.77939 18.0953 9.3871 17.7903L9.29289 17.7071L4.29289 12.7071C3.90237 12.3166 3.90237 11.6834 4.29289 11.2929C4.65338 10.9324 5.22061 10.9047 5.6129 11.2097L5.70711 11.2929L10 15.585L19.2929 6.29289Z"></path>
</symbol>
<symbol viewBox="0 0 24 24" id="chevronDown">
<path fill-rule="evenodd" clip-rule="evenodd" d="M5.29289 8.29289C5.65338 7.93241 6.22061 7.90468 6.6129 8.2097L6.70711 8.29289L12 13.585L17.2929 8.29289C17.6534 7.93241 18.2206 7.90468 18.6129 8.2097L18.7071 8.29289C19.0676 8.65338 19.0953 9.22061 18.7903 9.6129L18.7071 9.70711L12.7071 15.7071C12.3466 16.0676 11.7794 16.0953 11.3871 15.7903L11.2929 15.7071L5.29289 9.70711C4.90237 9.31658 4.90237 8.68342 5.29289 8.29289Z"></path>
</symbol>
<symbol viewBox="0 0 24 25" id="clipboard">
<path fill-rule="evenodd" clip-rule="evenodd" d="M13 2.5H11C9.69378 2.5 8.58254 3.33481 8.17071 4.5H7L6.82373 4.50509C5.24892 4.59634 4 5.90232 4 7.5V19.5L4.00509 19.6763C4.09634 21.2511 5.40232 22.5 7 22.5H17L17.1763 22.4949C18.7511 22.4037 20 21.0977 20 19.5V7.5L19.9949 7.32373C19.9037 5.74892 18.5977 4.5 17 4.5H15.8293C15.4175 3.33481 14.3062 2.5 13 2.5ZM15.8293 6.5H17L17.1166 6.50673C17.614 6.56449 18 6.98716 18 7.5V19.5L17.9933 19.6166C17.9355 20.114 17.5128 20.5 17 20.5H7L6.88338 20.4933C6.38604 20.4355 6 20.0128 6 19.5V7.5L6.00673 7.38338C6.06449 6.88604 6.48716 6.5 7 6.5H8.17071C8.58254 7.66519 9.69378 8.5 11 8.5H13C14.3062 8.5 15.4175 7.66519 15.8293 6.5ZM10 5.5C10 6.05228 10.4477 6.5 11 6.5H13C13.5523 6.5 14 6.05228 14 5.5C14 4.94772 13.5523 4.5 13 4.5H11C10.4477 4.5 10 4.94772 10 5.5Z"></path>
</symbol>
<symbol viewBox="0 0 24 24" id="discord">
<path d="M20.307 4.52009C18.787 3.8115 17.1412 3.2972 15.4269 3.00005C15.4119 2.99957 15.3969 3.00239 15.3831 3.00832C15.3693 3.01424 15.3569 3.02312 15.3469 3.03434C15.1412 3.41149 14.9012 3.90293 14.7412 4.28009C12.9228 4.00579 11.0736 4.00579 9.2553 4.28009C9.0953 3.89151 8.85529 3.41149 8.63814 3.03434C8.62671 3.01148 8.59242 3.00005 8.55814 3.00005C6.8438 3.2972 5.20947 3.8115 3.678 4.52009C3.66657 4.52009 3.65515 4.53152 3.64372 4.54295C0.53506 9.19451 -0.322107 13.7203 0.100762 18.2005C0.100762 18.2233 0.112191 18.2462 0.135048 18.2576C2.19225 19.7662 4.16945 20.6805 6.12378 21.2863C6.15807 21.2977 6.19236 21.2863 6.20379 21.2634C6.66094 20.6348 7.07238 19.9719 7.42668 19.2748C7.44954 19.2291 7.42668 19.1834 7.38096 19.1719C6.72952 18.9205 6.11236 18.6233 5.50662 18.2805C5.46091 18.2576 5.46091 18.189 5.4952 18.1548C5.62091 18.0633 5.74663 17.9605 5.87235 17.869C5.89521 17.8462 5.92949 17.8462 5.95235 17.8576C9.88389 19.6519 14.124 19.6519 18.0098 17.8576C18.0327 17.8462 18.067 17.8462 18.0898 17.869C18.2155 17.9719 18.3413 18.0633 18.467 18.1662C18.5127 18.2005 18.5127 18.269 18.4556 18.2919C17.8612 18.6462 17.2327 18.9319 16.5812 19.1834C16.5355 19.1948 16.5241 19.2519 16.5355 19.2862C16.9012 19.9834 17.3127 20.6462 17.7584 21.2748C17.7927 21.2863 17.827 21.2977 17.8612 21.2863C19.827 20.6805 21.8042 19.7662 23.8614 18.2576C23.8843 18.2462 23.8957 18.2233 23.8957 18.2005C24.3986 13.0232 23.0614 8.53163 20.3527 4.54295C20.3413 4.53152 20.3299 4.52009 20.307 4.52009ZM8.02098 15.469C6.8438 15.469 5.86092 14.3832 5.86092 13.046C5.86092 11.7089 6.82095 10.6231 8.02098 10.6231C9.23244 10.6231 10.1925 11.7203 10.181 13.046C10.181 14.3832 9.22101 15.469 8.02098 15.469ZM15.9869 15.469C14.8097 15.469 13.8269 14.3832 13.8269 13.046C13.8269 11.7089 14.7869 10.6231 15.9869 10.6231C17.1984 10.6231 18.1584 11.7203 18.147 13.046C18.147 14.3832 17.1984 15.469 15.9869 15.469Z"></path>
</symbol>
<symbol viewBox="0 0 20 20" id="discourse">
<path d="M10.0858 0C15.555 0 20 4.57083 20 9.9975C20 15.4225 15.5583 19.9892 10.0833 19.9892L0 20V9.825C0 4.4 4.61 0 10.0858 0ZM10.1825 3.8025C9.12053 3.80134 8.07629 4.07464 7.15105 4.59588C6.2258 5.11713 5.45096 5.86863 4.90167 6.7775C4.3569 7.68207 4.05883 8.71366 4.03719 9.76938C4.01555 10.8251 4.27109 11.868 4.77833 12.7942L3.66667 16.3417L7.66167 15.4467C8.77956 15.9462 10.0205 16.1028 11.2275 15.8966C12.4344 15.6904 13.553 15.1307 14.4417 14.2883C15.3254 13.4521 15.9363 12.3687 16.1945 11.1798C16.4528 9.99085 16.3464 8.75166 15.8892 7.62417C15.4267 6.49266 14.6374 5.52475 13.6221 4.84414C12.6067 4.16354 11.4115 3.80116 10.1892 3.80333L10.1825 3.8025Z"></path>
</symbol>
<symbol viewBox="0 0 20 20" id="doubleChevronRight">
<path fill-rule="evenodd" clip-rule="evenodd" d="M6.34408 5.17475C6.01717 4.92057 5.54448 4.94367 5.24408 5.24408L5.17475 5.32258C4.92057 5.64949 4.94367 6.12219 5.24408 6.42259L8.82083 10L5.24408 13.5774L5.17475 13.6559C4.92057 13.9828 4.94367 14.4555 5.24408 14.7559C5.56951 15.0814 6.09715 15.0814 6.42259 14.7559L10.5893 10.5893L10.6586 10.5107C10.9128 10.1838 10.8897 9.71115 10.5893 9.41074L6.42259 5.24408L6.34408 5.17475ZM11.3441 5.17475C11.0172 4.92057 10.5445 4.94367 10.2441 5.24408L10.1748 5.32258C9.92057 5.64949 9.94367 6.12219 10.2441 6.42259L13.8208 10L10.2441 13.5774L10.1748 13.6559C9.92057 13.9828 9.94367 14.4555 10.2441 14.7559C10.5695 15.0814 11.0972 15.0814 11.4226 14.7559L15.5893 10.5893L15.6586 10.5107C15.9128 10.1838 15.8897 9.71115 15.5893 9.41074L11.4226 5.24408L11.3441 5.17475Z"></path>
</symbol>
<symbol viewBox="0 0 24 24" id="github">
<path d="M12.001 2C6.47598 2 2.00098 6.475 2.00098 12C1.99977 14.0992 2.65958 16.1454 3.88679 17.8484C5.114 19.5515 6.84631 20.8249 8.83798 21.488C9.33798 21.575 9.52598 21.275 9.52598 21.012C9.52598 20.775 9.51298 19.988 9.51298 19.15C7.00098 19.613 6.35098 18.538 6.15098 17.975C6.03798 17.687 5.55098 16.8 5.12598 16.562C4.77598 16.375 4.27598 15.912 5.11298 15.9C5.90098 15.887 6.46298 16.625 6.65098 16.925C7.55098 18.437 8.98798 18.012 9.56298 17.75C9.65098 17.1 9.91298 16.663 10.201 16.413C7.97598 16.163 5.65098 15.3 5.65098 11.475C5.65098 10.387 6.03798 9.488 6.67598 8.788C6.57598 8.538 6.22598 7.513 6.77598 6.138C6.77598 6.138 7.61298 5.875 9.52598 7.162C10.3401 6.9364 11.1812 6.82302 12.026 6.825C12.876 6.825 13.726 6.937 14.526 7.162C16.439 5.862 17.276 6.138 17.276 6.138C17.826 7.513 17.476 8.538 17.376 8.788C18.013 9.488 18.401 10.375 18.401 11.475C18.401 15.313 16.064 16.163 13.839 16.413C14.201 16.725 14.514 17.325 14.514 18.263C14.514 19.6 14.501 20.675 14.501 21.013C14.501 21.275 14.689 21.587 15.189 21.487C17.1738 20.8166 18.8985 19.5408 20.1203 17.8389C21.3421 16.1371 21.9995 14.095 22 12C22 6.475 17.525 2 12 2"></path>
</symbol>
<symbol viewBox="0 0 20 20" id="x">
<path d="M15.7508 0.960938H18.8175L12.1175 8.61927L20 19.0384H13.8283L8.995 12.7184L3.46333 19.0384H0.395L7.56167 10.8468L0 0.961771H6.32833L10.6975 6.73844L15.7508 0.960938ZM14.675 17.2034H16.3742L5.405 2.7001H3.58167L14.675 17.2034Z"></path>
</symbol>
<symbol viewBox="0 0 24 24" id="youtube">
<path d="M12.244 4C12.778 4.003 14.114 4.016 15.534 4.073L16.038 4.095C17.467 4.162 18.895 4.278 19.604 4.475C20.549 4.741 21.291 5.515 21.542 6.497C21.942 8.057 21.992 11.099 21.998 11.836L21.999 11.988V12.162C21.992 12.899 21.942 15.942 21.542 17.501C21.288 18.486 20.545 19.261 19.604 19.523C18.895 19.72 17.467 19.836 16.038 19.903L15.534 19.926C14.114 19.982 12.778 19.996 12.244 19.998L12.009 19.999H11.754C10.624 19.992 5.898 19.941 4.394 19.523C3.45 19.257 2.707 18.483 2.456 17.501C2.056 15.941 2.006 12.899 2 12.162V11.836C2.006 11.099 2.056 8.056 2.456 6.497C2.71 5.512 3.453 4.737 4.395 4.476C5.898 4.057 10.625 4.006 11.755 4H12.244ZM9.999 8.5V15.5L15.999 12L9.999 8.5Z"></path>
</symbol>
</defs>
</svg>
