<?xml version="1.0" encoding="UTF-8"?>
<!-- This file is generated by npm run build:icons -->
<svg xmlns="http://www.w3.org/2000/svg" xmlns:xlink="http://www.w3.org/1999/xlink" width="0" height="0">
<defs>
<symbol viewBox="0 0 24 24" id="arrowUpRight">
<path fill-rule="evenodd" clip-rule="evenodd" d="M6.30097 17.7105C6.48079 17.8902 6.74054 18 7.01028 18L6.99929 17.988C7.25903 17.988 7.51878 17.8782 7.70859 17.6985L7.70959 17.6995L16.0029 9.41196V16.0033C16.0029 16.5524 16.4425 17.0016 17.002 17.0016C17.5514 17.0016 18.001 16.5524 18.001 16.0033V7.01835C18.001 6.79086 17.9266 6.58321 17.8012 6.41692C17.771 6.37556 17.7372 6.33599 17.6998 6.29862C17.4485 6.04806 17.1062 5.95511 16.7898 6.02002H8.01074C7.45129 6.02002 7.01172 6.45928 7.01172 7.01835C7.01172 7.56742 7.45129 8.01667 8.01074 8.01667H14.563L6.29098 16.2829V16.2929C5.90136 16.6822 5.90136 17.3211 6.30097 17.7105Z"></path>
</symbol>
<symbol viewBox="0 0 24 24" id="brand">
<path fill-rule="evenodd" clip-rule="evenodd" d="M9.5 2C5.35786 2 2 5.35786 2 9.5C2 13.4741 5.09098 16.7263 9 16.9836V19C9 20.6569 10.3431 22 12 22H19C20.6569 22 22 20.6569 22 19V12C22 10.3431 20.6569 9 19 9H16.9836C16.7263 5.09098 13.4741 2 9.5 2ZM14.9776 9C14.725 6.19675 12.369 4 9.5 4C6.46243 4 4 6.46243 4 9.5C4 12.369 6.19675 14.725 9 14.9776V12C9 10.3431 10.3431 9 12 9H14.9776ZM11 14.793V12C11 11.4477 11.4477 11 12 11H14.793C14.2749 12.8317 12.8317 14.2749 11 14.793ZM11 16.85C13.9387 16.2534 16.2534 13.9387 16.85 11H19C19.5523 11 20 11.4477 20 12V19C20 19.5523 19.5523 20 19 20H12C11.4477 20 11 19.5523 11 19V16.85Z"></path>
</symbol>
<symbol viewBox="0 0 24 24" id="check">
<path fill-rule="evenodd" clip-rule="evenodd" d="M19.2929 6.29289C19.6834 5.90237 20.3166 5.90237 20.7071 6.29289C21.0676 6.65338 21.0953 7.22061 20.7903 7.6129L20.7071 7.70711L10.7071 17.7071C10.3466 18.0676 9.77939 18.0953 9.3871 17.7903L9.29289 17.7071L4.29289 12.7071C3.90237 12.3166 3.90237 11.6834 4.29289 11.2929C4.65338 10.9324 5.22061 10.9047 5.6129 11.2097L5.70711 11.2929L10 15.585L19.2929 6.29289Z"></path>
</symbol>
<symbol viewBox="0 0 24 24" id="chevronDown">
<path fill-rule="evenodd" clip-rule="evenodd" d="M5.29289 8.29289C5.65338 7.93241 6.22061 7.90468 6.6129 8.2097L6.70711 8.29289L12 13.585L17.2929 8.29289C17.6534 7.93241 18.2206 7.90468 18.6129 8.2097L18.7071 8.29289C19.0676 8.65338 19.0953 9.22061 18.7903 9.6129L18.7071 9.70711L12.7071 15.7071C12.3466 16.0676 11.7794 16.0953 11.3871 15.7903L11.2929 15.7071L5.29289 9.70711C4.90237 9.31658 4.90237 8.68342 5.29289 8.29289Z"></path>
</symbol>
<symbol viewBox="0 0 24 25" id="clipboard">
<path fill-rule="evenodd" clip-rule="evenodd" d="M13 2.5H11C9.69378 2.5 8.58254 3.33481 8.17071 4.5H7L6.82373 4.50509C5.24892 4.59634 4 5.90232 4 7.5V19.5L4.00509 19.6763C4.09634 21.2511 5.40232 22.5 7 22.5H17L17.1763 22.4949C18.7511 22.4037 20 21.0977 20 19.5V7.5L19.9949 7.32373C19.9037 5.74892 18.5977 4.5 17 4.5H15.8293C15.4175 3.33481 14.3062 2.5 13 2.5ZM15.8293 6.5H17L17.1166 6.50673C17.614 6.56449 18 6.98716 18 7.5V19.5L17.9933 19.6166C17.9355 20.114 17.5128 20.5 17 20.5H7L6.88338 20.4933C6.38604 20.4355 6 20.0128 6 19.5V7.5L6.00673 7.38338C6.06449 6.88604 6.48716 6.5 7 6.5H8.17071C8.58254 7.66519 9.69378 8.5 11 8.5H13C14.3062 8.5 15.4175 7.66519 15.8293 6.5ZM10 5.5C10 6.05228 10.4477 6.5 11 6.5H13C13.5523 6.5 14 6.05228 14 5.5C14 4.94772 13.5523 4.5 13 4.5H11C10.4477 4.5 10 4.94772 10 5.5Z"></path>
</symbol>
<symbol viewBox="0 0 24 24" id="copy">
<path fill-rule="evenodd" clip-rule="evenodd" d="M16.9949 5.82373C16.9037 4.24892 15.5977 3 14 3H6L5.82373 3.00509C4.24892 3.09634 3 4.40232 3 6V14L3.00509 14.1763C3.09634 15.7511 4.40232 17 6 17H7V18C7 19.6569 8.34315 21 10 21H18C19.6569 21 21 19.6569 21 18V10C21 8.34315 19.6569 7 18 7H17V6L16.9949 5.82373ZM15 7V6C15 5.48716 14.614 5.06449 14.1166 5.00673L14 5H6C5.48716 5 5.06449 5.38604 5.00673 5.88338L5 6V14C5 14.5128 5.38604 14.9355 5.88338 14.9933L6 15H7V10C7 8.34315 8.34315 7 10 7H15ZM9 16V18C9 18.5523 9.44772 19 10 19H18C18.5523 19 19 18.5523 19 18V10C19 9.44772 18.5523 9 18 9H16H10C9.44772 9 9 9.44772 9 10V16Z"></path>
</symbol>
<symbol viewBox="0 0 24 24" id="dark">
<path fill-rule="evenodd" clip-rule="evenodd" d="M2.0876 10.6846C2.74355 5.71117 6.98283 1.9934 11.9993 1.99219L12.0581 1.99387L12.116 1.99889L12.3926 2.00019C13.2634 2.00019 13.7017 3.0233 13.1508 3.65297L13.0733 3.73275C10.7759 5.86749 10.3303 9.33822 12.014 11.9841C13.6976 14.6299 17.0304 15.6963 19.9373 14.5193C20.76 14.1862 21.5767 15.0103 21.236 15.83C19.3108 20.4623 14.2513 22.9514 9.4067 21.6496C4.56205 20.3478 1.43165 15.658 2.0876 10.6846ZM10.043 4.40853L10.1566 4.20719L10.0156 4.2414C6.91514 5.03476 4.50587 7.64461 4.07043 10.9461C3.54567 14.9249 6.04999 18.6767 9.92571 19.7181C13.0431 20.5558 16.2717 19.4314 18.2173 17.0308L18.2726 16.9582L18.101 16.9741C15.1431 17.1843 12.2115 15.8299 10.4766 13.2854L10.3266 13.0578C8.62531 10.3842 8.58656 7.06651 10.043 4.40853ZM17 3L17.1166 3.00673C17.5757 3.06005 17.94 3.4243 17.9933 3.88338L18 4C18 4.51284 18.386 4.93551 18.8834 4.99327L19 5C20.2874 5 20.3317 6.86445 19.1332 6.99303L19 7C18.4872 7 18.0645 7.38604 18.0067 7.88338L18 8C18 9.28736 16.1356 9.33175 16.007 8.13317L16 8C16 7.48716 15.614 7.06449 15.1166 7.00673L15 7C13.7126 7 13.6683 5.13555 14.8668 5.00697L15 5C15.5128 5 15.9355 4.61396 15.9933 4.11662L16 4C16 3.48716 16.386 3.06449 16.8834 3.00673L17 3ZM18.8834 10.0067C18.386 10.0645 18 10.4872 18 11C18 11.5523 18.4477 12 19 12L19.0067 12.1166C19.0645 12.614 19.4872 13 20 13C20.5523 13 21 12.5523 21 12L21.1166 11.9933C21.614 11.9355 22 11.5128 22 11C22 10.4477 21.5523 10 21 10L20.9933 9.88338C20.9355 9.38604 20.5128 9 20 9C19.4477 9 19 9.44772 19 10L18.8834 10.0067Z"></path>
</symbol>
<symbol viewBox="0 0 24 24" id="discord">
<path d="M20.307 4.52009C18.787 3.8115 17.1412 3.2972 15.4269 3.00005C15.4119 2.99957 15.3969 3.00239 15.3831 3.00832C15.3693 3.01424 15.3569 3.02312 15.3469 3.03434C15.1412 3.41149 14.9012 3.90293 14.7412 4.28009C12.9228 4.00579 11.0736 4.00579 9.2553 4.28009C9.0953 3.89151 8.85529 3.41149 8.63814 3.03434C8.62671 3.01148 8.59242 3.00005 8.55814 3.00005C6.8438 3.2972 5.20947 3.8115 3.678 4.52009C3.66657 4.52009 3.65515 4.53152 3.64372 4.54295C0.53506 9.19451 -0.322107 13.7203 0.100762 18.2005C0.100762 18.2233 0.112191 18.2462 0.135048 18.2576C2.19225 19.7662 4.16945 20.6805 6.12378 21.2863C6.15807 21.2977 6.19236 21.2863 6.20379 21.2634C6.66094 20.6348 7.07238 19.9719 7.42668 19.2748C7.44954 19.2291 7.42668 19.1834 7.38096 19.1719C6.72952 18.9205 6.11236 18.6233 5.50662 18.2805C5.46091 18.2576 5.46091 18.189 5.4952 18.1548C5.62091 18.0633 5.74663 17.9605 5.87235 17.869C5.89521 17.8462 5.92949 17.8462 5.95235 17.8576C9.88389 19.6519 14.124 19.6519 18.0098 17.8576C18.0327 17.8462 18.067 17.8462 18.0898 17.869C18.2155 17.9719 18.3413 18.0633 18.467 18.1662C18.5127 18.2005 18.5127 18.269 18.4556 18.2919C17.8612 18.6462 17.2327 18.9319 16.5812 19.1834C16.5355 19.1948 16.5241 19.2519 16.5355 19.2862C16.9012 19.9834 17.3127 20.6462 17.7584 21.2748C17.7927 21.2863 17.827 21.2977 17.8612 21.2863C19.827 20.6805 21.8042 19.7662 23.8614 18.2576C23.8843 18.2462 23.8957 18.2233 23.8957 18.2005C24.3986 13.0232 23.0614 8.53163 20.3527 4.54295C20.3413 4.53152 20.3299 4.52009 20.307 4.52009ZM8.02098 15.469C6.8438 15.469 5.86092 14.3832 5.86092 13.046C5.86092 11.7089 6.82095 10.6231 8.02098 10.6231C9.23244 10.6231 10.1925 11.7203 10.181 13.046C10.181 14.3832 9.22101 15.469 8.02098 15.469ZM15.9869 15.469C14.8097 15.469 13.8269 14.3832 13.8269 13.046C13.8269 11.7089 14.7869 10.6231 15.9869 10.6231C17.1984 10.6231 18.1584 11.7203 18.147 13.046C18.147 14.3832 17.1984 15.469 15.9869 15.469Z"></path>
</symbol>
<symbol viewBox="0 0 20 20" id="discourse">
<path d="M10.0858 0C15.555 0 20 4.57083 20 9.9975C20 15.4225 15.5583 19.9892 10.0833 19.9892L0 20V9.825C0 4.4 4.61 0 10.0858 0ZM10.1825 3.8025C9.12053 3.80134 8.07629 4.07464 7.15105 4.59588C6.2258 5.11713 5.45096 5.86863 4.90167 6.7775C4.3569 7.68207 4.05883 8.71366 4.03719 9.76938C4.01555 10.8251 4.27109 11.868 4.77833 12.7942L3.66667 16.3417L7.66167 15.4467C8.77956 15.9462 10.0205 16.1028 11.2275 15.8966C12.4344 15.6904 13.553 15.1307 14.4417 14.2883C15.3254 13.4521 15.9363 12.3687 16.1945 11.1798C16.4528 9.99085 16.3464 8.75166 15.8892 7.62417C15.4267 6.49266 14.6374 5.52475 13.6221 4.84414C12.6067 4.16354 11.4115 3.80116 10.1892 3.80333L10.1825 3.8025Z"></path>
</symbol>
<symbol viewBox="0 0 20 20" id="doubleChevronRight">
<path fill-rule="evenodd" clip-rule="evenodd" d="M6.34408 5.17475C6.01717 4.92057 5.54448 4.94367 5.24408 5.24408L5.17475 5.32258C4.92057 5.64949 4.94367 6.12219 5.24408 6.42259L8.82083 10L5.24408 13.5774L5.17475 13.6559C4.92057 13.9828 4.94367 14.4555 5.24408 14.7559C5.56951 15.0814 6.09715 15.0814 6.42259 14.7559L10.5893 10.5893L10.6586 10.5107C10.9128 10.1838 10.8897 9.71115 10.5893 9.41074L6.42259 5.24408L6.34408 5.17475ZM11.3441 5.17475C11.0172 4.92057 10.5445 4.94367 10.2441 5.24408L10.1748 5.32258C9.92057 5.64949 9.94367 6.12219 10.2441 6.42259L13.8208 10L10.2441 13.5774L10.1748 13.6559C9.92057 13.9828 9.94367 14.4555 10.2441 14.7559C10.5695 15.0814 11.0972 15.0814 11.4226 14.7559L15.5893 10.5893L15.6586 10.5107C15.9128 10.1838 15.8897 9.71115 15.5893 9.41074L11.4226 5.24408L11.3441 5.17475Z"></path>
</symbol>
<symbol viewBox="0 0 24 24" id="download">
<path fill-rule="evenodd" clip-rule="evenodd" d="M11.559 16.899C11.6914 16.9637 11.8409 17 12 17C12.2209 17 12.4257 16.9274 12.5916 16.8049C12.6335 16.7754 12.6732 16.743 12.7102 16.7079L17.7102 11.7079C18.1002 11.3079 18.1002 10.6779 17.7102 10.2879C17.3102 9.8889 16.6802 9.88889 16.2902 10.2889L13 13.5868V4C13 3.44 12.55 3 12 3C11.44 3 11 3.44 11 4V13.5863L7.71023 10.2889C7.31023 9.88989 6.68023 9.88989 6.29023 10.2899C5.89023 10.6799 5.89023 11.3099 6.29023 11.7099L11.2902 16.7099C11.3671 16.7867 11.4585 16.8508 11.559 16.899ZM21 19C21 20.65 19.65 22 18 22H6C4.34 22 3 20.65 3 19V17C3 16.44 3.44 16 4 16C4.55 16 5 16.44 5 17V19C5 19.55 5.44 20 6 20H18C18.55 20 19 19.55 19 19V17C19 16.44 19.44 16 20 16C20.55 16 21 16.44 21 17V19Z"></path>
</symbol>
<symbol viewBox="0 0 24 24" id="github">
<path d="M12.001 2C6.47598 2 2.00098 6.475 2.00098 12C1.99977 14.0992 2.65958 16.1454 3.88679 17.8484C5.114 19.5515 6.84631 20.8249 8.83798 21.488C9.33798 21.575 9.52598 21.275 9.52598 21.012C9.52598 20.775 9.51298 19.988 9.51298 19.15C7.00098 19.613 6.35098 18.538 6.15098 17.975C6.03798 17.687 5.55098 16.8 5.12598 16.562C4.77598 16.375 4.27598 15.912 5.11298 15.9C5.90098 15.887 6.46298 16.625 6.65098 16.925C7.55098 18.437 8.98798 18.012 9.56298 17.75C9.65098 17.1 9.91298 16.663 10.201 16.413C7.97598 16.163 5.65098 15.3 5.65098 11.475C5.65098 10.387 6.03798 9.488 6.67598 8.788C6.57598 8.538 6.22598 7.513 6.77598 6.138C6.77598 6.138 7.61298 5.875 9.52598 7.162C10.3401 6.9364 11.1812 6.82302 12.026 6.825C12.876 6.825 13.726 6.937 14.526 7.162C16.439 5.862 17.276 6.138 17.276 6.138C17.826 7.513 17.476 8.538 17.376 8.788C18.013 9.488 18.401 10.375 18.401 11.475C18.401 15.313 16.064 16.163 13.839 16.413C14.201 16.725 14.514 17.325 14.514 18.263C14.514 19.6 14.501 20.675 14.501 21.013C14.501 21.275 14.689 21.587 15.189 21.487C17.1738 20.8166 18.8985 19.5408 20.1203 17.8389C21.3421 16.1371 21.9995 14.095 22 12C22 6.475 17.525 2 12 2"></path>
</symbol>
<symbol viewBox="0 0 24 24" id="light">
<path fill-rule="evenodd" clip-rule="evenodd" d="M12 15C13.6569 15 15 13.6569 15 12C15 10.3431 13.6569 9 12 9C10.3431 9 9 10.3431 9 12C9 13.6569 10.3431 15 12 15ZM12 17C14.7614 17 17 14.7614 17 12C17 9.23858 14.7614 7 12 7C9.23858 7 7 9.23858 7 12C7 14.7614 9.23858 17 12 17Z"></path>
<path d="M11 3C11 2.44772 11.4477 2 12 2C12.5523 2 13 2.44772 13 3V4C13 4.55228 12.5523 5 12 5C11.4477 5 11 4.55228 11 4V3Z"></path>
<path d="M5.636 7.05086C6.02653 7.44138 6.65969 7.44138 7.05022 7.05086C7.44074 6.66033 7.44074 6.02717 7.05022 5.63664L6.34311 4.92954C5.95259 4.53901 5.31942 4.53901 4.9289 4.92954C4.53837 5.32006 4.53837 5.95323 4.9289 6.34375L5.636 7.05086Z"></path>
<path d="M19.0711 4.92976C18.6806 4.53924 18.0474 4.53924 17.6569 4.92976L16.9498 5.63687C16.5593 6.02739 16.5593 6.66056 16.9498 7.05108C17.3403 7.44161 17.9735 7.44161 18.364 7.05108L19.0711 6.34398C19.4616 5.95345 19.4616 5.32029 19.0711 4.92976Z"></path>
<path d="M7.05037 16.9493C6.65984 16.5588 6.02668 16.5588 5.63615 16.9493L4.92905 17.6564C4.53852 18.0469 4.53852 18.6801 4.92905 19.0706C5.31957 19.4611 5.95274 19.4611 6.34326 19.0706L7.05037 18.3635C7.44089 17.973 7.44089 17.3398 7.05037 16.9493Z"></path>
<path d="M19.071 19.0704C18.6804 19.4609 18.0473 19.4609 17.6568 19.0704L16.9496 18.3633C16.5591 17.9728 16.5591 17.3396 16.9496 16.9491C17.3402 16.5585 17.9733 16.5585 18.3639 16.9491L19.071 17.6562C19.4615 18.0467 19.4615 18.6799 19.071 19.0704Z"></path>
<path d="M12 19C11.4477 19 11 19.4477 11 20V21C11 21.5523 11.4477 22 12 22C12.5523 22 13 21.5523 13 21V20C13 19.4477 12.5523 19 12 19Z"></path>
<path d="M21 11C21.5523 11 22 11.4477 22 12C22 12.5523 21.5523 13 21 13H20C19.4477 13 19 12.5523 19 12C19 11.4477 19.4477 11 20 11H21Z"></path>
<path d="M5 12C5 11.4477 4.55228 11 4 11H3C2.44772 11 2 11.4477 2 12C2 12.5523 2.44772 13 3 13H4C4.55228 13 5 12.5523 5 12Z"></path>
</symbol>
<symbol viewBox="0 0 24 24" id="star">
<path d="M8.24295 7.33995L1.86352 8.26529L1.74968 8.2882C1.01366 8.47934 0.743465 9.4206 1.30944 9.97153L5.93195 14.471L4.84235 20.8259L4.82932 20.936C4.77991 21.6974 5.59302 22.2483 6.29332 21.8801L11.999 18.88L17.6918 21.8796L17.7925 21.9262C18.5014 22.2092 19.2774 21.6061 19.1436 20.8259L18.053 14.471L22.6765 9.97153L22.7551 9.8861C23.2384 9.299 22.9041 8.37858 22.1224 8.26529L15.742 7.33995L12.8897 1.55939C12.5229 0.81614 11.463 0.81614 11.0962 1.55939L8.24295 7.33995Z"></path>
</symbol>
<symbol viewBox="0 0 24 24" id="system">
<path fill-rule="evenodd" clip-rule="evenodd" d="M20 3H4C2.89543 3 2 3.89543 2 5V15C2 16.1046 2.89543 17 4 17H8V19H7L6.88338 19.0067C6.38604 19.0645 6 19.4872 6 20C6 20.5523 6.44772 21 7 21H9H15H17L17.1166 20.9933C17.614 20.9355 18 20.5128 18 20C18 19.4477 17.5523 19 17 19H16V17H20C21.1046 17 22 16.1046 22 15V5C22 3.89543 21.1046 3 20 3ZM15 15H20V5H4V15H9H15ZM14 17V19H10V17H14Z"></path>
</symbol>
<symbol viewBox="0 0 20 20" id="x">
<path d="M15.7508 0.960938H18.8175L12.1175 8.61927L20 19.0384H13.8283L8.995 12.7184L3.46333 19.0384H0.395L7.56167 10.8468L0 0.961771H6.32833L10.6975 6.73844L15.7508 0.960938ZM14.675 17.2034H16.3742L5.405 2.7001H3.58167L14.675 17.2034Z"></path>
</symbol>
<symbol viewBox="0 0 24 24" id="youtube">
<path d="M12.244 4C12.778 4.003 14.114 4.016 15.534 4.073L16.038 4.095C17.467 4.162 18.895 4.278 19.604 4.475C20.549 4.741 21.291 5.515 21.542 6.497C21.942 8.057 21.992 11.099 21.998 11.836L21.999 11.988V12.162C21.992 12.899 21.942 15.942 21.542 17.501C21.288 18.486 20.545 19.261 19.604 19.523C18.895 19.72 17.467 19.836 16.038 19.903L15.534 19.926C14.114 19.982 12.778 19.996 12.244 19.998L12.009 19.999H11.754C10.624 19.992 5.898 19.941 4.394 19.523C3.45 19.257 2.707 18.483 2.456 17.501C2.056 15.941 2.006 12.899 2 12.162V11.836C2.006 11.099 2.056 8.056 2.456 6.497C2.71 5.512 3.453 4.737 4.395 4.476C5.898 4.057 10.625 4.006 11.755 4H12.244ZM9.999 8.5V15.5L15.999 12L9.999 8.5Z"></path>
</symbol>
</defs>
</svg>
