<svg fill="none" height="553" viewBox="0 0 2821 553" width="2821" xmlns="http://www.w3.org/2000/svg"><g fill="#000"><path d="m85.4292 205.654h27.5578c27.007 0 46.94-4.521 59.8-13.563s19.291-23.25 19.291-42.625c0-19.191-6.614-32.846-19.842-40.965-13.044-8.119-33.345-12.1786-60.903-12.1786h-25.9038zm0 69.75v155.279h-85.4292v-404.6649h117.396c54.748 0 95.258 10.0567 121.53 30.1701 26.272 19.9286 39.408 50.2828 39.408 91.0628 0 23.804-6.522 45.025-19.566 63.662-13.045 18.453-31.508 32.938-55.392 43.456 60.628 90.971 100.127 149.741 118.5 176.314h-94.8l-96.177-155.279z"/><path d="m445.365 175.484c-17.82 0-31.784 5.72-41.889 17.161-10.105 11.256-15.89 27.31-17.36 48.161h117.946c-.367-20.851-5.786-36.905-16.258-48.161-10.471-11.441-24.618-17.161-42.439-17.161zm11.849 260.734c-49.602 0-88.368-13.746-116.293-41.241-27.925-27.494-41.887-66.43-41.887-116.805 0-51.851 12.859-91.893 38.58-120.126 25.906-28.417 61.636-42.625 107.198-42.625 43.543 0 77.44 12.455 101.689 37.366 24.252 24.911 36.377 59.325 36.377 103.242v40.966h-198.692c.92 23.988 7.992 42.716 21.22 56.186 13.228 13.472 31.784 20.207 55.667 20.207 18.556 0 36.1-1.938 52.634-5.812 16.537-3.877 33.807-10.059 51.81-18.546v65.322c-14.697 7.381-30.404 12.824-47.124 16.331-16.718 3.69-37.111 5.535-61.179 5.535z"/><path d="m726.201 436.218c-36.193 0-64.668-14.115-85.431-42.349-20.576-28.232-30.864-67.351-30.864-117.357 0-50.745 10.474-90.233 31.417-118.466 21.127-28.417 50.155-42.625 87.082-42.625 38.766 0 68.344 15.131 88.737 45.393h2.756c-4.226-23.066-6.339-43.64-6.339-61.7237v-99.0903h84.326v430.683h-64.486l-16.257-40.135h-3.583c-19.106 30.449-48.227 45.67-87.358 45.67zm29.486-67.26c21.496 0 37.203-6.272 47.124-18.822 10.105-12.546 15.617-33.859 16.534-63.936v-9.135c0-33.214-5.142-57.018-15.431-71.411-10.104-14.393-26.638-21.59-49.604-21.59-18.74 0-33.344 8.027-43.816 24.081-10.288 15.869-15.434 39.027-15.434 69.474s5.236 53.329 15.708 68.644c10.471 15.131 25.445 22.695 44.919 22.695z"/><path d="m1216.47 430.683-23.69-108.225-31.97-136.733h-1.93l-56.22 244.958h-90.39l-87.631-309.45h83.771l35.55 137.011c5.7 24.542 11.49 58.402 17.37 101.581h1.65c.73-14.025 3.95-36.258 9.64-66.707l4.41-23.526 38.03-148.359h92.6l36.1 148.359c.73 4.059 1.84 10.057 3.31 17.991 1.65 7.933 3.21 16.423 4.68 25.466 1.47 8.856 2.75 17.62 3.86 26.293 1.28 8.489 2.02 15.317 2.2 20.483h1.66c1.65-13.286 4.59-31.461 8.81-54.527 4.23-23.25 7.26-38.935 9.1-47.054l36.93-137.011h82.39l-88.73 309.45z"/><path d="m1490.97 275.404c0 30.631 4.96 53.789 14.89 69.473 10.1 15.687 26.45 23.528 49.05 23.528 22.41 0 38.49-7.75 48.23-23.251 9.91-15.684 14.88-38.933 14.88-69.75 0-30.631-4.97-53.604-14.88-68.92-9.93-15.316-26.19-22.973-48.78-22.973-22.42 0-38.59 7.657-48.5 22.973-9.93 15.131-14.89 38.105-14.89 68.92zm213.02 0c0 50.375-13.22 89.774-39.68 118.188-26.45 28.418-63.29 42.626-110.51 42.626-29.57 0-55.66-6.458-78.26-19.374-22.59-13.103-39.96-31.832-52.08-56.189-12.13-24.358-18.19-52.775-18.19-85.251 0-50.56 13.13-89.863 39.41-117.911 26.27-28.048 63.2-42.072 110.78-42.072 29.58 0 55.66 6.458 78.26 19.375s39.96 31.461 52.09 55.634c12.12 24.173 18.18 52.498 18.18 84.974z"/><path d="m1817.83 275.404c0 30.631 4.96 53.789 14.88 69.473 10.11 15.687 26.46 23.528 49.06 23.528 22.41 0 38.48-7.75 48.22-23.251 9.92-15.684 14.88-38.933 14.88-69.75 0-30.631-4.96-53.604-14.88-68.92s-26.18-22.973-48.78-22.973c-22.41 0-38.58 7.657-48.5 22.973-9.92 15.131-14.88 38.105-14.88 68.92zm213.02 0c0 50.375-13.23 89.774-39.68 118.188-26.46 28.418-63.29 42.626-110.51 42.626-29.58 0-55.66-6.458-78.26-19.374-22.6-13.103-39.96-31.832-52.09-56.189-12.12-24.358-18.19-52.775-18.19-85.251 0-50.56 13.14-89.863 39.41-117.911 26.28-28.048 63.2-42.072 110.79-42.072 29.57 0 55.66 6.458 78.26 19.375s39.96 31.461 52.09 55.634c12.12 24.173 18.18 52.498 18.18 84.974z"/><path d="m2175.28 436.218c-36.19 0-64.67-14.115-85.43-42.349-20.58-28.232-30.87-67.351-30.87-117.357 0-50.745 10.47-90.233 31.42-118.466 21.13-28.417 50.16-42.625 87.08-42.625 38.77 0 68.35 15.131 88.74 45.393h2.75c-4.22-23.066-6.33-43.64-6.33-61.7237v-99.0903h84.32v430.683h-64.48l-16.26-40.135h-3.58c-19.11 30.449-48.23 45.67-87.36 45.67zm29.48-67.26c21.5 0 37.21-6.272 47.13-18.822 10.1-12.546 15.61-33.859 16.53-63.936v-9.135c0-33.214-5.14-57.018-15.43-71.411-10.1-14.393-26.64-21.59-49.6-21.59-18.74 0-33.35 8.027-43.82 24.081-10.29 15.869-15.43 39.027-15.43 69.474s5.23 53.329 15.71 68.644c10.47 15.131 25.44 22.695 44.91 22.695z"/><path d="m2376.75 549.702c-19.29 0-36.1-2.029-50.43-6.089v-71.413c14.69 3.69 28.1 5.536 40.23 5.536 18.74 0 32.15-5.903 40.23-17.713 8.09-11.625 12.13-29.893 12.13-54.804v-379.2009h85.43v378.6449c0 47.24-10.75 83.224-32.24 107.948-21.5 24.727-53.28 37.091-95.35 37.091z"/><path d="m2821 318.308c0 36.535-13.13 65.322-39.41 86.355-26.09 21.037-62.46 31.555-109.13 31.555-42.99 0-81.02-8.12-114.09-24.357v-79.714c27.19 12.177 50.16 20.757 68.9 25.74 18.92 4.983 36.19 7.474 51.81 7.474 18.73 0 33.07-3.597 42.99-10.795 10.1-7.197 15.15-17.899 15.15-32.108 0-7.934-2.2-14.945-6.61-21.036-4.41-6.272-10.93-12.271-19.57-17.99-8.45-5.721-25.81-14.855-52.08-27.403-24.62-11.625-43.08-22.789-55.39-33.491-12.31-10.703-22.14-23.158-29.49-37.366-7.35-14.209-11.02-30.816-11.02-49.822 0-35.7984 12.03-63.9385 36.1-84.4209 24.25-20.4825 57.69-30.7235 100.31-30.7235 20.94 0 40.88 2.4911 59.8 7.4733 19.11 4.9823 39.04 11.9941 59.8 21.0359l-27.56 66.7062c-21.49-8.857-39.31-15.039-53.46-18.545-13.96-3.5059-27.74-5.2591-41.34-5.2591-16.16 0-28.56 3.7829-37.2 11.3481-8.63 7.566-12.95 17.438-12.95 29.617 0 7.565 1.74 14.208 5.24 19.928 3.49 5.536 9 10.98 16.53 16.331 7.72 5.167 25.81 14.578 54.29 28.232 37.66 18.084 63.47 36.26 77.44 54.528 13.96 18.083 20.94 40.318 20.94 66.707z"/></g></svg>