<svg fill="none" height="78" viewBox="0 0 367 78" width="367" xmlns="http://www.w3.org/2000/svg" xmlns:xlink="http://www.w3.org/1999/xlink"><mask id="a" height="54" maskUnits="userSpaceOnUse" width="277" x="75" y="17"><path d="m75.5752 17.088h275.8068v53.1056h-275.8068z" fill="#fff"/></mask><path clip-rule="evenodd" d="m27.4774 7.4399c-2.3726 1.19916-7.3731 3.5324-10.0815 5.3945s-2.3726 3.5975-3.5581 4.7966c-1.1855 1.1992-4.74524 4.1954-7.11615 5.9924-2.37262 1.7987-1.77989 6.5954-2.37262 8.3941-.59273 1.797-1.77818 5.9924-2.37091 7.7911-.59444 1.7988 1.18545 4.1971 2.37091 6.5954 1.18717 2.3966 4.1508 8.9903 5.33797 11.3869 1.1855 2.3983 4.7452 1.1991 7.7089 3.5974 2.9636 2.3984 7.1161 5.3963 10.0815 7.1933 2.9636 1.7987 4.1508 1.7987 7.1161 0 2.9637-1.7988 7.1162-4.7967 10.0815-7.195 2.9637-2.3966 6.5235-1.1974 7.7089-3.5957 1.1855-2.3984 4.1508-8.9903 5.338-11.3886 1.1854-2.3983 2.9636-4.7967 2.3709-6.5937-.5927-1.7987-1.7782-5.9958-2.3709-7.7928-.5928-1.7987 0-6.5937-2.3726-8.3924-2.3727-1.7987-5.1256-4.0874-7.1162-5.9941-1.9906-1.9066-1.1854-2.9979-3.5581-4.7966-2.3726-1.797-7.7088-4.19364-10.0815-5.3928-2.3726-1.19916-4.7452-1.19916-7.1161 0z" fill="#fff" fill-rule="evenodd"/><path clip-rule="evenodd" d="m19.1025 17.8401 11.0991 7.6147c.2495.1677.5422.2599.8428.2655.3011-.0027.5945-.0952.8428-.2655l11.1077-7.6404c.2131-.1536.383-.3596.4931-.5981.1102-.2385.157-.5014.1358-.7632-.0212-.2619-.1096-.5138-.2567-.7315s-.3479-.3937-.5829-.5111l-11.0991-5.52294c-.2075-.1014-.4354-.15411-.6664-.15411s-.4589.05271-.6664.15411l-11.0665 5.52294c-.2395.1176-.444.2961-.593.5174-.1489.2214-.2372.478-.2559.7442-.0188.2662.0327.5326.1492.7727s.294.4453.5147.5953zm15.7124 10.0044c-.0002.2482.0595.4926.1741.7127.1145.2201.2804.4093.4837.5516l8.8978 6.1123c.2761.1916.6089.2841.9443.2623.3353-.0218.6534-.1565.9024-.3822l7.4639-6.7102c.1648-.1483.2954-.3308.3827-.5347.0872-.2039.129-.4244.1225-.6461-.0065-.2216-.0612-.4392-.1603-.6377-.0991-.1984-.2401-.3729-.4134-.5113l-7.1265-5.7285c-.2513-.2011-.5604-.3163-.882-.3286-.3217-.0124-.6387.0788-.9047.26l-9.2267 6.3436c-.1997.1397-.3635.3248-.4779.5401-.1143.2153-.176.453-.1799.6967zm-22.1313 8.3154c.3597.3254.5447.8051.4968 1.2899-.0224.2397-.1023.4705-.2329.6727s-.3082.3699-.5175.4888l-5.31225 3.2017c-.53962.3221-1.21971.2758-1.70965-.1182-.48995-.394-.69038-1.0535-.50022-1.6582l1.9649-6.2151c.07471-.2412.20873-.4598.3898-.6358s.40339-.3037.64662-.3715c.24233-.071.49897-.0777.74467-.0195.24571.0583.47201.1796.65663.3518zm28.8192.6509-9.607-6.6091c-.2487-.1685-.5423-.2586-.8428-.2586s-.5941.0901-.8429.2586l-9.6069 6.6074c-.1893.1324-.3465.3054-.4604.5063-.1138.201-.1813.4248-.1975.6552-.0126.2322.0261.4644.1134.68.0874.2156.2212.4092.392.5671l9.5984 8.6305c.2754.2484.633.3858 1.0039.3858.3708 0 .7285-.1374 1.0038-.3858l9.5967-8.6322c.1711-.1569.3045-.3504.3906-.566.086-.2156.1223-.4478.1062-.6794-.0124-.2301-.0772-.4544-.1894-.6556-.1123-.2013-.2689-.3743-.4581-.5059zm-25.6226-1.7096-7.45707-6.7102c-.16623-.152-.29761-.3382-.38513-.5458s-.12912-.4316-.12195-.6568c.00354-.2219.05605-.4403.15377-.6396.09773-.1993.23826-.3746.41155-.5133l7.12643-5.7628c.2532-.2012.5641-.3163.8873-.3286.3232-.0124.6419.0788.9097.2601l9.2181 6.3435c.4283.2827.6853.7641.6853 1.2814 0 .5174-.257.997-.6853 1.2797l-8.8892 6.1123c-.5738.394-1.3345.3426-1.8535-.1199zm38.2823 9.6395-7.5907-4.5671c-.2742-.1663-.5949-.2395-.9141-.2086-.3193.0309-.6199.1642-.8572.3799l-9.2781 8.3222c-.1923.1737-.3377.3933-.4224.6383-.0848.2449-.1064.5073-.0626.7628.0437.2555.1513.4958.3128.6986s.3716.3615.6108.4613l12.8704 5.2421c.3632.1444.7683.1423 1.13-.006.3617-.1482.6518-.4311.8092-.7889l3.9914-8.98c.1569-.3427.1825-.731.0719-1.0913-.1105-.3603-.3494-.6675-.6714-.8633zm1.0535-10.9192 1.9649 6.2151h-.0171c.0716.2292.0888.4719.0502.709-.0387.237-.1321.4617-.2729.6563-.2199.3045-.5459.5157-.9137.5918s-.7508.0116-1.0735-.1807l-5.3208-3.2034c-.2051-.1211-.3781-.2896-.5045-.4914s-.2025-.431-.2219-.6684c-.0249-.239.0071-.4804.0934-.7047.0864-.2242.2246-.4247.4034-.5852l3.3748-3.0219c.382-.3426.9079-.4677 1.3996-.3324.2434.0705.4657.2001.6468.3774.1812.1773.3156.3966.3913.6385zm-28.1545 16.2452c.0449-.2548.0245-.5169-.0594-.7617-.0839-.2447-.2285-.4642-.4203-.6379l-9.2763-8.3239c-.2373-.2158-.538-.349-.8572-.3799-.3193-.0309-.6399.0423-.9142.2086l-7.58893 4.5688c-.31868.1968-.55565.502-.66737.8595s-.09069.7433.05923 1.0866l3.99667 8.9816c.1563.3592.4466.643.8092.7912.3625.1482.7686.1489 1.1317.002l12.8618-5.242c.2394-.0976.4501-.2544.6122-.4558s.2704-.4407.3146-.6954zm4.5551 2.561 10.323 4.2005c.2489.1081.4644.2807.6243.4999.1599.2193.2584.4772.2854.7472.0324.2734-.01.5504-.1229.8015-.1128.251-.2918.4667-.5178.6238l-10.3299 7.2138c-.2471.1752-.5417.2708-.8446.2741-.302-.0053-.5955-.1007-.8428-.2741l-10.3231-7.2121c-.227-.1564-.4075-.3714-.5222-.6222s-.1592-.5279-.129-.802.1341-.5349.3006-.7547c.1666-.2197.3896-.3903.6453-.4935l10.323-4.2005c.3629-.1456.7679-.1473 1.1307-.0017z" fill="#bf4722" fill-rule="evenodd"/><g fill="#000" mask="url(#a)"><path d="m83.9282 36.8382h2.693c2.6415 0 4.591-.4352 5.8467-1.302 1.2574-.8685 1.8861-2.2338 1.8861-4.0943 0-1.8432-.6458-3.1537-1.9392-3.9332-1.2762-.7812-3.26-1.17-5.9547-1.17h-2.5319zm0 6.6981v14.9107h-8.353v-38.8596h11.4777c5.3533 0 9.314.9662 11.8819 2.8968 2.5692 1.9135 3.8532 4.8292 3.8532 8.7453 0 2.2853-.638 4.3238-1.914 6.114-1.2745 1.7713-3.0801 3.1624-5.4133 4.1731 5.9273 8.7367 9.7883 14.3796 11.5843 16.9304h-9.2682l-9.4049-14.9107z"/><path d="m119.119 33.9413c-1.742 0-3.108.5482-4.094 1.648-.99 1.0793-1.556 2.621-1.7 4.6253h11.533c-.036-2.0043-.566-3.546-1.59-4.6253-1.024-1.0998-2.407-1.648-4.149-1.648zm1.158 25.0385c-4.848 0-8.639-1.3191-11.37-3.9607-2.73-2.6398-4.094-6.3795-4.094-11.2173 0-4.9799 1.256-8.8241 3.77-11.5359 2.534-2.7289 6.027-4.0942 10.481-4.0942 4.257 0 7.572 1.1974 9.943 3.5889 2.371 2.3932 3.556 5.6977 3.556 9.9153v3.9333h-19.426c.091 2.3041.781 4.1028 2.074 5.3962 1.294 1.2933 3.108 1.9409 5.443 1.9409 1.816 0 3.529-.1867 5.146-.5585 1.745-.4173 3.443-1.0144 5.066-1.7816v6.2733c-1.438.7092-2.973 1.2317-4.609 1.5675-1.632.3546-3.626.5328-5.98.5328zm26.299 0c-3.539 0-6.321-1.3551-8.353-4.0669-2.011-2.7118-3.016-6.4686-3.016-11.2704 0-4.8737 1.022-8.6647 3.071-11.3748 2.064-2.7307 4.903-4.0943 8.514-4.0943 3.789 0 6.681 1.4527 8.675 4.3581h.269c-.411-2.2151-.618-4.1902-.618-5.9273v-9.5162h8.243v41.359h-6.304l-1.59-3.8544h-.349c-1.868 2.9242-4.716 4.3872-8.542 4.3872zm2.883-6.4584c2.101 0 3.637-.603 4.609-1.809.986-1.2043 1.524-3.2514 1.615-6.1397v-.8771c0-3.1897-.504-5.475-1.509-6.8574-.989-1.3825-2.604-2.0729-4.85-2.0729-1.833 0-3.26.7709-4.283 2.3127-1.007 1.5246-1.511 3.7465-1.511 6.6707 0 2.9243.514 5.1222 1.537 6.592 1.024 1.4527 2.487 2.1807 4.392 2.1807zm45.051 5.9256-2.318-10.3916-3.124-13.1308h-.189l-5.497 23.5224h-8.838l-8.567-29.7169h8.19l3.476 13.1582c.557 2.3572 1.122 5.6087 1.698 9.7543h.161c.072-1.3465.387-3.481.944-6.4052l.43-2.2595 3.719-14.2478h9.052l3.53 14.2478.322 1.7285c.342 1.6452.621 3.303.836 4.9696.125.8154.197 1.4716.216 1.9666h.161c.163-1.2745.449-3.0201.864-5.2352.269-1.5115.565-3.0181.889-4.5191l3.609-13.1565h8.057l-8.677 29.7169zm26.837-14.9107c0 2.9414.485 5.165 1.455 6.6708.988 1.5075 2.586 2.2612 4.796 2.2612 2.191 0 3.762-.7452 4.715-2.2338.969-1.5075 1.454-3.7397 1.454-6.6982 0-2.9413-.485-5.1478-1.454-6.6193-.97-1.4699-2.56-2.2048-4.77-2.2048-2.191 0-3.772.7349-4.741 2.2048-.97 1.4544-1.455 3.6591-1.455 6.6193zm20.826 0c0 4.8378-1.291 8.6203-3.878 11.3492s-6.188 4.0943-10.805 4.0943c-2.891 0-5.442-.6202-7.652-1.8604-2.208-1.2592-3.906-3.0579-5.091-5.3962-1.186-2.3401-1.778-5.0691-1.778-8.1886 0-4.8532 1.283-8.6288 3.852-11.3218 2.568-2.6929 6.179-4.0394 10.83-4.0394 2.892 0 5.443.6201 7.653 1.8604s3.906 3.0202 5.091 5.3414c1.185 2.3229 1.778 5.0416 1.778 8.1611zm11.13 0c0 2.9414.485 5.165 1.456 6.6708.987 1.5075 2.587 2.2612 4.795 2.2612 2.191 0 3.764-.7452 4.715-2.2338.971-1.5075 1.456-3.7397 1.456-6.6982 0-2.9413-.485-5.1478-1.456-6.6193-.97-1.4699-2.56-2.2048-4.768-2.2048-2.193 0-3.772.7349-4.742 2.2048-.971 1.4544-1.456 3.6591-1.456 6.6193zm20.828 0c0 4.8378-1.294 8.6203-3.88 11.3492-2.587 2.7289-6.188 4.0943-10.805 4.0943-2.891 0-5.442-.6202-7.65-1.8604-2.21-1.2592-3.908-3.0579-5.093-5.3962-1.186-2.3401-1.779-5.0691-1.779-8.1886 0-4.8532 1.285-8.6288 3.853-11.3218 2.57-2.6929 6.179-4.0394 10.832-4.0394 2.892 0 5.442.6201 7.651 1.8604s3.907 3.0202 5.093 5.3414c1.185 2.3229 1.778 5.0416 1.778 8.1611zm14.119 15.4435c-3.538 0-6.321-1.3551-8.351-4.0669-2.013-2.7118-3.019-6.4686-3.019-11.2704 0-4.8737 1.025-8.6647 3.072-11.3748 2.066-2.7307 4.904-4.0943 8.514-4.0943 3.791 0 6.683 1.4527 8.675 4.3581h.271c-.413-2.2151-.621-4.1902-.621-5.9273v-9.5162h8.246v41.359h-6.306l-1.59-3.8544h-.35c-1.867 2.9242-4.714 4.3872-8.541 4.3872zm2.883-6.4584c2.102 0 3.639-.603 4.608-1.809.987-1.2043 1.527-3.2514 1.616-6.1397v-.8771c0-3.1897-.502-5.475-1.508-6.8574-.988-1.3825-2.605-2.0729-4.849-2.0729-1.833 0-3.26.7709-4.285 2.3127-1.005 1.5246-1.509 3.7465-1.509 6.6707 0 2.9243.512 5.1222 1.536 6.592 1.023 1.4527 2.488 2.1807 4.391 2.1807z"/><path d="m307.948 69.8767c-1.886 0-3.53-.1936-4.93-.5825v-6.8591c1.436.3546 2.748.531 3.933.531 1.832 0 3.144-.5653 3.934-1.7011.791-1.1152 1.185-2.8711 1.185-5.2626v-36.415h8.353v36.3619c0 4.5363-1.052 7.9916-3.152 10.3659-2.102 2.3743-5.21 3.5615-9.323 3.5615zm43.434-22.2204c0 3.5084-1.285 6.2733-3.853 8.2913-2.551 2.0214-6.107 3.0322-10.669 3.0322-4.204 0-7.921-.7812-11.156-2.3401v-7.6541c2.659 1.1684 4.905 1.9923 6.736 2.472 1.85.478 3.539.7178 5.066.7178 1.831 0 3.232-.346 4.204-1.0381.987-.6904 1.482-1.7183 1.482-3.0836 0-.7606-.216-1.4338-.648-2.0197-.432-.6013-1.069-1.1786-1.913-1.7268-.826-.5482-2.524-1.427-5.092-2.6313-2.407-1.1169-4.212-2.1893-5.415-3.2172-1.182-1.0003-2.161-2.2188-2.883-3.5889-.719-1.3636-1.077-2.9585-1.077-4.7829 0-3.4382 1.175-6.1414 3.528-8.108 2.371-1.9667 5.64-2.95 9.808-2.95 2.047 0 3.997.2399 5.847.7178 1.867.4797 3.816 1.1512 5.846 2.0215l-2.694 6.4035c-2.102-.8497-3.844-1.4442-5.227-1.7816-1.322-.3308-2.679-.5-4.041-.5037-1.581 0-2.794.3632-3.639 1.0895-.842.7264-1.266 1.6754-1.266 2.8437 0 .7281.172 1.3654.513 1.9153.34.531.88 1.0535 1.617 1.5674.754.4968 2.523 1.3996 5.307 2.7119 3.681 1.7353 6.206 3.4809 7.572 5.2351 1.363 1.7371 2.047 3.8716 2.047 6.407z"/></g></svg>