<svg fill="none" height="42" viewBox="0 0 43 42" width="43" xmlns="http://www.w3.org/2000/svg"><path d="m12.7257 17.7345c0 .5031.0402.9056.1409 1.2478.1006.2415.2415.5635.4226.9257.0805.0805.1006.2013.1006.3019 0 .1409-.0805.2617-.2616.4025l-.8453.5635c-.1207.0805-.2415.1208-.3421.1208-.1409 0-.2617-.0805-.4025-.2013-.1812-.2012-.3422-.4025-.483-.6238-.1208-.2214-.2617-.4831-.4026-.7849-1.04648 1.2276-2.35464 1.8515-3.94456 1.8515-1.12703 0-2.01255-.322-2.67669-.966-.64402-.644-.98616-1.5094-.98616-2.5962 0-1.1069.40252-2.0126 1.20754-2.7371.82514-.6843 1.91192-1.0465 3.28046-1.0465.46289 0 .88552.0402 1.42891.1207.46289.0604 1.00628.161 1.5295.2818v-.966c0-1.0264-.2012-1.6906-.62385-2.1535-.44276-.4226-1.14715-.6037-2.17356-.6037-.48301 0-.96602.0604-1.44904.161-.50313.1207-.98615.2616-1.44903.4629-.22138.0805-.40251.1408-.46289.161-.10063.0402-.16101.0402-.22138.0402-.18113 0-.28176-.1207-.28176-.4025v-.6641c0-.2013.02013-.3623.10063-.4629.06037-.1006.18113-.18115.36226-.24153.48301-.28175 1.0264-.48301 1.69054-.64401.68274-.18099 1.38678-.269 2.09306-.26163 1.58992 0 2.75722.36226 3.50182 1.08677.7447.7245 1.1069 1.8314 1.1069 3.3006v4.327zm-5.43392 2.0528c.44276 0 .88553-.0805 1.36854-.2415s.90565-.4629 1.26791-.8654c.22137-.2617.38237-.5434.50317-.8654 0-.322.1006-.7044.1006-1.1673v-.5434c-.4025-.1409-.80503-.1409-1.24779-.2415-.41451-.0456-.83086-.0724-1.24778-.0805-.90565 0-1.54967.1811-1.99243.5434s-.64402.8654-.64402 1.5295c0 .6441.14088 1.1271.48301 1.4289.32201.3422.7849.5032 1.40879.5032zm10.74702 1.4289c-.195.0075-.3887-.034-.5635-.1208-.0604-.1006-.161-.2817-.2415-.5232l-3.1396-10.3445c-.0805-.30193-.1207-.4428-.1207-.54343 0-.22138.1006-.34214.322-.34214h1.3081c.2617 0 .4428.04026.5233.14088.1207.08051.2012.26163.2817.52329l2.234 8.8552 2.093-8.8552c.0604-.26166.1409-.44278.2617-.52329.1006-.0805.2817-.14088.5031-.14088h1.1069c.2415 0 .4226.04026.5233.14088.1006.08051.2012.26163.2616.52329l2.1333 8.976 2.2943-8.976c.0805-.26166.1812-.44278.2617-.52329.1207-.0805.2817-.14088.5232-.14088h1.2478c.2214 0 .3421.12076.3421.34214 0 .06037-.0201.14088-.0402.2415 0 0-.0403.16103-.0805.30193l-3.2402 10.3445c-.0805.2817-.161.4226-.3019.5232-.0805.0805-.2616.1409-.483.1409h-1.1472c-.2616 0-.3824-.0402-.5434-.1409-.1353-.1434-.2201-.3272-.2415-.5232l-2.0729-8.6339-2.0729 8.6138c-.0604.2616-.1409.4427-.2415.5433-.1658.0916-.3545.1336-.5434.1208zm17.2073.3623c-.6641 0-1.4087-.0805-2.0729-.2415-.6641-.1611-1.1874-.3422-1.5295-.5233-.1751-.0837-.3219-.2166-.4227-.3824-.0552-.1126-.0828-.2368-.0805-.3623v-.6842c0-.2818.1007-.4025.3019-.4025h.2415c.0805 0 .2013.1006.3422.161.4427.2012.9459.3622 1.4691.4629.5434.1006 1.0868.161 1.5899.161.8453 0 1.5095-.1409 1.9522-.4428.4629-.3421.7044-.7245.7044-1.2679 0-.3824-.1409-.6843-.3622-.9459-.2416-.2415-.7044-.483-1.3485-.6843l-1.9521-.6037c-.9661-.3221-1.6906-.7648-2.1333-1.3686-.4321-.5589-.6658-1.2457-.6642-1.9522 0-.5635.1208-1.0465.3623-1.4691.2415-.4428.5635-.805.9258-1.10693.4427-.30188.8855-.52326 1.4289-.68426.5232-.16101 1.0867-.24151 1.6905-.24151.2818 0 .5836.02013.9057.06038.2817.04025.5635.10062.8452.14088.2818.0805.5233.14087.7648.22138.2415.0805.4025.161.5635.2415.1811.10063.322.20126.4025.32201s.1208.26165.1208.44275v.644c0 .2818-.1006.4227-.3019.4227-.1006 0-.2818-.0604-.5233-.161-.7446-.3422-1.61-.5233-2.5559-.5233-.7648 0-1.3283.1208-1.7912.3824-.4025.2415-.6239.644-.6239 1.1874 0 .3824.1409.7044.4025.9459.2617.2616.7648.5031 1.4692.7446l1.9119.6038c.9661.2818 1.6503.7245 2.073 1.288.4025.5434.6037 1.1673.6037 1.8717 0 .5635-.1207 1.0868-.3421 1.5497-.2415.4427-.5635.8452-1.0063 1.1673-.3824.3421-.8855.5836-1.449.7647-.5635.1812-1.2478.2617-1.912.2617zm2.5157 6.5206c-4.4075 3.2402-10.8074 4.971-16.2614 4.971-7.7483 0-14.69163-2.8578-19.94439-7.5873-.42264-.3824-.04026-.8855.46288-.5836 5.6754 3.2804 12.65901 5.2729 19.90411 5.2729 4.8905 0 10.2641-1.0063 15.1948-3.1396.7447-.3019 1.3686.5232.644 1.0666zm1.8516-2.0729c-.5837-.7446-3.7434-.3623-5.1723-.2013-.4226.0604-.483-.322-.1006-.6037 2.5157-1.7509 6.6615-1.2076 7.1244-.6642.483.6038-.1207 4.7497-2.4754 6.722-.3824.3018-.7245.1408-.5635-.2214.5434-1.3686 1.7308-4.3471 1.1874-5.0314z" fill="#a86338"/></svg>