<svg fill="none" height="42" viewBox="0 0 42 42" width="42" xmlns="http://www.w3.org/2000/svg" xmlns:xlink="http://www.w3.org/1999/xlink"><clipPath id="a"><path d="m0 0h42v42h-42z"/></clipPath><g clip-path="url(#a)"><path d="m22.316 1.87631c.1091-.29964.1127-.62754.0101-.929466-.1026-.301924-.3052-.559774-.5743-.73089-.2691-.1711153-.5886-.2452429-.9055-.2101186s-.6124.1773956-.8375.4032766l-11.19998 11.199988c-.12604.1263-.22678.2755-.2968.4396l-8.399995 19.6c-.0913257.2131-.1283264.4454-.10768107.6763.02064527.2309.09829007.453.22596707.6465.127677.1934.30139.3522.505548.4619.204159.1098.432371.1671.664171.1669h8.39999c.28768-.0001.56838-.0889.80388-.2542s.4143-.3992.5121-.6698zm5.558 4.5444c-.1132-.25022-.2975-.46162-.53-.60787-.2325-.14624-.5028-.22088-.7774-.21461s-.5413.09316-.7668.24986c-.2256.1567-.4001.37629-.5018.63142l-5.6 13.99999c-.0891.2234-.1191.4659-.0872.7043.0318.2383.1246.4644.2692.6565l7.2352 9.646-14.9576 4.984c-.3167.1041-.5859.3178-.7591.6027-.1732.2848-.2391.6222-.1857.9513.0533.3291.2223.6283.4766.8439s.5772.3334.9106.3321h28c.2343-.0001.4648-.0589.6704-.1711s.3797-.2743.5065-.4712c.1268-.197.2021-.4227.2191-.6563.0169-.2336-.025-.4678-.122-.681z" fill="#a86338"/></g></svg>