<svg fill="none" height="42" viewBox="0 0 41 42" width="41" xmlns="http://www.w3.org/2000/svg" xmlns:xlink="http://www.w3.org/1999/xlink"><clipPath id="a"><path d="m0 0h41v42h-41z"/></clipPath><g clip-path="url(#a)" clip-rule="evenodd" fill="#a86338" fill-rule="evenodd"><path d="m28.7065 5.06689h4.727c4.2045 0 7.618 3.41351 7.618 7.61801v16.6215c0 4.2045-3.4135 7.618-7.618 7.618h-.3725c-2.164-.3385-3.1025-.9875-3.8275-1.536l-6.01-4.9415c-.1506-.1218-.3384-.1882-.532-.1882s-.3814.0664-.532.1882l-1.9525 1.6055-5.499-4.5215c-.1504-.122-.3381-.1886-.5317-.1886-.1937 0-.3814.0666-.5318.1886l-7.6395 6.7205c-1.5375 1.2505-2.5545 1.0195-3.214.947-1.7035-1.398-2.791-3.519-2.791-5.892v-16.6215c0-4.2045 3.4135-7.61801 7.6185-7.61801h4.7165l-.0085.019-.159.4635-.0495.159-.214.9495-.0295.1665-.094.951-.0125.261-.002.09151.009.436.0215.2555.053.39999.0675.36001.08.3315.104.359.27.76.089.228.47.993.166.305.5435.933.208.3365.7585 1.117.1095.148.987 1.2845.319.3955 1.127 1.3175.2315.2535.929.9995.368.381.608.604-.122.102-.076.0685c-.2065.1925-.4025.397-.586.612-.0882.104-.1722.2114-.252.322-.1217.1689-.2305.3468-.3255.532-.0486.0962-.0921.1948-.1305.2955-.099.2572-.1585.528-.1765.803l-.0035.2375c.0086.3349.0769.6655.2015.9765.1263.3152.3104.604.543.8515.169.18.3615.337.5725.466.1795.11.371.2005.57.2695.4326.1466.8916.1988 1.346.153h.0025c.3877-.0376.7646-.1495 1.11-.3295.149-.079.291-.1705.424-.2745.3809-.2964.676-.6888.855-1.137.14-.3495.2085-.723.2025-1.099l-.011-.1965c-.0254-.2596-.0873-.5143-.184-.7565-.0419-.1055-.0895-.2087-.1425-.309-.0984-.1849-.2104-.3622-.335-.5305-.057-.077-.116-.1526-.177-.2265-.2029-.2423-.4214-.4711-.654-.685l-.1645-.14.2785-.275 1.197-1.25.414-.4545.6435-.724.4185-.4895.597-.727.404-.508.5935-.7935.2995-.4105.425-.6355.354-.5415.667-1.1615.3815-.762.011-.0235.292-.707c.0039-.0091.0072-.0185.01-.028l.3145-.981.033-.14301.1365-.78099.0265-.2115.008-.12951.0095-.489-.0025-.091-.025-.43799-.031-.34001-.155-.9805c-.0025-.013-.005-.026-.009-.039l-.199-.725-.0685-.2015zm2.247 20.72751c-.4766.0067-.9318.199-1.2689.5361s-.5294.7923-.5361 1.2689c.007.4765.1994.9315.5364 1.2684.337.337.7921.5293 1.2686.5361.4765-.007.9316-.1993 1.2686-.5362.3371-.3369.5297-.7918.5369-1.2683-.0069-.4767-.1993-.9319-.5364-1.2689-.3372-.3371-.7924-.5294-1.2691-.5361z"/><path d="m17.501 36.5395 4.898-4.1335c.0898-.0751.203-.1163.3201-.1165.117-.0002.2304.0407.3204.1155l4.969 4.1345c.302.246.68.3805 1.0695.381h-12.64c.388 0 .7635-.1345 1.063-.381zm3.049-14.7555.048.014c.0155.0075.0285.018.0425.0275l.04.0355c.099.091.195.1865.2875.2845.065.0695.1285.141.1895.215.0775.0935.15.1915.216.2935.0285.045.055.0905.08.138.0215.041.041.0835.058.1265.03.075.0525.154.0595.2345l-.0015.151c-.0101.1363-.0524.2682-.1234.385-.071.1167-.1687.2149-.2851.2865-.1512.0914-.3211.1473-.497.1635l-.1865.0055-.1575-.014c-.0737-.0107-.1461-.0283-.2165-.0525-.0716-.0244-.1404-.0566-.205-.096l-.123-.09c-.1449-.1237-.2436-.2929-.28-.48-.0061-.0315-.0109-.0632-.0145-.095l-.0045-.144c.0025-.039.0085-.0775.017-.116.0215-.084.0525-.1655.0915-.243.0505-.097.108-.1905.172-.2795.1065-.144.222-.281.3455-.4105.0795-.084.161-.1655.246-.244l.0605-.0545c.042-.0275.0425-.0275.0905-.0415zm-.3095-20.074.0195-.0015v16.8325l-.042-.0775c-.5541-1.025-1.07-2.0702-1.5465-3.1335-.3866-.8607-.7367-1.7373-1.0495-2.6275-.2497-.7091-.4609-1.4311-.6325-2.163-.1325-.5815-.2345-1.1715-.2765-1.7675-.0163-.25432-.0212-.50925-.0145-.764.004-.222.013-.4435.027-.665.022-.348.0575-.6955.1085-1.0405.0405-.2715.0905-.542.152-.8095.049-.2125.106-.4235.171-.631.094-.3.2065-.593.3375-.879.048-.103.0995-.2055.1535-.306.325-.602.766-1.1565 1.3435-1.527.3752-.24427.8035-.39514 1.249-.44zm2.1825.0425 1.1325.323c.5245.1935 1.0295.4455 1.4935.7605.6324.42687 1.1775.97061 1.606 1.602.251.374.459.7775.6215 1.199.2355.6235.3815 1.277.433 1.941.015.174.0235.3485.027.523.004.162.003.3245-.01.4865-.032.3625-.1.721-.2035 1.07-.0831.2856-.181.5666-.2935.842-.14.3425-.2955.6785-.466 1.0065-.377.7285-.8115 1.426-1.2765 2.1005-.5764.829-1.1909 1.6308-1.8415 2.403-.7064.8424-1.443 1.6589-2.2085 2.448.5194-.9741 1.0042-1.9662 1.4535-2.9745.25-.562.4855-1.13.707-1.7035.2435-.63.4635-1.2685.6585-1.915.145-.4845.273-.974.3785-1.469.0905-.4245.1615-.8535.2055-1.285.037-.36.0505-.722.0415-1.083-.0034-.22099-.0116-.44187-.0245-.6625-.053-.8875-.188-1.7725-.447-2.624-.0981-.32285-.2173-.63887-.357-.946-.3315-.722-.794-1.3965-1.42-1.889z"/></g></svg>