<svg fill="none" height="52" viewBox="0 0 53 52" width="53" xmlns="http://www.w3.org/2000/svg"><path d="m26.0151 11.6349-.9534-.13-12.0466 20.7783c.52.455.8666 1.04 1.0183 1.6901h23.9633c.1517-.6501.4984-1.2351 1.0184-1.6901l-12.0467-20.7783zm-11.7 24.18 9.2733 5.4817c.6283-.585 1.495-.9317 2.4267-.9317.9316 0 1.7983.3467 2.4266.9317l9.2734-5.4817zm11.7 11.8517c-.9654 0-1.8913-.3835-2.5739-1.0661-.6826-.6827-1.0661-1.6085-1.0661-2.5739l.195-1.2133-9.3167-5.5251c-.6717.78-1.6467 1.2567-2.7517 1.2567-.96535 0-1.8912-.3835-2.57383-1.0661s-1.06613-1.6085-1.06613-2.5739c0-1.7116 1.14833-3.1416 2.73-3.5533v-11.0717c-1.79833-.2383-3.185-1.7766-3.185-3.64 0-.9654.3835-1.8912 1.06613-2.5739.68263-.6826 1.60848-1.0661 2.57383-1.0661 1.1917 0 2.2317.5634 2.9034 1.43l9.555-5.48165-.13-.975c0-2.015 1.625-3.64 3.64-3.64s3.64 1.625 3.64 3.64l-.13.975 9.555 5.48165c.6716-.8666 1.7116-1.43 2.9033-1.43.9654 0 1.8912.3835 2.5739 1.0661.6826.6827 1.0661 1.6085 1.0661 2.5739 0 1.8634-1.3867 3.4017-3.185 3.64v11.0717c1.5817.4117 2.73 1.8417 2.73 3.5533 0 .9654-.3835 1.8913-1.0661 2.5739-.6827.6826-1.6085 1.0661-2.5739 1.0661-1.105 0-2.08-.4767-2.7517-1.2567l-9.3166 5.5251.195 1.2133c0 .9654-.3835 1.8912-1.0662 2.5739-.6826.6826-1.6084 1.0661-2.5738 1.0661zm-2.6-37.1367-9.75 5.59.0433.52c0 1.5384-.9533 2.86-2.2967 3.4017l.065 11.375zm5.2 0 11.9383 20.8867.065-11.375c-1.3433-.5417-2.2967-1.8633-2.2967-3.4017l.0434-.52z" fill="#a86338"/></svg>