<svg fill="none" height="42" viewBox="0 0 43 42" width="43" xmlns="http://www.w3.org/2000/svg"><path d="m37.0942 20.7191c-.0014-.9917-.3485-1.952-.9817-2.7153-.6333-.7633-1.5128-1.2818-2.4873-1.4663l4.7171-13.9125h-22.2967l4.725 13.9401c-.8249.1843-1.5761.6103-2.1579 1.2234-.5818.6132-.9677 1.3858-1.1086 2.2192-.1408.8334-.0301 1.6899.3179 2.4602.348.7702.9176 1.4194 1.6361 1.8645-.5936.8818-1.2839 1.6945-2.058 2.4229-1.1984 1.1465-2.6066 2.0512-4.1475 2.6644-.7232-.4198-1.2713-1.0855-1.5446-1.8758-.2732-.7903-.2532-1.6524.0562-2.4292l.0525-.1221.0971-.2297c.8748-.3032 1.6269-.8833 2.1425-1.6523.5155-.769.7665-1.6851.7148-2.6095s-.4032-1.8068-1.0013-2.5135c-.598-.7068-1.4101-1.1994-2.3132-1.4033-.9032-.2038-1.84811-.1079-2.69181.2734-.84369.3813-1.54018 1.0271-1.98397 1.8396-.4438.8126-.61074 1.7476-.47554 2.6635s.56517 1.7628 1.22481 2.4125c-.14175.3032-.29138.6103-.44494.9266-.85098 1.5647-1.46996 3.2448-1.8375 4.9875-.61031 3.675.37406 6.619 2.77069 8.2793 1.28656.92 2.82966 1.4126 4.41126 1.4083 2.7983 0 5.6294-1.4057 8.4-2.7812 1.9359-1.0528 3.9783-1.8967 6.0927-2.5174.7573-.1863 1.5369-.2992 2.3625-.4187 1.6819-.1343 3.3219-.5925 4.83-1.3492.8504-.4858 1.5836-1.1526 2.1477-1.9533.5641-.8006.9453-1.7155 1.1165-2.6798.2788-1.6384-.0432-3.3223-.907-4.7421.4086-.6667.6244-1.4336.6235-2.2155zm-1.6709 0c0 .5114-.1516 1.0113-.4357 1.4365s-.6879.7566-1.1604.9523-.9924.2469-1.4939.1472c-.5016-.0998-.9623-.3461-1.3239-.7077s-.6079-.8223-.7076-1.3238c-.0998-.5016-.0486-1.0215.1471-1.4939.1957-.4725.5271-.8763.9523-1.1604.4252-.2842.9251-.4358 1.4365-.4358.6856.0007 1.3428.2733 1.8276.7581.4847.4847.7573 1.142.758 1.8275zm.5867-16.42329-4.1658 12.28499c-.1784.0432-.3538.098-.525.1641l-4.1147-8.40003-4.1278 8.35013c-.1798-.0623-.3635-.1123-.55-.1496l-4.1514-12.24959zm-14.3154 13.83769c.5114 0 1.0113.1516 1.4365.4358.4252.2841.7566.6879.9523 1.1604.1957.4724.2469.9923.1471 1.4939-.0997.5015-.346.9622-.7076 1.3238s-.8223.6079-1.3239.7077c-.5015.0997-1.0214.0485-1.4939-.1472-.4724-.1957-.8763-.5271-1.1604-.9523s-.4357-.9251-.4357-1.4365c.0007-.6855.2733-1.3428.758-1.8275.4848-.4848 1.1421-.7574 1.8276-.7581zm-11.1851.0249c.5116.0003 1.0116.1523 1.4368.4369s.7563.6889.9517 1.1617c.1953.4729.2459.9931.1454 1.4947-.1004.5017-.3474.9622-.7097 1.3235-.3624.3612-.8237.6068-1.3256.7057-.502.0989-1.02202.0467-1.49428-.15-.47227-.1968-.87556-.5292-1.15882-.9553-.28327-.426-.43377-.9265-.43248-1.4381.0007-.6855.27334-1.3428.75808-1.8275.48475-.4848 1.14201-.7574 1.8275-.7581zm25.2223 9.2322c-.1298.7234-.417 1.4096-.8413 2.0097-.4244.6002-.9755 1.0997-1.6144 1.4631-1.3255.6436-2.7608 1.0306-4.2302 1.1406-.8295.1194-1.6866.2428-2.5252.4502-2.2327.6465-4.389 1.5323-6.4313 2.642-4.1527 2.062-7.7438 3.8431-11.1195 1.5002-2.47669-1.7167-2.3625-4.893-2.07375-6.6333.3398-1.5838.90652-3.1103 1.68262-4.5321l.35438-.7337c.35255.141.72252.2337 1.09985.2756-.33403 1.1799-.24069 2.4399.2636 3.5577.5043 1.1178 1.3871 2.0216 2.4927 2.552l.3215.1654.34-.1208c1.8961-.6844 3.6284-1.7573 5.0859-3.15.9627-.9056 1.8084-1.9281 2.5174-3.0436.9071.1379 1.8345-.0211 2.6438-.4534s1.4572-1.1146 1.8469-1.9453.5004-1.7651.3155-2.6638c-.1848-.8987-.6553-1.7136-1.3412-2.323l2.6749-5.4088 2.7024 5.5125c-.7689.741-1.2309 1.7442-1.2941 2.8102s.2769 2.1168.9528 2.9435c.676.8267 1.6382 1.3689 2.6955 1.5187 1.0573.1499 2.1323-.1036 3.0113-.7099.4874.9838.6505 2.0966.4659 3.1789z" fill="#a86338"/></svg>