<svg fill="none" height="60" viewBox="0 0 281 60" width="281" xmlns="http://www.w3.org/2000/svg" xmlns:xlink="http://www.w3.org/1999/xlink"><mask id="a" height="41" maskUnits="userSpaceOnUse" width="213" x="57" y="13"><path d="m57.7756 13.098h211.4064v40.7056h-211.4064z" fill="#fff"/></mask><path clip-rule="evenodd" d="m20.9084 5.70274c-1.8187.91915-5.6516 2.70758-7.7275 4.1349-2.076 1.42736-1.8187 2.75746-2.7273 3.67666-.90867.9191-3.63726 3.2157-5.45456 4.5931-1.81863 1.3788-1.3643 5.0554-1.81863 6.4342-.45432 1.3774-1.36298 4.5931-1.8173 5.9719-.455645 1.3787.90865 3.217 1.8173 5.0553.90997 1.837 3.18161 6.8911 4.09157 8.7281.90866 1.8383 3.63722.9192 5.90892 2.7575 2.2716 1.8383 5.4545 4.1362 7.7275 5.5136 2.2716 1.3788 3.1816 1.3788 5.4545 0 2.2717-1.3787 5.4546-3.6766 7.7275-5.5149 2.2716-1.837 5.0002-.9179 5.9089-2.7562.9086-1.8383 3.1816-6.8911 4.0916-8.7294.9086-1.8383 2.2716-3.6766 1.8173-5.054-.4544-1.3788-1.363-4.5958-1.8173-5.9733-.4544-1.3787 0-5.054-1.8187-6.4328-1.8186-1.3787-3.9287-3.133-5.4545-4.5944-1.5258-1.4615-.9087-2.2979-2.7273-3.67667-1.8186-1.37743-5.9089-3.21444-7.7275-4.13359-1.8186-.91916-3.6372-.91916-5.4545 0z" fill="#fff" fill-rule="evenodd"/><path clip-rule="evenodd" d="m14.4886 13.6745 8.5074 5.8367c.1913.1285.4156.1992.6461.2035.2308-.0021.4557-.073.646-.2035l8.514-5.8564c.1634-.1177.2936-.2757.3781-.4585.0844-.1828.1203-.3843.104-.585-.0162-.2007-.084-.3938-.1967-.5607-.1128-.1668-.2667-.3017-.4469-.3917l-8.5074-4.23337c-.1591-.07772-.3338-.11813-.5108-.11813-.1771 0-.3518.04041-.5108.11813l-8.4825 4.23337c-.1836.0902-.3404.2269-.4545.3966-.1142.1697-.1819.3664-.1962.5704-.0144.204.0251.4083.1144.5923s.2253.3413.3944.4563zm12.0436 7.6684c-.0002.1902.0456.3776.1334.5463s.215.3137.3708.4228l6.8202 4.685c.2116.1469.4667.2178.7237.2011.2571-.0167.5009-.1199.6918-.293l5.7211-5.1433c.1263-.1137.2264-.2536.2933-.4099s.0989-.3253.0939-.4952-.0469-.3367-.1228-.4888c-.076-.1521-.1841-.2858-.317-.3919l-5.4624-4.391c-.1926-.1541-.4296-.2424-.6761-.2518-.2465-.0095-.4896.0604-.6934.1993l-7.0723 4.8624c-.1531.1071-.2787.249-.3663.414-.0877.165-.1349.3472-.1379.534zm-16.96376 6.3737c.27574.2495.41756.6172.38079.9888-.01713.1837-.07836.3606-.17849.5156s-.2362.2835-.39664.3746l-4.07187 2.4542c-.41363.2469-.93492.2114-1.31046-.0906s-.52917-.8076-.38342-1.2711l1.50611-4.7638c.05725-.1849.15998-.3525.29877-.4874s.30921-.2328.49564-.2847c.18575-.0545.38246-.0596.5708-.0149.18833.0446.36179.1376.5033.2696zm22.09006.499-7.3638-5.0659c-.1907-.1292-.4157-.1983-.6461-.1983-.2303 0-.4553.0691-.646.1983l-7.3638 5.0646c-.145.1014-.2656.234-.3528.3881-.0872.154-.139.3256-.1514.5022-.0097.178.02.3559.0869.5212.067.1652.1696.3136.3005.4347l7.3572 6.6153c.2111.1903.4852.2957.7694.2957.2843 0 .5584-.1054.7695-.2957l7.3559-6.6166c.1311-.1203.2334-.2686.2993-.4339.066-.1653.0938-.3432.0815-.5207-.0095-.1764-.0592-.3483-.1452-.5026s-.2061-.2869-.3511-.3877zm-19.6398-1.3105-5.7159-5.1433c-.12741-.1166-.22812-.2593-.2952-.4184-.06709-.1591-.09898-.3308-.09348-.5034.00272-.1701.04297-.3375.11787-.4903.07491-.1528.18262-.2871.31545-.3934l5.46246-4.4172c.1941-.1542.4323-.2425.6801-.2519.2477-.0095.492.0604.6973.1994l7.0657 4.8623c.3283.2167.5252.5856.5252.9822 0 .3965-.1969.7642-.5252.9809l-6.8136 4.685c-.4399.3021-1.0229.2627-1.4207-.0919zm29.3434 7.3888-5.8182-3.5007c-.2102-.1275-.456-.1836-.7007-.1599s-.4752.1258-.6571.2912l-7.1116 6.3789c-.1475.1332-.2588.3015-.3238.4893-.065.1877-.0815.3889-.048.5847.0335.1959.116.38.2398.5355.1237.1554.2848.2771.4681.3536l9.8652 4.018c.2785.1108.589.1091.8662-.0045.2773-.1137.4996-.3304.6202-.6047l3.0595-6.8832c.1202-.2627.1398-.5603.0551-.8365s-.2678-.5117-.5147-.6617zm.8076-8.3696 1.5061 4.7638h-.0131c.0549.1757.0681.3618.0384.5435-.0296.1817-.1012.3539-.2091.5031-.1686.2334-.4184.3952-.7004.4535-.2819.0584-.5755.009-.8228-.1384l-4.0785-2.4555c-.1572-.0927-.2898-.2219-.3867-.3766s-.1552-.3304-.17-.5123c-.0191-.1832.0054-.3683.0716-.5402.0662-.1718.1721-.3256.3092-.4486l2.5868-2.3163c.2928-.2626.6959-.3584 1.0728-.2547.1866.054.3569.1534.4958.2893.1388.1358.2419.304.2999.4894zm-21.5805 12.4519c.0344-.1953.0187-.3961-.0456-.5838-.0643-.1876-.1751-.3558-.3221-.489l-7.1104-6.3802c-.1818-.1654-.4123-.2676-.657-.2912-.2447-.0237-.4905.0324-.7007.1599l-5.81695 3.502c-.24428.1508-.42592.3847-.51155.6588-.08564.274-.06951.5697.0454.8328l3.06343 6.8845c.11981.2753.34237.4929.62027.6064.27789.1136.58915.1142.8675.0016l9.8586-4.0181c.1835-.0747.345-.195.4692-.3493.1243-.1544.2073-.3378.2412-.5331zm3.4914 1.9631 7.9127 3.2197c.1908.0829.356.2151.4785.3832.1226.168.1981.3657.2187.5727.0249.2095-.0076.4219-.0941.6143s-.2237.3577-.397.4782l-7.9179 5.5294c-.1893.1342-.4152.2075-.6473.2101-.2315-.0041-.4565-.0772-.646-.2101l-7.9127-5.5281c-.174-.1199-.3124-.2847-.4003-.4769-.0879-.1923-.1221-.4047-.0989-.6148s.1028-.41.2305-.5784c.1276-.1685.2986-.2992.4946-.3783l7.9126-3.2197c.2781-.1116.5885-.1129.8666-.0013z" fill="#bf4722" fill-rule="evenodd"/><g fill="#fff" mask="url(#a)"><path d="m64.1782 28.2365h2.0642c2.0248 0 3.5191-.3335 4.4816-.9979.9638-.6657 1.4457-1.7123 1.4457-3.1383 0-1.4128-.4951-2.4174-1.4864-3.0148-.9783-.5988-2.4988-.8968-4.5643-.8968h-1.9408zm0 5.1342v11.4291h-6.4026v-29.786h8.7977c4.1034 0 7.1392.7406 9.1076 2.2204 1.9696 1.4667 2.9531 3.7016 2.9531 6.7033 0 1.7517-.4885 3.3142-1.4667 4.6864-.977 1.3577-2.361 2.424-4.1494 3.1987 4.5433 6.6967 7.503 11.022 8.8791 12.9772h-7.1038l-7.2088-11.4291z"/><path d="m91.1516 26.0161c-1.3354 0-2.3819.4202-3.1383 1.2632-.7589.8272-1.1922 2.009-1.3025 3.5453h8.8396c-.0275-1.5363-.4333-2.7181-1.2185-3.5453-.7852-.843-1.8449-1.2632-3.1803-1.2632zm.8876 19.1921c-3.716 0-6.6218-1.0111-8.7149-3.0359-2.0931-2.0235-3.1383-4.8899-3.1383-8.5981 0-3.8171.9625-6.7637 2.8901-8.8423 1.9421-2.0917 4.6195-3.1383 8.0335-3.1383 3.263 0 5.8038.9179 7.6211 2.751 1.8173 1.8343 2.7263 4.3673 2.7263 7.6001v3.0148h-14.8907c.0696 1.7661.5988 3.1449 1.5902 4.1362.9913.9914 2.3819 1.4878 4.1716 1.4878 1.3919 0 2.705-.1432 3.9445-.4281 1.338-.3199 2.6392-.7775 3.8824-1.3656v4.8085c-1.1013.5436-2.2778.9441-3.5318 1.2015-1.2514.2718-2.7798.4084-4.584.4084zm20.1588 0c-2.713 0-4.846-1.0387-6.403-3.1173-1.541-2.0786-2.312-4.9582-2.312-8.6388 0-3.7357.784-6.6416 2.354-8.7189 1.582-2.093 3.758-3.1382 6.526-3.1382 2.905 0 5.121 1.1135 6.65 3.3404h.206c-.315-1.6978-.474-3.2118-.474-4.5432v-7.2942h6.318v31.7018h-4.832l-1.218-2.9545h-.268c-1.432 2.2415-3.615 3.3629-6.547 3.3629zm2.21-4.9504c1.609 0 2.787-.4622 3.532-1.3866.756-.9231 1.168-2.4922 1.238-4.7061v-.6723c0-2.4449-.386-4.1966-1.157-5.2563-.757-1.0596-1.996-1.5888-3.717-1.5888-1.405 0-2.499.5909-3.283 1.7727-.772 1.1686-1.158 2.8717-1.158 5.1131 0 2.2415.394 3.9261 1.178 5.0528.785 1.1135 1.906 1.6715 3.367 1.6715zm34.531 4.542-1.776-7.9652-2.396-10.0648h-.144l-4.214 18.03h-6.774l-6.567-22.7781h6.278l2.664 10.0858c.427 1.8068.861 4.299 1.302 7.4767h.123c.055-1.0321.297-2.6682.724-4.9096l.329-1.732 2.851-10.9209h6.938l2.707 10.9209.246 1.3249c.263 1.2612.476 2.5318.641 3.8093.096.625.151 1.1279.166 1.5074h.123c.125-.9769.344-2.315.662-4.0128.206-1.1586.434-2.3134.681-3.4639l2.767-10.0845h6.175l-6.65 22.7781zm20.571-11.4291c0 2.2546.371 3.9589 1.115 5.1131.757 1.1556 1.982 1.7333 3.676 1.7333 1.68 0 2.884-.5712 3.614-1.7122.743-1.1556 1.115-2.8665 1.115-5.1342 0-2.2546-.372-3.9458-1.115-5.0738-.743-1.1266-1.962-1.6899-3.656-1.6899-1.679 0-2.891.5633-3.634 1.6899-.744 1.1148-1.115 2.8048-1.115 5.0738zm15.963 0c0 3.7081-.99 6.6074-2.973 8.6992-1.983 2.0917-4.743 3.1383-8.281 3.1383-2.217 0-4.172-.4754-5.866-1.4261-1.693-.9651-2.994-2.3438-3.902-4.1362-.909-1.7936-1.363-3.8854-1.363-6.2765 0-3.72.983-6.614 2.953-8.6782 1.968-2.0642 4.736-3.0962 8.301-3.0962 2.217 0 4.172.4753 5.866 1.426 1.693.9506 2.993 2.3149 3.902 4.0942.909 1.7805 1.363 3.8644 1.363 6.2555zm8.531 0c0 2.2546.372 3.9589 1.116 5.1131.757 1.1556 1.983 1.7333 3.676 1.7333 1.679 0 2.884-.5712 3.613-1.7122.745-1.1556 1.116-2.8665 1.116-5.1342 0-2.2546-.371-3.9458-1.116-5.0738-.743-1.1266-1.962-1.6899-3.654-1.6899-1.681 0-2.892.5633-3.635 1.6899-.744 1.1148-1.116 2.8048-1.116 5.0738zm15.965 0c0 3.7081-.992 6.6074-2.975 8.6992-1.982 2.0917-4.742 3.1383-8.281 3.1383-2.217 0-4.172-.4754-5.864-1.4261-1.694-.9651-2.996-2.3438-3.904-4.1362-.909-1.7936-1.363-3.8854-1.363-6.2765 0-3.72.985-6.614 2.953-8.6782 1.97-2.0642 4.736-3.0962 8.303-3.0962 2.216 0 4.171.4753 5.864 1.426 1.694.9506 2.995 2.3149 3.904 4.0942.908 1.7805 1.363 3.8644 1.363 6.2555zm10.822 11.8375c-2.711 0-4.845-1.0387-6.401-3.1173-1.543-2.0786-2.314-4.9582-2.314-8.6388 0-3.7357.785-6.6416 2.354-8.7189 1.584-2.093 3.76-3.1382 6.527-3.1382 2.905 0 5.122 1.1135 6.649 3.3404h.207c-.316-1.6978-.475-3.2118-.475-4.5432v-7.2942h6.32v31.7018h-4.833l-1.219-2.9545h-.268c-1.431 2.2415-3.613 3.3629-6.547 3.3629zm2.21-4.9504c1.611 0 2.789-.4622 3.532-1.3866.757-.9231 1.17-2.4922 1.238-4.7061v-.6723c0-2.4449-.384-4.1966-1.155-5.2563-.758-1.0596-1.997-1.5888-3.717-1.5888-1.405 0-2.499.5909-3.284 1.7727-.771 1.1686-1.157 2.8717-1.157 5.1131 0 2.2415.392 3.9261 1.178 5.0528.783 1.1135 1.906 1.6715 3.365 1.6715z"/><path d="m235.89 53.5607c-1.446 0-2.706-.1484-3.779-.4465v-5.2576c1.1.2718 2.106.4071 3.015.4071 1.404 0 2.409-.4333 3.015-1.3039.606-.8548.908-2.2007.908-4.0338v-27.9122h6.403v27.8715c0 3.477-.806 6.1255-2.416 7.9455-1.611 1.8199-3.993 2.7299-7.146 2.7299zm33.292-17.0321c0 2.6892-.985 4.8086-2.953 6.3554-1.955 1.5494-4.681 2.3241-8.178 2.3241-3.222 0-6.072-.5987-8.551-1.7936v-5.8669c2.038.8955 3.76 1.5271 5.163 1.8948 1.418.3663 2.713.5502 3.883.5502 1.404 0 2.478-.2653 3.222-.7958.757-.5291 1.136-1.317 1.136-2.3635 0-.583-.165-1.0991-.496-1.5481-.331-.4609-.82-.9034-1.467-1.3236-.633-.4202-1.934-1.0938-3.902-2.0169-1.845-.8562-3.229-1.6782-4.151-2.466-.906-.7668-1.656-1.7007-2.21-2.7509-.551-1.0452-.826-2.2677-.826-3.6661 0-2.6354.901-4.7075 2.705-6.2149 1.817-1.5074 4.323-2.2611 7.518-2.2611 1.569 0 3.063.1838 4.481.5502 1.431.3676 2.926.8824 4.482 1.5494l-2.066 4.9083c-1.611-.6513-2.946-1.1069-4.006-1.3656-1.013-.2535-2.053-.3832-3.098-.386-1.212 0-2.141.2783-2.789.8351-.646.5567-.97 1.2842-.97 2.1797 0 .5581.131 1.0465.393 1.468.261.4071.675.8076 1.239 1.2015.578.3808 1.934 1.0728 4.068 2.0786 2.822 1.3302 4.757 2.6682 5.804 4.0128 1.045 1.3315 1.569 2.9676 1.569 4.9109z"/></g></svg>