<svg fill="none" height="42" viewBox="0 0 43 42" width="43" xmlns="http://www.w3.org/2000/svg" xmlns:xlink="http://www.w3.org/1999/xlink"><clipPath id="a"><path d="m.25 0h42v42h-42z"/></clipPath><g clip-path="url(#a)"><path d="m11.6075 33.32h-.4025l-1.9775-1.995v-.4025l3.0275-2.9925h2.1l.2625.2625v2.1l-2.9925 3.0275zm-2.38-22.2775v-.3675l1.9775-1.9775h.4025l2.9925 2.9925v2.1l-.2625.2625h-2.1zm17.43 15.9075h-2.8875l-.245-.2275v-6.7025c0-1.19-.4725-2.1-1.925-2.1525-.735 0-1.575 0-2.5025.035l-.1225.14v8.68l-.245.245h-2.905l-.2275-.245v-11.445l.2275-.245h6.475c.599-.0023 1.1925.1137 1.7466.3413.554.2276 1.0577.5624 1.4821.9852.4243.4227.761.9251.9908 1.4782.2297.5532.348 1.1463.348 1.7453v7.14l-.2275.245zm-14.6475-4.27h-11.515l-.245-.245v-2.87l.245-.245h11.515l.245.245v2.87zm29.995 0h-11.515l-.245-.245v-2.87l.245-.245h11.515l.245.245v2.87zm-22.4175-11.2175v-8.5925l.245-.245h2.8875l.245.245v8.575l-.245.245h-2.8875zm0 27.6675v-8.575l.245-.245h2.8875l.245.2275v8.5925l-.245.245h-2.8875z" fill="#a86338"/></g></svg>