<svg fill="none" height="42" viewBox="0 0 36 42" width="36" xmlns="http://www.w3.org/2000/svg" xmlns:xlink="http://www.w3.org/1999/xlink"><clipPath id="a"><path d="m.607544 0h34.8v42h-34.8z"/></clipPath><g clip-path="url(#a)"><path d="m35.1781 31.9089-14.4519-30.58821c-.1796-.376368-.4579-.697351-.8056-.92898-.3476-.23163-.7516-.3652905-1.1692-.3868384-.4184-.0279445-.8364.05898-1.2087.2513204-.3723.19234-.6845.482732-.9028.839598l-15.674538 25.30281c-.238339.3821-.362461.8239-.357814 1.2738.004646.4498.137869.8891.38405 1.2661l7.663342 11.8279c.28992.444.71609.7827 1.21495.9656.49891.1828 1.04371.2 1.55311.0491l22.2393-6.5564c.3348-.0976.6448-.2656.9088-.4929.2641-.2272.4761-.5083.6218-.8243.1437-.3143.2168-.656.2145-1.0013-.0024-.3454-.0803-.6861-.2282-.9984zm-3.2356 1.3119-18.8712 5.5616c-.5757.1707-1.1283-.3267-1.0085-.9057l6.7422-32.17527c.126-.60196.9601-.69734 1.2238-.14023l12.481 26.4157c.0552.1177.0841.2459.0847.3758.0007.1299-.027.2584-.081.3767-.054.1182-.1331.2234-.2319.3082-.0987.0848-.2147.1472-.34.183z" fill="#a86338"/></g></svg>