<svg fill="none" height="336" viewBox="0 0 579 336" width="579" xmlns="http://www.w3.org/2000/svg" xmlns:xlink="http://www.w3.org/1999/xlink"><clipPath id="a"><path d="m0 0h578.6v335.6h-578.6z"/></clipPath><g clip-path="url(#a)"><path d="m49 277.1c-1.3.1-2.3 1.5-2.3 3.1v.1c-3.7.3-6.8-8.3-10.5-17.6-3.7-9.4-8.1-19.6-14.3-22.1 5.2-1.5 9.9-5.1 13.4-10.5 3.4-5.2 5.6-12.2 5.6-20.6 0-10.1-3.1-18.1-8.1-23.6s-12-8.5-19.9-8.5c-4.3 0-8.6 0-12.8 0 0 0-.2 1.9 1.4 1.9s1.6 9 1.6 9.8v36 36.1c0 .8-.1 9.8-1.6 10s-1.5 2-1.5 2c5.4-.6 10.7-1.1 16.1-1.6 0 0 .2-1.9-1.4-1.7s-1.7-8.8-1.7-9.5c0-6.4 0-12.8 0-19.2 2.9.8 6.9 8.7 11 17.4 4.1 8.6 8.2 18.1 11.1 22.4 4.6 6.8 11.9 5.1 14.3 3 1.5-1.3 2-2.9 2-4.2-.1-1.7-1.1-2.8-2.4-2.7zm-35.1-40.7c-.3 0-.6.1-.9.1 0-9 0-18 0-26.9 0-9 0-18 0-27 8.5.2 18.4 8.4 18.4 26.8 0 15.5-8.9 26.4-17.5 27zm564.6-30.2c0-20.5-11.2-28.9-25-28.9-4.3 0-8.7 0-13 0 0 0-.2 1.9 1.4 1.9s1.7 9.1 1.7 9.6v35.3 35.4c0 .6-.1 9.6-1.7 9.5-1.5-.1-1.4 1.8-1.4 1.8 6.9.5 13.8 1.1 20.7 1.6 10.4.8 17.3-11 17.3-26.3 0-5.2-.1-13.5-.1-21.3.1-7.8.1-15.1.1-18.6zm-22.7 60.8c-.8-.1-1.5-.2-2.3-.4 0-13.8 0-27.6 0-41.4 0-13.9 0-27.7 0-41.5 12.3.5 15.1 6.6 15.1 22.3v18.3c0 8 .1 16.6.1 21.9 0 10.4-4.9 21.5-12.9 20.8zm-475.9-34.6s-4.5-1.2-4.5 4c0 3.8-1.5 18.8-9.1 19.6-1.7.2-3.5.3-5.3.4 0-6.8 0-13.6 0-20.4 1-.1 7.6-.2 7.6 1.7 0 1.8 1.5 1.5 1.5 1.5 0-4 0-7.9 0-11.9 0 0-1.5-.1-1.5 1.6 0 1.9-6.6 2.5-7.6 2.5 0-7.2 0-14.4 0-21.6s0-14.4 0-21.6c1.9-.1 3.7-.1 5.6-.1 9.5.1-.8 18.6 5.2 25.2 1.5 1.7 3.5 1.5 4.9.9 1.7-.8 2.8-2.6 2.8-4.2 0-1.5-1.1-2.8-2.3-2.8-1.2.1-2.4 1.4-2.4 2.9v.2c-.4-.2-.6-1-.6-1.9.3-5.4 4.9-19.2 4.9-25-10.4.1-20.7.1-31.1.2 0 0-.2 1.9 1.4 1.8 1.6 0 1.7 8.6 1.7 9.4v27.8 27.7c0 .7-.1 9.4-1.7 9.5-1.5.1-1.4 1.9-1.4 1.9 10.6-.8 21.2-1.6 31.8-2.5-1.7-8.4-1.7-15.2-1.4-19.8.5-4.4 1.5-7 1.5-7zm46.8 22.5c-1.7.1-3-8.5-3.1-8.6-.2-1.9-.6-3.8-.8-5.7 6.5-2.4 5-12.7-1.2-12.5 0 0 2.4 3.2.1 5.2-1-6.5-2.1-13-3-19.6-1-6.5-2-13.1-3-19.7 0-.2-1.1-8.8.5-8.8 1.5 0 1.1-1.7 1.1-1.7-5.5 0-10.9.1-16.4.1 0 0-.5 1.7 1 1.7 1.6-.1.1 8.5 0 8.9-1.7 8.9-3.5 17.8-5.2 26.8-1.6 9-3.4 17.9-5.1 26.9-.1.5-1.9 9.1-3.5 9.2-1.5.1-1.6 1.9-1.6 1.9 4.2-.3 8.3-.6 12.6-.8 0 0 .5-1.7-1.1-1.6-1.4.1-.3-6.9 0-8.6.7-3.9 3.9-12.2 14.9-8.3.3 2.4.7 4.7 1.1 7.1.1.5 1.2 8.7-.5 8.8-1.5.1-1 1.8-1 1.8 5.3-.3 10.6-.6 15.9-.9-.2-.1-.3-1.7-1.7-1.6zm-26.8-18.4c1.1-6 2.3-11.9 3.4-17.8s2.3-11.8 3.4-17.7c.8 5.6 1.6 11.1 2.4 16.6s1.7 11 2.6 16.5c-3.2-.5-6.9-.7-11.8 2.4zm56.1-2.8c5.1-.1 5.2 15.9-3.9 16.3-3.9.1-6.6-6.5-6.6-11.8 0-6.3 0-12.5 0-18.7s0-12.4 0-18.7c0-5.4 2.8-13.3 7.3-13.3 8.6-.1-.8 17.5 5.2 23.7 1.6 1.7 3.5 1.5 5 .9 1.5-.7 2.7-2.3 2.7-3.9 0-1.5-1-2.6-2.3-2.6s-2.3 1.2-2.3 2.7v.2c-.5-.2-.8-.9-.7-1.8.3-5 5.1-18 5.1-23.4-4.5 0-8.9-.2-13.3 0-8.9.4-16.5 7.7-16.5 17.6v18.8 18.8c0 9.7 7.3 17.1 16.3 16.7 9.3-.4 14.7-7.4 14.7-17-.1-11.5-10.7-9.4-10.7-4.5zm54.7-28.6c-1.4 0-2.4 1.2-2.4 2.6v.2c-.4-.2-.6-.8-.6-1.7.3-4.9 4.8-17.6 4.8-23-13.1.1-26.3.1-39.4.1 0 5.5 4.6 18.3 5 23.2.1.9-.2 1.5-.7 1.8.1-.1.1-.1.1-.2 0-1.5-1.1-2.6-2.4-2.6-1.2 0-2.3 1.2-2.3 2.7 0 1.7 1.6 3.3 2.8 3.8 1.3.6 3.3.6 4.8-1.1 6-6.4-4.3-23.3 5.2-23.6.7-.1 1.4-.1 2.1-.1v28.2 28.3c0 .6-.1 8.5-1.6 8.5-1.6.1-1.4 1.7-1.4 1.7 5.3-.2 10.7-.3 16.1-.4 0 0 .2-1.6-1.4-1.6-1.6.1-1.7-7.9-1.7-8.4 0-9.4 0-18.8 0-28.2s0-18.7 0-28.1h2.2c9.5.2-.8 17.1 5.2 23.3 1.6 1.6 3.5 1.6 5 1 1.4-.6 2.7-2.3 2.7-3.8.1-1.4-.8-2.6-2.1-2.6zm67.7 46.1c-1.7 0-3-8.2-3.1-8.4-.2-1.8-.6-3.6-.8-5.4 6.5-2 5-11.9-1.2-11.9 0 0 2.4 3.2.1 5-1-6.2-2.1-12.5-3-18.7-1-6.2-2-12.5-2.9-18.7-.1-.2-1.2-8.4.4-8.4 1.5.1 1.1-1.6 1.1-1.6-5.5 0-10.9 0-16.3 0 0 0-.6 1.6 1 1.6s.1 7.9 0 8.3c-1.7 8.3-3.5 16.6-5.2 24.8-1.7 8.3-3.4 16.6-5.1 24.9-.1.5-1.9 8.4-3.5 8.4-1.5 0-1.7 1.6-1.7 1.6 4.2 0 8.3-.1 12.6-.1 0 0 .5-1.6-1.1-1.6-1.4.1-.3-6.4 0-8 .8-3.6 3.9-11.2 14.9-7.1.3 2.3.7 4.5 1.1 6.7.1.5 1.2 8.3-.5 8.3-1.5 0-1 1.6-1 1.6 5.3 0 10.6.1 15.9.1-.2.2-.3-1.4-1.7-1.4zm-26.8-18.5c1.1-5.5 2.3-11 3.4-16.6 1.1-5.5 2.3-11 3.4-16.6.8 5.2 1.6 10.5 2.5 15.7.8 5.2 1.6 10.5 2.5 15.7-3.2-.7-6.9-1-11.8 1.8zm55.9-49.5c-6.8 0-13.5 0-20.2 0 0 0-.2 1.6 1.4 1.6 1.5 0 1.6 7.9 1.6 8.3v24.8 24.8c0 .5-.1 8.4-1.6 8.4-1.6-.1-1.4 1.6-1.4 1.6 6.7.1 13.5.2 20.2.3 9.2.1 16.5-7.3 16.5-16.7 0-6 0-12.1 0-18.1s0-12.1 0-18.1c0-9.4-7.3-16.9-16.5-16.9zm6.8 53.1c0 7.2-5.2 13-11.6 12.9-.9 0-1.7-.1-2.5-.4 0-10.3 0-20.5 0-30.8s0-20.5 0-30.8c.8-.2 1.6-.3 2.5-.3 6.4.1 11.6 6 11.6 13.1v18.1zm43.2-53s-.5 1.6 1 1.6c1.7 0 .1 8.3 0 8.5-1.6 7.3-3 14.7-4.5 22s-3 14.6-4.5 21.9c-1.2-7.4-2.4-14.7-3.5-22s-2.2-14.7-3.3-22c-.1-.5-1.4-8.5.3-8.5 1.5.1 1.1-1.6 1.1-1.6-5.4 0-10.8 0-16.1 0 0 0 .1 1.6 1.6 1.6 1.6 0 3 8.2 3.1 8.5 1.3 8.3 2.6 16.7 3.9 25.1s2.6 16.8 4 25.2c.1.2 1.2 8.5-.4 8.5-1.5 0-1.1 1.6-1.1 1.6 5.5.2 10.9.3 16.4.5 0 0 .5-1.6-1-1.7-1.6 0-.1-8.1 0-8.5 1.7-8.4 3.5-16.8 5.2-25.2s3.4-16.8 5.2-25.3c.1-.5 1.9-8.5 3.5-8.5s1.6-1.7 1.6-1.7c-4.2 0-8.4 0-12.5 0zm51 71.2c-1.6-.1-3-8.6-3-8.8-.2-1.9-.6-3.8-.8-5.7 6.5-1.9 5-12.3-1.2-12.5 0 0 2.5 3.4.1 5.2-1-6.5-2-13-3-19.5s-2-13-2.9-19.4c-.1-.2-1.2-8.7.3-8.7 1.6 0 1.1-1.7 1.1-1.7-5.5 0-10.9-.1-16.3-.1 0 0-.5 1.7 1 1.7 1.7 0 .1 8.2 0 8.6-1.7 8.5-3.5 17-5.2 25.5s-3.4 16.9-5.1 25.4c-.1.5-1.9 8.5-3.5 8.5-1.5-.1-1.7 1.6-1.7 1.6 4.2.2 8.3.3 12.6.5 0 0 .5-1.7-1.1-1.7-1.4 0-.3-6.6 0-8.2.8-3.7 3.9-11.4 14.9-6.8.3 2.3.7 4.6 1.1 7 .1.5 1.1 8.7-.5 8.7-1.5-.1-1.1 1.6-1.1 1.6 5.3.2 10.6.5 16 .7-.1-.1-.3-1.8-1.7-1.9zm-26.8-20.1c1.1-5.7 2.3-11.3 3.4-17 1.1-5.6 2.3-11.3 3.4-17 .8 5.4 1.7 10.8 2.5 16.2.8 5.5 1.6 10.9 2.5 16.3-3.2-.8-6.9-1.3-11.8 1.5zm71.6 22.4c-1.6-.1-1.7-8.6-1.7-9.1 0-8.9 0-17.8 0-26.7s0-17.8 0-26.7c0-.6.2-9 1.7-9s1.4-1.7 1.4-1.7c-5.4-.1-10.8-.1-16.1-.1 0 0-.2 1.7 1.4 1.7s1.6 8.2 1.6 9v14.5 14.5c-1.9-6.6-3.8-13.3-5.6-19.9-1.9-6.6-3.8-13.2-5.6-19.8-4.3 0-8.7-.1-13-.1 0 0-.2 1.7 1.4 1.7 1.6.1 1.7 8.2 1.7 8.8v26.1 26.1c0 .7-.1 8.8-1.7 8.7-1.5-.1-1.4 1.6-1.4 1.6 4.2.2 8.3.4 12.6.6 0 0 .1-1.7-1.4-1.7-1.7-.1-1.7-9.1-1.7-9.1 0-6.8 0-13.7 0-20.6 0-6.8 0-13.7 0-20.6 2.4 8.7 5 17.4 7.4 26.1 2.4 8.8 5 17.6 7.4 26.5 4.3.2 8.7.5 13.1.7-.1.3 0-1.4-1.5-1.5zm29.6-19.3c5.1.2 5.2 17.5-3.9 17-4-.3-6.6-7.5-6.6-13.2 0-6.5 0-13.1 0-19.6s0-13.1 0-19.7c0-5.6 2.8-13.9 7.3-13.9 8.5.1-.8 18.5 5.1 25.5 1.6 1.9 3.5 1.7 5 1.2 1.6-.7 2.8-2.3 2.8-4.1 0-1.6-1-2.9-2.3-2.9s-2.3 1.3-2.3 2.8v.2c-.5-.2-.7-1-.7-1.9.3-5.4 5-19.2 5-25.1-4.5 0-8.8-.2-13.2-.1-9 .3-16.5 7.8-16.5 18.1v19.5 19.5c0 10.1 7.3 18.7 16.4 19.2 9.2.6 14.6-6.5 14.6-16.9-.2-12.5-10.7-10.8-10.7-5.6zm49.7-2.4s-4.5-1.7-4.5 3.8c0 3.9-1.5 19.4-9 19.2-1.8-.1-3.6-.2-5.4-.3 0-6.9 0-13.8 0-20.7 1 .1 7.6.6 7.6 2.6 0 1.8 1.4 1.6 1.4 1.6 0-4.1 0-8.2 0-12.3 0 0-1.4-.3-1.4 1.5 0 2-6.6 1.9-7.6 1.9 0-7.3 0-14.7 0-22s0-14.7 0-22c1.9 0 3.7 0 5.6.1 9.5.3-.8 19 5.2 26.3 1.5 1.8 3.5 1.8 4.8 1.2 1.7-.7 2.8-2.5 2.8-4.2 0-1.6-1.1-3-2.3-3-1.3-.1-2.4 1.3-2.4 2.9v.2c-.5-.3-.7-1-.6-2 .3-5.6 5-19.8 5-25.9-10.4-.1-20.7-.1-31.1-.1 0 0-.2 1.8 1.4 1.8 1.5 0 1.6 8.6 1.6 9.4v27.7 27.7c0 .7-.1 9.3-1.6 9.2-1.6-.1-1.4 1.7-1.4 1.7 10.6.7 21.2 1.4 31.8 2.1-1.7-9-1.7-16.1-1.4-21 .6-4.7 1.5-7.4 1.5-7.4z" fill="#fff"/><path d="m217.2 318.4s-3.5-.9-3.5 2.4c0 2.4-1.1 11.8-6.9 12.1h-4.1v-38.7c.1-.9.2-5.7 1.4-5.7 1.1 0 1.1-1.1 1.1-1.1h-12.3s-.2 1.1 1 1.1c1.3 0 1.3 5.9 1.3 5.9v34.4s0 5.8-1.3 5.8c-1.2 0-1 1.1-1 1.1h24.4c-2.7-11-.1-17.3-.1-17.3zm18.2-31.1h-.1c-6.8.1-12.3 5.2-12.3 11.7v25c0 6.3 5.5 11.4 12.3 11.7 6.7-.6 12.2-5.2 12.3-11.7v-25c-.1-6.4-5.5-11.5-12.2-11.7zm4.5 36.6c0 3.4-1.9 6.4-4.7 7.9-2.8-1.6-4.7-4.5-4.7-7.9v-25c0-3.5 1.9-6.4 4.7-8 2.8 1.6 4.7 4.5 4.7 8zm42.2 10.6c-1.2 0-1.4-5.5-1.4-5.8v-34.5c0-.4.2-5.8 1.4-5.8s1.1-1.1 1.1-1.1h-12.3s-.2 1.1 1.1 1.1c1.2 0 1.2 5.4 1.2 5.8v18.9l-8.6-25.8h-10s-.2 1.1 1.1 1.1c1.2 0 1.2 5.4 1.2 5.8v34.5c0 .5-.1 5.8-1.2 5.8-1.2 0-1.1 1.1-1.1 1.1h9.6s.1-1.1-1.1-1.1c-1.3 0-1.4-5.9-1.4-5.9v-27l11.4 34h10c.1 0 .3-1.1-1-1.1zm23.6-47.2h-15.6s-.2 1.1 1 1.1 1.3 5.5 1.3 5.8v34.5c0 .3-.1 5.8-1.3 5.8s-1 1.1-1 1.1h15.6c7 0 12.7-5.2 12.7-11.7v-25c0-6.5-5.7-11.6-12.7-11.6zm5.1 36.6c0 5-4 9-8.9 9-.7 0-1.2-.1-1.9-.2v-42.7c.6-.1 1.2-.2 1.9-.2 4.9 0 8.9 4.1 8.9 9.1zm27-36.6c-6.9.1-12.4 5.2-12.4 11.7v25c0 6.3 5.5 11.4 12.3 11.7 6.7-.6 12.2-5.2 12.3-11.7v-25c0-6.4-5.5-11.5-12.2-11.7zm4.6 36.6c0 3.4-1.9 6.4-4.7 7.9-2.8-1.6-4.7-4.5-4.7-7.9v-25c0-3.5 1.9-6.4 4.7-8 2.8 1.6 4.7 4.5 4.7 8zm42.2 10.6c-1.2 0-1.4-5.5-1.4-5.8v-34.5c0-.4.1-5.8 1.4-5.8 1.2 0 1.1-1.1 1.1-1.1h-12.4s-.1 1.1 1.1 1.1 1.3 5.4 1.3 5.8v18.9l-8.7-25.8h-10s-.1 1.1 1.1 1.1 1.3 5.4 1.3 5.8v34.5c0 .5-.1 5.8-1.3 5.8s-1.1 1.1-1.1 1.1h9.6s.1-1.1-1-1.1c-1.3 0-1.4-5.9-1.4-5.9v-27l11.4 34h10c.1 0 .2-1.1-1-1.1z" fill="#fff"/><path clip-rule="evenodd" d="m367.6 78.8c-4.6 0-9 2.6-12 6-1.2 1.2-2.4 2.5-3.7 3.7-.3.3-.7.7-1.1 1v-42c0-34.4-32-47.399994-61.5-47.399994s-61.5 12.999994-61.5 47.399994v34.3 12.9c8.2 7.6 17.7 13.6 28.3 17.7 10.3 4.1 21.5 6.4 33.2 6.5 11.8-.2 23-2.5 33.4-6.6 10.7-4.3 20.4-10.5 28.7-18.2-6.9 9.7-23.9 18.2-28.1 19.8-10.5 4.2-22 6.6-34 6.7-11.9-.1-23.4-2.5-33.9-6.6-10.8-4.3-20.7-10.5-29.1-18.4l-.3-.2v-7.6c-1-1-2.1-2-3.1-3.1-3-3.3-7.4-6-12-6-6.1 0-11.1 5-11.1 11.1 0 11.8 30.6 31.9 40 36.6 14.9 7.4 31.7 11.5 49.5 11.5 17.7 0 34.5-4.1 49.5-11.5 9.4-4.6 40-24.7 40-36.6-.1-6-5.1-11-11.2-11zm-129-47.8c7.5-14.4 22.5-24.29999 39.8-24.29999 1.6 0 3.3.1 4.9.3-18.6.3-34.9 9.79999-44.7 23.99999zm50.6 99.6c-31.5 0-59.8-13.6-79.3-35.3 20.8 19.4 48.7 31.3 79.3 31.3 30.7 0 58.5-11.9 79.3-31.3-19.5 21.6-47.8 35.3-79.3 35.3z" fill="#fff" fill-rule="evenodd"/><path d="m227.1 46.4c5.8 2.1 13.6 4.8 19.9 6.5 4.2 1.1 8.5 2.2 12.7 3-.1.2-.2.7-.3.9-10.6-2.1-22.4-5.9-32.5-9.5z" fill="#3c3c3c"/><path d="m227.2 58.4c8.9 3.5 18.1 6.4 27.5 8.4-.1.3-.2.6-.2.9-4.5-.9-8.7-2.1-13-3.4-4.9-1.5-9.7-3.2-14.3-5.1z" fill="#3c3c3c"/><path clip-rule="evenodd" d="m243.7 64.5c2.4-8.6 3.6-12.8 3.6-12.8.3-1-.3-1.7-1.9-2.1 0 0-2.9-.7-8.7-2.1-1.5-.1-2.4.6-2.6 2.2-1 3.2-2.1 7-3 11.5-.2 1.6.6 3.2 2.2 3.5 4.9 1.4 7.2 1.8 7.2 1.8 1.5.1 2.7-.8 3.2-2zm.7-12.2c-2 7-2.9 10.6-2.9 10.6-.4.8-1 1.2-1.9 1.2 0 0-1.5-.5-4.7-1.2-1.1-.4-1.9-.8-1.6-2.4 1.4-5.2 2.1-7.9 2.1-7.9 1.5-5.5 2.2-1.5 8.6-1.2.6 0 .7.2.4.9z" fill="#3c3c3c" fill-rule="evenodd"/><path d="m244 64.6 3.7-13c.2-.6.1-1.2-.3-1.6s-1-.7-1.9-.9l-8.7-2.1h-.1c-.8-.1-1.5.2-2.1.7-.5.4-.8 1.1-1 1.9-.5 1.6-1 3.4-1.5 5.3s-1 4-1.4 6.3v.1c-.1.8.1 1.7.5 2.5.4.7 1.1 1.2 1.9 1.5 4.9 1.3 7.2 1.7 7.2 1.8h.1c.8.1 1.5-.1 2.1-.5.8-.7 1.3-1.3 1.5-2zm2.9-13.2-3.7 13c-.2.6-.6 1.1-1.1 1.4-.4.3-1 .5-1.6.3-.1 0-2.4-.5-7.2-1.7-.6-.2-1.1-.6-1.4-1.1-.4-.6-.5-1.3-.5-2 .5-2.2 1-4.3 1.5-6.2s1-3.7 1.5-5.2v-.1c.1-.7.5-1.5.8-1.7.8-.7 2.3-.1 3.3.2l6.7 1.6c.7.2 1.2.4 1.5.7.3 0 .3.4.2.8zm-4.9 11.7s.7-3.3 2.6-9.7c.1-.4.2-.8.3-1.2.1-.3.1-.5 0-.7-.1-.3-.3-.4-.6-.5l-.1-.1c-1.2-.1-2.5-.2-3.8-.6-.9-.2-1.7-.5-2.6-.9-.7-.3-1.2-.3-1.5 0-.2.2-.3.4-.5.8-.2.6-.5 1.3-.7 2.1-.6 2.4-1.7 5.6-2.1 7.9-.1.9 0 1.5.3 1.9.4.5.9.7 1.5.9h.1c1 .3 2.9.8 4.3 1 .8.2 1.3.2 1.7-.1.5 0 .8-.3 1.1-.8z" fill="#fff"/><path clip-rule="evenodd" d="m228.8 48.1c-.1 7.3-.5 10.7-.5 10.7-.3-.1-.8-.3-1.3-.6-.3-.2.1-9.4.3-10.4 0-.4.6-.1 1.5.3z" fill="#fff" fill-rule="evenodd"/><path d="m328.7 69.8c6.2 1.4 16.5 2.5 22.4 2.2v.9c-2.1.1-4.8.1-7.8-.2-3.5-.3-11-1-14.7-2.1zm-3.3 13c5.4 1.3 22 2.6 25.5 2v1c-6.6.3-18-.5-25.8-2.1z" fill="#3c3c3c"/><path clip-rule="evenodd" d="m349.4 72.9c-1.5 5.3-1.7 9.4.1 12.1.6 0 1.3-.1 1.5-.1 0-.1.1-3.7.4-10.8.1-.7.1-1.1-.5-1.2 0 0-.5 0-1.5 0z" fill="#fff" fill-rule="evenodd"/><path clip-rule="evenodd" d="m234.6 61c1.1-3.2 1.9-6.2 2.4-9.1-1.4 2.9-2.2 5.9-2.4 9.1z" fill="#000" fill-rule="evenodd"/><path clip-rule="evenodd" d="m253.8 39.8 9.2-9.1 4.4 4.3-9.2 9.2z" fill="#000" fill-rule="evenodd"/><path d="m253.3 39.2 9.7-9.6 5.5 5.5-10.3 10.2-5.4-5.5zm9.7-7.5-8.1 8.1 3.3 3.3 8.1-8.1z" fill="#fff"/><path clip-rule="evenodd" d="m256 37.6 5.4-5.4 4.3 4.4-5.3 5.4z" fill="#000" fill-rule="evenodd"/><path d="m255.5 37.1 5.9-5.9 5.4 5.5-6.5 6.4-5.4-5.5zm5.9-3.7-4.3 4.2 3.3 3.3 4.3-4.3z" fill="#fff"/><path clip-rule="evenodd" d="m255.6 32.4c1.7-1.7 4.3-1.9 6.1-.5l-6.6 6.5c-1.4-1.8-1.2-4.4.5-6z" fill="#000" fill-rule="evenodd"/><path d="m255 31.8c1-1 2.2-1.5 3.5-1.6 1.2-.1 2.5.2 3.7 1.1l.7.5-7.9 7.8-.5-.7c-.8-1.1-1.1-2.4-1-3.7.1-1.2.6-2.4 1.5-3.4zm3.6 0c-.9.1-1.8.5-2.5 1.1-.7.7-1.1 1.6-1.1 2.5-.1.6.1 1.3.3 1.9l5.2-5.2c-.6-.3-1.2-.4-1.9-.3z" fill="#fff"/><path d="m251.565 71.378-5.931 1.8061 3.787 12.4358 5.931-1.8061z" fill="#000"/><path d="m248.7 85.8-4-13.1 7.4-2.3 4.2 13.9-7.4 2.3zm-2.1-12.1 3.3 10.9 4.5-1.4-3.4-10.8z" fill="#fff"/><path clip-rule="evenodd" d="m248.5 82.7-2.2-7.3 5.9-1.8 2.2 7.3z" fill="#000" fill-rule="evenodd"/><path d="m247.8 82.9-2.4-8 7.4-2.3 2.6 8.7-7.4 2.3zm-.5-7 1.7 5.8 4.5-1.4-1.7-5.8z" fill="#fff"/><path clip-rule="evenodd" d="m243.7 80.6c-.7-2.3.4-4.6 2.4-5.6l2.7 9c-2.2.2-4.4-1.2-5.1-3.4z" fill="#000" fill-rule="evenodd"/><path d="m242.9 80.8c-.4-1.3-.3-2.6.2-3.8.6-1.1 1.5-2.1 2.6-2.7l.8-.4 3.2 10.6-.9.1c-1.3.2-2.6-.1-3.7-.8-.9-.7-1.8-1.7-2.2-3zm1.7-3.2c-.3.8-.4 1.8-.1 2.8s.8 1.7 1.6 2.2c.5.3 1.1.5 1.7.6l-2.1-7c-.5.3-.9.8-1.1 1.4z" fill="#fff"/><path clip-rule="evenodd" d="m272.7 107.5 12.6 3.1 1.5-6.1-12.6-3.1z" fill="#000" fill-rule="evenodd"/><path d="m273.7 106.9 11.1 2.7 1.1-4.5-11.1-2.7zm11.4 4.4-13.3-3.3 1.8-7.5 14.1 3.4-1.9 7.5z" fill="#fff"/><path clip-rule="evenodd" d="m275.8 108.2 7.3 1.8 1.5-6-7.4-1.8z" fill="#000" fill-rule="evenodd"/><path d="m276.7 107.6 5.9 1.5 1.1-4.6-5.9-1.4zm6.2 3.1-8.1-2 1.9-7.5 8.8 2.1-1.9 7.6z" fill="#fff"/><path clip-rule="evenodd" d="m278.1 112.9c2.3.6 4.6-.6 5.5-2.8l-9.1-2.2c-.2 2.3 1.3 4.4 3.6 5z" fill="#000" fill-rule="evenodd"/><path d="m278.3 112.1c1 .2 1.9.1 2.8-.3.5-.3 1-.7 1.4-1.2l-7.2-1.7c.1.6.3 1.2.7 1.7.5.7 1.3 1.3 2.3 1.5zm3.4 1.1c-1.1.6-2.5.7-3.8.4-1.4-.3-2.4-1.1-3.2-2.1-.7-1.1-1.1-2.4-1-3.7l.1-.8 10.8 2.6-.3.8c-.5 1.2-1.5 2.2-2.6 2.8z" fill="#fff"/><path clip-rule="evenodd" d="m333.1 58.3-4.4-12.2-5.8 2.1 4.4 12.2z" fill="#000" fill-rule="evenodd"/><path d="m332.2 57.8-3.9-10.7-4.4 1.6 3.9 10.7zm-2.7-11.9 4.7 12.9-7.3 2.6-4.9-13.6 7.3-2.6z" fill="#fff"/><path clip-rule="evenodd" d="m332.1 55.4-2.6-7.2-5.8 2.2 2.6 7.1z" fill="#000" fill-rule="evenodd"/><path d="m331.1 54.9-2-5.7-4.4 1.6 2 5.7zm-.8-6.9 2.8 7.8-7.3 2.6-3.1-8.6 7.3-2.6z" fill="#fff"/><path clip-rule="evenodd" d="m334.7 50.8c-.8-2.2-3.1-3.4-5.4-3l3.2 8.8c2-1.1 3-3.5 2.2-5.8z" fill="#000" fill-rule="evenodd"/><path d="m334 51.1c-.3-.9-1-1.6-1.7-2.1-.6-.3-1.2-.5-1.8-.5l2.5 6.9c.5-.5.8-1 1.1-1.5.2-.9.2-1.9-.1-2.8zm-1-3.4c1.1.6 2 1.6 2.5 2.9.5 1.2.4 2.6-.1 3.8s-1.3 2.3-2.5 2.9l-.8.5-3.8-10.5.8-.2c1.4-.3 2.7 0 3.9.6z" fill="#fff"/><path clip-rule="evenodd" d="m318 100 8.5-9.8-4.6-4.1-8.5 9.7z" fill="#000" fill-rule="evenodd"/><path d="m317.9 98.8 7.6-8.6-3.5-3-7.6 8.6zm9.3-8.1-9.1 10.3-5.8-5.1 9.6-10.9 5.8 5.1z" fill="#fff"/><path clip-rule="evenodd" d="m320.1 97.6 5-5.7-4.7-4.1-5 5.7z" fill="#000" fill-rule="evenodd"/><path d="m320 96.5 4-4.5-3.5-3.1-3.9 4.5zm5.6-4.1-5.5 6.3-5.8-5.1 6-6.8 5.8 5.1z" fill="#fff"/><path clip-rule="evenodd" d="m325.3 97.7c1.5-1.7 1.5-4.4.1-6.1l-6.1 7c1.8 1.2 4.4.9 6-.9z" fill="#000" fill-rule="evenodd"/><path d="m324.7 97.2c.7-.7 1-1.6 1-2.5 0-.6-.1-1.2-.4-1.8l-4.8 5.5c.6.2 1.2.3 1.9.2.8-.2 1.7-.7 2.3-1.4zm2.5-2.5c0 1.3-.5 2.5-1.4 3.5s-2.1 1.6-3.4 1.8c-1.2.2-2.6-.1-3.7-.8l-.7-.5 7.3-8.3.6.7c.9 1 1.3 2.3 1.3 3.6z" fill="#fff"/><path clip-rule="evenodd" d="m310.9 27.5-12.2-4.3-2 5.8 12.1 4.3z" fill="#000" fill-rule="evenodd"/><path d="m311.2 26.8-13-4.6-2.6 7.3 13.7 4.8 2.5-7.3zm-12-2.7 10.8 3.8-1.6 4.4-10.8-3.8z" fill="#fff"/><path clip-rule="evenodd" d="m308 26.4-7.2-2.5-2 5.9 7.1 2.5z" fill="#000" fill-rule="evenodd"/><path d="m308.3 25.8-7.9-2.8-2.6 7.3 8.6 3 2.6-7.3zm-6.9-.9 5.7 2-1.6 4.4-5.7-2z" fill="#fff"/><path clip-rule="evenodd" d="m306.1 21.6c-2.2-.8-4.6.2-5.7 2.2l8.8 3.1c.4-2.3-.8-4.5-3.1-5.3z" fill="#000" fill-rule="evenodd"/><path d="m306.4 20.8c-1.3-.5-2.6-.4-3.8.1s-2.2 1.3-2.8 2.5l-.5.8 10.5 3.7.2-.9c.3-1.4 0-2.6-.6-3.8-.7-1-1.7-1.9-3-2.4zm-3.2 1.5c.8-.3 1.8-.3 2.8 0 .9.3 1.6 1 2.1 1.7.3.5.5 1.1.5 1.7l-6.9-2.4c.3-.4.9-.8 1.5-1z" fill="#fff"/><path clip-rule="evenodd" d="m294.5 28c21.1 2.9 35.8 22.3 32.9 43.3-2.9 21.1-22.3 35.8-43.3 32.9-21.1-2.9-35.8-22.3-32.9-43.3 2.9-21.1 22.3-35.8 43.3-32.9z" fill="#000" fill-rule="evenodd"/><path clip-rule="evenodd" d="m294 31.9c18.9 2.6 32.1 20 29.5 38.9s-20 32.2-38.9 29.6-32.1-20.1-29.5-39 20-32.1 38.9-29.5z" fill="#fff" fill-rule="evenodd"/><path d="m294.1 31.1c9.6 1.4 17.9 6.5 23.3 13.6 5.5 7.2 8.2 16.5 6.9 26.2-1.4 9.6-6.5 17.9-13.6 23.3-7.2 5.5-16.5 8.2-26.2 6.9-9.6-1.3-17.9-6.4-23.3-13.6-5.5-7.2-8.2-16.5-6.9-26.1 1.4-9.7 6.4-17.9 13.6-23.4 7.3-5.5 16.6-8.2 26.2-6.9zm22.1 14.6c-5.2-6.9-13.1-11.8-22.3-13.1-9.2-1.2-18.1 1.4-25 6.6s-11.8 13.1-13.1 22.3 1.4 18.1 6.6 25 13.1 11.8 22.3 13.1 18.1-1.4 25-6.5c6.9-5.2 11.8-13.1 13.1-22.4 1.3-9.2-1.3-18.1-6.6-25z" fill="#fff"/><path d="m294.6 27.2c10.8 1.5 19.9 7.2 25.9 15.2 6.1 7.9 9.1 18.3 7.7 29-1.5 10.8-7.2 19.9-15.2 26-8 6-18.3 9-28.9 7.6h-.1c-10.8-1.5-19.9-7.2-26-15.2-6-8-9-18.3-7.6-28.9v-.2c1.5-10.7 7.2-19.8 15.2-25.9 8-6 18.3-9 29-7.6zm24.8 16.1c-5.9-7.7-14.7-13.1-25-14.6-10.3-1.4-20.2 1.5-27.9 7.3-7.7 5.9-13.2 14.7-14.6 25s1.5 20.2 7.3 27.9c5.9 7.7 14.6 13.2 24.9 14.6h.1c10.3 1.4 20.2-1.5 27.9-7.3 7.7-5.9 13.2-14.6 14.6-24.9 1.4-10.4-1.5-20.3-7.3-28z" fill="#fff"/><path d="m320.4 66.4c.1-3.6-3.6-7-9.6-9.4-1.1-.5-2.3-.9-3.5-1.2.3-1.3.6-2.6.7-3.8.8-6.3-.2-11.2-3.3-13l-.4-.2c-3.2-1.5-7.7.1-12.5 4-.8.7-1.7 1.4-2.6 2.3-.9-.8-1.7-1.6-2.6-2.3-4.8-3.9-9.4-5.5-12.5-4h-.1l-.3.2c-3.1 1.8-4.2 6.6-3.3 13 .2 1.1.4 2.3.7 3.5-1.1.3-2.1.7-3 1-6.2 2.3-10 5.7-10.1 9.4 0 3.6 3.8 7.1 9.9 9.5 1 .4 2.1.8 3.3 1.1-.3 1.3-.6 2.5-.7 3.7-.9 6.3.2 11.2 3.3 13 3.2 1.8 8.1.2 13.2-4.1.8-.6 1.5-1.2 2.3-2 .7.7 1.5 1.4 2.3 2 5.1 4.2 10 5.9 13.2 4.1 3.1-1.7 4.2-6.6 3.3-13-.3-2.2-.8-4.3-1.4-6.5-.6-2-2-5.5-2.8-7.6-.5 1-1.2 2.6-1.7 3.8.4 1.1 1.2 3.5 1.6 4.6-1.5.4-3.2.7-4.8.9.6-1 1.2-1.9 1.7-2.9.8-1.5 1.6-2.9 2.3-4.3.3-.6.6-1.2.9-2 1.1-2.6 2.1-5.1 2.8-7.5 1.2.3 2.3.7 3.2 1.1 4.8 2 7.7 4.3 7.7 6.5 0 2.3-3 4.6-7.8 6.5-.6.2-2.4.8-3 1 .3 1 .5 2 .8 2.9.7-.2 2.6-.9 3.3-1.1 5.8-2.3 9.5-5.6 9.5-9.2zm-16.1-11.3c-.6 2.6-1.4 5.1-2.4 7.6-.5-1-1-1.9-1.5-2.8-.6-1-1.1-1.9-1.7-2.8 1.2.2 3.6.6 4.8 1 .4-1.1.7-2.1.8-3-2.1-.5-5.5-1.1-7.8-1.4-1.6-2.4-3.4-4.5-5.2-6.4.8-.7 1.6-1.5 2.4-2.1 4-3.2 7.6-4.6 9.5-3.5 2 1.1 2.5 4.8 1.9 9.9-.3 1.1-.5 2.3-.8 3.5zm.1 22.4c.2 1.1.5 2.2.6 3.2.7 5.1.2 8.8-1.7 10-2 1.1-5.6-.4-9.8-3.8-2.4-2-5-4.7-7.5-7.9 1 .1 2.1.1 3.2.1 1.2 0 2.3-.1 3.5-.1-.8 1.1-2.5 3-3.3 3.9.7.8 1.5 1.6 2.3 2.3 1.5-1.6 3.6-4.5 5-6.4 2.6-.3 5.2-.7 7.7-1.3zm-22.5 1.2c1.7 2.4 3.4 4.5 5.2 6.4-.7.7-1.4 1.3-2.1 1.9-4.1 3.4-7.8 4.9-9.7 3.8-2-1.1-2.5-4.8-1.8-10 .2-1.1.4-2.2.7-3.3 2.3.5 5 .9 7.7 1.2zm-7-4.2c.4-1.5 1-3 1.6-4.6.2-.5.3-.9.6-1.4v-.1c1-2.3 2.1-4.7 3.5-7.1v-.1c1-1.7 2-3.3 3-4.8 1.8-.2 3.7-.2 5.6-.2 1.9.1 3.8.1 5.6.3 1 1.5 2 3.1 2.9 4.7 1 1.7 1.8 3.3 2.6 5-.7 1.6-1.6 3.2-2.5 4.8-1 1.7-2 3.3-3 4.8-1.9.2-3.8.2-5.8.2-5.1.1-10-.5-14.1-1.5zm7.1-20.9c-2.8.3-5.5.7-7.9 1.3-.2-1.1-.5-2.2-.6-3.2-.7-5.1-.1-8.8 1.8-9.9 2-1.1 5.5.3 9.5 3.5.8.6 1.6 1.4 2.4 2.1-1.5 1.5-3.8 4.4-5.2 6.2 1.6-.1 1.3.1 4.1-.2.7-1 2.4-3 3.2-3.9 1.1 1.2 2.2 2.5 3.3 3.9-1.1-.1-2.1-.1-3.3-.1-2.4 0-4.8.1-7.3.3zm-2.2 3.3c-.6.9-1.1 1.8-1.6 2.7l-.1.2c-.6.9-1.1 1.9-1.5 2.8-.7-1.7-1.2-3.3-1.7-4.8 1.5-.4 3.1-.7 4.9-.9zm-7.9 1.6c.7 2.5 1.7 5.1 2.9 7.7-1.1 2.5-2.1 5.1-2.8 7.4-1.1-.3-2-.7-2.9-1-5-2-8-4.4-8-6.7s3.1-4.7 8.1-6.5c.8-.3 1.7-.6 2.7-.9zm11.6 17.3c-.7-1.1-2.3-3.5-2.9-4.8-.6-1.1-2-3.4-2.6-4.5-.7 1.4-.8 1.6-1.5 3.4.7 1.7 2.1 4.2 2.8 5.4 1.4.3 3 .4 4.2.5z" fill="#000"/><path clip-rule="evenodd" d="m289.2 71.1c2.7 0 4.9-2.2 4.9-4.9s-2.2-4.9-4.9-4.9-4.9 2.2-4.9 4.9 2.2 4.9 4.9 4.9z" fill="#000" fill-rule="evenodd"/><g fill="#fff"><path d="m289.2 70.7c1.2 0 2.3-.5 3.1-1.3s1.4-1.9 1.4-3.2c0-1.2-.5-2.3-1.4-3.1-.8-.8-1.9-1.4-3.1-1.4s-2.4.5-3.2 1.4c-.8.8-1.3 1.9-1.3 3.1s.5 2.4 1.3 3.2c.9.8 2 1.3 3.2 1.3zm3.8-.7c-1 1-2.3 1.6-3.8 1.6s-2.8-.6-3.8-1.6-1.6-2.3-1.6-3.8.6-2.8 1.6-3.8 2.3-1.6 3.8-1.6 2.8.6 3.8 1.6 1.6 2.3 1.6 3.8-.6 2.8-1.6 3.8z"/><path d="m303.7 78.8c-.1-.7-.2-1.5-.5-2.3-.2-.8-.5-1.6-.8-2.5l.8-.3c.3.8.6 1.7.8 2.5s.4 1.6.5 2.4z"/><path d="m276.2 70.6c.4-1 .8-1.9 1.2-2.9.5-1 .9-2 1.4-3l.8.3c-.9 2-1.8 3.9-2.6 6.1-.3-.1-.6-.3-.8-.5z"/><path d="m286.2 84.1c.7.8 1.4 1.5 2.1 2.2.6.7 1.3 1.3 1.9 1.8l-.6.7c-1.4-1.2-2.8-2.6-4.1-4.1z"/><path d="m279 78.3c1.6.3 3.3.5 5 .6 1.6.1 3.3.2 5 .2v.9c-1.7 0-3.4-.1-5-.2-1.7-.2-3.4-.3-5.1-.6z"/><path d="m277.9 57.2c1.2-.2 2.6-.4 4.1-.6 1.5-.1 3.1-.2 4.8-.3l.1.9c-1.7.1-3.3.2-4.8.3-1.5.2-2.8.3-4 .6z"/><path d="m271.7 60.9c-.5-1.4-1-2.8-1.3-4.2-.4-1.5-.6-2.9-.8-4.5l.9-.1c.2 1.5.5 3 .8 4.4s.8 2.8 1.3 4.1z"/><path d="m295 58.6c-.7-1.3-1.5-2.5-2.3-3.5-.8-1.1-1.6-2-2.4-2.9l.6-.7c.9.9 1.7 1.9 2.5 3s1.6 2.3 2.4 3.6z"/><path d="m306 60.6c.4-1.2.8-2.5 1.1-3.7s.6-2.4.8-3.6l.8.2c-.2 1.2-.5 2.4-.8 3.7s-.7 2.5-1.1 3.8z"/><path d="m288.7 50.1c.7-.8 1.4-1.6 2.1-2.3s1.4-1.3 2.1-1.8l.5.7c-.6.5-1.3 1.1-2 1.7-.7.7-1.4 1.4-2 2.2z"/></g><path clip-rule="evenodd" d="m302.9 67.6c.3 1.5.1 2.6-.6 3.3-.3-.8-.6-1.4-.8-1.8.9-1 1.4-1.5 1.4-1.5z" fill="#000" fill-rule="evenodd"/></g></svg>