<svg fill="none" height="42" viewBox="0 0 42 42" width="42" xmlns="http://www.w3.org/2000/svg"><path d="m21 17.6925c1.8025 0 3.2725 1.47 3.2725 3.3075 0 1.75-1.47 3.2375-3.2725 3.2375s-3.2725-1.4875-3.2725-3.2375c0-1.8375 1.47-3.3075 3.2725-3.3075zm-8.1025 17.3075c1.1025.665 3.5175-.35 6.3-2.975-.91-1.0325-1.8025-2.1525-2.6425-3.325-1.4102-.135-2.8122-.3453-4.2-.63-.8925 3.745-.56 6.3175.5425 6.93zm1.2425-10.045-.5075-.8925c-.1925.5075-.385 1.015-.5075 1.505.4725.105.9975.1925 1.54.28zm11.445-1.33 1.4175-2.625-1.4175-2.625c-.525-.9275-1.085-1.75-1.5925-2.5725-.945-.0525-1.9425-.0525-2.9925-.0525s-2.0475 0-2.9925.0525c-.5075.8225-1.0675 1.645-1.5925 2.5725l-1.4175 2.625 1.4175 2.625c.525.9275 1.085 1.75 1.5925 2.5725.945.0525 1.9425.0525 2.9925.0525s2.0475 0 2.9925-.0525c.5075-.8225 1.0675-1.645 1.5925-2.5725zm-4.585-11.76c-.3325.385-.6825.7875-1.0325 1.26h2.065c-.35-.4725-.7-.875-1.0325-1.26zm0 18.27c.3325-.385.6825-.7875 1.0325-1.26h-2.065c.35.4725.7.875 1.0325 1.26zm8.085-23.13503c-1.085-.665-3.5.35-6.2825 2.975.91 1.03253 1.8025 2.15253 2.6425 3.32503 1.435.14 2.8525.35 4.2.63.8925-3.745.56-6.31753-.56-6.93003zm-1.225 10.04503.5075.8925c.1925-.5075.385-1.015.5075-1.505-.4725-.105-.9975-.1925-1.54-.28zm2.5375-12.33753c2.5725 1.47 2.8525 5.33753 1.7675 9.85253 4.445 1.3125 7.6475 3.4825 7.6475 6.44s-3.2025 5.1275-7.6475 6.44c1.085 4.515.805 8.3825-1.7675 9.8525-2.555 1.47-6.0375-.21-9.3975-3.4125-3.36 3.2025-6.8425 4.8825-9.415 3.4125-2.555-1.47-2.835-5.3375-1.75-9.8525-4.445-1.3125-7.6475-3.4825-7.6475-6.44s3.2025-5.1275 7.6475-6.44c-1.085-4.515-.805-8.38253 1.75-9.85253 2.5725-1.47 6.055.21 9.415 3.4125 3.36-3.2025 6.8425-4.8825 9.3975-3.4125zm-.5075 16.29253c.595 1.3125 1.12 2.625 1.5575 3.955 3.675-1.1025 5.74-2.6775 5.74-3.955s-2.065-2.8525-5.74-3.955c-.4375 1.33-.9625 2.6425-1.5575 3.955zm-17.78 0c-.595-1.3125-1.12-2.625-1.5575-3.955-3.675 1.1025-5.74 2.6775-5.74 3.955s2.065 2.8525 5.74 3.955c.4375-1.33.9625-2.6425 1.5575-3.955zm15.75 3.955-.525.8925c.5425-.0875 1.0675-.175 1.54-.28-.1225-.49-.315-.9975-.5075-1.505zm-5.0575 7.07c2.7825 2.625 5.1975 3.64 6.2825 2.975 1.12-.6125 1.4525-3.185.56-6.93-1.3475.28-2.765.49-4.2.63-.84 1.1725-1.7325 2.2925-2.6425 3.325zm-8.6625-14.98.525-.8925c-.5425.0875-1.0675.175-1.54.28.1225.49.315.9975.5075 1.505zm5.0575-7.07003c-2.7825-2.625-5.1975-3.64-6.3-2.975-1.1025.6125-1.435 3.18503-.5425 6.93003 1.3878-.2848 2.7898-.4951 4.2-.63.84-1.1725 1.7325-2.2925 2.6425-3.32503z" fill="#a86338"/></svg>