<svg fill="none" height="98" viewBox="0 0 311 98" width="311" xmlns="http://www.w3.org/2000/svg" xmlns:xlink="http://www.w3.org/1999/xlink"><clipPath id="a"><path d="m0 0h310.333v98h-310.333z"/></clipPath><mask id="b" height="97" maskUnits="userSpaceOnUse" width="311" x="0" y="0"><path d="m310.333 0h-310.333v96.5766h310.333z" fill="#fff"/></mask><g clip-path="url(#a)"><g mask="url(#b)"><path d="m49.313 34.9731c-5.1954 0-9.3814 4.2157-9.3814 9.3816 0 5.1657 4.2157 9.3816 9.3814 9.3816 5.1659 0 9.3816-4.2159 9.3816-9.3816 0-5.1659-4.2157-9.3816-9.3816-9.3816z" fill="#58c4dc"/><path d="m98.625 44.355c0-7.4221-6.8581-13.9238-17.8131-18.199.1486-.95.2673-1.9297.386-2.8501 1.0687-10.6582-1.4844-18.34745-7.2142-21.64287-6.4127-3.71105-15.4976-1.009401-24.6415 6.32365-9.2033-7.333051-18.2585-10.0347-24.7008-6.32365-5.7298 3.32512-8.3127 11.01437-7.2143 21.64287.0891.9501.2078 1.9001.386 2.8501-.9204.3563-1.811.7125-2.672 1.0986-9.76749 4.3937-15.1411 10.48-15.1411 17.1004 0 6.6205 6.85804 13.9239 17.8131 18.1989-.1485.9501-.2672 1.9298-.386 2.8502-1.0688 10.6583 1.4845 18.3475 7.2143 21.643 1.9594 1.1281 4.2158 1.6922 6.472 1.6625 5.433 0 11.7864-2.8502 18.1694-7.9862 6.3831 5.1063 12.7362 7.9862 18.1989 7.9862 2.2565.0297 4.5129-.5344 6.4721-1.6625 5.73-3.3252 8.3128-11.0146 7.2144-21.643-.089-.9501-.2376-1.9001-.386-2.8502 10.9254-4.275 17.8132-10.7767 17.8132-18.1989m-31.1434-39.66374c1.4548-.0297 2.9095.32656 4.1863 1.0094 3.9782 2.28602 5.7594 8.55024 4.8986 17.10054-.0593.5938-.1189 1.1875-.208 1.7813-4.5423-1.3656-9.2033-2.3454-13.9239-2.9094-2.8499-3.8002-6.0267-7.3331-9.5002-10.5988 5.433-4.21579 10.5393-6.38304 14.5472-6.38304zm-1.8701 49.04534c-1.7518 3.0579-3.6816 6.0268-5.73 8.8769-3.5033.3561-7.0065.5344-10.5394.5344-3.5032 0-7.0361-.1783-10.5393-.5344-2.0485-2.8501-3.9783-5.819-5.73-8.8769-1.7515-3.0578-3.3546-6.1753-4.7797-9.3816 1.4251-3.2065 3.0282-6.3533 4.7797-9.3815 1.7517-3.0282 3.6518-5.9971 5.7003-8.8472 3.5032-.3562 7.0361-.5641 10.5393-.5641 3.5033 0 7.0362.1782 10.5394.5344 2.0485 2.8501 3.9783 5.819 5.73 8.8472 1.7515 3.0579 3.3546 6.1751 4.7797 9.3816-1.4251 3.2062-3.0282 6.3534-4.7797 9.3816m7.1845-3.4736c1.0984 2.9985 2.0188 6.0861 2.7015 9.233-3.0578.95-6.1751 1.6924-9.322 2.2564 1.1875-1.8111 2.3452-3.6815 3.4736-5.641 1.0984-1.9295 2.1375-3.8593 3.1172-5.8187m-23.4538 24.3149c-2.3455-2.1675-4.572-4.483-6.6205-6.9471 2.1672.1187 4.364.2077 6.6205.2077 2.2561 0 4.4533-.089 6.6204-.2077-2.0485 2.4641-4.275 4.7796-6.6204 6.9471zm-16.8334-12.8848c-3.1469-.5344-6.2643-1.2768-9.3222-2.2268.7125-3.1172 1.6032-6.2048 2.7017-9.2033.9797 1.9594 1.9891 3.8892 3.1172 5.8187 1.1281 1.9298 2.2862 3.8299 3.4736 5.641m-6.6205-23.3055c-1.0985-2.9985-1.9892-6.0564-2.7017-9.1736 3.0579-.95 6.1456-1.6924 9.2925-2.2564-1.1874 1.8111-2.3455 3.6516-3.4735 5.611-1.1281 1.9595-2.1376 3.8596-3.1173 5.819zm23.4539-24.3148c2.3455 2.1672 4.572 4.483 6.6204 6.9471-2.1671-.1188-4.3642-.2078-6.6204-.2078-2.2268 0-4.4533.0593-6.6204.2078 2.0484-2.4641 4.2453-4.7799 6.6204-6.9471zm20.3366 18.4958c-1.1283-1.9594-2.2861-3.8296-3.5032-5.6407 3.1469.5344 6.2641 1.3064 9.322 2.2564-.7124 3.1173-1.6031 6.2048-2.7016 9.2033-.9797-1.9594-2.0188-3.8892-3.1172-5.819zm-47.5313-9.7674c-.8906-8.58.9204-14.81453 4.8986-17.10054 1.2767-.71254 2.7315-1.0688 4.186-1.00943 4.0082 0 9.1145 2.19697 14.5475 6.38307-3.4735 3.2657-6.6504 6.7986-9.5003 10.5987-4.7206.5641-9.3816 1.5438-13.924 2.9095-.089-.5938-.1484-1.1875-.2078-1.7813zm-17.33803 21.5241c0-4.6016 4.51265-9.2629 12.38013-12.7958.5343-.2373 1.0687-.475 1.6328-.6827 1.0985 4.6313 2.5829 9.144 4.4236 13.5082-1.8704 4.3643-3.3548 8.9066-4.4533 13.5379-8.8768-3.6219-14.0129-8.6689-14.0129-13.5379m22.296 38.6248c-3.9783-2.2861-5.7892-8.5505-4.8986-17.1007.0594-.5937.1188-1.1578.2078-1.7812 4.5424 1.3655 9.2034 2.3452 13.924 2.9093 2.8499 3.8002 6.0267 7.3628 9.5003 10.5989-7.5705 5.8485-14.5176 7.7783-18.7038 5.3438m49.5204-17.1005c.8608 8.5799-.9203 14.8146-4.8986 17.1005-4.2159 2.4345-11.1333.5047-18.7038-5.3438 3.4735-3.2658 6.6503-6.7987 9.5002-10.5989 4.7206-.5641 9.3816-1.5438 13.9239-2.9093.0891.5938.1487 1.1875.208 1.7812m3.414-8.0159c-1.0985-4.6313-2.5829-9.1439-4.4531-13.5082 1.8702-4.3642 3.3546-8.9065 4.4531-13.5379 8.8472 3.622 14.0131 8.669 14.0131 13.5379 0 4.869-5.1363 9.8863-14.0131 13.5379" fill="#58c4dc"/><path clip-rule="evenodd" d="m266.394 18.3765-.015-.0092 3.103-8.60039c-1.001-.48866-1.467-.93625-1.875-1.32934-1.106-1.06379-1.797-1.72859-11.574-1.72859-13.389 0-21.91 7.80812-21.91 21.43502 0 13.6272 8.58 21.1086 21.583 21.1086 4.75 0 10.154-1.158 13.331-2.9095l-2.138-9.1739c-.514.3395-.95.6585-1.354.9547-2.003 1.4665-3.238 2.3705-9.363 2.3705-7.363 0-11.638-4.958-11.638-12.6175 0-7.6597 4.572-12.4098 11.578-12.4098 3.646 0 7.202 1.0947 10.257 2.9002l-.014.0389zm-142.802 29.8969h-10.331v-40.61384h16.299c10.777 0 16.447 5.01734 16.447 12.85514s-2.85 9.619-8.312 11.6971l10.391 16.0616h-11.638l-8.135-13.6568-4.75.386v13.2412zm5.018-21.0493c4.423-.3264 6.828-2.1374 6.828-6.0563s-2.464-5.3142-7.659-5.3142h-4.365v11.4895zm27.61 21.0493v-40.61384h29.688v8.31274h-19.564v7.8081h15.734v8.2534h-15.734v7.9268h19.564v8.3128zm65.729 0h10.272l-14.161-40.61384h-12.944l-14.429 40.61384h10.272l2.91-8.6395h15.082zm-15.854-16.7147 5.404-15.913 5.195 15.913zm91.293 16.7147v-31.9745h12.915v-8.63934h-36.19v8.63934h12.944v31.9745zm-165.037 17.6346c-2.435-1.5737-4.661-2.3455-7.541-2.3455-5.997 0-10.005 4.1563-10.005 10.9847 0 6.8285 4.067 11.1925 10.094 11.1925 4.887 0 5.714-.7808 6.881-1.8835.272-.2573.562-.5317.927-.8181l.624 3.7406c-2.257 1.4251-5.433 2.2862-8.521 2.2862-8.075 0-13.805-5.6111-13.805-14.3693 0-8.7579 5.789-14.5176 13.805-14.5176 6.116 0 6.667.5186 7.587 1.384.285.2689.607.5714 1.141.9021l-1.187 3.3843zm3.739 8.8178c0 8.7286 5.76 14.3693 13.835 14.3693 8.105 0 13.835-5.819 13.835-14.5473 0-8.7285-5.73-14.3396-13.835-14.3396s-13.835 5.7891-13.835 14.5176zm3.77-.178c0-6.6207 4.097-10.9847 9.976-10.9847 6.026 0 10.183 4.572 10.183 11.1627 0 6.5908-3.949 11.0144-10.005 11.0144-6.057 0-10.154-4.572-10.154-11.1924zm45.336-13.6571h3.652v27.8181h-4.067l-14.785-22.5038v22.2367h-3.652v-27.551h4.156l14.696 22.2367zm28.59 0h-17.011v.0297 27.551h3.741v-11.6084h10.985v-3.4735h-10.985v-8.9659h13.27zm7.482 27.551v-3.1172c.986-.7344 1.957-1.4387 2.893-2.1176 4.93-3.5745 8.893-6.4481 8.893-9.3421 0-3.4439-1.543-3.4736-4.186-3.4736-2.642 0-4.186.9798-6.264 2.5235l-1.276-3.0875c2.078-1.6331 4.661-2.8205 7.926-2.8205 3.266 0 7.63 2.5532 7.63 6.4424s-4.364 7.4518-10.094 11.6081h11.074v3.4439h-16.596zm19.95-10.4214c0 6.5611 4.364 11.0737 10.629 11.0737 6.264 0 10.687-4.5126 10.687-11.0737 0-6.5614-4.423-11.074-10.687-11.074-6.265 0-10.629 4.5126-10.629 11.074zm3.622 0c0-4.4237 2.82-7.6302 7.007-7.6302 4.186 0 7.065 3.2065 7.065 7.6302 0 4.4233-2.879 7.6298-7.065 7.6298-4.187 0-7.007-3.2065-7.007-7.6298zm21.02 10.4214v-3.1172c.986-.7347 1.957-1.4389 2.894-2.1179 4.929-3.5745 8.893-6.4478 8.893-9.3418 0-3.4439-1.544-3.4736-4.187-3.4736-2.642 0-4.186.9798-6.264 2.5235l-1.277-3.0875c2.079-1.6331 4.661-2.8205 7.928-2.8205 3.266 0 7.63 2.5532 7.63 6.4424s-4.364 7.4518-10.095 11.6081h11.075v3.4439h-16.597zm37.169 8.1049v-8.5502h4.276l-.119-3.4439h-4.184v-17.6348h-3.207l-14.251 18.9709.357 2.1078h13.597v8.5502zm-12.408-11.9941 8.877-11.9941v11.9941z" fill="#000" fill-rule="evenodd"/></g></g></svg>