<svg width="532" height="152" viewBox="0 0 532 152" fill="none" xmlns="http://www.w3.org/2000/svg">
<path d="M28.3408 68.1113C28.5687 68.1113 28.7897 68.0749 29.0039 68.002C29.2227 67.929 29.4163 67.8265 29.585 67.6943C29.7536 67.5667 29.888 67.4163 29.9883 67.2432C30.0931 67.0654 30.1478 66.874 30.1523 66.6689H31.3486C31.3441 66.9971 31.2575 67.3115 31.0889 67.6123C30.9248 67.9085 30.7038 68.1683 30.4258 68.3916C30.1478 68.6195 29.8288 68.8018 29.4688 68.9385C29.1087 69.0706 28.7327 69.1367 28.3408 69.1367C27.7803 69.1367 27.2904 69.0365 26.8711 68.8359C26.4518 68.6354 26.1032 68.3643 25.8252 68.0225C25.5426 67.6852 25.3307 67.2956 25.1895 66.8535C25.0482 66.4069 24.9775 65.9375 24.9775 65.4453V65.1582C24.9775 64.6706 25.0482 64.2035 25.1895 63.7568C25.3307 63.3102 25.5426 62.916 25.8252 62.5742C26.1032 62.237 26.4518 61.9681 26.8711 61.7676C27.2904 61.5671 27.7803 61.4668 28.3408 61.4668C28.7783 61.4668 29.1794 61.5374 29.5439 61.6787C29.9131 61.8154 30.2321 62.0023 30.501 62.2393C30.7653 62.4808 30.9727 62.7656 31.123 63.0938C31.2734 63.4219 31.3486 63.7728 31.3486 64.1465H30.1523C30.1478 63.9232 30.0977 63.7135 30.002 63.5176C29.9108 63.3171 29.7855 63.1416 29.626 62.9912C29.4665 62.8408 29.2751 62.7223 29.0518 62.6357C28.833 62.5492 28.596 62.5059 28.3408 62.5059C27.9489 62.5059 27.6185 62.5856 27.3496 62.7451C27.0853 62.9001 26.8711 63.1029 26.707 63.3535C26.543 63.6087 26.4245 63.8936 26.3516 64.208C26.2832 64.5225 26.249 64.8392 26.249 65.1582V65.4453C26.249 65.7689 26.2832 66.0902 26.3516 66.4092C26.4245 66.7236 26.543 67.0062 26.707 67.2568C26.8665 67.512 27.0785 67.7194 27.3428 67.8789C27.6117 68.0339 27.9443 68.1113 28.3408 68.1113ZM33.2422 65.2334C33.2422 64.7002 33.3197 64.2057 33.4746 63.75C33.6296 63.2897 33.8529 62.891 34.1445 62.5537C34.4316 62.2165 34.7826 61.9521 35.1973 61.7607C35.612 61.5648 36.0791 61.4668 36.5986 61.4668C37.1227 61.4668 37.5921 61.5648 38.0068 61.7607C38.4261 61.9521 38.7816 62.2165 39.0732 62.5537C39.3604 62.891 39.5814 63.2897 39.7363 63.75C39.8913 64.2057 39.9688 64.7002 39.9688 65.2334V65.3838C39.9688 65.917 39.8913 66.4115 39.7363 66.8672C39.5814 67.3229 39.3604 67.7194 39.0732 68.0566C38.7816 68.3939 38.4284 68.6582 38.0137 68.8496C37.599 69.041 37.1318 69.1367 36.6123 69.1367C36.0882 69.1367 35.6165 69.041 35.1973 68.8496C34.7826 68.6582 34.4316 68.3939 34.1445 68.0566C33.8529 67.7194 33.6296 67.3229 33.4746 66.8672C33.3197 66.4115 33.2422 65.917 33.2422 65.3838V65.2334ZM34.5068 65.3838C34.5068 65.7484 34.5501 66.097 34.6367 66.4297C34.7233 66.7578 34.8555 67.0472 35.0332 67.2979C35.2064 67.5485 35.4251 67.7467 35.6895 67.8926C35.9538 68.0384 36.2614 68.1113 36.6123 68.1113C36.9587 68.1113 37.2617 68.0384 37.5215 67.8926C37.7858 67.7467 38.0068 67.5485 38.1846 67.2979C38.3577 67.0472 38.4876 66.7578 38.5742 66.4297C38.6608 66.097 38.7041 65.7484 38.7041 65.3838V65.2334C38.7041 64.8734 38.6585 64.5293 38.5674 64.2012C38.4808 63.8685 38.3509 63.5768 38.1777 63.3262C38 63.0755 37.779 62.8773 37.5146 62.7314C37.2549 62.5811 36.9495 62.5059 36.5986 62.5059C36.2477 62.5059 35.9424 62.5811 35.6826 62.7314C35.4229 62.8773 35.2064 63.0755 35.0332 63.3262C34.8555 63.5768 34.7233 63.8685 34.6367 64.2012C34.5501 64.5293 34.5068 64.8734 34.5068 65.2334V65.3838ZM42.0059 69V61.6035H43.1406L43.2295 62.6973C43.3389 62.5423 43.4574 62.401 43.585 62.2734C43.7171 62.1413 43.8561 62.0273 44.002 61.9316C44.2207 61.7858 44.4577 61.6742 44.7129 61.5967C44.9727 61.5146 45.2461 61.4714 45.5332 61.4668C45.9206 61.4668 46.2715 61.5215 46.5859 61.6309C46.9049 61.7402 47.1761 61.9111 47.3994 62.1436C47.6227 62.376 47.7936 62.6722 47.9121 63.0322C48.0352 63.3877 48.0967 63.8115 48.0967 64.3037V69H46.832V64.3311C46.832 64.0029 46.7956 63.7249 46.7227 63.4971C46.6497 63.2692 46.5426 63.0846 46.4014 62.9434C46.2555 62.8021 46.0778 62.6995 45.8682 62.6357C45.6631 62.5719 45.4261 62.54 45.1572 62.54C44.9248 62.54 44.7083 62.5742 44.5078 62.6426C44.3073 62.7064 44.1227 62.7952 43.9541 62.9092C43.8174 63.0094 43.6898 63.1257 43.5713 63.2578C43.4574 63.39 43.3571 63.5358 43.2705 63.6953V69H42.0059ZM55.3291 67.0381C55.3291 66.8877 55.2995 66.7533 55.2402 66.6348C55.181 66.5117 55.0807 66.4001 54.9395 66.2998C54.7982 66.1995 54.6113 66.1084 54.3789 66.0264C54.1465 65.9398 53.8571 65.8623 53.5107 65.7939C53.0869 65.7074 52.6995 65.6025 52.3486 65.4795C52.0023 65.3564 51.7061 65.2083 51.46 65.0352C51.2093 64.8665 51.0156 64.6683 50.8789 64.4404C50.7422 64.208 50.6738 63.9391 50.6738 63.6338C50.6738 63.333 50.7445 63.0527 50.8857 62.793C51.027 62.5286 51.2253 62.2985 51.4805 62.1025C51.7357 61.9066 52.0387 61.7516 52.3896 61.6377C52.7451 61.5238 53.1348 61.4668 53.5586 61.4668C54.0143 61.4668 54.4245 61.526 54.7891 61.6445C55.1536 61.763 55.4635 61.9271 55.7188 62.1367C55.974 62.3464 56.1699 62.5924 56.3066 62.875C56.4479 63.153 56.5186 63.4538 56.5186 63.7773H55.2539C55.2539 63.6178 55.2129 63.4629 55.1309 63.3125C55.0488 63.1576 54.9349 63.0208 54.7891 62.9023C54.6432 62.7839 54.4655 62.6882 54.2559 62.6152C54.0508 62.5423 53.8184 62.5059 53.5586 62.5059C53.2897 62.5059 53.0527 62.5355 52.8477 62.5947C52.6471 62.654 52.4808 62.7337 52.3486 62.834C52.2119 62.9342 52.1094 63.0505 52.041 63.1826C51.9727 63.3148 51.9385 63.4515 51.9385 63.5928C51.9385 63.7386 51.9658 63.8685 52.0205 63.9824C52.0752 64.0964 52.1709 64.1989 52.3076 64.29C52.4398 64.3812 52.6175 64.4632 52.8408 64.5361C53.0687 64.609 53.3558 64.6797 53.7021 64.748C54.1579 64.8438 54.5658 64.9554 54.9258 65.083C55.2858 65.2061 55.5889 65.3542 55.835 65.5273C56.0811 65.7051 56.2679 65.9102 56.3955 66.1426C56.5277 66.375 56.5938 66.6439 56.5938 66.9492C56.5938 67.2773 56.5186 67.5758 56.3682 67.8447C56.2223 68.1136 56.0173 68.3438 55.7529 68.5352C55.4886 68.7266 55.1719 68.8747 54.8027 68.9795C54.4336 69.0843 54.0303 69.1367 53.5928 69.1367C53.0915 69.1367 52.6449 69.0706 52.2529 68.9385C51.861 68.8018 51.5306 68.6217 51.2617 68.3984C50.9883 68.1797 50.7786 67.9245 50.6328 67.6328C50.4915 67.3411 50.4209 67.0381 50.4209 66.7236H51.6855C51.7038 66.9834 51.7721 67.2021 51.8906 67.3799C52.0137 67.5576 52.1663 67.7012 52.3486 67.8105C52.5264 67.9199 52.7246 67.9974 52.9434 68.043C53.1621 68.0885 53.3786 68.1113 53.5928 68.1113C53.93 68.1113 54.224 68.0726 54.4746 67.9951C54.7253 67.9131 54.9212 67.8014 55.0625 67.6602C55.1491 67.5736 55.2152 67.4779 55.2607 67.373C55.3063 67.2682 55.3291 67.1566 55.3291 67.0381ZM61.8164 59.8125V61.6035H64.6328V62.5811H61.8164V66.6006C61.8164 66.8877 61.8529 67.1247 61.9258 67.3115C61.9987 67.4984 62.099 67.6465 62.2266 67.7559C62.3542 67.8698 62.5 67.9495 62.6641 67.9951C62.8327 68.0407 63.0104 68.0635 63.1973 68.0635C63.334 68.0635 63.4753 68.0566 63.6211 68.043C63.7669 68.0247 63.9105 68.0042 64.0518 67.9814C64.1885 67.9587 64.3161 67.9359 64.4346 67.9131C64.5576 67.8857 64.6579 67.863 64.7354 67.8447L64.9131 68.7402C64.8083 68.804 64.6807 68.861 64.5303 68.9111C64.3799 68.9567 64.2158 68.9954 64.0381 69.0273C63.8604 69.0638 63.6712 69.0911 63.4707 69.1094C63.2747 69.1276 63.0788 69.1367 62.8828 69.1367C62.5547 69.1367 62.2471 69.0911 61.96 69C61.6774 68.9043 61.4313 68.7539 61.2217 68.5488C61.012 68.3483 60.8457 68.0885 60.7227 67.7695C60.6042 67.446 60.5449 67.0563 60.5449 66.6006V62.5811H58.6035V61.6035H60.5449V59.8125H61.8164ZM78.9336 64.9395H76.9443V69H75.6865V59.0469H78.6055C79.0703 59.056 79.5078 59.1221 79.918 59.2451C80.3281 59.3682 80.6882 59.5527 80.998 59.7988C81.3034 60.0449 81.5426 60.3548 81.7158 60.7285C81.8936 61.0977 81.9824 61.5329 81.9824 62.0342C81.9824 62.3577 81.9346 62.654 81.8389 62.9229C81.7477 63.1917 81.6201 63.4355 81.4561 63.6543C81.292 63.873 81.096 64.0667 80.8682 64.2354C80.6403 64.404 80.3896 64.5475 80.1162 64.666L82.2285 68.918L82.2217 69H80.8887L78.9336 64.9395ZM76.9443 63.9004H78.6396C78.9222 63.8958 79.1888 63.8525 79.4395 63.7705C79.6901 63.6839 79.9111 63.5609 80.1025 63.4014C80.2894 63.2419 80.4375 63.0482 80.5469 62.8203C80.6562 62.5879 80.7109 62.3213 80.7109 62.0205C80.7109 61.7015 80.6585 61.4235 80.5537 61.1865C80.4489 60.945 80.3031 60.7422 80.1162 60.5781C79.9294 60.4186 79.7061 60.2979 79.4463 60.2158C79.1911 60.1338 78.9108 60.0905 78.6055 60.0859H76.9443V63.9004ZM83.6914 65.2334C83.6914 64.7002 83.7689 64.2057 83.9238 63.75C84.0788 63.2897 84.3021 62.891 84.5938 62.5537C84.8809 62.2165 85.2318 61.9521 85.6465 61.7607C86.0612 61.5648 86.5283 61.4668 87.0479 61.4668C87.5719 61.4668 88.0413 61.5648 88.4561 61.7607C88.8753 61.9521 89.2308 62.2165 89.5225 62.5537C89.8096 62.891 90.0306 63.2897 90.1855 63.75C90.3405 64.2057 90.418 64.7002 90.418 65.2334V65.3838C90.418 65.917 90.3405 66.4115 90.1855 66.8672C90.0306 67.3229 89.8096 67.7194 89.5225 68.0566C89.2308 68.3939 88.8776 68.6582 88.4629 68.8496C88.0482 69.041 87.5811 69.1367 87.0615 69.1367C86.5374 69.1367 86.0658 69.041 85.6465 68.8496C85.2318 68.6582 84.8809 68.3939 84.5938 68.0566C84.3021 67.7194 84.0788 67.3229 83.9238 66.8672C83.7689 66.4115 83.6914 65.917 83.6914 65.3838V65.2334ZM84.9561 65.3838C84.9561 65.7484 84.9993 66.097 85.0859 66.4297C85.1725 66.7578 85.3047 67.0472 85.4824 67.2979C85.6556 67.5485 85.8743 67.7467 86.1387 67.8926C86.403 68.0384 86.7106 68.1113 87.0615 68.1113C87.4079 68.1113 87.7109 68.0384 87.9707 67.8926C88.235 67.7467 88.4561 67.5485 88.6338 67.2979C88.807 67.0472 88.9368 66.7578 89.0234 66.4297C89.11 66.097 89.1533 65.7484 89.1533 65.3838V65.2334C89.1533 64.8734 89.1077 64.5293 89.0166 64.2012C88.93 63.8685 88.8001 63.5768 88.627 63.3262C88.4492 63.0755 88.2282 62.8773 87.9639 62.7314C87.7041 62.5811 87.3988 62.5059 87.0479 62.5059C86.6969 62.5059 86.3916 62.5811 86.1318 62.7314C85.8721 62.8773 85.6556 63.0755 85.4824 63.3262C85.3047 63.5768 85.1725 63.8685 85.0859 64.2012C84.9993 64.5293 84.9561 64.8734 84.9561 65.2334V65.3838ZM97.3291 69L97.2539 67.9814C97.0078 68.346 96.7002 68.6309 96.3311 68.8359C95.9619 69.0365 95.5358 69.1367 95.0527 69.1367C94.6654 69.1367 94.3145 69.0775 94 68.959C93.6855 68.8359 93.4167 68.6468 93.1934 68.3916C92.9701 68.1364 92.7969 67.8128 92.6738 67.4209C92.5553 67.0244 92.4961 66.5505 92.4961 65.999V61.6035H93.7607V66.0127C93.7607 66.4137 93.7926 66.7464 93.8564 67.0107C93.9202 67.2751 94.016 67.4847 94.1436 67.6396C94.2712 67.7992 94.4261 67.9108 94.6084 67.9746C94.7952 68.0384 95.0094 68.0703 95.251 68.0703C95.5335 68.0703 95.7865 68.0384 96.0098 67.9746C96.2331 67.9062 96.4268 67.8128 96.5908 67.6943C96.7275 67.5986 96.846 67.4847 96.9463 67.3525C97.0511 67.2158 97.1377 67.0677 97.2061 66.9082V61.6035H98.4775V69H97.3291ZM103.857 59.8125V61.6035H106.674V62.5811H103.857V66.6006C103.857 66.8877 103.894 67.1247 103.967 67.3115C104.04 67.4984 104.14 67.6465 104.268 67.7559C104.395 67.8698 104.541 67.9495 104.705 67.9951C104.874 68.0407 105.051 68.0635 105.238 68.0635C105.375 68.0635 105.516 68.0566 105.662 68.043C105.808 68.0247 105.951 68.0042 106.093 67.9814C106.229 67.9587 106.357 67.9359 106.476 67.9131C106.599 67.8857 106.699 67.863 106.776 67.8447L106.954 68.7402C106.849 68.804 106.722 68.861 106.571 68.9111C106.421 68.9567 106.257 68.9954 106.079 69.0273C105.901 69.0638 105.712 69.0911 105.512 69.1094C105.316 69.1276 105.12 69.1367 104.924 69.1367C104.596 69.1367 104.288 69.0911 104.001 69C103.718 68.9043 103.472 68.7539 103.263 68.5488C103.053 68.3483 102.887 68.0885 102.764 67.7695C102.645 67.446 102.586 67.0563 102.586 66.6006V62.5811H100.645V61.6035H102.586V59.8125H103.857ZM112.539 69.1367C112.02 69.1367 111.541 69.0479 111.104 68.8701C110.671 68.6924 110.299 68.444 109.989 68.125C109.679 67.806 109.438 67.4277 109.265 66.9902C109.091 66.5527 109.005 66.0765 109.005 65.5615V65.2744C109.005 64.6774 109.101 64.1442 109.292 63.6748C109.483 63.2008 109.739 62.7998 110.058 62.4717C110.372 62.1481 110.73 61.8997 111.131 61.7266C111.536 61.5534 111.951 61.4668 112.375 61.4668C112.908 61.4668 113.373 61.5602 113.77 61.7471C114.171 61.9294 114.503 62.1823 114.768 62.5059C115.032 62.834 115.228 63.2191 115.355 63.6611C115.488 64.1032 115.554 64.5817 115.554 65.0967V65.6641H110.27V65.7119C110.301 66.0719 110.372 66.3887 110.481 66.6621C110.595 66.9355 110.75 67.1771 110.946 67.3867C111.147 67.61 111.388 67.7855 111.671 67.9131C111.953 68.0407 112.266 68.1045 112.607 68.1045C113.059 68.1045 113.46 68.0133 113.811 67.8311C114.161 67.6488 114.453 67.4072 114.686 67.1064L115.458 67.708C115.212 68.0817 114.843 68.4144 114.351 68.7061C113.863 68.9932 113.259 69.1367 112.539 69.1367ZM112.375 62.5059C112.12 62.5059 111.878 62.5537 111.65 62.6494C111.423 62.7406 111.217 62.875 111.035 63.0527C110.853 63.235 110.698 63.4583 110.57 63.7227C110.447 63.9824 110.361 64.2832 110.311 64.625H114.289V64.5635C114.289 64.3356 114.246 64.0918 114.159 63.832C114.073 63.5677 113.952 63.3398 113.797 63.1484C113.642 62.957 113.446 62.8021 113.209 62.6836C112.977 62.5651 112.699 62.5059 112.375 62.5059ZM122.595 67.0381C122.595 66.8877 122.565 66.7533 122.506 66.6348C122.447 66.5117 122.346 66.4001 122.205 66.2998C122.064 66.1995 121.877 66.1084 121.645 66.0264C121.412 65.9398 121.123 65.8623 120.776 65.7939C120.353 65.7074 119.965 65.6025 119.614 65.4795C119.268 65.3564 118.972 65.2083 118.726 65.0352C118.475 64.8665 118.281 64.6683 118.145 64.4404C118.008 64.208 117.939 63.9391 117.939 63.6338C117.939 63.333 118.01 63.0527 118.151 62.793C118.293 62.5286 118.491 62.2985 118.746 62.1025C119.001 61.9066 119.304 61.7516 119.655 61.6377C120.011 61.5238 120.4 61.4668 120.824 61.4668C121.28 61.4668 121.69 61.526 122.055 61.6445C122.419 61.763 122.729 61.9271 122.984 62.1367C123.24 62.3464 123.436 62.5924 123.572 62.875C123.714 63.153 123.784 63.4538 123.784 63.7773H122.52C122.52 63.6178 122.479 63.4629 122.396 63.3125C122.314 63.1576 122.201 63.0208 122.055 62.9023C121.909 62.7839 121.731 62.6882 121.521 62.6152C121.316 62.5423 121.084 62.5059 120.824 62.5059C120.555 62.5059 120.318 62.5355 120.113 62.5947C119.913 62.654 119.746 62.7337 119.614 62.834C119.478 62.9342 119.375 63.0505 119.307 63.1826C119.238 63.3148 119.204 63.4515 119.204 63.5928C119.204 63.7386 119.231 63.8685 119.286 63.9824C119.341 64.0964 119.437 64.1989 119.573 64.29C119.705 64.3812 119.883 64.4632 120.106 64.5361C120.334 64.609 120.621 64.6797 120.968 64.748C121.424 64.8438 121.831 64.9554 122.191 65.083C122.551 65.2061 122.854 65.3542 123.101 65.5273C123.347 65.7051 123.534 65.9102 123.661 66.1426C123.793 66.375 123.859 66.6439 123.859 66.9492C123.859 67.2773 123.784 67.5758 123.634 67.8447C123.488 68.1136 123.283 68.3438 123.019 68.5352C122.754 68.7266 122.438 68.8747 122.068 68.9795C121.699 69.0843 121.296 69.1367 120.858 69.1367C120.357 69.1367 119.91 69.0706 119.519 68.9385C119.127 68.8018 118.796 68.6217 118.527 68.3984C118.254 68.1797 118.044 67.9245 117.898 67.6328C117.757 67.3411 117.687 67.0381 117.687 66.7236H118.951C118.969 66.9834 119.038 67.2021 119.156 67.3799C119.279 67.5576 119.432 67.7012 119.614 67.8105C119.792 67.9199 119.99 67.9974 120.209 68.043C120.428 68.0885 120.644 68.1113 120.858 68.1113C121.196 68.1113 121.49 68.0726 121.74 67.9951C121.991 67.9131 122.187 67.8014 122.328 67.6602C122.415 67.5736 122.481 67.4779 122.526 67.373C122.572 67.2682 122.595 67.1566 122.595 67.0381ZM140.594 63.668H134.489V62.5674H140.594V63.668ZM140.594 66.5049H134.489V65.4111H140.594V66.5049ZM152.563 64.96C152.563 64.3083 152.614 63.6953 152.714 63.1211C152.819 62.5469 152.958 62.0137 153.131 61.5215C153.304 61.0339 153.502 60.5872 153.726 60.1816C153.953 59.776 154.193 59.416 154.443 59.1016C154.689 58.7871 154.938 58.5182 155.188 58.2949C155.439 58.0716 155.678 57.8962 155.906 57.7686L156.173 58.6025C156.027 58.7119 155.879 58.8441 155.729 58.999C155.583 59.154 155.439 59.3271 155.298 59.5186C155.088 59.8148 154.888 60.1634 154.696 60.5645C154.505 60.9609 154.345 61.3962 154.218 61.8701C154.095 62.2985 153.999 62.7702 153.931 63.2852C153.862 63.8001 153.828 64.3538 153.828 64.9463V65.042C153.828 65.6117 153.86 66.1449 153.924 66.6416C153.988 67.1383 154.074 67.5964 154.184 68.0156C154.302 68.4395 154.439 68.8314 154.594 69.1914C154.749 69.556 154.91 69.8818 155.079 70.1689C155.252 70.4424 155.43 70.6839 155.612 70.8936C155.799 71.1077 155.986 71.29 156.173 71.4404L155.906 72.2129C155.678 72.0853 155.437 71.9098 155.182 71.6865C154.931 71.4678 154.683 71.1989 154.437 70.8799C154.186 70.5654 153.947 70.2054 153.719 69.7998C153.495 69.3988 153.299 68.9521 153.131 68.46C152.958 67.9723 152.819 67.4414 152.714 66.8672C152.614 66.293 152.563 65.68 152.563 65.0283V64.96ZM164.335 65.0283C164.335 65.68 164.283 66.293 164.178 66.8672C164.077 67.4414 163.941 67.9723 163.768 68.46C163.594 68.9521 163.394 69.3988 163.166 69.7998C162.943 70.2054 162.708 70.5654 162.462 70.8799C162.211 71.1989 161.958 71.4678 161.703 71.6865C161.452 71.9098 161.213 72.0853 160.985 72.2129L160.719 71.4404C160.91 71.2992 161.104 71.1169 161.3 70.8936C161.496 70.6702 161.683 70.4128 161.86 70.1211C162.029 69.8249 162.191 69.4899 162.346 69.1162C162.505 68.7471 162.635 68.3415 162.735 67.8994C162.84 67.4893 162.92 67.0472 162.975 66.5732C163.034 66.0947 163.063 65.5843 163.063 65.042V64.9463C163.063 64.3311 163.025 63.7728 162.947 63.2715C162.874 62.7702 162.792 62.3441 162.701 61.9932C162.569 61.4919 162.41 61.043 162.223 60.6465C162.036 60.2454 161.844 59.8968 161.648 59.6006C161.498 59.3682 161.343 59.1654 161.184 58.9922C161.024 58.8145 160.869 58.6641 160.719 58.541L160.985 57.7686C161.213 57.8962 161.455 58.0716 161.71 58.2949C161.965 58.5182 162.216 58.7871 162.462 59.1016C162.717 59.4251 162.956 59.7852 163.18 60.1816C163.403 60.5781 163.599 61.0247 163.768 61.5215C163.932 62 164.066 62.5195 164.171 63.0801C164.28 63.6361 164.335 64.2627 164.335 64.96V65.0283ZM182.635 63.668H176.53V62.5674H182.635V63.668ZM182.635 66.5049H176.53V65.4111H182.635V66.5049ZM184.973 67.6533V66.3408L189.396 64.6729L189.806 64.5566L189.396 64.4268L184.973 62.7861V61.4805L191.009 64.0645V65.0625L184.973 67.6533ZM207.258 71.502C206.816 71.4883 206.433 71.3857 206.109 71.1943C205.786 71.0029 205.517 70.75 205.303 70.4355C205.098 70.1348 204.943 69.7975 204.838 69.4238C204.733 69.0547 204.681 68.6878 204.681 68.3232V67.168C204.681 66.5117 204.523 66.0355 204.209 65.7393C203.899 65.443 203.423 65.2926 202.78 65.2881V64.2969C203.423 64.2969 203.899 64.151 204.209 63.8594C204.523 63.5632 204.681 63.0846 204.681 62.4238V61.2617C204.681 60.8926 204.729 60.5166 204.824 60.1338C204.924 59.7464 205.082 59.4001 205.296 59.0947C205.496 58.8031 205.758 58.5661 206.082 58.3838C206.406 58.1969 206.798 58.0967 207.258 58.083L207.401 58.8691C207.073 58.8783 206.811 58.9557 206.615 59.1016C206.424 59.2474 206.28 59.432 206.185 59.6553C206.084 59.8831 206.021 60.1383 205.993 60.4209C205.966 60.7035 205.952 60.9837 205.952 61.2617V62.4238C205.952 62.9707 205.825 63.4515 205.569 63.8662C205.319 64.2764 204.929 64.5885 204.4 64.8027C204.929 65.0124 205.319 65.3245 205.569 65.7393C205.82 66.1494 205.948 66.6257 205.952 67.168V68.3232C205.952 68.6058 205.975 68.8861 206.021 69.1641C206.066 69.4466 206.146 69.6995 206.26 69.9229C206.369 70.1507 206.515 70.3376 206.697 70.4834C206.884 70.6292 207.119 70.7067 207.401 70.7158L207.258 71.502ZM46.8525 83.4668C47.085 83.4668 47.3265 83.4827 47.5771 83.5146C47.8324 83.5465 48.0238 83.5898 48.1514 83.6445L47.9805 84.8818C47.7344 84.8271 47.4997 84.7884 47.2764 84.7656C47.0576 84.7383 46.8275 84.7246 46.5859 84.7246C46.276 84.7246 45.9958 84.7633 45.7451 84.8408C45.4945 84.9137 45.2757 85.0231 45.0889 85.1689C44.9202 85.2965 44.7721 85.4538 44.6445 85.6406C44.5215 85.8229 44.4189 86.028 44.3369 86.2559V91H43.0654V83.6035H44.2686L44.3232 84.5947L44.3301 84.7793C44.6309 84.3737 44.9909 84.0547 45.4102 83.8223C45.834 83.5853 46.3148 83.4668 46.8525 83.4668ZM53.6816 91.1367C53.1621 91.1367 52.6836 91.0479 52.2461 90.8701C51.8132 90.6924 51.4417 90.444 51.1318 90.125C50.8219 89.806 50.5804 89.4277 50.4072 88.9902C50.234 88.5527 50.1475 88.0765 50.1475 87.5615V87.2744C50.1475 86.6774 50.2432 86.1442 50.4346 85.6748C50.626 85.2008 50.8812 84.7998 51.2002 84.4717C51.5146 84.1481 51.8724 83.8997 52.2734 83.7266C52.679 83.5534 53.0938 83.4668 53.5176 83.4668C54.0508 83.4668 54.5156 83.5602 54.9121 83.7471C55.3132 83.9294 55.6458 84.1823 55.9102 84.5059C56.1745 84.834 56.3704 85.2191 56.498 85.6611C56.6302 86.1032 56.6963 86.5817 56.6963 87.0967V87.6641H51.4121V87.7119C51.444 88.0719 51.5146 88.3887 51.624 88.6621C51.738 88.9355 51.8929 89.1771 52.0889 89.3867C52.2894 89.61 52.5309 89.7855 52.8135 89.9131C53.096 90.0407 53.4082 90.1045 53.75 90.1045C54.2012 90.1045 54.6022 90.0133 54.9531 89.8311C55.304 89.6488 55.5957 89.4072 55.8281 89.1064L56.6006 89.708C56.3545 90.0817 55.9854 90.4144 55.4932 90.7061C55.0055 90.9932 54.4017 91.1367 53.6816 91.1367ZM53.5176 84.5059C53.2624 84.5059 53.0208 84.5537 52.793 84.6494C52.5651 84.7406 52.36 84.875 52.1777 85.0527C51.9954 85.235 51.8405 85.4583 51.7129 85.7227C51.5898 85.9824 51.5033 86.2832 51.4531 86.625H55.4316V86.5635C55.4316 86.3356 55.3883 86.0918 55.3018 85.832C55.2152 85.5677 55.0944 85.3398 54.9395 85.1484C54.7845 84.957 54.5885 84.8021 54.3516 84.6836C54.1191 84.5651 53.8411 84.5059 53.5176 84.5059ZM61.8164 81.8125V83.6035H64.6328V84.5811H61.8164V88.6006C61.8164 88.8877 61.8529 89.1247 61.9258 89.3115C61.9987 89.4984 62.099 89.6465 62.2266 89.7559C62.3542 89.8698 62.5 89.9495 62.6641 89.9951C62.8327 90.0407 63.0104 90.0635 63.1973 90.0635C63.334 90.0635 63.4753 90.0566 63.6211 90.043C63.7669 90.0247 63.9105 90.0042 64.0518 89.9814C64.1885 89.9587 64.3161 89.9359 64.4346 89.9131C64.5576 89.8857 64.6579 89.863 64.7354 89.8447L64.9131 90.7402C64.8083 90.804 64.6807 90.861 64.5303 90.9111C64.3799 90.9567 64.2158 90.9954 64.0381 91.0273C63.8604 91.0638 63.6712 91.0911 63.4707 91.1094C63.2747 91.1276 63.0788 91.1367 62.8828 91.1367C62.5547 91.1367 62.2471 91.0911 61.96 91C61.6774 90.9043 61.4313 90.7539 61.2217 90.5488C61.012 90.3483 60.8457 90.0885 60.7227 89.7695C60.6042 89.446 60.5449 89.0563 60.5449 88.6006V84.5811H58.6035V83.6035H60.5449V81.8125H61.8164ZM72.1045 91L72.0293 89.9814C71.7832 90.346 71.4756 90.6309 71.1064 90.8359C70.7373 91.0365 70.3112 91.1367 69.8281 91.1367C69.4408 91.1367 69.0898 91.0775 68.7754 90.959C68.4609 90.8359 68.1921 90.6468 67.9688 90.3916C67.7454 90.1364 67.5723 89.8128 67.4492 89.4209C67.3307 89.0244 67.2715 88.5505 67.2715 87.999V83.6035H68.5361V88.0127C68.5361 88.4137 68.568 88.7464 68.6318 89.0107C68.6956 89.2751 68.7913 89.4847 68.9189 89.6396C69.0465 89.7992 69.2015 89.9108 69.3838 89.9746C69.5706 90.0384 69.7848 90.0703 70.0264 90.0703C70.3089 90.0703 70.5618 90.0384 70.7852 89.9746C71.0085 89.9062 71.2021 89.8128 71.3662 89.6943C71.5029 89.5986 71.6214 89.4847 71.7217 89.3525C71.8265 89.2158 71.9131 89.0677 71.9814 88.9082V83.6035H73.2529V91H72.1045ZM80.4854 83.4668C80.7178 83.4668 80.9593 83.4827 81.21 83.5146C81.4652 83.5465 81.6566 83.5898 81.7842 83.6445L81.6133 84.8818C81.3672 84.8271 81.1325 84.7884 80.9092 84.7656C80.6904 84.7383 80.4603 84.7246 80.2188 84.7246C79.9089 84.7246 79.6286 84.7633 79.3779 84.8408C79.1273 84.9137 78.9085 85.0231 78.7217 85.1689C78.5531 85.2965 78.4049 85.4538 78.2773 85.6406C78.1543 85.8229 78.0518 86.028 77.9697 86.2559V91H76.6982V83.6035H77.9014L77.9561 84.5947L77.9629 84.7793C78.2637 84.3737 78.6237 84.0547 79.043 83.8223C79.4668 83.5853 79.9476 83.4668 80.4854 83.4668ZM84.0469 91V83.6035H85.1816L85.2705 84.6973C85.3799 84.5423 85.4984 84.401 85.626 84.2734C85.7581 84.1413 85.8971 84.0273 86.043 83.9316C86.2617 83.7858 86.4987 83.6742 86.7539 83.5967C87.0137 83.5146 87.2871 83.4714 87.5742 83.4668C87.9616 83.4668 88.3125 83.5215 88.627 83.6309C88.946 83.7402 89.2171 83.9111 89.4404 84.1436C89.6637 84.376 89.8346 84.6722 89.9531 85.0322C90.0762 85.3877 90.1377 85.8115 90.1377 86.3037V91H88.873V86.3311C88.873 86.0029 88.8366 85.7249 88.7637 85.4971C88.6908 85.2692 88.5837 85.0846 88.4424 84.9434C88.2965 84.8021 88.1188 84.6995 87.9092 84.6357C87.7041 84.5719 87.4671 84.54 87.1982 84.54C86.9658 84.54 86.7493 84.5742 86.5488 84.6426C86.3483 84.7064 86.1637 84.7952 85.9951 84.9092C85.8584 85.0094 85.7308 85.1257 85.6123 85.2578C85.4984 85.39 85.3981 85.5358 85.3115 85.6953V91H84.0469ZM102.114 86.96C102.114 86.3083 102.164 85.6953 102.265 85.1211C102.369 84.5469 102.508 84.0137 102.682 83.5215C102.855 83.0339 103.053 82.5872 103.276 82.1816C103.504 81.776 103.743 81.416 103.994 81.1016C104.24 80.7871 104.489 80.5182 104.739 80.2949C104.99 80.0716 105.229 79.8962 105.457 79.7686L105.724 80.6025C105.578 80.7119 105.43 80.8441 105.279 80.999C105.133 81.154 104.99 81.3271 104.849 81.5186C104.639 81.8148 104.438 82.1634 104.247 82.5645C104.056 82.9609 103.896 83.3962 103.769 83.8701C103.646 84.2985 103.55 84.7702 103.481 85.2852C103.413 85.8001 103.379 86.3538 103.379 86.9463V87.042C103.379 87.6117 103.411 88.1449 103.475 88.6416C103.538 89.1383 103.625 89.5964 103.734 90.0156C103.853 90.4395 103.99 90.8314 104.145 91.1914C104.299 91.556 104.461 91.8818 104.63 92.1689C104.803 92.4424 104.981 92.6839 105.163 92.8936C105.35 93.1077 105.537 93.29 105.724 93.4404L105.457 94.2129C105.229 94.0853 104.988 93.9098 104.732 93.6865C104.482 93.4678 104.233 93.1989 103.987 92.8799C103.737 92.5654 103.497 92.2054 103.27 91.7998C103.046 91.3988 102.85 90.9521 102.682 90.46C102.508 89.9723 102.369 89.4414 102.265 88.8672C102.164 88.293 102.114 87.68 102.114 87.0283V86.96ZM64.5918 111.66L58.7949 109.069V108.071L64.5918 105.487V106.827L60.4082 108.468L60.0459 108.584L60.4082 108.707L64.5918 110.32V111.66ZM70.5254 108.939H68.5361V113H67.2783V103.047H70.1973C70.6621 103.056 71.0996 103.122 71.5098 103.245C71.9199 103.368 72.2799 103.553 72.5898 103.799C72.8952 104.045 73.1344 104.355 73.3076 104.729C73.4854 105.098 73.5742 105.533 73.5742 106.034C73.5742 106.358 73.5264 106.654 73.4307 106.923C73.3395 107.192 73.2119 107.436 73.0479 107.654C72.8838 107.873 72.6878 108.067 72.46 108.235C72.2321 108.404 71.9814 108.548 71.708 108.666L73.8203 112.918L73.8135 113H72.4805L70.5254 108.939ZM68.5361 107.9H70.2314C70.514 107.896 70.7806 107.853 71.0312 107.771C71.2819 107.684 71.5029 107.561 71.6943 107.401C71.8812 107.242 72.0293 107.048 72.1387 106.82C72.248 106.588 72.3027 106.321 72.3027 106.021C72.3027 105.701 72.2503 105.424 72.1455 105.187C72.0407 104.945 71.8949 104.742 71.708 104.578C71.5212 104.419 71.2979 104.298 71.0381 104.216C70.7829 104.134 70.5026 104.09 70.1973 104.086H68.5361V107.9ZM75.2832 109.233C75.2832 108.7 75.3607 108.206 75.5156 107.75C75.6706 107.29 75.8939 106.891 76.1855 106.554C76.4727 106.216 76.8236 105.952 77.2383 105.761C77.653 105.565 78.1201 105.467 78.6396 105.467C79.1637 105.467 79.6331 105.565 80.0479 105.761C80.4671 105.952 80.8226 106.216 81.1143 106.554C81.4014 106.891 81.6224 107.29 81.7773 107.75C81.9323 108.206 82.0098 108.7 82.0098 109.233V109.384C82.0098 109.917 81.9323 110.411 81.7773 110.867C81.6224 111.323 81.4014 111.719 81.1143 112.057C80.8226 112.394 80.4694 112.658 80.0547 112.85C79.64 113.041 79.1729 113.137 78.6533 113.137C78.1292 113.137 77.6576 113.041 77.2383 112.85C76.8236 112.658 76.4727 112.394 76.1855 112.057C75.8939 111.719 75.6706 111.323 75.5156 110.867C75.3607 110.411 75.2832 109.917 75.2832 109.384V109.233ZM76.5479 109.384C76.5479 109.748 76.5911 110.097 76.6777 110.43C76.7643 110.758 76.8965 111.047 77.0742 111.298C77.2474 111.549 77.4661 111.747 77.7305 111.893C77.9948 112.038 78.3024 112.111 78.6533 112.111C78.9997 112.111 79.3027 112.038 79.5625 111.893C79.8268 111.747 80.0479 111.549 80.2256 111.298C80.3988 111.047 80.5286 110.758 80.6152 110.43C80.7018 110.097 80.7451 109.748 80.7451 109.384V109.233C80.7451 108.873 80.6995 108.529 80.6084 108.201C80.5218 107.868 80.3919 107.577 80.2188 107.326C80.041 107.076 79.82 106.877 79.5557 106.731C79.2959 106.581 78.9906 106.506 78.6396 106.506C78.2887 106.506 77.9834 106.581 77.7236 106.731C77.4639 106.877 77.2474 107.076 77.0742 107.326C76.8965 107.577 76.7643 107.868 76.6777 108.201C76.5911 108.529 76.5479 108.873 76.5479 109.233V109.384ZM88.9209 113L88.8457 111.981C88.5996 112.346 88.292 112.631 87.9229 112.836C87.5537 113.036 87.1276 113.137 86.6445 113.137C86.2572 113.137 85.9062 113.077 85.5918 112.959C85.2773 112.836 85.0085 112.647 84.7852 112.392C84.5618 112.136 84.3887 111.813 84.2656 111.421C84.1471 111.024 84.0879 110.55 84.0879 109.999V105.604H85.3525V110.013C85.3525 110.414 85.3844 110.746 85.4482 111.011C85.512 111.275 85.6077 111.485 85.7354 111.64C85.863 111.799 86.0179 111.911 86.2002 111.975C86.387 112.038 86.6012 112.07 86.8428 112.07C87.1253 112.07 87.3783 112.038 87.6016 111.975C87.8249 111.906 88.0186 111.813 88.1826 111.694C88.3193 111.599 88.4378 111.485 88.5381 111.353C88.6429 111.216 88.7295 111.068 88.7979 110.908V105.604H90.0693V113H88.9209ZM95.4492 103.812V105.604H98.2656V106.581H95.4492V110.601C95.4492 110.888 95.4857 111.125 95.5586 111.312C95.6315 111.498 95.7318 111.646 95.8594 111.756C95.987 111.87 96.1328 111.95 96.2969 111.995C96.4655 112.041 96.6432 112.063 96.8301 112.063C96.9668 112.063 97.1081 112.057 97.2539 112.043C97.3997 112.025 97.5433 112.004 97.6846 111.981C97.8213 111.959 97.9489 111.936 98.0674 111.913C98.1904 111.886 98.2907 111.863 98.3682 111.845L98.5459 112.74C98.4411 112.804 98.3135 112.861 98.1631 112.911C98.0127 112.957 97.8486 112.995 97.6709 113.027C97.4932 113.064 97.304 113.091 97.1035 113.109C96.9076 113.128 96.7116 113.137 96.5156 113.137C96.1875 113.137 95.8799 113.091 95.5928 113C95.3102 112.904 95.0641 112.754 94.8545 112.549C94.6449 112.348 94.4785 112.089 94.3555 111.77C94.237 111.446 94.1777 111.056 94.1777 110.601V106.581H92.2363V105.604H94.1777V103.812H95.4492ZM104.131 113.137C103.611 113.137 103.133 113.048 102.695 112.87C102.262 112.692 101.891 112.444 101.581 112.125C101.271 111.806 101.03 111.428 100.856 110.99C100.683 110.553 100.597 110.076 100.597 109.562V109.274C100.597 108.677 100.692 108.144 100.884 107.675C101.075 107.201 101.33 106.8 101.649 106.472C101.964 106.148 102.322 105.9 102.723 105.727C103.128 105.553 103.543 105.467 103.967 105.467C104.5 105.467 104.965 105.56 105.361 105.747C105.762 105.929 106.095 106.182 106.359 106.506C106.624 106.834 106.82 107.219 106.947 107.661C107.079 108.103 107.146 108.582 107.146 109.097V109.664H101.861V109.712C101.893 110.072 101.964 110.389 102.073 110.662C102.187 110.936 102.342 111.177 102.538 111.387C102.739 111.61 102.98 111.785 103.263 111.913C103.545 112.041 103.857 112.104 104.199 112.104C104.65 112.104 105.051 112.013 105.402 111.831C105.753 111.649 106.045 111.407 106.277 111.106L107.05 111.708C106.804 112.082 106.435 112.414 105.942 112.706C105.455 112.993 104.851 113.137 104.131 113.137ZM103.967 106.506C103.712 106.506 103.47 106.554 103.242 106.649C103.014 106.741 102.809 106.875 102.627 107.053C102.445 107.235 102.29 107.458 102.162 107.723C102.039 107.982 101.952 108.283 101.902 108.625H105.881V108.563C105.881 108.336 105.838 108.092 105.751 107.832C105.664 107.568 105.544 107.34 105.389 107.148C105.234 106.957 105.038 106.802 104.801 106.684C104.568 106.565 104.29 106.506 103.967 106.506ZM114.118 105.467C114.351 105.467 114.592 105.483 114.843 105.515C115.098 105.547 115.289 105.59 115.417 105.645L115.246 106.882C115 106.827 114.765 106.788 114.542 106.766C114.323 106.738 114.093 106.725 113.852 106.725C113.542 106.725 113.261 106.763 113.011 106.841C112.76 106.914 112.541 107.023 112.354 107.169C112.186 107.297 112.038 107.454 111.91 107.641C111.787 107.823 111.685 108.028 111.603 108.256V113H110.331V105.604H111.534L111.589 106.595L111.596 106.779C111.896 106.374 112.257 106.055 112.676 105.822C113.1 105.585 113.58 105.467 114.118 105.467ZM130.962 113L130.887 111.981C130.641 112.346 130.333 112.631 129.964 112.836C129.595 113.036 129.169 113.137 128.686 113.137C128.298 113.137 127.947 113.077 127.633 112.959C127.318 112.836 127.049 112.647 126.826 112.392C126.603 112.136 126.43 111.813 126.307 111.421C126.188 111.024 126.129 110.55 126.129 109.999V105.604H127.394V110.013C127.394 110.414 127.425 110.746 127.489 111.011C127.553 111.275 127.649 111.485 127.776 111.64C127.904 111.799 128.059 111.911 128.241 111.975C128.428 112.038 128.642 112.07 128.884 112.07C129.166 112.07 129.419 112.038 129.643 111.975C129.866 111.906 130.06 111.813 130.224 111.694C130.36 111.599 130.479 111.485 130.579 111.353C130.684 111.216 130.771 111.068 130.839 110.908V105.604H132.11V113H130.962ZM139.411 111.038C139.411 110.888 139.382 110.753 139.322 110.635C139.263 110.512 139.163 110.4 139.021 110.3C138.88 110.2 138.693 110.108 138.461 110.026C138.229 109.94 137.939 109.862 137.593 109.794C137.169 109.707 136.782 109.603 136.431 109.479C136.084 109.356 135.788 109.208 135.542 109.035C135.291 108.867 135.098 108.668 134.961 108.44C134.824 108.208 134.756 107.939 134.756 107.634C134.756 107.333 134.826 107.053 134.968 106.793C135.109 106.529 135.307 106.299 135.562 106.103C135.818 105.907 136.121 105.752 136.472 105.638C136.827 105.524 137.217 105.467 137.641 105.467C138.096 105.467 138.507 105.526 138.871 105.645C139.236 105.763 139.546 105.927 139.801 106.137C140.056 106.346 140.252 106.592 140.389 106.875C140.53 107.153 140.601 107.454 140.601 107.777H139.336C139.336 107.618 139.295 107.463 139.213 107.312C139.131 107.158 139.017 107.021 138.871 106.902C138.725 106.784 138.548 106.688 138.338 106.615C138.133 106.542 137.9 106.506 137.641 106.506C137.372 106.506 137.135 106.535 136.93 106.595C136.729 106.654 136.563 106.734 136.431 106.834C136.294 106.934 136.191 107.05 136.123 107.183C136.055 107.315 136.021 107.451 136.021 107.593C136.021 107.739 136.048 107.868 136.103 107.982C136.157 108.096 136.253 108.199 136.39 108.29C136.522 108.381 136.7 108.463 136.923 108.536C137.151 108.609 137.438 108.68 137.784 108.748C138.24 108.844 138.648 108.955 139.008 109.083C139.368 109.206 139.671 109.354 139.917 109.527C140.163 109.705 140.35 109.91 140.478 110.143C140.61 110.375 140.676 110.644 140.676 110.949C140.676 111.277 140.601 111.576 140.45 111.845C140.304 112.114 140.099 112.344 139.835 112.535C139.571 112.727 139.254 112.875 138.885 112.979C138.516 113.084 138.112 113.137 137.675 113.137C137.174 113.137 136.727 113.071 136.335 112.938C135.943 112.802 135.613 112.622 135.344 112.398C135.07 112.18 134.861 111.924 134.715 111.633C134.574 111.341 134.503 111.038 134.503 110.724H135.768C135.786 110.983 135.854 111.202 135.973 111.38C136.096 111.558 136.248 111.701 136.431 111.811C136.608 111.92 136.807 111.997 137.025 112.043C137.244 112.089 137.461 112.111 137.675 112.111C138.012 112.111 138.306 112.073 138.557 111.995C138.807 111.913 139.003 111.801 139.145 111.66C139.231 111.574 139.297 111.478 139.343 111.373C139.388 111.268 139.411 111.157 139.411 111.038ZM146.172 113.137C145.652 113.137 145.174 113.048 144.736 112.87C144.303 112.692 143.932 112.444 143.622 112.125C143.312 111.806 143.071 111.428 142.897 110.99C142.724 110.553 142.638 110.076 142.638 109.562V109.274C142.638 108.677 142.733 108.144 142.925 107.675C143.116 107.201 143.371 106.8 143.69 106.472C144.005 106.148 144.363 105.9 144.764 105.727C145.169 105.553 145.584 105.467 146.008 105.467C146.541 105.467 147.006 105.56 147.402 105.747C147.803 105.929 148.136 106.182 148.4 106.506C148.665 106.834 148.861 107.219 148.988 107.661C149.12 108.103 149.187 108.582 149.187 109.097V109.664H143.902V109.712C143.934 110.072 144.005 110.389 144.114 110.662C144.228 110.936 144.383 111.177 144.579 111.387C144.78 111.61 145.021 111.785 145.304 111.913C145.586 112.041 145.898 112.104 146.24 112.104C146.691 112.104 147.092 112.013 147.443 111.831C147.794 111.649 148.086 111.407 148.318 111.106L149.091 111.708C148.845 112.082 148.476 112.414 147.983 112.706C147.496 112.993 146.892 113.137 146.172 113.137ZM146.008 106.506C145.753 106.506 145.511 106.554 145.283 106.649C145.055 106.741 144.85 106.875 144.668 107.053C144.486 107.235 144.331 107.458 144.203 107.723C144.08 107.982 143.993 108.283 143.943 108.625H147.922V108.563C147.922 108.336 147.879 108.092 147.792 107.832C147.705 107.568 147.585 107.34 147.43 107.148C147.275 106.957 147.079 106.802 146.842 106.684C146.609 106.565 146.331 106.506 146.008 106.506ZM156.063 110.423H152.741L151.941 113H150.677L153.89 103.047H154.949L158.107 113H156.85L156.063 110.423ZM153.083 109.322H155.729L154.416 105.002L153.083 109.322ZM164.595 113L164.52 111.981C164.273 112.346 163.966 112.631 163.597 112.836C163.228 113.036 162.801 113.137 162.318 113.137C161.931 113.137 161.58 113.077 161.266 112.959C160.951 112.836 160.682 112.647 160.459 112.392C160.236 112.136 160.062 111.813 159.939 111.421C159.821 111.024 159.762 110.55 159.762 109.999V105.604H161.026V110.013C161.026 110.414 161.058 110.746 161.122 111.011C161.186 111.275 161.282 111.485 161.409 111.64C161.537 111.799 161.692 111.911 161.874 111.975C162.061 112.038 162.275 112.07 162.517 112.07C162.799 112.07 163.052 112.038 163.275 111.975C163.499 111.906 163.692 111.813 163.856 111.694C163.993 111.599 164.112 111.485 164.212 111.353C164.317 111.216 164.403 111.068 164.472 110.908V105.604H165.743V113H164.595ZM171.123 103.812V105.604H173.939V106.581H171.123V110.601C171.123 110.888 171.16 111.125 171.232 111.312C171.305 111.498 171.406 111.646 171.533 111.756C171.661 111.87 171.807 111.95 171.971 111.995C172.139 112.041 172.317 112.063 172.504 112.063C172.641 112.063 172.782 112.057 172.928 112.043C173.074 112.025 173.217 112.004 173.358 111.981C173.495 111.959 173.623 111.936 173.741 111.913C173.864 111.886 173.965 111.863 174.042 111.845L174.22 112.74C174.115 112.804 173.987 112.861 173.837 112.911C173.687 112.957 173.522 112.995 173.345 113.027C173.167 113.064 172.978 113.091 172.777 113.109C172.581 113.128 172.385 113.137 172.189 113.137C171.861 113.137 171.554 113.091 171.267 113C170.984 112.904 170.738 112.754 170.528 112.549C170.319 112.348 170.152 112.089 170.029 111.77C169.911 111.446 169.852 111.056 169.852 110.601V106.581H167.91V105.604H169.852V103.812H171.123ZM177.802 106.704C177.902 106.554 178.014 106.417 178.137 106.294C178.26 106.166 178.39 106.055 178.526 105.959C178.745 105.799 178.984 105.679 179.244 105.597C179.508 105.515 179.789 105.471 180.085 105.467C180.472 105.467 180.823 105.524 181.138 105.638C181.457 105.747 181.728 105.92 181.951 106.157C182.174 106.394 182.345 106.695 182.464 107.06C182.587 107.42 182.648 107.848 182.648 108.345V113H181.384V108.331C181.384 108.039 181.35 107.784 181.281 107.565C181.213 107.342 181.113 107.158 180.98 107.012C180.839 106.852 180.661 106.734 180.447 106.656C180.233 106.574 179.987 106.535 179.709 106.54C179.481 106.54 179.265 106.572 179.06 106.636C178.854 106.7 178.665 106.791 178.492 106.909C178.355 107 178.228 107.107 178.109 107.23C177.995 107.349 177.893 107.481 177.802 107.627V113H176.537V102.5H177.802V106.704ZM191.043 107.668H184.938V106.567H191.043V107.668ZM191.043 110.505H184.938V109.411H191.043V110.505ZM198.85 115.502C198.408 115.488 198.025 115.386 197.701 115.194C197.378 115.003 197.109 114.75 196.895 114.436C196.689 114.135 196.535 113.798 196.43 113.424C196.325 113.055 196.272 112.688 196.272 112.323V111.168C196.272 110.512 196.115 110.035 195.801 109.739C195.491 109.443 195.015 109.293 194.372 109.288V108.297C195.015 108.297 195.491 108.151 195.801 107.859C196.115 107.563 196.272 107.085 196.272 106.424V105.262C196.272 104.893 196.32 104.517 196.416 104.134C196.516 103.746 196.674 103.4 196.888 103.095C197.088 102.803 197.35 102.566 197.674 102.384C197.997 102.197 198.389 102.097 198.85 102.083L198.993 102.869C198.665 102.878 198.403 102.956 198.207 103.102C198.016 103.247 197.872 103.432 197.776 103.655C197.676 103.883 197.612 104.138 197.585 104.421C197.558 104.703 197.544 104.984 197.544 105.262V106.424C197.544 106.971 197.416 107.451 197.161 107.866C196.91 108.276 196.521 108.589 195.992 108.803C196.521 109.012 196.91 109.325 197.161 109.739C197.412 110.149 197.539 110.626 197.544 111.168V112.323C197.544 112.606 197.567 112.886 197.612 113.164C197.658 113.447 197.738 113.7 197.852 113.923C197.961 114.151 198.107 114.338 198.289 114.483C198.476 114.629 198.711 114.707 198.993 114.716L198.85 115.502ZM206.636 113L206.561 111.981C206.314 112.346 206.007 112.631 205.638 112.836C205.269 113.036 204.842 113.137 204.359 113.137C203.972 113.137 203.621 113.077 203.307 112.959C202.992 112.836 202.723 112.647 202.5 112.392C202.277 112.136 202.104 111.813 201.98 111.421C201.862 111.024 201.803 110.55 201.803 109.999V105.604H203.067V110.013C203.067 110.414 203.099 110.746 203.163 111.011C203.227 111.275 203.323 111.485 203.45 111.64C203.578 111.799 203.733 111.911 203.915 111.975C204.102 112.038 204.316 112.07 204.558 112.07C204.84 112.07 205.093 112.038 205.316 111.975C205.54 111.906 205.733 111.813 205.897 111.694C206.034 111.599 206.153 111.485 206.253 111.353C206.358 111.216 206.444 111.068 206.513 110.908V105.604H207.784V113H206.636ZM215.085 111.038C215.085 110.888 215.055 110.753 214.996 110.635C214.937 110.512 214.837 110.4 214.695 110.3C214.554 110.2 214.367 110.108 214.135 110.026C213.902 109.94 213.613 109.862 213.267 109.794C212.843 109.707 212.455 109.603 212.104 109.479C211.758 109.356 211.462 109.208 211.216 109.035C210.965 108.867 210.771 108.668 210.635 108.44C210.498 108.208 210.43 107.939 210.43 107.634C210.43 107.333 210.5 107.053 210.642 106.793C210.783 106.529 210.981 106.299 211.236 106.103C211.492 105.907 211.795 105.752 212.146 105.638C212.501 105.524 212.891 105.467 213.314 105.467C213.77 105.467 214.18 105.526 214.545 105.645C214.91 105.763 215.219 105.927 215.475 106.137C215.73 106.346 215.926 106.592 216.062 106.875C216.204 107.153 216.274 107.454 216.274 107.777H215.01C215.01 107.618 214.969 107.463 214.887 107.312C214.805 107.158 214.691 107.021 214.545 106.902C214.399 106.784 214.221 106.688 214.012 106.615C213.807 106.542 213.574 106.506 213.314 106.506C213.046 106.506 212.809 106.535 212.604 106.595C212.403 106.654 212.237 106.734 212.104 106.834C211.968 106.934 211.865 107.05 211.797 107.183C211.729 107.315 211.694 107.451 211.694 107.593C211.694 107.739 211.722 107.868 211.776 107.982C211.831 108.096 211.927 108.199 212.063 108.29C212.196 108.381 212.373 108.463 212.597 108.536C212.825 108.609 213.112 108.68 213.458 108.748C213.914 108.844 214.322 108.955 214.682 109.083C215.042 109.206 215.345 109.354 215.591 109.527C215.837 109.705 216.024 109.91 216.151 110.143C216.284 110.375 216.35 110.644 216.35 110.949C216.35 111.277 216.274 111.576 216.124 111.845C215.978 112.114 215.773 112.344 215.509 112.535C215.244 112.727 214.928 112.875 214.559 112.979C214.189 113.084 213.786 113.137 213.349 113.137C212.847 113.137 212.401 113.071 212.009 112.938C211.617 112.802 211.286 112.622 211.018 112.398C210.744 112.18 210.535 111.924 210.389 111.633C210.247 111.341 210.177 111.038 210.177 110.724H211.441C211.46 110.983 211.528 111.202 211.646 111.38C211.77 111.558 211.922 111.701 212.104 111.811C212.282 111.92 212.48 111.997 212.699 112.043C212.918 112.089 213.134 112.111 213.349 112.111C213.686 112.111 213.98 112.073 214.23 111.995C214.481 111.913 214.677 111.801 214.818 111.66C214.905 111.574 214.971 111.478 215.017 111.373C215.062 111.268 215.085 111.157 215.085 111.038ZM221.846 113.137C221.326 113.137 220.848 113.048 220.41 112.87C219.977 112.692 219.606 112.444 219.296 112.125C218.986 111.806 218.744 111.428 218.571 110.99C218.398 110.553 218.312 110.076 218.312 109.562V109.274C218.312 108.677 218.407 108.144 218.599 107.675C218.79 107.201 219.045 106.8 219.364 106.472C219.679 106.148 220.036 105.9 220.438 105.727C220.843 105.553 221.258 105.467 221.682 105.467C222.215 105.467 222.68 105.56 223.076 105.747C223.477 105.929 223.81 106.182 224.074 106.506C224.339 106.834 224.535 107.219 224.662 107.661C224.794 108.103 224.86 108.582 224.86 109.097V109.664H219.576V109.712C219.608 110.072 219.679 110.389 219.788 110.662C219.902 110.936 220.057 111.177 220.253 111.387C220.453 111.61 220.695 111.785 220.978 111.913C221.26 112.041 221.572 112.104 221.914 112.104C222.365 112.104 222.766 112.013 223.117 111.831C223.468 111.649 223.76 111.407 223.992 111.106L224.765 111.708C224.519 112.082 224.149 112.414 223.657 112.706C223.17 112.993 222.566 113.137 221.846 113.137ZM221.682 106.506C221.426 106.506 221.185 106.554 220.957 106.649C220.729 106.741 220.524 106.875 220.342 107.053C220.16 107.235 220.005 107.458 219.877 107.723C219.754 107.982 219.667 108.283 219.617 108.625H223.596V108.563C223.596 108.336 223.552 108.092 223.466 107.832C223.379 107.568 223.258 107.34 223.104 107.148C222.949 106.957 222.753 106.802 222.516 106.684C222.283 106.565 222.005 106.506 221.682 106.506ZM231.737 110.423H228.415L227.615 113H226.351L229.563 103.047H230.623L233.781 113H232.523L231.737 110.423ZM228.757 109.322H231.402L230.09 105.002L228.757 109.322ZM240.269 113L240.193 111.981C239.947 112.346 239.64 112.631 239.271 112.836C238.901 113.036 238.475 113.137 237.992 113.137C237.605 113.137 237.254 113.077 236.939 112.959C236.625 112.836 236.356 112.647 236.133 112.392C235.91 112.136 235.736 111.813 235.613 111.421C235.495 111.024 235.436 110.55 235.436 109.999V105.604H236.7V110.013C236.7 110.414 236.732 110.746 236.796 111.011C236.86 111.275 236.955 111.485 237.083 111.64C237.211 111.799 237.366 111.911 237.548 111.975C237.735 112.038 237.949 112.07 238.19 112.07C238.473 112.07 238.726 112.038 238.949 111.975C239.173 111.906 239.366 111.813 239.53 111.694C239.667 111.599 239.785 111.485 239.886 111.353C239.991 111.216 240.077 111.068 240.146 110.908V105.604H241.417V113H240.269ZM246.797 103.812V105.604H249.613V106.581H246.797V110.601C246.797 110.888 246.833 111.125 246.906 111.312C246.979 111.498 247.079 111.646 247.207 111.756C247.335 111.87 247.48 111.95 247.645 111.995C247.813 112.041 247.991 112.063 248.178 112.063C248.314 112.063 248.456 112.057 248.602 112.043C248.747 112.025 248.891 112.004 249.032 111.981C249.169 111.959 249.297 111.936 249.415 111.913C249.538 111.886 249.638 111.863 249.716 111.845L249.894 112.74C249.789 112.804 249.661 112.861 249.511 112.911C249.36 112.957 249.196 112.995 249.019 113.027C248.841 113.064 248.652 113.091 248.451 113.109C248.255 113.128 248.059 113.137 247.863 113.137C247.535 113.137 247.228 113.091 246.94 113C246.658 112.904 246.412 112.754 246.202 112.549C245.993 112.348 245.826 112.089 245.703 111.77C245.585 111.446 245.525 111.056 245.525 110.601V106.581H243.584V105.604H245.525V103.812H246.797ZM253.476 106.704C253.576 106.554 253.688 106.417 253.811 106.294C253.934 106.166 254.063 106.055 254.2 105.959C254.419 105.799 254.658 105.679 254.918 105.597C255.182 105.515 255.463 105.471 255.759 105.467C256.146 105.467 256.497 105.524 256.812 105.638C257.131 105.747 257.402 105.92 257.625 106.157C257.848 106.394 258.019 106.695 258.138 107.06C258.261 107.42 258.322 107.848 258.322 108.345V113H257.058V108.331C257.058 108.039 257.023 107.784 256.955 107.565C256.887 107.342 256.786 107.158 256.654 107.012C256.513 106.852 256.335 106.734 256.121 106.656C255.907 106.574 255.661 106.535 255.383 106.54C255.155 106.54 254.938 106.572 254.733 106.636C254.528 106.7 254.339 106.791 254.166 106.909C254.029 107 253.902 107.107 253.783 107.23C253.669 107.349 253.567 107.481 253.476 107.627V113H252.211V102.5H253.476V106.704ZM261.638 114.716C261.916 114.707 262.148 114.629 262.335 114.483C262.522 114.338 262.672 114.151 262.786 113.923C262.896 113.7 262.973 113.447 263.019 113.164C263.069 112.886 263.094 112.606 263.094 112.323V111.168C263.094 110.808 263.146 110.475 263.251 110.17C263.36 109.865 263.527 109.6 263.75 109.377C263.868 109.258 264.001 109.151 264.146 109.056C264.297 108.96 264.461 108.876 264.639 108.803C264.456 108.73 264.288 108.643 264.133 108.543C263.982 108.443 263.85 108.331 263.736 108.208C263.518 107.98 263.356 107.716 263.251 107.415C263.146 107.11 263.094 106.779 263.094 106.424V105.262C263.094 104.984 263.078 104.703 263.046 104.421C263.019 104.138 262.957 103.883 262.861 103.655C262.761 103.432 262.615 103.247 262.424 103.102C262.232 102.956 261.973 102.878 261.645 102.869L261.781 102.083C262.223 102.097 262.602 102.19 262.916 102.363C263.235 102.536 263.497 102.762 263.702 103.04C263.935 103.354 264.101 103.708 264.201 104.1C264.306 104.492 264.358 104.879 264.358 105.262V106.424C264.358 106.697 264.383 106.939 264.434 107.148C264.488 107.354 264.568 107.531 264.673 107.682C264.823 107.896 265.031 108.053 265.295 108.153C265.564 108.249 265.885 108.297 266.259 108.297V109.288C265.931 109.293 265.644 109.334 265.397 109.411C265.156 109.484 264.958 109.6 264.803 109.76C264.652 109.915 264.541 110.108 264.468 110.341C264.395 110.573 264.358 110.849 264.358 111.168V112.323C264.358 112.688 264.308 113.055 264.208 113.424C264.108 113.798 263.953 114.137 263.743 114.442C263.529 114.748 263.26 114.998 262.937 115.194C262.613 115.39 262.228 115.493 261.781 115.502L261.638 114.716ZM269.055 111.653V110.341L273.478 108.673L273.888 108.557L273.478 108.427L269.055 106.786V105.48L275.091 108.064V109.062L269.055 111.653ZM64.5918 133.66L58.7949 131.069V130.071L64.5918 127.487V128.827L60.4082 130.468L60.0459 130.584L60.4082 130.707L64.5918 132.32V133.66ZM70.5254 130.939H68.5361V135H67.2783V125.047H70.1973C70.6621 125.056 71.0996 125.122 71.5098 125.245C71.9199 125.368 72.2799 125.553 72.5898 125.799C72.8952 126.045 73.1344 126.355 73.3076 126.729C73.4854 127.098 73.5742 127.533 73.5742 128.034C73.5742 128.358 73.5264 128.654 73.4307 128.923C73.3395 129.192 73.2119 129.436 73.0479 129.654C72.8838 129.873 72.6878 130.067 72.46 130.235C72.2321 130.404 71.9814 130.548 71.708 130.666L73.8203 134.918L73.8135 135H72.4805L70.5254 130.939ZM68.5361 129.9H70.2314C70.514 129.896 70.7806 129.853 71.0312 129.771C71.2819 129.684 71.5029 129.561 71.6943 129.401C71.8812 129.242 72.0293 129.048 72.1387 128.82C72.248 128.588 72.3027 128.321 72.3027 128.021C72.3027 127.701 72.2503 127.424 72.1455 127.187C72.0407 126.945 71.8949 126.742 71.708 126.578C71.5212 126.419 71.2979 126.298 71.0381 126.216C70.7829 126.134 70.5026 126.09 70.1973 126.086H68.5361V129.9ZM75.2832 131.233C75.2832 130.7 75.3607 130.206 75.5156 129.75C75.6706 129.29 75.8939 128.891 76.1855 128.554C76.4727 128.216 76.8236 127.952 77.2383 127.761C77.653 127.565 78.1201 127.467 78.6396 127.467C79.1637 127.467 79.6331 127.565 80.0479 127.761C80.4671 127.952 80.8226 128.216 81.1143 128.554C81.4014 128.891 81.6224 129.29 81.7773 129.75C81.9323 130.206 82.0098 130.7 82.0098 131.233V131.384C82.0098 131.917 81.9323 132.411 81.7773 132.867C81.6224 133.323 81.4014 133.719 81.1143 134.057C80.8226 134.394 80.4694 134.658 80.0547 134.85C79.64 135.041 79.1729 135.137 78.6533 135.137C78.1292 135.137 77.6576 135.041 77.2383 134.85C76.8236 134.658 76.4727 134.394 76.1855 134.057C75.8939 133.719 75.6706 133.323 75.5156 132.867C75.3607 132.411 75.2832 131.917 75.2832 131.384V131.233ZM76.5479 131.384C76.5479 131.748 76.5911 132.097 76.6777 132.43C76.7643 132.758 76.8965 133.047 77.0742 133.298C77.2474 133.549 77.4661 133.747 77.7305 133.893C77.9948 134.038 78.3024 134.111 78.6533 134.111C78.9997 134.111 79.3027 134.038 79.5625 133.893C79.8268 133.747 80.0479 133.549 80.2256 133.298C80.3988 133.047 80.5286 132.758 80.6152 132.43C80.7018 132.097 80.7451 131.748 80.7451 131.384V131.233C80.7451 130.873 80.6995 130.529 80.6084 130.201C80.5218 129.868 80.3919 129.577 80.2188 129.326C80.041 129.076 79.82 128.877 79.5557 128.731C79.2959 128.581 78.9906 128.506 78.6396 128.506C78.2887 128.506 77.9834 128.581 77.7236 128.731C77.4639 128.877 77.2474 129.076 77.0742 129.326C76.8965 129.577 76.7643 129.868 76.6777 130.201C76.5911 130.529 76.5479 130.873 76.5479 131.233V131.384ZM88.9209 135L88.8457 133.981C88.5996 134.346 88.292 134.631 87.9229 134.836C87.5537 135.036 87.1276 135.137 86.6445 135.137C86.2572 135.137 85.9062 135.077 85.5918 134.959C85.2773 134.836 85.0085 134.647 84.7852 134.392C84.5618 134.136 84.3887 133.813 84.2656 133.421C84.1471 133.024 84.0879 132.55 84.0879 131.999V127.604H85.3525V132.013C85.3525 132.414 85.3844 132.746 85.4482 133.011C85.512 133.275 85.6077 133.485 85.7354 133.64C85.863 133.799 86.0179 133.911 86.2002 133.975C86.387 134.038 86.6012 134.07 86.8428 134.07C87.1253 134.07 87.3783 134.038 87.6016 133.975C87.8249 133.906 88.0186 133.813 88.1826 133.694C88.3193 133.599 88.4378 133.485 88.5381 133.353C88.6429 133.216 88.7295 133.068 88.7979 132.908V127.604H90.0693V135H88.9209ZM95.4492 125.812V127.604H98.2656V128.581H95.4492V132.601C95.4492 132.888 95.4857 133.125 95.5586 133.312C95.6315 133.498 95.7318 133.646 95.8594 133.756C95.987 133.87 96.1328 133.95 96.2969 133.995C96.4655 134.041 96.6432 134.063 96.8301 134.063C96.9668 134.063 97.1081 134.057 97.2539 134.043C97.3997 134.025 97.5433 134.004 97.6846 133.981C97.8213 133.959 97.9489 133.936 98.0674 133.913C98.1904 133.886 98.2907 133.863 98.3682 133.845L98.5459 134.74C98.4411 134.804 98.3135 134.861 98.1631 134.911C98.0127 134.957 97.8486 134.995 97.6709 135.027C97.4932 135.064 97.304 135.091 97.1035 135.109C96.9076 135.128 96.7116 135.137 96.5156 135.137C96.1875 135.137 95.8799 135.091 95.5928 135C95.3102 134.904 95.0641 134.754 94.8545 134.549C94.6449 134.348 94.4785 134.089 94.3555 133.77C94.237 133.446 94.1777 133.056 94.1777 132.601V128.581H92.2363V127.604H94.1777V125.812H95.4492ZM104.131 135.137C103.611 135.137 103.133 135.048 102.695 134.87C102.262 134.692 101.891 134.444 101.581 134.125C101.271 133.806 101.03 133.428 100.856 132.99C100.683 132.553 100.597 132.076 100.597 131.562V131.274C100.597 130.677 100.692 130.144 100.884 129.675C101.075 129.201 101.33 128.8 101.649 128.472C101.964 128.148 102.322 127.9 102.723 127.727C103.128 127.553 103.543 127.467 103.967 127.467C104.5 127.467 104.965 127.56 105.361 127.747C105.762 127.929 106.095 128.182 106.359 128.506C106.624 128.834 106.82 129.219 106.947 129.661C107.079 130.103 107.146 130.582 107.146 131.097V131.664H101.861V131.712C101.893 132.072 101.964 132.389 102.073 132.662C102.187 132.936 102.342 133.177 102.538 133.387C102.739 133.61 102.98 133.785 103.263 133.913C103.545 134.041 103.857 134.104 104.199 134.104C104.65 134.104 105.051 134.013 105.402 133.831C105.753 133.649 106.045 133.407 106.277 133.106L107.05 133.708C106.804 134.082 106.435 134.414 105.942 134.706C105.455 134.993 104.851 135.137 104.131 135.137ZM103.967 128.506C103.712 128.506 103.47 128.554 103.242 128.649C103.014 128.741 102.809 128.875 102.627 129.053C102.445 129.235 102.29 129.458 102.162 129.723C102.039 129.982 101.952 130.283 101.902 130.625H105.881V130.563C105.881 130.336 105.838 130.092 105.751 129.832C105.664 129.568 105.544 129.34 105.389 129.148C105.234 128.957 105.038 128.802 104.801 128.684C104.568 128.565 104.29 128.506 103.967 128.506ZM117.673 137.844V127.604H118.828L118.89 128.41C118.99 128.283 119.099 128.169 119.218 128.068C119.336 127.964 119.464 127.875 119.601 127.802C119.792 127.692 120.004 127.61 120.236 127.556C120.473 127.496 120.726 127.467 120.995 127.467C121.469 127.467 121.888 127.56 122.253 127.747C122.618 127.934 122.923 128.194 123.169 128.526C123.415 128.859 123.602 129.258 123.729 129.723C123.857 130.183 123.921 130.689 123.921 131.24V131.384C123.921 131.912 123.857 132.407 123.729 132.867C123.602 133.323 123.415 133.719 123.169 134.057C122.923 134.394 122.618 134.658 122.253 134.85C121.893 135.041 121.48 135.137 121.016 135.137C120.733 135.137 120.469 135.107 120.223 135.048C119.981 134.989 119.762 134.904 119.566 134.795C119.448 134.727 119.336 134.651 119.231 134.569C119.127 134.483 119.029 134.389 118.938 134.289V137.844H117.673ZM122.656 131.24C122.656 130.88 122.615 130.538 122.533 130.215C122.456 129.887 122.335 129.597 122.171 129.347C122.002 129.101 121.79 128.905 121.535 128.759C121.28 128.613 120.975 128.54 120.619 128.54C120.423 128.54 120.241 128.563 120.072 128.608C119.908 128.654 119.76 128.72 119.628 128.807C119.482 128.893 119.352 129 119.238 129.128C119.124 129.256 119.024 129.397 118.938 129.552V133.113C119.015 133.25 119.104 133.378 119.204 133.496C119.304 133.615 119.418 133.715 119.546 133.797C119.692 133.893 119.854 133.968 120.031 134.022C120.214 134.077 120.414 134.104 120.633 134.104C120.984 134.104 121.287 134.032 121.542 133.886C121.797 133.735 122.007 133.535 122.171 133.284C122.335 133.034 122.456 132.744 122.533 132.416C122.615 132.088 122.656 131.744 122.656 131.384V131.24ZM130.948 135C130.898 134.904 130.857 134.786 130.825 134.645C130.798 134.499 130.777 134.348 130.764 134.193C130.636 134.321 130.493 134.442 130.333 134.556C130.178 134.67 130.007 134.77 129.82 134.856C129.629 134.943 129.426 135.011 129.212 135.062C128.998 135.112 128.77 135.137 128.528 135.137C128.136 135.137 127.781 135.08 127.462 134.966C127.147 134.852 126.881 134.697 126.662 134.501C126.439 134.31 126.266 134.082 126.143 133.817C126.024 133.549 125.965 133.259 125.965 132.949C125.965 132.544 126.045 132.188 126.204 131.883C126.368 131.577 126.598 131.322 126.895 131.117C127.191 130.917 127.546 130.766 127.961 130.666C128.38 130.566 128.847 130.516 129.362 130.516H130.743V129.935C130.743 129.711 130.702 129.511 130.62 129.333C130.538 129.155 130.422 129.003 130.271 128.875C130.121 128.752 129.937 128.656 129.718 128.588C129.504 128.52 129.262 128.485 128.993 128.485C128.743 128.485 128.517 128.517 128.316 128.581C128.12 128.645 127.954 128.729 127.817 128.834C127.681 128.939 127.574 129.064 127.496 129.21C127.423 129.351 127.387 129.499 127.387 129.654H126.115C126.12 129.385 126.188 129.121 126.32 128.861C126.457 128.602 126.653 128.367 126.908 128.157C127.159 127.952 127.464 127.786 127.824 127.658C128.189 127.531 128.601 127.467 129.062 127.467C129.481 127.467 129.87 127.519 130.23 127.624C130.59 127.724 130.903 127.877 131.167 128.082C131.427 128.292 131.632 128.551 131.782 128.861C131.933 129.171 132.008 129.534 132.008 129.948V133.387C132.008 133.633 132.031 133.895 132.076 134.173C132.122 134.446 132.186 134.686 132.268 134.891V135H130.948ZM128.713 134.036C128.959 134.036 129.189 134.004 129.403 133.94C129.618 133.877 129.813 133.792 129.991 133.688C130.164 133.583 130.315 133.464 130.442 133.332C130.57 133.195 130.67 133.054 130.743 132.908V131.411H129.567C129.13 131.411 128.747 131.45 128.419 131.527C128.095 131.6 127.838 131.714 127.646 131.869C127.51 131.979 127.405 132.108 127.332 132.259C127.264 132.409 127.229 132.58 127.229 132.771C127.229 132.954 127.259 133.122 127.318 133.277C127.382 133.432 127.476 133.564 127.599 133.674C127.722 133.788 127.877 133.877 128.063 133.94C128.25 134.004 128.467 134.036 128.713 134.036ZM137.49 125.812V127.604H140.307V128.581H137.49V132.601C137.49 132.888 137.527 133.125 137.6 133.312C137.673 133.498 137.773 133.646 137.9 133.756C138.028 133.87 138.174 133.95 138.338 133.995C138.507 134.041 138.684 134.063 138.871 134.063C139.008 134.063 139.149 134.057 139.295 134.043C139.441 134.025 139.584 134.004 139.726 133.981C139.862 133.959 139.99 133.936 140.108 133.913C140.231 133.886 140.332 133.863 140.409 133.845L140.587 134.74C140.482 134.804 140.354 134.861 140.204 134.911C140.054 134.957 139.89 134.995 139.712 135.027C139.534 135.064 139.345 135.091 139.145 135.109C138.949 135.128 138.753 135.137 138.557 135.137C138.229 135.137 137.921 135.091 137.634 135C137.351 134.904 137.105 134.754 136.896 134.549C136.686 134.348 136.52 134.089 136.396 133.77C136.278 133.446 136.219 133.056 136.219 132.601V128.581H134.277V127.604H136.219V125.812H137.49ZM144.169 128.704C144.269 128.554 144.381 128.417 144.504 128.294C144.627 128.166 144.757 128.055 144.894 127.959C145.112 127.799 145.352 127.679 145.611 127.597C145.876 127.515 146.156 127.471 146.452 127.467C146.84 127.467 147.19 127.524 147.505 127.638C147.824 127.747 148.095 127.92 148.318 128.157C148.542 128.394 148.713 128.695 148.831 129.06C148.954 129.42 149.016 129.848 149.016 130.345V135H147.751V130.331C147.751 130.039 147.717 129.784 147.648 129.565C147.58 129.342 147.48 129.158 147.348 129.012C147.206 128.852 147.029 128.734 146.814 128.656C146.6 128.574 146.354 128.535 146.076 128.54C145.848 128.54 145.632 128.572 145.427 128.636C145.222 128.7 145.033 128.791 144.859 128.909C144.723 129 144.595 129.107 144.477 129.23C144.363 129.349 144.26 129.481 144.169 129.627V135H142.904V124.5H144.169V128.704ZM157.41 129.668H151.306V128.567H157.41V129.668ZM157.41 132.505H151.306V131.411H157.41V132.505ZM161.983 125.245L161.84 127.774H160.951L160.958 125.354V124.5H161.983V125.245ZM164.424 125.245L164.28 127.774H163.398L163.405 125.354V124.5H164.431L164.424 125.245ZM169.797 135.854H168.662L172.818 125.047H173.946L169.797 135.854ZM178.8 125.245L178.656 127.774H177.768L177.774 125.354V124.5H178.8V125.245ZM181.24 125.245L181.097 127.774H180.215L180.222 125.354V124.5H181.247L181.24 125.245ZM193.347 137.844V127.604H194.502L194.563 128.41C194.664 128.283 194.773 128.169 194.892 128.068C195.01 127.964 195.138 127.875 195.274 127.802C195.466 127.692 195.678 127.61 195.91 127.556C196.147 127.496 196.4 127.467 196.669 127.467C197.143 127.467 197.562 127.56 197.927 127.747C198.291 127.934 198.597 128.194 198.843 128.526C199.089 128.859 199.276 129.258 199.403 129.723C199.531 130.183 199.595 130.689 199.595 131.24V131.384C199.595 131.912 199.531 132.407 199.403 132.867C199.276 133.323 199.089 133.719 198.843 134.057C198.597 134.394 198.291 134.658 197.927 134.85C197.567 135.041 197.154 135.137 196.689 135.137C196.407 135.137 196.143 135.107 195.896 135.048C195.655 134.989 195.436 134.904 195.24 134.795C195.122 134.727 195.01 134.651 194.905 134.569C194.8 134.483 194.702 134.389 194.611 134.289V137.844H193.347ZM198.33 131.24C198.33 130.88 198.289 130.538 198.207 130.215C198.13 129.887 198.009 129.597 197.845 129.347C197.676 129.101 197.464 128.905 197.209 128.759C196.954 128.613 196.648 128.54 196.293 128.54C196.097 128.54 195.915 128.563 195.746 128.608C195.582 128.654 195.434 128.72 195.302 128.807C195.156 128.893 195.026 129 194.912 129.128C194.798 129.256 194.698 129.397 194.611 129.552V133.113C194.689 133.25 194.778 133.378 194.878 133.496C194.978 133.615 195.092 133.715 195.22 133.797C195.366 133.893 195.527 133.968 195.705 134.022C195.887 134.077 196.088 134.104 196.307 134.104C196.658 134.104 196.961 134.032 197.216 133.886C197.471 133.735 197.681 133.535 197.845 133.284C198.009 133.034 198.13 132.744 198.207 132.416C198.289 132.088 198.33 131.744 198.33 131.384V131.24ZM206.622 135C206.572 134.904 206.531 134.786 206.499 134.645C206.472 134.499 206.451 134.348 206.438 134.193C206.31 134.321 206.166 134.442 206.007 134.556C205.852 134.67 205.681 134.77 205.494 134.856C205.303 134.943 205.1 135.011 204.886 135.062C204.672 135.112 204.444 135.137 204.202 135.137C203.81 135.137 203.455 135.08 203.136 134.966C202.821 134.852 202.555 134.697 202.336 134.501C202.113 134.31 201.939 134.082 201.816 133.817C201.698 133.549 201.639 133.259 201.639 132.949C201.639 132.544 201.718 132.188 201.878 131.883C202.042 131.577 202.272 131.322 202.568 131.117C202.865 130.917 203.22 130.766 203.635 130.666C204.054 130.566 204.521 130.516 205.036 130.516H206.417V129.935C206.417 129.711 206.376 129.511 206.294 129.333C206.212 129.155 206.096 129.003 205.945 128.875C205.795 128.752 205.61 128.656 205.392 128.588C205.177 128.52 204.936 128.485 204.667 128.485C204.416 128.485 204.191 128.517 203.99 128.581C203.794 128.645 203.628 128.729 203.491 128.834C203.354 128.939 203.247 129.064 203.17 129.21C203.097 129.351 203.061 129.499 203.061 129.654H201.789C201.794 129.385 201.862 129.121 201.994 128.861C202.131 128.602 202.327 128.367 202.582 128.157C202.833 127.952 203.138 127.786 203.498 127.658C203.863 127.531 204.275 127.467 204.735 127.467C205.155 127.467 205.544 127.519 205.904 127.624C206.264 127.724 206.576 127.877 206.841 128.082C207.101 128.292 207.306 128.551 207.456 128.861C207.606 129.171 207.682 129.534 207.682 129.948V133.387C207.682 133.633 207.704 133.895 207.75 134.173C207.796 134.446 207.859 134.686 207.941 134.891V135H206.622ZM204.387 134.036C204.633 134.036 204.863 134.004 205.077 133.94C205.291 133.877 205.487 133.792 205.665 133.688C205.838 133.583 205.989 133.464 206.116 133.332C206.244 133.195 206.344 133.054 206.417 132.908V131.411H205.241C204.804 131.411 204.421 131.45 204.093 131.527C203.769 131.6 203.512 131.714 203.32 131.869C203.184 131.979 203.079 132.108 203.006 132.259C202.938 132.409 202.903 132.58 202.903 132.771C202.903 132.954 202.933 133.122 202.992 133.277C203.056 133.432 203.149 133.564 203.272 133.674C203.396 133.788 203.55 133.877 203.737 133.94C203.924 134.004 204.141 134.036 204.387 134.036ZM209.938 131.24C209.938 130.689 210.004 130.183 210.136 129.723C210.272 129.258 210.468 128.859 210.724 128.526C210.979 128.194 211.289 127.934 211.653 127.747C212.018 127.56 212.43 127.467 212.891 127.467C213.187 127.467 213.458 127.501 213.704 127.569C213.955 127.638 214.18 127.738 214.381 127.87C214.49 127.938 214.593 128.018 214.688 128.109C214.789 128.201 214.882 128.301 214.969 128.41L215.03 127.604H216.179V134.843C216.179 135.33 216.101 135.763 215.946 136.142C215.796 136.52 215.584 136.841 215.311 137.105C215.033 137.37 214.702 137.57 214.319 137.707C213.937 137.844 213.513 137.912 213.048 137.912C212.856 137.912 212.638 137.889 212.392 137.844C212.146 137.803 211.897 137.732 211.646 137.632C211.391 137.536 211.145 137.406 210.908 137.242C210.676 137.078 210.475 136.875 210.307 136.634L210.963 135.875C211.118 136.062 211.277 136.219 211.441 136.347C211.605 136.479 211.772 136.584 211.94 136.661C212.109 136.739 212.278 136.793 212.446 136.825C212.615 136.862 212.784 136.88 212.952 136.88C213.253 136.88 213.524 136.837 213.766 136.75C214.007 136.663 214.215 136.536 214.388 136.367C214.556 136.203 214.686 135.998 214.777 135.752C214.868 135.506 214.914 135.223 214.914 134.904V134.269C214.818 134.378 214.716 134.478 214.606 134.569C214.502 134.66 214.388 134.74 214.265 134.809C214.073 134.913 213.861 134.993 213.629 135.048C213.396 135.107 213.146 135.137 212.877 135.137C212.426 135.137 212.018 135.041 211.653 134.85C211.289 134.658 210.981 134.394 210.73 134.057C210.475 133.719 210.279 133.323 210.143 132.867C210.006 132.407 209.938 131.912 209.938 131.384V131.24ZM211.202 131.384C211.202 131.744 211.239 132.086 211.312 132.409C211.389 132.733 211.51 133.018 211.674 133.264C211.833 133.51 212.038 133.706 212.289 133.852C212.54 133.993 212.84 134.063 213.191 134.063C213.41 134.063 213.606 134.038 213.779 133.988C213.957 133.934 214.117 133.858 214.258 133.763C214.395 133.667 214.518 133.553 214.627 133.421C214.736 133.289 214.832 133.143 214.914 132.983V129.593C214.832 129.438 214.736 129.297 214.627 129.169C214.518 129.041 214.392 128.93 214.251 128.834C214.11 128.743 213.952 128.672 213.779 128.622C213.606 128.567 213.415 128.54 213.205 128.54C212.85 128.54 212.544 128.613 212.289 128.759C212.038 128.905 211.833 129.101 211.674 129.347C211.51 129.597 211.389 129.887 211.312 130.215C211.239 130.538 211.202 130.88 211.202 131.24V131.384ZM221.846 135.137C221.326 135.137 220.848 135.048 220.41 134.87C219.977 134.692 219.606 134.444 219.296 134.125C218.986 133.806 218.744 133.428 218.571 132.99C218.398 132.553 218.312 132.076 218.312 131.562V131.274C218.312 130.677 218.407 130.144 218.599 129.675C218.79 129.201 219.045 128.8 219.364 128.472C219.679 128.148 220.036 127.9 220.438 127.727C220.843 127.553 221.258 127.467 221.682 127.467C222.215 127.467 222.68 127.56 223.076 127.747C223.477 127.929 223.81 128.182 224.074 128.506C224.339 128.834 224.535 129.219 224.662 129.661C224.794 130.103 224.86 130.582 224.86 131.097V131.664H219.576V131.712C219.608 132.072 219.679 132.389 219.788 132.662C219.902 132.936 220.057 133.177 220.253 133.387C220.453 133.61 220.695 133.785 220.978 133.913C221.26 134.041 221.572 134.104 221.914 134.104C222.365 134.104 222.766 134.013 223.117 133.831C223.468 133.649 223.76 133.407 223.992 133.106L224.765 133.708C224.519 134.082 224.149 134.414 223.657 134.706C223.17 134.993 222.566 135.137 221.846 135.137ZM221.682 128.506C221.426 128.506 221.185 128.554 220.957 128.649C220.729 128.741 220.524 128.875 220.342 129.053C220.16 129.235 220.005 129.458 219.877 129.723C219.754 129.982 219.667 130.283 219.617 130.625H223.596V130.563C223.596 130.336 223.552 130.092 223.466 129.832C223.379 129.568 223.258 129.34 223.104 129.148C222.949 128.957 222.753 128.802 222.516 128.684C222.283 128.565 222.005 128.506 221.682 128.506ZM233.084 129.668H226.979V128.567H233.084V129.668ZM233.084 132.505H226.979V131.411H233.084V132.505ZM240.891 137.502C240.449 137.488 240.066 137.386 239.742 137.194C239.419 137.003 239.15 136.75 238.936 136.436C238.73 136.135 238.576 135.798 238.471 135.424C238.366 135.055 238.313 134.688 238.313 134.323V133.168C238.313 132.512 238.156 132.035 237.842 131.739C237.532 131.443 237.056 131.293 236.413 131.288V130.297C237.056 130.297 237.532 130.151 237.842 129.859C238.156 129.563 238.313 129.085 238.313 128.424V127.262C238.313 126.893 238.361 126.517 238.457 126.134C238.557 125.746 238.715 125.4 238.929 125.095C239.129 124.803 239.391 124.566 239.715 124.384C240.038 124.197 240.43 124.097 240.891 124.083L241.034 124.869C240.706 124.878 240.444 124.956 240.248 125.102C240.057 125.247 239.913 125.432 239.817 125.655C239.717 125.883 239.653 126.138 239.626 126.421C239.599 126.703 239.585 126.984 239.585 127.262V128.424C239.585 128.971 239.457 129.451 239.202 129.866C238.951 130.276 238.562 130.589 238.033 130.803C238.562 131.012 238.951 131.325 239.202 131.739C239.453 132.149 239.58 132.626 239.585 133.168V134.323C239.585 134.606 239.608 134.886 239.653 135.164C239.699 135.447 239.779 135.7 239.893 135.923C240.002 136.151 240.148 136.338 240.33 136.483C240.517 136.629 240.752 136.707 241.034 136.716L240.891 137.502ZM250.044 135H248.848V130.399H244.767V135H243.577V125.047H244.767V129.326H248.848V125.047H250.044V135ZM251.855 131.233C251.855 130.7 251.933 130.206 252.088 129.75C252.243 129.29 252.466 128.891 252.758 128.554C253.045 128.216 253.396 127.952 253.811 127.761C254.225 127.565 254.692 127.467 255.212 127.467C255.736 127.467 256.205 127.565 256.62 127.761C257.039 127.952 257.395 128.216 257.687 128.554C257.974 128.891 258.195 129.29 258.35 129.75C258.505 130.206 258.582 130.7 258.582 131.233V131.384C258.582 131.917 258.505 132.411 258.35 132.867C258.195 133.323 257.974 133.719 257.687 134.057C257.395 134.394 257.042 134.658 256.627 134.85C256.212 135.041 255.745 135.137 255.226 135.137C254.701 135.137 254.23 135.041 253.811 134.85C253.396 134.658 253.045 134.394 252.758 134.057C252.466 133.719 252.243 133.323 252.088 132.867C251.933 132.411 251.855 131.917 251.855 131.384V131.233ZM253.12 131.384C253.12 131.748 253.163 132.097 253.25 132.43C253.337 132.758 253.469 133.047 253.646 133.298C253.82 133.549 254.038 133.747 254.303 133.893C254.567 134.038 254.875 134.111 255.226 134.111C255.572 134.111 255.875 134.038 256.135 133.893C256.399 133.747 256.62 133.549 256.798 133.298C256.971 133.047 257.101 132.758 257.188 132.43C257.274 132.097 257.317 131.748 257.317 131.384V131.233C257.317 130.873 257.272 130.529 257.181 130.201C257.094 129.868 256.964 129.577 256.791 129.326C256.613 129.076 256.392 128.877 256.128 128.731C255.868 128.581 255.563 128.506 255.212 128.506C254.861 128.506 254.556 128.581 254.296 128.731C254.036 128.877 253.82 129.076 253.646 129.326C253.469 129.577 253.337 129.868 253.25 130.201C253.163 130.529 253.12 130.873 253.12 131.233V131.384ZM261.2 127.604L261.234 128.301C261.385 128.041 261.581 127.838 261.822 127.692C262.068 127.547 262.365 127.471 262.711 127.467C262.907 127.467 263.082 127.49 263.237 127.535C263.397 127.576 263.536 127.638 263.654 127.72C263.741 127.784 263.818 127.861 263.887 127.952C263.96 128.043 264.021 128.146 264.071 128.26C264.135 128.155 264.21 128.057 264.297 127.966C264.383 127.875 264.477 127.795 264.577 127.727C264.705 127.649 264.846 127.588 265.001 127.542C265.16 127.496 265.334 127.471 265.521 127.467C265.776 127.467 266.006 127.506 266.211 127.583C266.416 127.656 266.589 127.765 266.73 127.911C266.885 128.075 267.004 128.289 267.086 128.554C267.168 128.813 267.209 129.121 267.209 129.477V135H266.006V129.463C266.006 129.308 265.988 129.171 265.951 129.053C265.915 128.934 265.862 128.836 265.794 128.759C265.721 128.686 265.63 128.631 265.521 128.595C265.416 128.558 265.293 128.54 265.151 128.54C265.001 128.54 264.871 128.561 264.762 128.602C264.652 128.643 264.561 128.697 264.488 128.766C264.415 128.839 264.358 128.923 264.317 129.019C264.276 129.11 264.249 129.212 264.235 129.326C264.235 129.349 264.235 129.372 264.235 129.395C264.235 129.413 264.235 129.436 264.235 129.463V135H263.032V129.456C263.032 129.301 263.014 129.164 262.978 129.046C262.946 128.927 262.893 128.829 262.82 128.752C262.752 128.679 262.665 128.627 262.561 128.595C262.46 128.558 262.342 128.54 262.205 128.54C262.055 128.54 261.923 128.558 261.809 128.595C261.699 128.627 261.606 128.674 261.528 128.738C261.469 128.788 261.417 128.845 261.371 128.909C261.33 128.973 261.296 129.041 261.269 129.114V135H260.065V127.604H261.2ZM272.295 135.137C271.775 135.137 271.297 135.048 270.859 134.87C270.426 134.692 270.055 134.444 269.745 134.125C269.435 133.806 269.194 133.428 269.021 132.99C268.847 132.553 268.761 132.076 268.761 131.562V131.274C268.761 130.677 268.856 130.144 269.048 129.675C269.239 129.201 269.494 128.8 269.813 128.472C270.128 128.148 270.486 127.9 270.887 127.727C271.292 127.553 271.707 127.467 272.131 127.467C272.664 127.467 273.129 127.56 273.525 127.747C273.926 127.929 274.259 128.182 274.523 128.506C274.788 128.834 274.984 129.219 275.111 129.661C275.243 130.103 275.31 130.582 275.31 131.097V131.664H270.025V131.712C270.057 132.072 270.128 132.389 270.237 132.662C270.351 132.936 270.506 133.177 270.702 133.387C270.903 133.61 271.144 133.785 271.427 133.913C271.709 134.041 272.021 134.104 272.363 134.104C272.814 134.104 273.215 134.013 273.566 133.831C273.917 133.649 274.209 133.407 274.441 133.106L275.214 133.708C274.968 134.082 274.599 134.414 274.106 134.706C273.619 134.993 273.015 135.137 272.295 135.137ZM272.131 128.506C271.876 128.506 271.634 128.554 271.406 128.649C271.178 128.741 270.973 128.875 270.791 129.053C270.609 129.235 270.454 129.458 270.326 129.723C270.203 129.982 270.117 130.283 270.066 130.625H274.045V130.563C274.045 130.336 274.002 130.092 273.915 129.832C273.828 129.568 273.708 129.34 273.553 129.148C273.398 128.957 273.202 128.802 272.965 128.684C272.732 128.565 272.454 128.506 272.131 128.506ZM278.816 131.008V135H277.552V125.047H280.778C281.225 125.056 281.646 125.127 282.043 125.259C282.444 125.391 282.795 125.582 283.096 125.833C283.396 126.084 283.633 126.394 283.807 126.763C283.984 127.132 284.073 127.556 284.073 128.034C284.073 128.513 283.984 128.937 283.807 129.306C283.633 129.67 283.396 129.978 283.096 130.229C282.795 130.479 282.444 130.671 282.043 130.803C281.646 130.935 281.225 131.003 280.778 131.008H278.816ZM278.816 129.969H280.778C281.07 129.964 281.339 129.919 281.585 129.832C281.831 129.741 282.045 129.613 282.228 129.449C282.41 129.285 282.551 129.087 282.651 128.854C282.756 128.618 282.809 128.349 282.809 128.048C282.809 127.747 282.756 127.476 282.651 127.234C282.551 126.993 282.412 126.788 282.234 126.619C282.052 126.451 281.836 126.321 281.585 126.229C281.339 126.138 281.07 126.09 280.778 126.086H278.816V129.969ZM290.704 135C290.654 134.904 290.613 134.786 290.581 134.645C290.554 134.499 290.533 134.348 290.52 134.193C290.392 134.321 290.248 134.442 290.089 134.556C289.934 134.67 289.763 134.77 289.576 134.856C289.385 134.943 289.182 135.011 288.968 135.062C288.754 135.112 288.526 135.137 288.284 135.137C287.892 135.137 287.537 135.08 287.218 134.966C286.903 134.852 286.637 134.697 286.418 134.501C286.195 134.31 286.021 134.082 285.898 133.817C285.78 133.549 285.721 133.259 285.721 132.949C285.721 132.544 285.8 132.188 285.96 131.883C286.124 131.577 286.354 131.322 286.65 131.117C286.947 130.917 287.302 130.766 287.717 130.666C288.136 130.566 288.603 130.516 289.118 130.516H290.499V129.935C290.499 129.711 290.458 129.511 290.376 129.333C290.294 129.155 290.178 129.003 290.027 128.875C289.877 128.752 289.692 128.656 289.474 128.588C289.259 128.52 289.018 128.485 288.749 128.485C288.498 128.485 288.273 128.517 288.072 128.581C287.876 128.645 287.71 128.729 287.573 128.834C287.437 128.939 287.329 129.064 287.252 129.21C287.179 129.351 287.143 129.499 287.143 129.654H285.871C285.876 129.385 285.944 129.121 286.076 128.861C286.213 128.602 286.409 128.367 286.664 128.157C286.915 127.952 287.22 127.786 287.58 127.658C287.945 127.531 288.357 127.467 288.817 127.467C289.237 127.467 289.626 127.519 289.986 127.624C290.346 127.724 290.659 127.877 290.923 128.082C291.183 128.292 291.388 128.551 291.538 128.861C291.688 129.171 291.764 129.534 291.764 129.948V133.387C291.764 133.633 291.786 133.895 291.832 134.173C291.878 134.446 291.941 134.686 292.023 134.891V135H290.704ZM288.469 134.036C288.715 134.036 288.945 134.004 289.159 133.94C289.373 133.877 289.569 133.792 289.747 133.688C289.92 133.583 290.071 133.464 290.198 133.332C290.326 133.195 290.426 133.054 290.499 132.908V131.411H289.323C288.886 131.411 288.503 131.45 288.175 131.527C287.851 131.6 287.594 131.714 287.402 131.869C287.266 131.979 287.161 132.108 287.088 132.259C287.02 132.409 286.985 132.58 286.985 132.771C286.985 132.954 287.015 133.122 287.074 133.277C287.138 133.432 287.231 133.564 287.354 133.674C287.478 133.788 287.632 133.877 287.819 133.94C288.006 134.004 288.223 134.036 288.469 134.036ZM294.02 131.24C294.02 130.689 294.086 130.183 294.218 129.723C294.354 129.258 294.55 128.859 294.806 128.526C295.061 128.194 295.371 127.934 295.735 127.747C296.1 127.56 296.512 127.467 296.973 127.467C297.269 127.467 297.54 127.501 297.786 127.569C298.037 127.638 298.262 127.738 298.463 127.87C298.572 127.938 298.675 128.018 298.771 128.109C298.871 128.201 298.964 128.301 299.051 128.41L299.112 127.604H300.261V134.843C300.261 135.33 300.183 135.763 300.028 136.142C299.878 136.52 299.666 136.841 299.393 137.105C299.115 137.37 298.784 137.57 298.401 137.707C298.019 137.844 297.595 137.912 297.13 137.912C296.938 137.912 296.72 137.889 296.474 137.844C296.228 137.803 295.979 137.732 295.729 137.632C295.473 137.536 295.227 137.406 294.99 137.242C294.758 137.078 294.557 136.875 294.389 136.634L295.045 135.875C295.2 136.062 295.359 136.219 295.523 136.347C295.688 136.479 295.854 136.584 296.022 136.661C296.191 136.739 296.36 136.793 296.528 136.825C296.697 136.862 296.866 136.88 297.034 136.88C297.335 136.88 297.606 136.837 297.848 136.75C298.089 136.663 298.297 136.536 298.47 136.367C298.638 136.203 298.768 135.998 298.859 135.752C298.951 135.506 298.996 135.223 298.996 134.904V134.269C298.9 134.378 298.798 134.478 298.688 134.569C298.584 134.66 298.47 134.74 298.347 134.809C298.155 134.913 297.943 134.993 297.711 135.048C297.479 135.107 297.228 135.137 296.959 135.137C296.508 135.137 296.1 135.041 295.735 134.85C295.371 134.658 295.063 134.394 294.812 134.057C294.557 133.719 294.361 133.323 294.225 132.867C294.088 132.407 294.02 131.912 294.02 131.384V131.24ZM295.284 131.384C295.284 131.744 295.321 132.086 295.394 132.409C295.471 132.733 295.592 133.018 295.756 133.264C295.915 133.51 296.12 133.706 296.371 133.852C296.622 133.993 296.923 134.063 297.273 134.063C297.492 134.063 297.688 134.038 297.861 133.988C298.039 133.934 298.199 133.858 298.34 133.763C298.477 133.667 298.6 133.553 298.709 133.421C298.818 133.289 298.914 133.143 298.996 132.983V129.593C298.914 129.438 298.818 129.297 298.709 129.169C298.6 129.041 298.474 128.93 298.333 128.834C298.192 128.743 298.035 128.672 297.861 128.622C297.688 128.567 297.497 128.54 297.287 128.54C296.932 128.54 296.626 128.613 296.371 128.759C296.12 128.905 295.915 129.101 295.756 129.347C295.592 129.597 295.471 129.887 295.394 130.215C295.321 130.538 295.284 130.88 295.284 131.24V131.384ZM305.928 135.137C305.408 135.137 304.93 135.048 304.492 134.87C304.059 134.692 303.688 134.444 303.378 134.125C303.068 133.806 302.826 133.428 302.653 132.99C302.48 132.553 302.394 132.076 302.394 131.562V131.274C302.394 130.677 302.489 130.144 302.681 129.675C302.872 129.201 303.127 128.8 303.446 128.472C303.761 128.148 304.118 127.9 304.52 127.727C304.925 127.553 305.34 127.467 305.764 127.467C306.297 127.467 306.762 127.56 307.158 127.747C307.559 127.929 307.892 128.182 308.156 128.506C308.421 128.834 308.617 129.219 308.744 129.661C308.876 130.103 308.942 130.582 308.942 131.097V131.664H303.658V131.712C303.69 132.072 303.761 132.389 303.87 132.662C303.984 132.936 304.139 133.177 304.335 133.387C304.535 133.61 304.777 133.785 305.06 133.913C305.342 134.041 305.654 134.104 305.996 134.104C306.447 134.104 306.848 134.013 307.199 133.831C307.55 133.649 307.842 133.407 308.074 133.106L308.847 133.708C308.601 134.082 308.231 134.414 307.739 134.706C307.252 134.993 306.648 135.137 305.928 135.137ZM305.764 128.506C305.508 128.506 305.267 128.554 305.039 128.649C304.811 128.741 304.606 128.875 304.424 129.053C304.242 129.235 304.087 129.458 303.959 129.723C303.836 129.982 303.749 130.283 303.699 130.625H307.678V130.563C307.678 130.336 307.634 130.092 307.548 129.832C307.461 129.568 307.34 129.34 307.186 129.148C307.031 128.957 306.835 128.802 306.598 128.684C306.365 128.565 306.087 128.506 305.764 128.506ZM312.087 136.716C312.365 136.707 312.597 136.629 312.784 136.483C312.971 136.338 313.121 136.151 313.235 135.923C313.345 135.7 313.422 135.447 313.468 135.164C313.518 134.886 313.543 134.606 313.543 134.323V133.168C313.543 132.808 313.595 132.475 313.7 132.17C313.81 131.865 313.976 131.6 314.199 131.377C314.318 131.258 314.45 131.151 314.596 131.056C314.746 130.96 314.91 130.876 315.088 130.803C314.906 130.73 314.737 130.643 314.582 130.543C314.432 130.443 314.299 130.331 314.186 130.208C313.967 129.98 313.805 129.716 313.7 129.415C313.595 129.11 313.543 128.779 313.543 128.424V127.262C313.543 126.984 313.527 126.703 313.495 126.421C313.468 126.138 313.406 125.883 313.311 125.655C313.21 125.432 313.064 125.247 312.873 125.102C312.682 124.956 312.422 124.878 312.094 124.869L312.23 124.083C312.673 124.097 313.051 124.19 313.365 124.363C313.684 124.536 313.946 124.762 314.151 125.04C314.384 125.354 314.55 125.708 314.65 126.1C314.755 126.492 314.808 126.879 314.808 127.262V128.424C314.808 128.697 314.833 128.939 314.883 129.148C314.938 129.354 315.017 129.531 315.122 129.682C315.272 129.896 315.48 130.053 315.744 130.153C316.013 130.249 316.334 130.297 316.708 130.297V131.288C316.38 131.293 316.093 131.334 315.847 131.411C315.605 131.484 315.407 131.6 315.252 131.76C315.102 131.915 314.99 132.108 314.917 132.341C314.844 132.573 314.808 132.849 314.808 133.168V134.323C314.808 134.688 314.757 135.055 314.657 135.424C314.557 135.798 314.402 136.137 314.192 136.442C313.978 136.748 313.709 136.998 313.386 137.194C313.062 137.39 312.677 137.493 312.23 137.502L312.087 136.716ZM327.885 135V127.604H329.02L329.108 128.697C329.218 128.542 329.336 128.401 329.464 128.273C329.596 128.141 329.735 128.027 329.881 127.932C330.1 127.786 330.337 127.674 330.592 127.597C330.852 127.515 331.125 127.471 331.412 127.467C331.799 127.467 332.15 127.521 332.465 127.631C332.784 127.74 333.055 127.911 333.278 128.144C333.502 128.376 333.673 128.672 333.791 129.032C333.914 129.388 333.976 129.812 333.976 130.304V135H332.711V130.331C332.711 130.003 332.674 129.725 332.602 129.497C332.529 129.269 332.422 129.085 332.28 128.943C332.134 128.802 331.957 128.7 331.747 128.636C331.542 128.572 331.305 128.54 331.036 128.54C330.804 128.54 330.587 128.574 330.387 128.643C330.186 128.706 330.002 128.795 329.833 128.909C329.696 129.009 329.569 129.126 329.45 129.258C329.336 129.39 329.236 129.536 329.149 129.695V135H327.885ZM341.153 135C341.103 134.904 341.062 134.786 341.03 134.645C341.003 134.499 340.982 134.348 340.969 134.193C340.841 134.321 340.698 134.442 340.538 134.556C340.383 134.67 340.212 134.77 340.025 134.856C339.834 134.943 339.631 135.011 339.417 135.062C339.203 135.112 338.975 135.137 338.733 135.137C338.341 135.137 337.986 135.08 337.667 134.966C337.353 134.852 337.086 134.697 336.867 134.501C336.644 134.31 336.471 134.082 336.348 133.817C336.229 133.549 336.17 133.259 336.17 132.949C336.17 132.544 336.25 132.188 336.409 131.883C336.573 131.577 336.803 131.322 337.1 131.117C337.396 130.917 337.751 130.766 338.166 130.666C338.585 130.566 339.052 130.516 339.567 130.516H340.948V129.935C340.948 129.711 340.907 129.511 340.825 129.333C340.743 129.155 340.627 129.003 340.477 128.875C340.326 128.752 340.142 128.656 339.923 128.588C339.709 128.52 339.467 128.485 339.198 128.485C338.948 128.485 338.722 128.517 338.521 128.581C338.326 128.645 338.159 128.729 338.022 128.834C337.886 128.939 337.779 129.064 337.701 129.21C337.628 129.351 337.592 129.499 337.592 129.654H336.32C336.325 129.385 336.393 129.121 336.525 128.861C336.662 128.602 336.858 128.367 337.113 128.157C337.364 127.952 337.669 127.786 338.029 127.658C338.394 127.531 338.806 127.467 339.267 127.467C339.686 127.467 340.076 127.519 340.436 127.624C340.796 127.724 341.108 127.877 341.372 128.082C341.632 128.292 341.837 128.551 341.987 128.861C342.138 129.171 342.213 129.534 342.213 129.948V133.387C342.213 133.633 342.236 133.895 342.281 134.173C342.327 134.446 342.391 134.686 342.473 134.891V135H341.153ZM338.918 134.036C339.164 134.036 339.394 134.004 339.608 133.94C339.823 133.877 340.019 133.792 340.196 133.688C340.369 133.583 340.52 133.464 340.647 133.332C340.775 133.195 340.875 133.054 340.948 132.908V131.411H339.772C339.335 131.411 338.952 131.45 338.624 131.527C338.3 131.6 338.043 131.714 337.852 131.869C337.715 131.979 337.61 132.108 337.537 132.259C337.469 132.409 337.435 132.58 337.435 132.771C337.435 132.954 337.464 133.122 337.523 133.277C337.587 133.432 337.681 133.564 337.804 133.674C337.927 133.788 338.082 133.877 338.269 133.94C338.455 134.004 338.672 134.036 338.918 134.036ZM345.282 127.604L345.316 128.301C345.467 128.041 345.663 127.838 345.904 127.692C346.15 127.547 346.447 127.471 346.793 127.467C346.989 127.467 347.164 127.49 347.319 127.535C347.479 127.576 347.618 127.638 347.736 127.72C347.823 127.784 347.9 127.861 347.969 127.952C348.042 128.043 348.103 128.146 348.153 128.26C348.217 128.155 348.292 128.057 348.379 127.966C348.465 127.875 348.559 127.795 348.659 127.727C348.787 127.649 348.928 127.588 349.083 127.542C349.243 127.496 349.416 127.471 349.603 127.467C349.858 127.467 350.088 127.506 350.293 127.583C350.498 127.656 350.671 127.765 350.812 127.911C350.967 128.075 351.086 128.289 351.168 128.554C351.25 128.813 351.291 129.121 351.291 129.477V135H350.088V129.463C350.088 129.308 350.07 129.171 350.033 129.053C349.997 128.934 349.944 128.836 349.876 128.759C349.803 128.686 349.712 128.631 349.603 128.595C349.498 128.558 349.375 128.54 349.233 128.54C349.083 128.54 348.953 128.561 348.844 128.602C348.734 128.643 348.643 128.697 348.57 128.766C348.497 128.839 348.44 128.923 348.399 129.019C348.358 129.11 348.331 129.212 348.317 129.326C348.317 129.349 348.317 129.372 348.317 129.395C348.317 129.413 348.317 129.436 348.317 129.463V135H347.114V129.456C347.114 129.301 347.096 129.164 347.06 129.046C347.028 128.927 346.975 128.829 346.902 128.752C346.834 128.679 346.747 128.627 346.643 128.595C346.542 128.558 346.424 128.54 346.287 128.54C346.137 128.54 346.005 128.558 345.891 128.595C345.781 128.627 345.688 128.674 345.61 128.738C345.551 128.788 345.499 128.845 345.453 128.909C345.412 128.973 345.378 129.041 345.351 129.114V135H344.147V127.604H345.282ZM356.377 135.137C355.857 135.137 355.379 135.048 354.941 134.87C354.508 134.692 354.137 134.444 353.827 134.125C353.517 133.806 353.276 133.428 353.103 132.99C352.929 132.553 352.843 132.076 352.843 131.562V131.274C352.843 130.677 352.938 130.144 353.13 129.675C353.321 129.201 353.576 128.8 353.896 128.472C354.21 128.148 354.568 127.9 354.969 127.727C355.374 127.553 355.789 127.467 356.213 127.467C356.746 127.467 357.211 127.56 357.607 127.747C358.008 127.929 358.341 128.182 358.605 128.506C358.87 128.834 359.066 129.219 359.193 129.661C359.326 130.103 359.392 130.582 359.392 131.097V131.664H354.107V131.712C354.139 132.072 354.21 132.389 354.319 132.662C354.433 132.936 354.588 133.177 354.784 133.387C354.985 133.61 355.226 133.785 355.509 133.913C355.791 134.041 356.104 134.104 356.445 134.104C356.896 134.104 357.298 134.013 357.648 133.831C357.999 133.649 358.291 133.407 358.523 133.106L359.296 133.708C359.05 134.082 358.681 134.414 358.188 134.706C357.701 134.993 357.097 135.137 356.377 135.137ZM356.213 128.506C355.958 128.506 355.716 128.554 355.488 128.649C355.26 128.741 355.055 128.875 354.873 129.053C354.691 129.235 354.536 129.458 354.408 129.723C354.285 129.982 354.199 130.283 354.148 130.625H358.127V130.563C358.127 130.336 358.084 130.092 357.997 129.832C357.91 129.568 357.79 129.34 357.635 129.148C357.48 128.957 357.284 128.802 357.047 128.684C356.814 128.565 356.536 128.506 356.213 128.506ZM367.615 129.668H361.511V128.567H367.615V129.668ZM367.615 132.505H361.511V131.411H367.615V132.505ZM372.188 125.245L372.045 127.774H371.156L371.163 125.354V124.5H372.188V125.245ZM374.629 125.245L374.485 127.774H373.604L373.61 125.354V124.5H374.636L374.629 125.245ZM379.599 128.704C379.699 128.554 379.811 128.417 379.934 128.294C380.057 128.166 380.187 128.055 380.323 127.959C380.542 127.799 380.781 127.679 381.041 127.597C381.305 127.515 381.586 127.471 381.882 127.467C382.269 127.467 382.62 127.524 382.935 127.638C383.254 127.747 383.525 127.92 383.748 128.157C383.971 128.394 384.142 128.695 384.261 129.06C384.384 129.42 384.445 129.848 384.445 130.345V135H383.181V130.331C383.181 130.039 383.146 129.784 383.078 129.565C383.01 129.342 382.91 129.158 382.777 129.012C382.636 128.852 382.458 128.734 382.244 128.656C382.03 128.574 381.784 128.535 381.506 128.54C381.278 128.54 381.062 128.572 380.856 128.636C380.651 128.7 380.462 128.791 380.289 128.909C380.152 129 380.025 129.107 379.906 129.23C379.792 129.349 379.69 129.481 379.599 129.627V135H378.334V124.5H379.599V128.704ZM386.387 131.233C386.387 130.7 386.464 130.206 386.619 129.75C386.774 129.29 386.997 128.891 387.289 128.554C387.576 128.216 387.927 127.952 388.342 127.761C388.757 127.565 389.224 127.467 389.743 127.467C390.267 127.467 390.737 127.565 391.151 127.761C391.571 127.952 391.926 128.216 392.218 128.554C392.505 128.891 392.726 129.29 392.881 129.75C393.036 130.206 393.113 130.7 393.113 131.233V131.384C393.113 131.917 393.036 132.411 392.881 132.867C392.726 133.323 392.505 133.719 392.218 134.057C391.926 134.394 391.573 134.658 391.158 134.85C390.743 135.041 390.276 135.137 389.757 135.137C389.233 135.137 388.761 135.041 388.342 134.85C387.927 134.658 387.576 134.394 387.289 134.057C386.997 133.719 386.774 133.323 386.619 132.867C386.464 132.411 386.387 131.917 386.387 131.384V131.233ZM387.651 131.384C387.651 131.748 387.695 132.097 387.781 132.43C387.868 132.758 388 133.047 388.178 133.298C388.351 133.549 388.57 133.747 388.834 133.893C389.098 134.038 389.406 134.111 389.757 134.111C390.103 134.111 390.406 134.038 390.666 133.893C390.93 133.747 391.151 133.549 391.329 133.298C391.502 133.047 391.632 132.758 391.719 132.43C391.805 132.097 391.849 131.748 391.849 131.384V131.233C391.849 130.873 391.803 130.529 391.712 130.201C391.625 129.868 391.495 129.577 391.322 129.326C391.145 129.076 390.924 128.877 390.659 128.731C390.399 128.581 390.094 128.506 389.743 128.506C389.392 128.506 389.087 128.581 388.827 128.731C388.567 128.877 388.351 129.076 388.178 129.326C388 129.577 387.868 129.868 387.781 130.201C387.695 130.529 387.651 130.873 387.651 131.233V131.384ZM395.731 127.604L395.766 128.301C395.916 128.041 396.112 127.838 396.354 127.692C396.6 127.547 396.896 127.471 397.242 127.467C397.438 127.467 397.614 127.49 397.769 127.535C397.928 127.576 398.067 127.638 398.186 127.72C398.272 127.784 398.35 127.861 398.418 127.952C398.491 128.043 398.552 128.146 398.603 128.26C398.666 128.155 398.742 128.057 398.828 127.966C398.915 127.875 399.008 127.795 399.108 127.727C399.236 127.649 399.377 127.588 399.532 127.542C399.692 127.496 399.865 127.471 400.052 127.467C400.307 127.467 400.537 127.506 400.742 127.583C400.947 127.656 401.12 127.765 401.262 127.911C401.417 128.075 401.535 128.289 401.617 128.554C401.699 128.813 401.74 129.121 401.74 129.477V135H400.537V129.463C400.537 129.308 400.519 129.171 400.482 129.053C400.446 128.934 400.394 128.836 400.325 128.759C400.252 128.686 400.161 128.631 400.052 128.595C399.947 128.558 399.824 128.54 399.683 128.54C399.532 128.54 399.402 128.561 399.293 128.602C399.184 128.643 399.092 128.697 399.02 128.766C398.947 128.839 398.89 128.923 398.849 129.019C398.808 129.11 398.78 129.212 398.767 129.326C398.767 129.349 398.767 129.372 398.767 129.395C398.767 129.413 398.767 129.436 398.767 129.463V135H397.563V129.456C397.563 129.301 397.545 129.164 397.509 129.046C397.477 128.927 397.424 128.829 397.352 128.752C397.283 128.679 397.197 128.627 397.092 128.595C396.992 128.558 396.873 128.54 396.736 128.54C396.586 128.54 396.454 128.558 396.34 128.595C396.23 128.627 396.137 128.674 396.06 128.738C396 128.788 395.948 128.845 395.902 128.909C395.861 128.973 395.827 129.041 395.8 129.114V135H394.597V127.604H395.731ZM406.826 135.137C406.307 135.137 405.828 135.048 405.391 134.87C404.958 134.692 404.586 134.444 404.276 134.125C403.966 133.806 403.725 133.428 403.552 132.99C403.379 132.553 403.292 132.076 403.292 131.562V131.274C403.292 130.677 403.388 130.144 403.579 129.675C403.771 129.201 404.026 128.8 404.345 128.472C404.659 128.148 405.017 127.9 405.418 127.727C405.824 127.553 406.238 127.467 406.662 127.467C407.195 127.467 407.66 127.56 408.057 127.747C408.458 127.929 408.79 128.182 409.055 128.506C409.319 128.834 409.515 129.219 409.643 129.661C409.775 130.103 409.841 130.582 409.841 131.097V131.664H404.557V131.712C404.589 132.072 404.659 132.389 404.769 132.662C404.882 132.936 405.037 133.177 405.233 133.387C405.434 133.61 405.675 133.785 405.958 133.913C406.241 134.041 406.553 134.104 406.895 134.104C407.346 134.104 407.747 134.013 408.098 133.831C408.449 133.649 408.74 133.407 408.973 133.106L409.745 133.708C409.499 134.082 409.13 134.414 408.638 134.706C408.15 134.993 407.546 135.137 406.826 135.137ZM406.662 128.506C406.407 128.506 406.165 128.554 405.938 128.649C405.71 128.741 405.505 128.875 405.322 129.053C405.14 129.235 404.985 129.458 404.857 129.723C404.734 129.982 404.648 130.283 404.598 130.625H408.576V130.563C408.576 130.336 408.533 130.092 408.446 129.832C408.36 129.568 408.239 129.34 408.084 129.148C407.929 128.957 407.733 128.802 407.496 128.684C407.264 128.565 406.986 128.506 406.662 128.506ZM414.229 125.245L414.086 127.774H413.197L413.204 125.354V124.5H414.229V125.245ZM416.67 125.245L416.526 127.774H415.645L415.651 125.354V124.5H416.677L416.67 125.245ZM430.451 135.854H429.316L433.473 125.047H434.601L430.451 135.854ZM437.219 133.653V132.341L441.642 130.673L442.052 130.557L441.642 130.427L437.219 128.786V127.48L443.255 130.064V131.062L437.219 133.653Z" fill="#A86338"/>
<path d="M1 4C1 2.34315 2.34315 1 4 1H531V148C531 149.657 529.657 151 528 151H1V4Z" stroke="#A86338" stroke-width="2"/>
<line y1="38.5" x2="532" y2="38.5" stroke="#A86338"/>
<circle cx="20" cy="20" r="5" stroke="#A86338" stroke-width="2"/>
<circle cx="40" cy="20" r="5" stroke="#A86338" stroke-width="2"/>
<circle cx="60" cy="20" r="5" stroke="#A86338" stroke-width="2"/>
</svg>
