<svg fill="none" height="152" viewBox="0 0 532 152" width="532" xmlns="http://www.w3.org/2000/svg"><path d="m28.3408 68.1113c.2279 0 .4489-.0364.6631-.1093.2188-.073.4124-.1755.5811-.3077.1686-.1276.303-.278.4033-.4511.1048-.1778.1595-.3692.164-.5743h1.1963c-.0045.3282-.0911.6426-.2597.9434-.1641.2962-.3851.556-.6631.7793-.278.2279-.597.4102-.957.5469-.3601.1321-.7361.1982-1.128.1982-.5605 0-1.0504-.1002-1.4697-.3008-.4193-.2005-.7679-.4716-1.0459-.8134-.2826-.3373-.4945-.7269-.6357-1.169-.1413-.4466-.212-.916-.212-1.4082v-.2871c0-.4876.0707-.9547.212-1.4014.1412-.4466.3531-.8408.6357-1.1826.278-.3372.6266-.6061 1.0459-.8066s.9092-.3008 1.4697-.3008c.4375 0 .8386.0706 1.2031.2119.3692.1367.6882.3236.9571.5606.2643.2415.4717.5263.622.8545.1504.3281.2256.679.2256 1.0527h-1.1963c-.0045-.2233-.0546-.433-.1503-.6289-.0912-.2005-.2165-.376-.376-.5264s-.3509-.2689-.5742-.3555c-.2188-.0865-.4558-.1298-.711-.1298-.3919 0-.7223.0797-.9912.2392-.2643.155-.4785.3578-.6426.6084-.164.2552-.2825.5401-.3554.8545-.0684.3145-.1026.6312-.1026.9502v.2871c0 .3236.0342.6449.1026.9639.0729.3144.1914.597.3554.8476.1595.2552.3715.4626.6358.6221.2689.155.6015.2324.998.2324zm4.9014-2.8779c0-.5332.0775-1.0277.2324-1.4834.155-.4603.3783-.859.6699-1.1963.2871-.3372.6381-.6016 1.0528-.793.4147-.1959.8818-.2939 1.4013-.2939.5241 0 .9935.098 1.4082.2939.4193.1914.7748.4558 1.0664.793.2872.3373.5082.736.6631 1.1963.155.4557.2325.9502.2325 1.4834v.1504c0 .5332-.0775 1.0277-.2325 1.4834-.1549.4557-.3759.8522-.6631 1.1894-.2916.3373-.6448.6016-1.0595.793s-.8819.2871-1.4014.2871c-.5241 0-.9958-.0957-1.415-.2871-.4147-.1914-.7657-.4557-1.0528-.793-.2916-.3372-.5149-.7337-.6699-1.1894-.1549-.4557-.2324-.9502-.2324-1.4834zm1.2646.1504c0 .3646.0433.7132.1299 1.0459.0866.3281.2188.6175.3965.8682.1732.2506.3919.4488.6563.5947.2643.1458.5719.2187.9228.2187.3464 0 .6494-.0729.9092-.2187.2643-.1459.4853-.3441.6631-.5947.1731-.2507.303-.5401.3896-.8682.0866-.3327.1299-.6813.1299-1.0459v-.1504c0-.36-.0456-.7041-.1367-1.0322-.0866-.3327-.2165-.6244-.3897-.875-.1777-.2507-.3987-.4489-.6631-.5948-.2597-.1503-.5651-.2255-.916-.2255s-.6562.0752-.916.2255c-.2597.1459-.4762.3441-.6494.5948-.1777.2506-.3099.5423-.3965.875-.0866.3281-.1299.6722-.1299 1.0322zm7.4991 3.6162v-7.3965h1.1347l.0889 1.0938c.1094-.155.2279-.2963.3555-.4239.1321-.1321.2711-.2461.417-.3418.2187-.1458.4557-.2574.7109-.3349.2598-.0821.5332-.1253.8203-.1299.3874 0 .7383.0547 1.0527.1641.319.1093.5902.2802.8135.5127.2233.2324.3942.5286.5127.8886.1231.3555.1846.7793.1846 1.2715v4.6963h-1.2647v-4.6689c0-.3282-.0364-.6062-.1093-.834-.073-.2279-.1801-.4125-.3213-.5537-.1459-.1413-.3236-.2439-.5332-.3077-.2051-.0638-.4421-.0957-.711-.0957-.2324 0-.4489.0342-.6494.1026-.2005.0638-.3851.1526-.5537.2666-.1367.1002-.2643.2165-.3828.3486-.1139.1322-.2142.278-.3008.4375v5.3047zm13.3232-1.9619c0-.1504-.0296-.2848-.0889-.4033-.0592-.1231-.1595-.2347-.3007-.335-.1413-.1003-.3282-.1914-.5606-.2734-.2324-.0866-.5218-.1641-.8682-.2325-.4238-.0865-.8112-.1914-1.1621-.3144-.3463-.1231-.6425-.2712-.8886-.4443-.2507-.1687-.4444-.3669-.5811-.5948-.1367-.2324-.2051-.5013-.2051-.8066 0-.3008.0707-.5811.2119-.8408.1413-.2644.3396-.4945.5948-.6905.2552-.1959.5582-.3509.9091-.4648.3555-.1139.7452-.1709 1.169-.1709.4557 0 .8659.0592 1.2305.1777.3645.1185.6744.2826.9297.4922.2552.2097.4511.4557.5878.7383.1413.278.212.5788.212.9023h-1.2647c0-.1595-.041-.3144-.123-.4648-.0821-.1549-.196-.2917-.3418-.4102-.1459-.1184-.3236-.2141-.5332-.2871-.2051-.0729-.4375-.1093-.6973-.1093-.2689 0-.5059.0296-.7109.0888-.2006.0593-.3669.139-.4991.2393-.1367.1002-.2392.2165-.3076.3486-.0683.1322-.1025.2689-.1025.4102 0 .1458.0273.2757.082.3896.0547.114.1504.2165.2871.3076.1322.0912.3099.1732.5332.2461.2279.0729.515.1436.8613.2119.4558.0958.8637.2074 1.2237.335.36.1231.6631.2712.9092.4443.2461.1778.4329.3829.5605.6153.1322.2324.1983.5013.1983.8066 0 .3281-.0752.6266-.2256.8955-.1459.2689-.3509.4991-.6153.6905-.2643.1914-.581.3395-.9502.4443-.3691.1048-.7724.1572-1.2099.1572-.5013 0-.9479-.0661-1.3399-.1982-.3919-.1367-.7223-.3168-.9912-.5401-.2734-.2187-.4831-.4739-.6289-.7656-.1413-.2917-.2119-.5947-.2119-.9092h1.2646c.0183.2598.0866.4785.2051.6563.1231.1777.2757.3213.458.4306.1778.1094.376.1869.5948.2325.2187.0455.4352.0683.6494.0683.3372 0 .6312-.0387.8818-.1162.2507-.082.4466-.1937.5879-.3349.0866-.0866.1527-.1823.1982-.2872.0456-.1048.0684-.2164.0684-.3349zm6.4873-7.2256v1.791h2.8164v.9776h-2.8164v4.0195c0 .2871.0365.5241.1094.7109.0729.1869.1732.335.3008.4444.1276.1139.2734.1936.4375.2392.1686.0456.3463.0684.5332.0684.1367 0 .278-.0069.4238-.0205.1458-.0183.2894-.0388.4307-.0616.1367-.0227.2643-.0455.3828-.0683.123-.0274.2233-.0501.3008-.0684l.1777.8955c-.1048.0638-.2324.1208-.3828.1709-.1504.0456-.3145.0843-.4922.1162-.1777.0365-.3669.0638-.5674.0821-.196.0182-.3919.0273-.5879.0273-.3281 0-.6357-.0456-.9228-.1367-.2826-.0957-.5287-.2461-.7383-.4512-.2097-.2005-.376-.4603-.499-.7793-.1185-.3235-.1778-.7132-.1778-1.1689v-4.0195h-1.9414v-.9776h1.9414v-1.791zm17.1172 5.127h-1.9893v4.0605h-1.2578v-9.9531h2.919c.4648.0091.9023.0752 1.3125.1982.4101.1231.7702.3076 1.08.5537.3054.2461.5446.556.7178.9297.1778.3692.2666.8044.2666 1.3057 0 .3235-.0478.6198-.1435.8887-.0912.2688-.2188.5126-.3828.7314-.1641.2187-.3601.4124-.5879.5811-.2279.1686-.4786.3121-.752.4306l2.1123 4.252-.0068.082h-1.333zm-1.9893-1.0391h1.6953c.2826-.0046.5492-.0479.7999-.1299.2506-.0866.4716-.2096.663-.3691.1869-.1595.335-.3532.4444-.5811.1093-.2324.164-.499.164-.7998 0-.319-.0524-.597-.1572-.834-.1048-.2415-.2506-.4443-.4375-.6084-.1868-.1595-.4101-.2802-.6699-.3623-.2552-.082-.5355-.1253-.8408-.1299h-1.6612zm6.7471 1.333c0-.5332.0775-1.0277.2324-1.4834.155-.4603.3783-.859.67-1.1963.2871-.3372.638-.6016 1.0527-.793.4147-.1959.8818-.2939 1.4014-.2939.524 0 .9934.098 1.4082.2939.4192.1914.7747.4558 1.0664.793.2871.3373.5081.736.663 1.1963.155.4557.2325.9502.2325 1.4834v.1504c0 .5332-.0775 1.0277-.2325 1.4834-.1549.4557-.3759.8522-.663 1.1894-.2917.3373-.6449.6016-1.0596.793s-.8818.2871-1.4014.2871c-.5241 0-.9957-.0957-1.415-.2871-.4147-.1914-.7656-.4557-1.0527-.793-.2917-.3372-.515-.7337-.67-1.1894-.1549-.4557-.2324-.9502-.2324-1.4834zm1.2647.1504c0 .3646.0432.7132.1298 1.0459.0866.3281.2188.6175.3965.8682.1732.2506.3919.4488.6563.5947.2643.1458.5719.2187.9228.2187.3464 0 .6494-.0729.9092-.2187.2643-.1459.4854-.3441.6631-.5947.1732-.2507.303-.5401.3896-.8682.0866-.3327.1299-.6813.1299-1.0459v-.1504c0-.36-.0456-.7041-.1367-1.0322-.0866-.3327-.2165-.6244-.3896-.875-.1778-.2507-.3988-.4489-.6631-.5948-.2598-.1503-.5651-.2255-.916-.2255-.351 0-.6563.0752-.9161.2255-.2597.1459-.4762.3441-.6494.5948-.1777.2506-.3099.5423-.3965.875-.0866.3281-.1298.6722-.1298 1.0322zm12.373 3.6162-.0752-1.0186c-.2461.3646-.5537.6495-.9228.8545-.3692.2006-.7953.3008-1.2784.3008-.3873 0-.7382-.0592-1.0527-.1777-.3145-.1231-.5833-.3122-.8066-.5674s-.3965-.5788-.5196-.9707c-.1185-.3965-.1777-.8704-.1777-1.4219v-4.3955h1.2646v4.4092c0 .401.0319.7337.0957.998.0638.2644.1596.474.2872.6289.1276.1596.2825.2712.4648.335.1868.0638.401.0957.6426.0957.2825 0 .5355-.0319.7588-.0957.2233-.0684.417-.1618.581-.2803.1367-.0957.2552-.2096.3555-.3418.1048-.1367.1914-.2848.2598-.4443v-5.3047h1.2714v7.3965zm6.5279-9.1875v1.791h2.817v.9776h-2.817v4.0195c0 .2871.037.5241.11.7109.073.1869.173.335.301.4444.127.1139.273.1936.437.2392.169.0456.346.0684.533.0684.137 0 .278-.0069.424-.0205.146-.0183.289-.0388.431-.0616.136-.0227.264-.0455.383-.0683.123-.0274.223-.0501.3-.0684l.178.8955c-.105.0638-.232.1208-.383.1709-.15.0456-.314.0843-.492.1162-.178.0365-.367.0638-.567.0821-.196.0182-.392.0273-.588.0273-.328 0-.636-.0456-.923-.1367-.283-.0957-.529-.2461-.738-.4512-.21-.2005-.376-.4603-.499-.7793-.119-.3235-.178-.7132-.178-1.1689v-4.0195h-1.941v-.9776h1.941v-1.791zm8.682 9.3242c-.519 0-.998-.0888-1.435-.2666-.433-.1777-.805-.4261-1.115-.7451s-.551-.6973-.724-1.1348c-.174-.4375-.26-.9137-.26-1.4287v-.2871c0-.597.096-1.1302.287-1.5996.191-.474.447-.875.766-1.2031.314-.3236.672-.572 1.073-.7451.405-.1732.82-.2598 1.244-.2598.533 0 .998.0934 1.395.2803.401.1823.733.4352.998.7588.264.3281.46.7132.587 1.1552.133.4421.199.9206.199 1.4356v.5674h-5.284v.0478c.031.36.102.6768.211.9502.114.2734.269.515.465.7246.201.2233.442.3988.725.5264.282.1276.595.1914.936.1914.452 0 .853-.0912 1.204-.2734.35-.1823.642-.4239.875-.7247l.772.6016c-.246.3737-.615.7064-1.107.9981-.488.2871-1.092.4306-1.812.4306zm-.164-6.6308c-.255 0-.497.0478-.725.1435-.227.0912-.433.2256-.615.4033-.182.1823-.337.4056-.465.67-.123.2597-.209.5605-.259.9023h3.978v-.0615c0-.2279-.043-.4717-.13-.7315-.086-.2643-.207-.4922-.362-.6836s-.351-.3463-.588-.4648c-.232-.1185-.51-.1777-.834-.1777zm10.22 4.5322c0-.1504-.03-.2848-.089-.4033-.059-.1231-.16-.2347-.301-.335s-.328-.1914-.56-.2734c-.233-.0866-.522-.1641-.869-.2325-.423-.0865-.811-.1914-1.162-.3144-.346-.1231-.642-.2712-.888-.4443-.251-.1687-.445-.3669-.581-.5948-.137-.2324-.206-.5013-.206-.8066 0-.3008.071-.5811.212-.8408.142-.2644.34-.4945.595-.6905.255-.1959.558-.3509.909-.4648.356-.1139.745-.1709 1.169-.1709.456 0 .866.0592 1.231.1777.364.1185.674.2826.929.4922.256.2097.452.4557.588.7383.142.278.212.5788.212.9023h-1.264c0-.1595-.041-.3144-.124-.4648-.082-.1549-.195-.2917-.341-.4102-.146-.1184-.324-.2141-.534-.2871-.205-.0729-.437-.1093-.697-.1093-.269 0-.506.0296-.711.0888-.2.0593-.367.139-.499.2393-.136.1002-.239.2165-.307.3486-.069.1322-.103.2689-.103.4102 0 .1458.027.2757.082.3896.055.114.151.2165.287.3076.132.0912.31.1732.533.2461.228.0729.515.1436.862.2119.456.0958.863.2074 1.223.335.36.1231.663.2712.91.4443.246.1778.433.3829.56.6153.132.2324.198.5013.198.8066 0 .3281-.075.6266-.225.8955-.146.2689-.351.4991-.615.6905-.265.1914-.581.3395-.951.4443-.369.1048-.772.1572-1.21.1572-.501 0-.948-.0661-1.339-.1982-.392-.1367-.723-.3168-.992-.5401-.273-.2187-.483-.4739-.629-.7656-.141-.2917-.211-.5947-.211-.9092h1.264c.018.2598.087.4785.205.6563.123.1777.276.3213.458.4306.178.1094.376.1869.595.2325.219.0455.435.0683.649.0683.338 0 .632-.0387.882-.1162.251-.082.447-.1937.588-.3349.087-.0866.153-.1823.198-.2872.046-.1048.069-.2164.069-.3349zm17.999-3.3701h-6.105v-1.1006h6.105zm0 2.8369h-6.105v-1.0938h6.105zm11.969-1.5449c0-.6517.051-1.2647.151-1.8389.105-.5742.244-1.1074.417-1.5996.173-.4876.371-.9343.595-1.3399.227-.4056.467-.7656.717-1.08.246-.3145.495-.5834.745-.8067.251-.2233.49-.3987.718-.5263l.267.8339c-.146.1094-.294.2416-.444.3965-.146.155-.29.3281-.431.5196-.21.2962-.41.6448-.602 1.0459-.191.3964-.351.8317-.478 1.3056-.123.4284-.219.9001-.287 1.4151-.069.5149-.103 1.0686-.103 1.6611v.0957c0 .5697.032 1.1029.096 1.5996s.15.9548.26 1.374c.118.4239.255.8158.41 1.1758.155.3646.316.6904.485.9775.173.2735.351.515.533.7247.187.2141.374.3964.561.5468l-.267.7725c-.228-.1276-.469-.3031-.724-.5264-.251-.2187-.499-.4876-.745-.8066-.251-.3145-.49-.6745-.718-1.0801-.224-.401-.42-.8477-.588-1.3398-.173-.4877-.312-1.0186-.417-1.5928-.1-.5742-.151-1.1872-.151-1.8389zm11.772.0683c0 .6517-.052 1.2647-.157 1.8389-.101.5742-.237 1.1051-.41 1.5928-.174.4921-.374.9388-.602 1.3398-.223.4056-.458.7656-.704 1.0801-.251.319-.504.5879-.759.8066-.251.2233-.49.3988-.718.5264l-.266-.7725c.191-.1412.385-.3235.581-.5468.196-.2234.383-.4808.56-.7725.169-.2962.331-.6312.486-1.0049.159-.3691.289-.7747.389-1.2168.105-.4101.185-.8522.24-1.3262.059-.4785.088-.9889.088-1.5312v-.0957c0-.6152-.038-1.1735-.116-1.6748-.073-.5013-.155-.9274-.246-1.2783-.132-.5013-.291-.9502-.478-1.3467-.187-.4011-.379-.7497-.575-1.0459-.15-.2324-.305-.4352-.464-.6084-.16-.1777-.315-.3281-.465-.4512l.266-.7724c.228.1276.47.303.725.5263s.506.4922.752.8067c.255.3235.494.6836.718 1.08.223.3965.419.8431.588 1.3399.164.4785.298.998.403 1.5586.109.556.164 1.1826.164 1.8799zm18.3-1.3603h-6.105v-1.1006h6.105zm0 2.8369h-6.105v-1.0938h6.105zm2.338 1.1484v-1.3125l4.423-1.6679.41-.1163-.41-.1298-4.423-1.6407v-1.3056l6.036 2.584v.998zm22.285 3.8487c-.442-.0137-.825-.1163-1.149-.3077-.323-.1914-.592-.4443-.806-.7588-.205-.3007-.36-.638-.465-1.0117-.105-.3691-.157-.736-.157-1.1006v-1.1552c0-.6563-.158-1.1325-.472-1.4287-.31-.2963-.786-.4467-1.429-.4512v-.9912c.643 0 1.119-.1459 1.429-.4375.314-.2962.472-.7748.472-1.4356v-1.1621c0-.3691.048-.7451.143-1.1279.1-.3874.258-.7337.472-1.0391.2-.2916.462-.5286.786-.7109.324-.1869.716-.2871 1.176-.3008l.143.7861c-.328.0092-.59.0866-.786.2325-.191.1458-.335.3304-.43.5537-.101.2278-.164.483-.192.7656-.027.2826-.041.5628-.041.8408v1.1621c0 .5469-.127 1.0277-.383 1.4424-.25.4102-.64.7223-1.169.9365.529.2097.919.5218 1.169.9366.251.4101.379.8864.383 1.4287v1.1552c0 .2826.023.5629.069.8409.045.2825.125.5354.239.7588.109.2278.255.4147.437.5605.187.1458.422.2233.704.2324zm-160.4055 11.9648c.2325 0 .474.0159.7246.0478.2553.0319.4467.0752.5743.1299l-.1709 1.2373c-.2461-.0547-.4808-.0934-.7041-.1162-.2188-.0273-.4489-.041-.6905-.041-.3099 0-.5901.0387-.8408.1162-.2506.0729-.4694.1823-.6562.3281-.1687.1276-.3168.2849-.4444.4717-.123.1823-.2256.3874-.3076.6153v4.7441h-1.2715v-7.3965h1.2032l.0546.9912.0069.1846c.3008-.4056.6608-.7246 1.0801-.957.4238-.237.9046-.3555 1.4423-.3555zm6.8291 7.6699c-.5195 0-.998-.0888-1.4355-.2666-.4329-.1777-.8044-.4261-1.1143-.7451s-.5514-.6973-.7246-1.1348-.2597-.9137-.2597-1.4287v-.2871c0-.597.0957-1.1302.2871-1.5996.1914-.474.4466-.875.7656-1.2031.3144-.3236.6722-.572 1.0732-.7451.4056-.1732.8204-.2598 1.2442-.2598.5332 0 .998.0934 1.3945.2803.4011.1823.7337.4352.9981.7588.2643.3281.4602.7132.5878 1.1552.1322.4421.1983.9206.1983 1.4356v.5674h-5.2842v.0478c.0319.36.1025.6768.2119.9502.114.2734.2689.515.4649.7246.2005.2233.442.3988.7246.5264.2825.1276.5947.1914.9365.1914.4512 0 .8522-.0912 1.2031-.2734.3509-.1823.6426-.4239.875-.7247l.7725.6016c-.2461.3737-.6152.7064-1.1074.9981-.4877.2871-1.0915.4306-1.8116.4306zm-.164-6.6308c-.2552 0-.4968.0478-.7246.1435-.2279.0912-.433.2256-.6153.4033-.1823.1823-.3372.4056-.4648.67-.1231.2597-.2096.5605-.2598.9023h3.9785v-.0615c0-.2279-.0433-.4717-.1298-.7315-.0866-.2643-.2074-.4922-.3623-.6836-.155-.1914-.351-.3463-.5879-.4648-.2325-.1185-.5105-.1777-.834-.1777zm8.2988-2.6934v1.791h2.8164v.9776h-2.8164v4.0195c0 .2871.0365.5241.1094.7109.0729.1869.1732.335.3008.4444.1276.1139.2734.1936.4375.2392.1686.0456.3463.0684.5332.0684.1367 0 .278-.0069.4238-.0205.1458-.0183.2894-.0388.4307-.0616.1367-.0227.2643-.0455.3828-.0683.123-.0274.2233-.0501.3008-.0684l.1777.8955c-.1048.0638-.2324.1208-.3828.1709-.1504.0456-.3145.0843-.4922.1162-.1777.0365-.3669.0638-.5674.0821-.196.0182-.3919.0273-.5879.0273-.3281 0-.6357-.0456-.9228-.1367-.2826-.0957-.5287-.2461-.7383-.4512-.2097-.2005-.376-.4603-.499-.7793-.1185-.3235-.1778-.7132-.1778-1.1689v-4.0195h-1.9414v-.9776h1.9414v-1.791zm10.2881 9.1875-.0752-1.0186c-.2461.3646-.5537.6495-.9229.8545-.3691.2006-.7952.3008-1.2783.3008-.3873 0-.7383-.0592-1.0527-.1777-.3145-.1231-.5833-.3122-.8066-.5674-.2234-.2552-.3965-.5788-.5196-.9707-.1185-.3965-.1777-.8704-.1777-1.4219v-4.3955h1.2646v4.4092c0 .401.0319.7337.0957.998.0638.2644.1595.474.2871.6289.1276.1596.2826.2712.4649.335.1868.0638.401.0957.6426.0957.2825 0 .5354-.0319.7588-.0957.2233-.0684.4169-.1618.581-.2803.1367-.0957.2552-.2096.3555-.3418.1048-.1367.1914-.2848.2597-.4443v-5.3047h1.2715v7.3965zm8.3809-7.5332c.2324 0 .4739.0159.7246.0478.2552.0319.4466.0752.5742.1299l-.1709 1.2373c-.2461-.0547-.4808-.0934-.7041-.1162-.2188-.0273-.4489-.041-.6904-.041-.3099 0-.5902.0387-.8409.1162-.2506.0729-.4694.1823-.6562.3281-.1686.1276-.3168.2849-.4444.4717-.123.1823-.2255.3874-.3076.6153v4.7441h-1.2715v-7.3965h1.2032l.0547.9912.0068.1846c.3008-.4056.6608-.7246 1.0801-.957.4238-.237.9046-.3555 1.4424-.3555zm3.5615 7.5332v-7.3965h1.1347l.0889 1.0938c.1094-.155.2279-.2963.3555-.4239.1321-.1321.2711-.2461.417-.3418.2187-.1458.4557-.2574.7109-.3349.2598-.0821.5332-.1253.8203-.1299.3874 0 .7383.0547 1.0528.1641.319.1093.5901.2802.8134.5127.2233.2324.3942.5286.5127.8886.1231.3555.1846.7793.1846 1.2715v4.6963h-1.2647v-4.6689c0-.3282-.0364-.6062-.1093-.834-.0729-.2279-.18-.4125-.3213-.5537-.1459-.1413-.3236-.2439-.5332-.3077-.2051-.0638-.4421-.0957-.711-.0957-.2324 0-.4489.0342-.6494.1026-.2005.0638-.3851.1526-.5537.2666-.1367.1002-.2643.2165-.3828.3486-.1139.1322-.2142.278-.3008.4375v5.3047zm18.0671-4.04c0-.6517.05-1.2647.151-1.8389.104-.5742.243-1.1074.417-1.5996.173-.4876.371-.9343.594-1.3399.228-.4056.467-.7656.718-1.08.246-.3145.495-.5834.745-.8067.251-.2233.49-.3987.718-.5263l.267.8339c-.146.1094-.294.2416-.445.3965-.146.155-.289.3281-.43.5196-.21.2962-.411.6448-.602 1.0459-.191.3964-.351.8317-.478 1.3056-.123.4284-.219.9001-.288 1.4151-.068.5149-.102 1.0686-.102 1.6611v.0957c0 .5697.032 1.1029.096 1.5996.063.4967.15.9548.259 1.374.119.4239.256.8158.411 1.1758.154.3646.316.6904.485.9775.173.2735.351.515.533.7247.187.2141.374.3964.561.5468l-.267.7725c-.228-.1276-.469-.3031-.725-.5264-.25-.2187-.499-.4876-.745-.8066-.25-.3145-.49-.6745-.717-1.0801-.224-.401-.42-.8477-.588-1.3398-.174-.4877-.313-1.0186-.417-1.5928-.101-.5742-.151-1.1872-.151-1.8389zm-37.5222 24.7-5.7969-2.591v-.998l5.7969-2.584v1.34l-4.1836 1.641-.3623.116.3623.123 4.1836 1.613zm5.9336-2.721h-1.9893v4.061h-1.2578v-9.953h2.919c.4648.009.9023.075 1.3125.198.4101.123.7701.308 1.08.554.3054.246.5446.556.7178.93.1778.369.2666.804.2666 1.305 0 .324-.0478.62-.1435.889-.0912.269-.2188.513-.3828.731-.1641.219-.3601.413-.5879.581-.2279.169-.4786.313-.752.431l2.1123 4.252-.0068.082h-1.333zm-1.9893-1.039h1.6953c.2826-.004.5492-.047.7998-.129.2507-.087.4717-.21.6631-.37.1869-.159.335-.353.4444-.581.1093-.232.164-.499.164-.799 0-.32-.0524-.597-.1572-.834-.1048-.242-.2506-.445-.4375-.609-.1868-.159-.4101-.28-.6699-.362-.2552-.082-.5355-.126-.8408-.13h-1.6612zm6.7471 1.333c0-.533.0775-1.027.2324-1.483.155-.46.3783-.859.6699-1.196.2872-.338.6381-.602 1.0528-.793.4147-.196.8818-.294 1.4013-.294.5241 0 .9935.098 1.4083.294.4192.191.7747.455 1.0664.793.2871.337.5081.736.663 1.196.155.456.2325.95.2325 1.483v.151c0 .533-.0775 1.027-.2325 1.483-.1549.456-.3759.852-.663 1.19-.2917.337-.6449.601-1.0596.793-.4147.191-.8818.287-1.4014.287-.5241 0-.9957-.096-1.415-.287-.4147-.192-.7656-.456-1.0528-.793-.2916-.338-.5149-.734-.6699-1.19-.1549-.456-.2324-.95-.2324-1.483zm1.2647.151c0 .364.0432.713.1298 1.046.0866.328.2188.617.3965.868.1732.251.3919.449.6563.595.2643.145.5719.218.9228.218.3464 0 .6494-.073.9092-.218.2643-.146.4854-.344.6631-.595.1732-.251.303-.54.3896-.868.0866-.333.1299-.682.1299-1.046v-.151c0-.36-.0456-.704-.1367-1.032-.0866-.333-.2165-.624-.3896-.875-.1778-.25-.3988-.449-.6631-.595-.2598-.15-.5651-.225-.9161-.225-.3509 0-.6562.075-.916.225-.2597.146-.4762.345-.6494.595-.1777.251-.3099.542-.3965.875-.0866.328-.1298.672-.1298 1.032zm12.373 3.616-.0752-1.019c-.2461.365-.5537.65-.9228.855-.3692.2-.7953.301-1.2784.301-.3873 0-.7383-.06-1.0527-.178-.3145-.123-.5833-.312-.8066-.567-.2234-.256-.3965-.579-.5196-.971-.1185-.397-.1777-.871-.1777-1.422v-4.395h1.2646v4.409c0 .401.0319.733.0957.998.0638.264.1595.474.2872.629.1276.159.2825.271.4648.335.1868.063.401.095.6426.095.2825 0 .5355-.032.7588-.095.2233-.069.417-.162.581-.281.1367-.095.2552-.209.3555-.341.1048-.137.1914-.285.2598-.445v-5.304h1.2714v7.396zm6.5283-9.188v1.792h2.8164v.977h-2.8164v4.02c0 .287.0365.524.1094.711.0729.186.1732.334.3008.444.1276.114.2734.194.4375.239.1686.046.3463.068.5332.068.1367 0 .278-.006.4238-.02.1458-.018.2894-.039.4307-.062.1367-.022.2643-.045.3828-.068.123-.027.2233-.05.3008-.068l.1777.895c-.1048.064-.2324.121-.3828.171-.1504.046-.3145.084-.4922.116-.1777.037-.3669.064-.5674.082-.1959.019-.3919.028-.5879.028-.3281 0-.6357-.046-.9228-.137-.2826-.096-.5287-.246-.7383-.451-.2096-.201-.376-.46-.499-.779-.1185-.324-.1778-.714-.1778-1.169v-4.02h-1.9414v-.977h1.9414v-1.792zm8.6818 9.325c-.52 0-.998-.089-1.436-.267-.433-.178-.804-.426-1.114-.745s-.551-.697-.725-1.135c-.173-.437-.259-.914-.259-1.428v-.288c0-.597.095-1.13.287-1.599.191-.474.446-.875.765-1.203.315-.324.673-.572 1.074-.745.405-.174.82-.26 1.244-.26.533 0 .998.093 1.394.28.401.182.734.435.998.759.265.328.461.713.588 1.155.132.442.199.921.199 1.436v.567h-5.285v.048c.032.36.103.677.212.95.114.274.269.515.465.725.201.223.442.398.725.526.282.128.594.191.936.191.451 0 .852-.091 1.203-.273s.643-.424.875-.725l.773.602c-.246.374-.615.706-1.108.998-.487.287-1.091.431-1.811.431zm-.164-6.631c-.255 0-.497.048-.725.143-.228.092-.433.226-.615.404-.182.182-.337.405-.465.67-.123.259-.21.56-.26.902h3.979v-.062c0-.227-.043-.471-.13-.731-.087-.264-.207-.492-.362-.684-.155-.191-.351-.346-.588-.464-.233-.119-.511-.178-.834-.178zm10.151-1.039c.233 0 .474.016.725.048.255.032.446.075.574.13l-.171 1.237c-.246-.055-.481-.094-.704-.116-.219-.028-.449-.041-.69-.041-.31 0-.591.038-.841.116-.251.073-.47.182-.657.328-.168.128-.316.285-.444.472-.123.182-.225.387-.307.615v4.744h-1.272v-7.396h1.203l.055.991.007.184c.3-.405.661-.724 1.08-.957.424-.237.904-.355 1.442-.355zm16.844 7.533-.075-1.019c-.246.365-.554.65-.923.855-.369.2-.795.301-1.278.301-.388 0-.739-.06-1.053-.178-.315-.123-.584-.312-.807-.567-.223-.256-.396-.579-.519-.971-.119-.397-.178-.871-.178-1.422v-4.395h1.265v4.409c0 .401.031.733.095.998.064.264.16.474.287.629.128.159.283.271.465.335.187.063.401.095.643.095.282 0 .535-.032.759-.095.223-.069.417-.162.581-.281.136-.095.255-.209.355-.341.105-.137.192-.285.26-.445v-5.304h1.271v7.396zm8.449-1.962c0-.15-.029-.285-.089-.403-.059-.123-.159-.235-.301-.335-.141-.1-.328-.192-.56-.274-.232-.086-.522-.164-.868-.232-.424-.087-.811-.191-1.162-.315-.347-.123-.643-.271-.889-.444-.251-.168-.444-.367-.581-.595-.137-.232-.205-.501-.205-.806 0-.301.07-.581.212-.841.141-.264.339-.494.594-.69.256-.196.559-.351.91-.465.355-.114.745-.171 1.169-.171.455 0 .866.059 1.23.178.365.118.675.282.93.492.255.209.451.455.588.738.141.278.212.579.212.902h-1.265c0-.159-.041-.314-.123-.465-.082-.154-.196-.291-.342-.41-.146-.118-.323-.214-.533-.287-.205-.073-.438-.109-.697-.109-.269 0-.506.029-.711.089-.201.059-.367.139-.499.239-.137.1-.24.216-.308.349-.068.132-.102.268-.102.41 0 .146.027.275.082.389.054.114.15.217.287.308.132.091.31.173.533.246.228.073.515.144.861.212.456.096.864.207 1.224.335.36.123.663.271.909.444.246.178.433.383.561.616.132.232.198.501.198.806 0 .328-.075.627-.226.896-.146.269-.351.499-.615.69-.264.192-.581.34-.95.444-.369.105-.773.158-1.21.158-.501 0-.948-.066-1.34-.199-.392-.136-.722-.316-.991-.54-.274-.218-.483-.474-.629-.765-.141-.292-.212-.595-.212-.909h1.265c.018.259.086.478.205.656.123.178.275.321.458.431.177.109.376.186.594.232.219.046.436.068.65.068.337 0 .631-.038.882-.116.25-.082.446-.194.588-.335.086-.086.152-.182.198-.287.045-.105.068-.216.068-.335zm6.761 2.099c-.52 0-.998-.089-1.436-.267-.433-.178-.804-.426-1.114-.745s-.551-.697-.725-1.135c-.173-.437-.259-.914-.259-1.428v-.288c0-.597.095-1.13.287-1.599.191-.474.446-.875.765-1.203.315-.324.673-.572 1.074-.745.405-.174.82-.26 1.244-.26.533 0 .998.093 1.394.28.401.182.734.435.998.759.265.328.461.713.588 1.155.132.442.199.921.199 1.436v.567h-5.285v.048c.032.36.103.677.212.95.114.274.269.515.465.725.201.223.442.398.725.526.282.128.594.191.936.191.451 0 .852-.091 1.203-.273s.643-.424.875-.725l.773.602c-.246.374-.615.706-1.108.998-.487.287-1.091.431-1.811.431zm-.164-6.631c-.255 0-.497.048-.725.143-.228.092-.433.226-.615.404-.182.182-.337.405-.465.67-.123.259-.21.56-.26.902h3.979v-.062c0-.227-.043-.471-.13-.731-.087-.264-.207-.492-.362-.684-.155-.191-.351-.346-.588-.464-.233-.119-.511-.178-.834-.178zm10.055 3.917h-3.322l-.8 2.577h-1.264l3.213-9.953h1.059l3.158 9.953h-1.257zm-2.98-1.101h2.646l-1.313-4.32zm11.512 3.678-.075-1.019c-.247.365-.554.65-.923.855-.369.2-.796.301-1.279.301-.387 0-.738-.06-1.052-.178-.315-.123-.584-.312-.807-.567-.223-.256-.397-.579-.52-.971-.118-.397-.177-.871-.177-1.422v-4.395h1.264v4.409c0 .401.032.733.096.998.064.264.16.474.287.629.128.159.283.271.465.335.187.063.401.095.643.095.282 0 .535-.032.758-.095.224-.069.417-.162.581-.281.137-.095.256-.209.356-.341.105-.137.191-.285.26-.445v-5.304h1.271v7.396zm6.528-9.188v1.792h2.816v.977h-2.816v4.02c0 .287.037.524.109.711.073.186.174.334.301.444.128.114.274.194.438.239.168.046.346.068.533.068.137 0 .278-.006.424-.02.146-.018.289-.039.43-.062.137-.022.265-.045.383-.068.123-.027.224-.05.301-.068l.178.895c-.105.064-.233.121-.383.171-.15.046-.315.084-.492.116-.178.037-.367.064-.568.082-.196.019-.392.028-.588.028-.328 0-.635-.046-.922-.137-.283-.096-.529-.246-.739-.451-.209-.201-.376-.46-.499-.779-.118-.324-.177-.714-.177-1.169v-4.02h-1.942v-.977h1.942v-1.792zm6.679 2.892c.1-.15.212-.287.335-.41.123-.128.253-.239.389-.335.219-.16.458-.28.718-.362.264-.082.545-.126.841-.13.387 0 .738.057 1.053.171.319.109.59.282.813.519s.394.538.513.903c.123.36.184.788.184 1.285v4.655h-1.264v-4.669c0-.292-.034-.547-.103-.766-.068-.223-.168-.407-.301-.553-.141-.16-.319-.278-.533-.356-.214-.082-.46-.121-.738-.116-.228 0-.444.032-.649.096-.206.064-.395.155-.568.273-.137.091-.264.198-.383.321-.114.119-.216.251-.307.397v5.373h-1.265v-10.5h1.265zm13.241.964h-6.105v-1.101h6.105zm0 2.837h-6.105v-1.094h6.105zm7.807 4.997c-.442-.014-.825-.116-1.149-.308-.323-.191-.592-.444-.806-.758-.206-.301-.36-.638-.465-1.012-.105-.369-.158-.736-.158-1.101v-1.155c0-.656-.157-1.133-.471-1.429-.31-.296-.786-.446-1.429-.451v-.991c.643 0 1.119-.146 1.429-.438.314-.296.471-.774.471-1.435v-1.162c0-.369.048-.745.144-1.128.1-.388.258-.734.472-1.039.2-.292.462-.529.786-.711.323-.187.715-.287 1.176-.301l.143.786c-.328.009-.59.087-.786.233-.191.145-.335.33-.431.553-.1.228-.164.483-.191.766-.027.282-.041.563-.041.841v1.162c0 .547-.128 1.027-.383 1.442-.251.41-.64.723-1.169.937.529.209.918.522 1.169.936.251.41.378.887.383 1.429v1.155c0 .283.023.563.068.841.046.283.126.536.24.759.109.228.255.415.437.56.187.146.422.224.704.233zm7.786-2.502-.075-1.019c-.247.365-.554.65-.923.855-.369.2-.796.301-1.279.301-.387 0-.738-.06-1.052-.178-.315-.123-.584-.312-.807-.567-.223-.256-.396-.579-.52-.971-.118-.397-.177-.871-.177-1.422v-4.395h1.264v4.409c0 .401.032.733.096.998.064.264.16.474.287.629.128.159.283.271.465.335.187.063.401.095.643.095.282 0 .535-.032.758-.095.224-.069.417-.162.581-.281.137-.095.256-.209.356-.341.105-.137.191-.285.26-.445v-5.304h1.271v7.396zm8.449-1.962c0-.15-.03-.285-.089-.403-.059-.123-.159-.235-.301-.335-.141-.1-.328-.192-.56-.274-.233-.086-.522-.164-.868-.232-.424-.087-.812-.191-1.163-.315-.346-.123-.642-.271-.888-.444-.251-.168-.445-.367-.581-.595-.137-.232-.205-.501-.205-.806 0-.301.07-.581.212-.841.141-.264.339-.494.594-.69.256-.196.559-.351.91-.465.355-.114.745-.171 1.168-.171.456 0 .866.059 1.231.178.365.118.674.282.93.492.255.209.451.455.587.738.142.278.212.579.212.902h-1.264c0-.159-.041-.314-.123-.465-.082-.154-.196-.291-.342-.41-.146-.118-.324-.214-.533-.287-.205-.073-.438-.109-.698-.109-.268 0-.505.029-.71.089-.201.059-.367.139-.5.239-.136.1-.239.216-.307.349-.068.132-.103.268-.103.41 0 .146.028.275.082.389.055.114.151.217.287.308.133.091.31.173.534.246.228.073.515.144.861.212.456.096.864.207 1.224.335.36.123.663.271.909.444.246.178.433.383.56.616.133.232.199.501.199.806 0 .328-.076.627-.226.896-.146.269-.351.499-.615.69-.265.192-.581.34-.95.444-.37.105-.773.158-1.21.158-.502 0-.948-.066-1.34-.199-.392-.136-.723-.316-.991-.54-.274-.218-.483-.474-.629-.765-.142-.292-.212-.595-.212-.909h1.264c.019.259.087.478.205.656.124.178.276.321.458.431.178.109.376.186.595.232s.435.068.65.068c.337 0 .631-.038.881-.116.251-.082.447-.194.588-.335.087-.086.153-.182.199-.287.045-.105.068-.216.068-.335zm6.761 2.099c-.52 0-.998-.089-1.436-.267-.433-.178-.804-.426-1.114-.745s-.552-.697-.725-1.135c-.173-.437-.259-.914-.259-1.428v-.288c0-.597.095-1.13.287-1.599.191-.474.446-.875.765-1.203.315-.324.672-.572 1.074-.745.405-.174.82-.26 1.244-.26.533 0 .998.093 1.394.28.401.182.734.435.998.759.265.328.461.713.588 1.155.132.442.198.921.198 1.436v.567h-5.284v.048c.032.36.103.677.212.95.114.274.269.515.465.725.2.223.442.398.725.526.282.128.594.191.936.191.451 0 .852-.091 1.203-.273s.643-.424.875-.725l.773.602c-.246.374-.616.706-1.108.998-.487.287-1.091.431-1.811.431zm-.164-6.631c-.256 0-.497.048-.725.143-.228.092-.433.226-.615.404-.182.182-.337.405-.465.67-.123.259-.21.56-.26.902h3.979v-.062c0-.227-.044-.471-.13-.731-.087-.264-.208-.492-.362-.684-.155-.191-.351-.346-.588-.464-.233-.119-.511-.178-.834-.178zm10.055 3.917h-3.322l-.8 2.577h-1.264l3.212-9.953h1.06l3.158 9.953h-1.258zm-2.98-1.101h2.645l-1.312-4.32zm11.512 3.678-.076-1.019c-.246.365-.553.65-.922.855-.37.2-.796.301-1.279.301-.387 0-.738-.06-1.053-.178-.314-.123-.583-.312-.806-.567-.223-.256-.397-.579-.52-.971-.118-.397-.177-.871-.177-1.422v-4.395h1.264v4.409c0 .401.032.733.096.998.064.264.159.474.287.629.128.159.283.271.465.335.187.063.401.095.642.095.283 0 .536-.032.759-.095.224-.069.417-.162.581-.281.137-.095.255-.209.356-.341.105-.137.191-.285.26-.445v-5.304h1.271v7.396zm6.528-9.188v1.792h2.816v.977h-2.816v4.02c0 .287.036.524.109.711.073.186.173.334.301.444.128.114.273.194.438.239.168.046.346.068.533.068.136 0 .278-.006.424-.02.145-.018.289-.039.43-.062.137-.022.265-.045.383-.068.123-.027.223-.05.301-.068l.178.895c-.105.064-.233.121-.383.171-.151.046-.315.084-.492.116-.178.037-.367.064-.568.082-.196.019-.392.028-.588.028-.328 0-.635-.046-.923-.137-.282-.096-.528-.246-.738-.451-.209-.201-.376-.46-.499-.779-.118-.324-.178-.714-.178-1.169v-4.02h-1.941v-.977h1.941v-1.792zm6.679 2.892c.1-.15.212-.287.335-.41.123-.128.252-.239.389-.335.219-.16.458-.28.718-.362.264-.082.545-.126.841-.13.387 0 .738.057 1.053.171.319.109.59.282.813.519s.394.538.513.903c.123.36.184.788.184 1.285v4.655h-1.264v-4.669c0-.292-.035-.547-.103-.766-.068-.223-.169-.407-.301-.553-.141-.16-.319-.278-.533-.356-.214-.082-.46-.121-.738-.116-.228 0-.445.032-.65.096s-.394.155-.567.273c-.137.091-.264.198-.383.321-.114.119-.216.251-.307.397v5.373h-1.265v-10.5h1.265zm8.162 8.012c.278-.009.51-.087.697-.233.187-.145.337-.332.451-.56.11-.223.187-.476.233-.759.05-.278.075-.558.075-.841v-1.155c0-.36.052-.693.157-.998.109-.305.276-.57.499-.793.118-.119.251-.226.396-.321.151-.096.315-.18.493-.253-.183-.073-.351-.16-.506-.26-.151-.1-.283-.212-.397-.335-.218-.228-.38-.492-.485-.793-.105-.305-.157-.636-.157-.991v-1.162c0-.278-.016-.559-.048-.841-.027-.283-.089-.538-.185-.766-.1-.223-.246-.408-.437-.553-.192-.146-.451-.224-.779-.233l.136-.786c.442.014.821.107 1.135.28.319.173.581.399.786.677.233.314.399.668.499 1.06.105.392.157.779.157 1.162v1.162c0 .273.025.515.076.724.054.206.134.383.239.534.15.214.358.371.622.471.269.096.59.144.964.144v.991c-.328.005-.615.046-.862.123-.241.073-.439.189-.594.349-.151.155-.262.348-.335.581-.073.232-.11.508-.11.827v1.155c0 .365-.05.732-.15 1.101-.1.374-.255.713-.465 1.018-.214.306-.483.556-.806.752-.324.196-.709.299-1.156.308zm7.417-3.063v-1.312l4.423-1.668.41-.116-.41-.13-4.423-1.641v-1.306l6.036 2.584v.998zm-184.4632 22.007-5.7969-2.591v-.998l5.7969-2.584v1.34l-4.1836 1.641-.3623.116.3623.123 4.1836 1.613zm5.9336-2.721h-1.9893v4.061h-1.2578v-9.953h2.919c.4648.009.9023.075 1.3125.198.4101.123.7701.308 1.08.554.3054.246.5446.556.7178.93.1778.369.2666.804.2666 1.305 0 .324-.0478.62-.1435.889-.0912.269-.2188.513-.3828.731-.1641.219-.3601.413-.5879.581-.2279.169-.4786.313-.752.431l2.1123 4.252-.0068.082h-1.333zm-1.9893-1.039h1.6953c.2826-.004.5492-.047.7998-.129.2507-.087.4717-.21.6631-.37.1869-.159.335-.353.4444-.581.1093-.232.164-.499.164-.799 0-.32-.0524-.597-.1572-.834-.1048-.242-.2506-.445-.4375-.609-.1868-.159-.4101-.28-.6699-.362-.2552-.082-.5355-.126-.8408-.13h-1.6612zm6.7471 1.333c0-.533.0775-1.027.2324-1.483.155-.46.3783-.859.6699-1.196.2872-.338.6381-.602 1.0528-.793.4147-.196.8818-.294 1.4013-.294.5241 0 .9935.098 1.4083.294.4192.191.7747.455 1.0664.793.2871.337.5081.736.663 1.196.155.456.2325.95.2325 1.483v.151c0 .533-.0775 1.027-.2325 1.483-.1549.456-.3759.852-.663 1.19-.2917.337-.6449.601-1.0596.793-.4147.191-.8818.287-1.4014.287-.5241 0-.9957-.096-1.415-.287-.4147-.192-.7656-.456-1.0528-.793-.2916-.338-.5149-.734-.6699-1.19-.1549-.456-.2324-.95-.2324-1.483zm1.2647.151c0 .364.0432.713.1298 1.046.0866.328.2188.617.3965.868.1732.251.3919.449.6563.595.2643.145.5719.218.9228.218.3464 0 .6494-.073.9092-.218.2643-.146.4854-.344.6631-.595.1732-.251.303-.54.3896-.868.0866-.333.1299-.682.1299-1.046v-.151c0-.36-.0456-.704-.1367-1.032-.0866-.333-.2165-.624-.3896-.875-.1778-.25-.3988-.449-.6631-.595-.2598-.15-.5651-.225-.9161-.225-.3509 0-.6562.075-.916.225-.2597.146-.4762.345-.6494.595-.1777.251-.3099.542-.3965.875-.0866.328-.1298.672-.1298 1.032zm12.373 3.616-.0752-1.019c-.2461.365-.5537.65-.9228.855-.3692.2-.7953.301-1.2784.301-.3873 0-.7383-.06-1.0527-.178-.3145-.123-.5833-.312-.8066-.567-.2234-.256-.3965-.579-.5196-.971-.1185-.397-.1777-.871-.1777-1.422v-4.395h1.2646v4.409c0 .401.0319.733.0957.998.0638.264.1595.474.2872.629.1276.159.2825.271.4648.335.1868.063.401.095.6426.095.2825 0 .5355-.032.7588-.095.2233-.069.417-.162.581-.281.1367-.095.2552-.209.3555-.341.1048-.137.1914-.285.2598-.445v-5.304h1.2714v7.396zm6.5283-9.188v1.792h2.8164v.977h-2.8164v4.02c0 .287.0365.524.1094.711.0729.186.1732.334.3008.444.1276.114.2734.194.4375.239.1686.046.3463.068.5332.068.1367 0 .278-.006.4238-.02.1458-.018.2894-.039.4307-.062.1367-.022.2643-.045.3828-.068.123-.027.2233-.05.3008-.068l.1777.895c-.1048.064-.2324.121-.3828.171-.1504.046-.3145.084-.4922.116-.1777.037-.3669.064-.5674.082-.1959.019-.3919.028-.5879.028-.3281 0-.6357-.046-.9228-.137-.2826-.096-.5287-.246-.7383-.451-.2096-.201-.376-.46-.499-.779-.1185-.324-.1778-.714-.1778-1.169v-4.02h-1.9414v-.977h1.9414v-1.792zm8.6818 9.325c-.52 0-.998-.089-1.436-.267-.433-.178-.804-.426-1.114-.745s-.551-.697-.725-1.135c-.173-.437-.259-.914-.259-1.428v-.288c0-.597.095-1.13.287-1.599.191-.474.446-.875.765-1.203.315-.324.673-.572 1.074-.745.405-.174.82-.26 1.244-.26.533 0 .998.093 1.394.28.401.182.734.435.998.759.265.328.461.713.588 1.155.132.442.199.921.199 1.436v.567h-5.285v.048c.032.36.103.677.212.95.114.274.269.515.465.725.201.223.442.398.725.526.282.128.594.191.936.191.451 0 .852-.091 1.203-.273s.643-.424.875-.725l.773.602c-.246.374-.615.706-1.108.998-.487.287-1.091.431-1.811.431zm-.164-6.631c-.255 0-.497.048-.725.143-.228.092-.433.226-.615.404-.182.182-.337.405-.465.67-.123.259-.21.56-.26.902h3.979v-.062c0-.227-.043-.471-.13-.731-.087-.264-.207-.492-.362-.684-.155-.191-.351-.346-.588-.464-.233-.119-.511-.178-.834-.178zm13.706 9.338v-10.24h1.155l.062.806c.1-.127.209-.241.328-.342.118-.104.246-.193.383-.266.191-.11.403-.192.635-.246.237-.06.49-.089.759-.089.474 0 .893.093 1.258.28s.67.447.916.779c.246.333.433.732.56 1.197.128.46.192.966.192 1.517v.144c0 .528-.064 1.023-.192 1.483-.127.456-.314.852-.56 1.19-.246.337-.551.601-.916.793-.36.191-.773.287-1.237.287-.283 0-.547-.03-.793-.089-.242-.059-.461-.144-.657-.253-.118-.068-.23-.144-.335-.226-.104-.086-.202-.18-.293-.28v3.555zm4.983-6.604c0-.36-.041-.702-.123-1.025-.077-.328-.198-.618-.362-.868-.169-.246-.381-.442-.636-.588s-.56-.219-.916-.219c-.196 0-.378.023-.547.068-.164.046-.312.112-.444.199-.146.086-.276.193-.39.321s-.214.269-.3.424v3.561c.077.137.166.265.266.383.1.119.214.219.342.301.146.096.308.171.485.225.183.055.383.082.602.082.351 0 .654-.072.909-.218.255-.151.465-.351.629-.602.164-.25.285-.54.362-.868.082-.328.123-.672.123-1.032zm8.292 3.76c-.05-.096-.091-.214-.123-.355-.027-.146-.048-.297-.061-.452-.128.128-.271.249-.431.363-.155.114-.326.214-.513.3-.191.087-.394.155-.608.206-.214.05-.442.075-.684.075-.392 0-.747-.057-1.066-.171-.315-.114-.581-.269-.8-.465-.223-.191-.396-.419-.519-.684-.119-.268-.178-.558-.178-.868 0-.405.08-.761.239-1.066.164-.306.394-.561.691-.766.296-.2.651-.351 1.066-.451.419-.1.886-.15 1.401-.15h1.381v-.581c0-.224-.041-.424-.123-.602s-.198-.33-.349-.458c-.15-.123-.334-.219-.553-.287-.214-.068-.456-.103-.725-.103-.25 0-.476.032-.677.096-.196.064-.362.148-.499.253-.136.105-.243.23-.321.376-.073.141-.109.289-.109.444h-1.272c.005-.269.073-.533.205-.793.137-.259.333-.494.588-.704.251-.205.556-.371.916-.499.365-.127.777-.191 1.238-.191.419 0 .808.052 1.168.157.36.1.673.253.937.458.26.21.465.469.615.779.151.31.226.673.226 1.087v3.439c0 .246.023.508.068.786.046.273.11.513.192.718v.109zm-2.235-.964c.246 0 .476-.032.69-.096.215-.063.41-.148.588-.252.173-.105.324-.224.451-.356.128-.137.228-.278.301-.424v-1.497h-1.176c-.437 0-.82.039-1.148.116-.324.073-.581.187-.773.342-.136.11-.241.239-.314.39-.068.15-.103.321-.103.512 0 .183.03.351.089.506.064.155.158.287.281.397.123.114.278.203.464.266.187.064.404.096.65.096zm8.777-8.224v1.792h2.817v.977h-2.817v4.02c0 .287.037.524.11.711.073.186.173.334.3.444.128.114.274.194.438.239.169.046.346.068.533.068.137 0 .278-.006.424-.02.146-.018.289-.039.431-.062.136-.022.264-.045.382-.068.123-.027.224-.05.301-.068l.178.895c-.105.064-.233.121-.383.171-.15.046-.314.084-.492.116-.178.037-.367.064-.567.082-.196.019-.392.028-.588.028-.328 0-.636-.046-.923-.137-.283-.096-.529-.246-.738-.451-.21-.201-.376-.46-.5-.779-.118-.324-.177-.714-.177-1.169v-4.02h-1.942v-.977h1.942v-1.792zm6.679 2.892c.1-.15.212-.287.335-.41.123-.128.253-.239.39-.335.218-.16.458-.28.717-.362.265-.082.545-.126.841-.13.388 0 .738.057 1.053.171.319.109.59.282.813.519.224.237.395.538.513.903.123.36.185.788.185 1.285v4.655h-1.265v-4.669c0-.292-.034-.547-.103-.766-.068-.223-.168-.407-.3-.553-.142-.16-.319-.278-.534-.356-.214-.082-.46-.121-.738-.116-.228 0-.444.032-.649.096s-.394.155-.568.273c-.136.091-.264.198-.382.321-.114.119-.217.251-.308.397v5.373h-1.265v-10.5h1.265zm13.241.964h-6.104v-1.101h6.104zm0 2.837h-6.104v-1.094h6.104zm4.573-7.26-.143 2.529h-.889l.007-2.42v-.854h1.025zm2.441 0-.144 2.529h-.882l.007-2.42v-.854h1.026zm5.373 10.609h-1.135l4.156-10.807h1.128zm9.003-10.609-.144 2.529h-.888l.006-2.42v-.854h1.026zm2.44 0-.143 2.529h-.882l.007-2.42v-.854h1.025zm12.107 12.599v-10.24h1.155l.061.806c.101-.127.21-.241.329-.342.118-.104.246-.193.382-.266.192-.11.404-.192.636-.246.237-.06.49-.089.759-.089.474 0 .893.093 1.258.28.364.187.67.447.916.779.246.333.433.732.56 1.197.128.46.192.966.192 1.517v.144c0 .528-.064 1.023-.192 1.483-.127.456-.314.852-.56 1.19-.246.337-.552.601-.916.793-.36.191-.773.287-1.238.287-.282 0-.546-.03-.793-.089-.241-.059-.46-.144-.656-.253-.118-.068-.23-.144-.335-.226-.105-.086-.203-.18-.294-.28v3.555zm4.983-6.604c0-.36-.041-.702-.123-1.025-.077-.328-.198-.618-.362-.868-.169-.246-.381-.442-.636-.588s-.561-.219-.916-.219c-.196 0-.378.023-.547.068-.164.046-.312.112-.444.199-.146.086-.276.193-.39.321s-.214.269-.301.424v3.561c.078.137.167.265.267.383.1.119.214.219.342.301.146.096.307.171.485.225.182.055.383.082.602.082.351 0 .654-.072.909-.218.255-.151.465-.351.629-.602.164-.25.285-.54.362-.868.082-.328.123-.672.123-1.032zm8.292 3.76c-.05-.096-.091-.214-.123-.355-.027-.146-.048-.297-.061-.452-.128.128-.272.249-.431.363-.155.114-.326.214-.513.3-.191.087-.394.155-.608.206-.214.05-.442.075-.684.075-.392 0-.747-.057-1.066-.171-.315-.114-.581-.269-.8-.465-.223-.191-.397-.419-.52-.684-.118-.268-.177-.558-.177-.868 0-.405.079-.761.239-1.066.164-.306.394-.561.69-.766.297-.2.652-.351 1.067-.451.419-.1.886-.15 1.401-.15h1.381v-.581c0-.224-.041-.424-.123-.602s-.198-.33-.349-.458c-.15-.123-.335-.219-.553-.287-.215-.068-.456-.103-.725-.103-.251 0-.476.032-.677.096-.196.064-.362.148-.499.253s-.244.23-.321.376c-.073.141-.109.289-.109.444h-1.272c.005-.269.073-.533.205-.793.137-.259.333-.494.588-.704.251-.205.556-.371.916-.499.365-.127.777-.191 1.237-.191.42 0 .809.052 1.169.157.36.1.672.253.937.458.26.21.465.469.615.779s.226.673.226 1.087v3.439c0 .246.022.508.068.786.046.273.109.513.191.718v.109zm-2.235-.964c.246 0 .476-.032.69-.096.214-.063.41-.148.588-.252.173-.105.324-.224.451-.356.128-.137.228-.278.301-.424v-1.497h-1.176c-.437 0-.82.039-1.148.116-.324.073-.581.187-.773.342-.136.11-.241.239-.314.39-.068.15-.103.321-.103.512 0 .183.03.351.089.506.064.155.157.287.28.397.124.114.278.203.465.266.187.064.404.096.65.096zm5.551-2.796c0-.551.066-1.057.198-1.517.136-.465.332-.864.588-1.197.255-.332.565-.592.929-.779.365-.187.777-.28 1.238-.28.296 0 .567.034.813.102.251.069.476.169.677.301.109.068.212.148.307.239.101.092.194.192.281.301l.061-.806h1.149v7.239c0 .487-.078.92-.233 1.299-.15.378-.362.699-.635.963-.278.265-.609.465-.992.602-.382.137-.806.205-1.271.205-.192 0-.41-.023-.656-.068-.246-.041-.495-.112-.746-.212-.255-.096-.501-.226-.738-.39-.232-.164-.433-.367-.601-.608l.656-.759c.155.187.314.344.478.472.164.132.331.237.499.314.169.078.338.132.506.164.169.037.338.055.506.055.301 0 .572-.043.814-.13.241-.087.449-.214.622-.383.168-.164.298-.369.389-.615s.137-.529.137-.848v-.635c-.096.109-.198.209-.308.3-.104.091-.218.171-.341.24-.192.104-.404.184-.636.239-.233.059-.483.089-.752.089-.451 0-.859-.096-1.224-.287-.364-.192-.672-.456-.923-.793-.255-.338-.451-.734-.587-1.19-.137-.46-.205-.955-.205-1.483zm1.264.144c0 .36.037.702.11 1.025.077.324.198.609.362.855.159.246.364.442.615.588.251.141.551.211.902.211.219 0 .415-.025.588-.075.178-.054.338-.13.479-.225.137-.096.26-.21.369-.342s.205-.278.287-.438v-3.39c-.082-.155-.178-.296-.287-.424s-.235-.239-.376-.335c-.141-.091-.299-.162-.472-.212-.173-.055-.364-.082-.574-.082-.355 0-.661.073-.916.219-.251.146-.456.342-.615.588-.164.25-.285.54-.362.868-.073.323-.11.665-.11 1.025zm10.644 3.753c-.52 0-.998-.089-1.436-.267-.433-.178-.804-.426-1.114-.745s-.552-.697-.725-1.135c-.173-.437-.259-.914-.259-1.428v-.288c0-.597.095-1.13.287-1.599.191-.474.446-.875.765-1.203.315-.324.672-.572 1.074-.745.405-.174.82-.26 1.244-.26.533 0 .998.093 1.394.28.401.182.734.435.998.759.265.328.461.713.588 1.155.132.442.198.921.198 1.436v.567h-5.284v.048c.032.36.103.677.212.95.114.274.269.515.465.725.2.223.442.398.725.526.282.128.594.191.936.191.451 0 .852-.091 1.203-.273s.643-.424.875-.725l.773.602c-.246.374-.616.706-1.108.998-.487.287-1.091.431-1.811.431zm-.164-6.631c-.256 0-.497.048-.725.143-.228.092-.433.226-.615.404-.182.182-.337.405-.465.67-.123.259-.21.56-.26.902h3.979v-.062c0-.227-.044-.471-.13-.731-.087-.264-.208-.492-.362-.684-.155-.191-.351-.346-.588-.464-.233-.119-.511-.178-.834-.178zm11.402 1.162h-6.105v-1.101h6.105zm0 2.837h-6.105v-1.094h6.105zm7.807 4.997c-.442-.014-.825-.116-1.149-.308-.323-.191-.592-.444-.806-.758-.206-.301-.36-.638-.465-1.012-.105-.369-.158-.736-.158-1.101v-1.155c0-.656-.157-1.133-.471-1.429-.31-.296-.786-.446-1.429-.451v-.991c.643 0 1.119-.146 1.429-.438.314-.296.471-.774.471-1.435v-1.162c0-.369.048-.745.144-1.128.1-.388.258-.734.472-1.039.2-.292.462-.529.786-.711.323-.187.715-.287 1.176-.301l.143.786c-.328.009-.59.087-.786.233-.191.145-.335.33-.431.553-.1.228-.164.483-.191.766-.027.282-.041.563-.041.841v1.162c0 .547-.128 1.027-.383 1.442-.251.41-.64.723-1.169.937.529.209.918.522 1.169.936.251.41.378.887.383 1.429v1.155c0 .283.023.563.068.841.046.283.126.536.24.759.109.228.255.415.437.56.187.146.422.224.704.233zm9.153-2.502h-1.196v-4.601h-4.081v4.601h-1.19v-9.953h1.19v4.279h4.081v-4.279h1.196zm1.811-3.767c0-.533.078-1.027.233-1.483.155-.46.378-.859.67-1.196.287-.338.638-.602 1.053-.793.414-.196.881-.294 1.401-.294.524 0 .993.098 1.408.294.419.191.775.455 1.067.793.287.337.508.736.663 1.196.155.456.232.95.232 1.483v.151c0 .533-.077 1.027-.232 1.483s-.376.852-.663 1.19c-.292.337-.645.601-1.06.793-.415.191-.882.287-1.401.287-.525 0-.996-.096-1.415-.287-.415-.192-.766-.456-1.053-.793-.292-.338-.515-.734-.67-1.19s-.233-.95-.233-1.483zm1.265.151c0 .364.043.713.13 1.046.087.328.219.617.396.868.174.251.392.449.657.595.264.145.572.218.923.218.346 0 .649-.073.909-.218.264-.146.485-.344.663-.595.173-.251.303-.54.39-.868.086-.333.129-.682.129-1.046v-.151c0-.36-.045-.704-.136-1.032-.087-.333-.217-.624-.39-.875-.178-.25-.399-.449-.663-.595-.26-.15-.565-.225-.916-.225s-.656.075-.916.225c-.26.146-.476.345-.65.595-.177.251-.309.542-.396.875-.087.328-.13.672-.13 1.032zm8.08-3.78.034.697c.151-.26.347-.463.588-.609.246-.145.543-.221.889-.225.196 0 .371.023.526.068.16.041.299.103.417.185.087.064.164.141.233.232.073.091.134.194.184.308.064-.105.139-.203.226-.294.086-.091.18-.171.28-.239.128-.078.269-.139.424-.185.159-.046.333-.071.52-.075.255 0 .485.039.69.116.205.073.378.182.519.328.155.164.274.378.356.643.082.259.123.567.123.923v5.523h-1.203v-5.537c0-.155-.018-.292-.055-.41-.036-.119-.089-.217-.157-.294-.073-.073-.164-.128-.273-.164-.105-.037-.228-.055-.37-.055-.15 0-.28.021-.389.062-.11.041-.201.095-.274.164-.073.073-.13.157-.171.253-.041.091-.068.193-.082.307v.069.068 5.537h-1.203v-5.544c0-.155-.018-.292-.054-.41-.032-.119-.085-.217-.158-.294-.068-.073-.155-.125-.259-.157-.101-.037-.219-.055-.356-.055-.15 0-.282.018-.396.055-.11.032-.203.079-.281.143-.059.05-.111.107-.157.171-.041.064-.075.132-.102.205v5.886h-1.204v-7.396zm11.095 7.533c-.52 0-.998-.089-1.436-.267-.433-.178-.804-.426-1.114-.745s-.551-.697-.724-1.135c-.174-.437-.26-.914-.26-1.428v-.288c0-.597.095-1.13.287-1.599.191-.474.446-.875.765-1.203.315-.324.673-.572 1.074-.745.405-.174.82-.26 1.244-.26.533 0 .998.093 1.394.28.401.182.734.435.998.759.265.328.461.713.588 1.155.132.442.199.921.199 1.436v.567h-5.285v.048c.032.36.103.677.212.95.114.274.269.515.465.725.201.223.442.398.725.526.282.128.594.191.936.191.451 0 .852-.091 1.203-.273s.643-.424.875-.725l.773.602c-.246.374-.615.706-1.108.998-.487.287-1.091.431-1.811.431zm-.164-6.631c-.255 0-.497.048-.725.143-.228.092-.433.226-.615.404-.182.182-.337.405-.465.67-.123.259-.209.56-.26.902h3.979v-.062c0-.227-.043-.471-.13-.731-.087-.264-.207-.492-.362-.684-.155-.191-.351-.346-.588-.464-.233-.119-.511-.178-.834-.178zm6.685 2.502v3.992h-1.264v-9.953h3.226c.447.009.868.08 1.265.212.401.132.752.323 1.053.574.3.251.537.561.711.93.177.369.266.793.266 1.271 0 .479-.089.903-.266 1.272-.174.364-.411.672-.711.923-.301.25-.652.442-1.053.574-.397.132-.818.2-1.265.205zm0-1.039h1.962c.292-.005.561-.05.807-.137.246-.091.46-.219.643-.383.182-.164.323-.362.423-.595.105-.236.158-.505.158-.806s-.053-.572-.158-.814c-.1-.241-.239-.446-.417-.615-.182-.168-.398-.298-.649-.39-.246-.091-.515-.139-.807-.143h-1.962zm11.888 5.031c-.05-.096-.091-.214-.123-.355-.027-.146-.048-.297-.061-.452-.128.128-.272.249-.431.363-.155.114-.326.214-.513.3-.191.087-.394.155-.608.206-.214.05-.442.075-.684.075-.392 0-.747-.057-1.066-.171-.315-.114-.581-.269-.8-.465-.223-.191-.397-.419-.52-.684-.118-.268-.177-.558-.177-.868 0-.405.079-.761.239-1.066.164-.306.394-.561.69-.766.297-.2.652-.351 1.067-.451.419-.1.886-.15 1.401-.15h1.381v-.581c0-.224-.041-.424-.123-.602s-.198-.33-.349-.458c-.15-.123-.335-.219-.553-.287-.215-.068-.456-.103-.725-.103-.251 0-.476.032-.677.096-.196.064-.362.148-.499.253-.136.105-.244.23-.321.376-.073.141-.109.289-.109.444h-1.272c.005-.269.073-.533.205-.793.137-.259.333-.494.588-.704.251-.205.556-.371.916-.499.365-.127.777-.191 1.237-.191.42 0 .809.052 1.169.157.36.1.673.253.937.458.26.21.465.469.615.779s.226.673.226 1.087v3.439c0 .246.022.508.068.786.046.273.109.513.191.718v.109zm-2.235-.964c.246 0 .476-.032.69-.096.214-.063.41-.148.588-.252.173-.105.324-.224.451-.356.128-.137.228-.278.301-.424v-1.497h-1.176c-.437 0-.82.039-1.148.116-.324.073-.581.187-.773.342-.136.11-.241.239-.314.39-.068.15-.103.321-.103.512 0 .183.03.351.089.506.064.155.157.287.28.397.124.114.278.203.465.266.187.064.404.096.65.096zm5.551-2.796c0-.551.066-1.057.198-1.517.136-.465.332-.864.588-1.197.255-.332.565-.592.929-.779.365-.187.777-.28 1.238-.28.296 0 .567.034.813.102.251.069.476.169.677.301.109.068.212.148.308.239.1.092.193.192.28.301l.061-.806h1.149v7.239c0 .487-.078.92-.233 1.299-.15.378-.362.699-.635.963-.278.265-.609.465-.992.602-.382.137-.806.205-1.271.205-.192 0-.41-.023-.656-.068-.246-.041-.495-.112-.745-.212-.256-.096-.502-.226-.739-.39-.232-.164-.433-.367-.601-.608l.656-.759c.155.187.314.344.478.472.165.132.331.237.499.314.169.078.338.132.506.164.169.037.338.055.506.055.301 0 .572-.043.814-.13.241-.087.449-.214.622-.383.168-.164.298-.369.389-.615.092-.246.137-.529.137-.848v-.635c-.096.109-.198.209-.308.3-.104.091-.218.171-.341.24-.192.104-.404.184-.636.239-.232.059-.483.089-.752.089-.451 0-.859-.096-1.224-.287-.364-.192-.672-.456-.923-.793-.255-.338-.451-.734-.587-1.19-.137-.46-.205-.955-.205-1.483zm1.264.144c0 .36.037.702.11 1.025.077.324.198.609.362.855.159.246.364.442.615.588.251.141.552.211.902.211.219 0 .415-.025.588-.075.178-.054.338-.13.479-.225.137-.096.26-.21.369-.342s.205-.278.287-.438v-3.39c-.082-.155-.178-.296-.287-.424s-.235-.239-.376-.335c-.141-.091-.298-.162-.472-.212-.173-.055-.364-.082-.574-.082-.355 0-.661.073-.916.219-.251.146-.456.342-.615.588-.164.25-.285.54-.362.868-.073.323-.11.665-.11 1.025zm10.644 3.753c-.52 0-.998-.089-1.436-.267-.433-.178-.804-.426-1.114-.745s-.552-.697-.725-1.135c-.173-.437-.259-.914-.259-1.428v-.288c0-.597.095-1.13.287-1.599.191-.474.446-.875.765-1.203.315-.324.672-.572 1.074-.745.405-.174.82-.26 1.244-.26.533 0 .998.093 1.394.28.401.182.734.435.998.759.265.328.461.713.588 1.155.132.442.198.921.198 1.436v.567h-5.284v.048c.032.36.103.677.212.95.114.274.269.515.465.725.2.223.442.398.725.526.282.128.594.191.936.191.451 0 .852-.091 1.203-.273s.643-.424.875-.725l.773.602c-.246.374-.616.706-1.108.998-.487.287-1.091.431-1.811.431zm-.164-6.631c-.256 0-.497.048-.725.143-.228.092-.433.226-.615.404-.182.182-.337.405-.465.67-.123.259-.21.56-.26.902h3.979v-.062c0-.227-.044-.471-.13-.731-.087-.264-.208-.492-.362-.684-.155-.191-.351-.346-.588-.464-.233-.119-.511-.178-.834-.178zm6.323 8.21c.278-.009.51-.087.697-.233.187-.145.337-.332.451-.56.11-.223.187-.476.233-.759.05-.278.075-.558.075-.841v-1.155c0-.36.052-.693.157-.998.11-.305.276-.57.499-.793.119-.119.251-.226.397-.321.15-.096.314-.18.492-.253-.182-.073-.351-.16-.506-.26-.15-.1-.283-.212-.396-.335-.219-.228-.381-.492-.486-.793-.105-.305-.157-.636-.157-.991v-1.162c0-.278-.016-.559-.048-.841-.027-.283-.089-.538-.184-.766-.101-.223-.247-.408-.438-.553-.191-.146-.451-.224-.779-.233l.136-.786c.443.014.821.107 1.135.28.319.173.581.399.786.677.233.314.399.668.499 1.06.105.392.158.779.158 1.162v1.162c0 .273.025.515.075.724.055.206.134.383.239.534.15.214.358.371.622.471.269.096.59.144.964.144v.991c-.328.005-.615.046-.861.123-.242.073-.44.189-.595.349-.15.155-.262.348-.335.581-.073.232-.109.508-.109.827v1.155c0 .365-.051.732-.151 1.101-.1.374-.255.713-.465 1.018-.214.306-.483.556-.806.752-.324.196-.709.299-1.156.308zm15.798-1.716v-7.396h1.135l.088 1.093c.11-.155.228-.296.356-.424.132-.132.271-.246.417-.341.219-.146.456-.258.711-.335.26-.082.533-.126.82-.13.387 0 .738.054 1.053.164.319.109.59.28.813.513.224.232.395.528.513.888.123.356.185.78.185 1.272v4.696h-1.265v-4.669c0-.328-.037-.606-.109-.834-.073-.228-.18-.412-.322-.554-.146-.141-.323-.243-.533-.307-.205-.064-.442-.096-.711-.096-.232 0-.449.034-.649.103-.201.063-.385.152-.554.266-.137.1-.264.217-.383.349-.114.132-.214.278-.301.437v5.305zm13.268 0c-.05-.096-.091-.214-.123-.355-.027-.146-.048-.297-.061-.452-.128.128-.271.249-.431.363-.155.114-.326.214-.513.3-.191.087-.394.155-.608.206-.214.05-.442.075-.684.075-.392 0-.747-.057-1.066-.171-.314-.114-.581-.269-.8-.465-.223-.191-.396-.419-.519-.684-.119-.268-.178-.558-.178-.868 0-.405.08-.761.239-1.066.164-.306.394-.561.691-.766.296-.2.651-.351 1.066-.451.419-.1.886-.15 1.401-.15h1.381v-.581c0-.224-.041-.424-.123-.602s-.198-.33-.348-.458c-.151-.123-.335-.219-.554-.287-.214-.068-.456-.103-.725-.103-.25 0-.476.032-.677.096-.195.064-.362.148-.499.253-.136.105-.243.23-.321.376-.073.141-.109.289-.109.444h-1.272c.005-.269.073-.533.205-.793.137-.259.333-.494.588-.704.251-.205.556-.371.916-.499.365-.127.777-.191 1.238-.191.419 0 .809.052 1.169.157.36.1.672.253.936.458.26.21.465.469.615.779.151.31.226.673.226 1.087v3.439c0 .246.023.508.068.786.046.273.11.513.192.718v.109zm-2.235-.964c.246 0 .476-.032.69-.096.215-.063.411-.148.588-.252.173-.105.324-.224.451-.356.128-.137.228-.278.301-.424v-1.497h-1.176c-.437 0-.82.039-1.148.116-.324.073-.581.187-.772.342-.137.11-.242.239-.315.39-.068.15-.102.321-.102.512 0 .183.029.351.088.506.064.155.158.287.281.397.123.114.278.203.465.266.186.064.403.096.649.096zm6.364-6.432.034.697c.151-.26.347-.463.588-.609.246-.145.543-.221.889-.225.196 0 .371.023.526.068.16.041.299.103.417.185.087.064.164.141.233.232.073.091.134.194.184.308.064-.105.139-.203.226-.294.086-.091.18-.171.28-.239.128-.078.269-.139.424-.185.16-.046.333-.071.52-.075.255 0 .485.039.69.116.205.073.378.182.519.328.155.164.274.378.356.643.082.259.123.567.123.923v5.523h-1.203v-5.537c0-.155-.018-.292-.055-.41-.036-.119-.089-.217-.157-.294-.073-.073-.164-.128-.273-.164-.105-.037-.228-.055-.37-.055-.15 0-.28.021-.389.062-.11.041-.201.095-.274.164-.073.073-.13.157-.171.253-.041.091-.068.193-.082.307v.069.068 5.537h-1.203v-5.544c0-.155-.018-.292-.054-.41-.032-.119-.085-.217-.158-.294-.068-.073-.155-.125-.259-.157-.101-.037-.219-.055-.356-.055-.15 0-.282.018-.396.055-.11.032-.203.079-.281.143-.059.05-.111.107-.157.171-.041.064-.075.132-.102.205v5.886h-1.204v-7.396zm11.095 7.533c-.52 0-.998-.089-1.436-.267-.433-.178-.804-.426-1.114-.745s-.551-.697-.724-1.135c-.174-.437-.26-.914-.26-1.428v-.288c0-.597.095-1.13.287-1.599.191-.474.446-.875.766-1.203.314-.324.672-.572 1.073-.745.405-.174.82-.26 1.244-.26.533 0 .998.093 1.394.28.401.182.734.435.998.759.265.328.461.713.588 1.155.133.442.199.921.199 1.436v.567h-5.285v.048c.032.36.103.677.212.95.114.274.269.515.465.725.201.223.442.398.725.526.282.128.595.191.936.191.451 0 .853-.091 1.203-.273.351-.182.643-.424.875-.725l.773.602c-.246.374-.615.706-1.108.998-.487.287-1.091.431-1.811.431zm-.164-6.631c-.255 0-.497.048-.725.143-.228.092-.433.226-.615.404-.182.182-.337.405-.465.67-.123.259-.209.56-.26.902h3.979v-.062c0-.227-.043-.471-.13-.731-.087-.264-.207-.492-.362-.684-.155-.191-.351-.346-.588-.464-.233-.119-.511-.178-.834-.178zm11.402 1.162h-6.104v-1.101h6.104zm0 2.837h-6.104v-1.094h6.104zm4.573-7.26-.143 2.529h-.889l.007-2.42v-.854h1.025zm2.441 0-.144 2.529h-.881l.006-2.42v-.854h1.026zm4.97 3.459c.1-.15.212-.287.335-.41.123-.128.253-.239.389-.335.219-.16.458-.28.718-.362.264-.082.545-.126.841-.13.387 0 .738.057 1.053.171.319.109.59.282.813.519s.394.538.513.903c.123.36.184.788.184 1.285v4.655h-1.264v-4.669c0-.292-.035-.547-.103-.766-.068-.223-.168-.407-.301-.553-.141-.16-.319-.278-.533-.356-.214-.082-.46-.121-.738-.116-.228 0-.444.032-.65.096-.205.064-.394.155-.567.273-.137.091-.264.198-.383.321-.114.119-.216.251-.307.397v5.373h-1.265v-10.5h1.265zm6.788 2.529c0-.533.077-1.027.232-1.483.155-.46.378-.859.67-1.196.287-.338.638-.602 1.053-.793.415-.196.882-.294 1.401-.294.524 0 .994.098 1.408.294.42.191.775.455 1.067.793.287.337.508.736.663 1.196.155.456.232.95.232 1.483v.151c0 .533-.077 1.027-.232 1.483s-.376.852-.663 1.19c-.292.337-.645.601-1.06.793-.415.191-.882.287-1.401.287-.524 0-.996-.096-1.415-.287-.415-.192-.766-.456-1.053-.793-.292-.338-.515-.734-.67-1.19s-.232-.95-.232-1.483zm1.264.151c0 .364.044.713.13 1.046.087.328.219.617.397.868.173.251.392.449.656.595.264.145.572.218.923.218.346 0 .649-.073.909-.218.264-.146.485-.344.663-.595.173-.251.303-.54.39-.868.086-.333.13-.682.13-1.046v-.151c0-.36-.046-.704-.137-1.032-.087-.333-.217-.624-.39-.875-.177-.25-.398-.449-.663-.595-.26-.15-.565-.225-.916-.225s-.656.075-.916.225c-.26.146-.476.345-.649.595-.178.251-.31.542-.397.875-.086.328-.13.672-.13 1.032zm8.08-3.78.035.697c.15-.26.346-.463.588-.609.246-.145.542-.221.888-.225.196 0 .372.023.527.068.159.041.298.103.417.185.086.064.164.141.232.232.073.091.134.194.185.308.063-.105.139-.203.225-.294.087-.091.18-.171.28-.239.128-.078.269-.139.424-.185.16-.046.333-.071.52-.075.255 0 .485.039.69.116.205.073.378.182.52.328.155.164.273.378.355.643.082.259.123.567.123.923v5.523h-1.203v-5.537c0-.155-.018-.292-.055-.41-.036-.119-.088-.217-.157-.294-.073-.073-.164-.128-.273-.164-.105-.037-.228-.055-.369-.055-.151 0-.281.021-.39.062s-.201.095-.273.164c-.073.073-.13.157-.171.253-.041.091-.069.193-.082.307v.069.068 5.537h-1.204v-5.544c0-.155-.018-.292-.054-.41-.032-.119-.085-.217-.157-.294-.069-.073-.155-.125-.26-.157-.1-.037-.219-.055-.356-.055-.15 0-.282.018-.396.055-.11.032-.203.079-.28.143-.06.05-.112.107-.158.171-.041.064-.075.132-.102.205v5.886h-1.203v-7.396zm11.095 7.533c-.519 0-.998-.089-1.435-.267-.433-.178-.805-.426-1.115-.745s-.551-.697-.724-1.135c-.173-.437-.26-.914-.26-1.428v-.288c0-.597.096-1.13.287-1.599.192-.474.447-.875.766-1.203.314-.324.672-.572 1.073-.745.406-.174.82-.26 1.244-.26.533 0 .998.093 1.395.28.401.182.733.435.998.759.264.328.46.713.588 1.155.132.442.198.921.198 1.436v.567h-5.284v.048c.032.36.102.677.212.95.113.274.268.515.464.725.201.223.442.398.725.526s.595.191.937.191c.451 0 .852-.091 1.203-.273s.642-.424.875-.725l.772.602c-.246.374-.615.706-1.107.998-.488.287-1.092.431-1.812.431zm-.164-6.631c-.255 0-.497.048-.724.143-.228.092-.433.226-.616.404-.182.182-.337.405-.465.67-.123.259-.209.56-.259.902h3.978v-.062c0-.227-.043-.471-.13-.731-.086-.264-.207-.492-.362-.684-.155-.191-.351-.346-.588-.464-.232-.119-.51-.178-.834-.178zm7.567-3.261-.143 2.529h-.889l.007-2.42v-.854h1.025zm2.441 0-.144 2.529h-.881l.006-2.42v-.854h1.026zm13.781 10.609h-1.135l4.157-10.807h1.128zm6.768-2.201v-1.312l4.423-1.668.41-.116-.41-.13-4.423-1.641v-1.306l6.036 2.584v.998z" fill="#a86338"/><g stroke="#a86338"><path d="m1 4c0-1.65685 1.34315-3 3-3h527v147c0 1.657-1.343 3-3 3h-527z" stroke-width="2"/><path d="m0 38.5h532"/><circle cx="20" cy="20" r="5" stroke-width="2"/><circle cx="40" cy="20" r="5" stroke-width="2"/><circle cx="60" cy="20" r="5" stroke-width="2"/></g></svg>