<svg fill="none" height="137" viewBox="0 0 339 137" width="339" xmlns="http://www.w3.org/2000/svg"><path d="m4 23h334v110c0 1.657-1.343 3-3 3h-334v-110c0-1.6569 1.34315-3 3-3z" stroke="#a86338" stroke-width="2"/><g fill="#a86338"><path d="m44.134 13v-10.122h2.037v4.06h4.431v-4.06h2.044v10.122h-2.044v-4.347h-4.431v4.347zm13.2444 0v-8.302h-3.059v-1.82h8.099v1.82h-2.989v8.302zm6.716 0v-10.122h2.968l2.317 7.217 2.338-7.217h2.961v10.122h-2.065v-7.742l-2.436 7.742h-1.603l-2.422-7.707v7.707zm13.1316 0v-10.122h2.058v8.393h4.396v1.729z"/><path d="m136.325 13v-8.302h-3.059v-1.82h8.099v1.82h-2.989v8.302zm8.716.14c-.719 0-1.351-.1493-1.897-.448-.542-.3033-.964-.7303-1.267-1.281-.304-.5507-.455-1.1993-.455-1.946 0-.72333.137-1.37433.413-1.953.28-.58333.681-1.043 1.204-1.379.522-.34067 1.155-.511 1.897-.511.737 0 1.355.15633 1.855.469.499.308.877.73967 1.134 1.295.256.55067.385 1.18767.385 1.911v.553h-4.865c0 .3687.06.6907.182.966.121.2707.296.4807.525.63.233.1447.513.217.84.217.35 0 .655-.0747.917-.224.261-.1493.445-.3943.553-.735h1.841c-.084.5133-.29.952-.616 1.316-.327.364-.724.6417-1.19.833-.467.1913-.952.287-1.456.287zm-1.596-4.508h2.954c0-.28933-.056-.55533-.168-.798-.108-.24267-.271-.434-.49-.574-.215-.14-.486-.21-.812-.21-.313 0-.581.077-.805.231-.22.14933-.39.34533-.511.588-.117.24267-.173.497-.168.763zm5.426 4.368 2.779-3.773-2.541-3.465h2.142l1.505 2.03 1.498-2.03h2.135l-2.562 3.465 2.786 3.773h-2.142l-1.729-2.359-1.729 2.359zm12.112.077c-.639 0-1.134-.0817-1.484-.245-.345-.1633-.585-.392-.721-.686-.13-.294-.196-.6347-.196-1.022v-3.941h-1.176v-1.421h1.239l.518-2.184h1.456v2.177h1.61v1.428h-1.61l.014 3.857c0 .1773.021.3103.063.399.047.084.117.14.21.168.098.0233.222.035.371.035h.973v1.26c-.098.042-.245.0817-.441.119s-.471.056-.826.056z"/><path d="m224.134 13v-10.122h4.27c.807 0 1.468.12833 1.981.385s.891.61367 1.134 1.071c.243.45267.364.97533.364 1.568 0 .532-.084.98233-.252 1.351-.163.364-.38.66733-.651.91-.266.24267-.558.441-.875.595l1.883 4.242h-2.121l-1.645-3.899h-2.051v3.899zm2.037-5.474h1.869c.546 0 .978-.147 1.295-.441.322-.294.483-.672.483-1.134 0-.46667-.154-.83533-.462-1.106s-.698-.406-1.169-.406h-2.016zm9.744 5.614c-.457 0-.872-.0863-1.246-.259-.368-.1727-.66-.4223-.875-.749-.214-.3313-.322-.7327-.322-1.204 0-.7933.297-1.39533.889-1.806.593-.41533 1.529-.63 2.807-.644l.91-.014v-.434c0-.33133-.098-.58567-.294-.763-.191-.182-.492-.27067-.903-.266-.294.00467-.576.07467-.847.21-.266.13533-.45.371-.553.707h-1.701c.028-.52267.18-.952.455-1.288.28-.34067.656-.59267 1.127-.756.472-.168 1.011-.252 1.617-.252.738 0 1.33.09333 1.778.28.448.182.773.44567.973.791.206.34067.308.74667.308 1.218v5.089h-1.708l-.168-1.246c-.247.5227-.557.8843-.931 1.085-.368.2007-.807.301-1.316.301zm.693-1.344c.182 0 .36-.0327.532-.098.178-.07.336-.161.476-.273.14-.1167.25-.2473.329-.392.084-.1447.129-.294.133-.448v-1.071l-.735.014c-.34.00467-.658.04667-.952.126-.294.07467-.532.19833-.714.371-.177.1727-.266.406-.266.7 0 .336.115.5997.343.791.234.1867.518.28.854.28zm6.788 1.204-2.345-7.238h1.806l1.386 4.487h.049l1.33-4.487h1.463l1.344 4.487h.056l1.344-4.487h1.848l-2.38 7.238h-1.631l-1.344-4.382-1.351 4.382zm13.235 0v-10.122h2.037v4.06h4.431v-4.06h2.044v10.122h-2.044v-4.347h-4.431v4.347zm13.244 0v-8.302h-3.059v-1.82h8.099v1.82h-2.989v8.302zm6.716 0v-10.122h2.968l2.317 7.217 2.338-7.217h2.961v10.122h-2.065v-7.742l-2.436 7.742h-1.603l-2.422-7.707v7.707zm13.132 0v-10.122h2.058v8.393h4.396v1.729z"/></g><g fill="#eee"><path d="m27 50h310v21h-310z"/><path d="m27 84h310v21h-310z"/><path d="m27 118h310v17h-310z"/></g></svg>