<svg fill="none" height="42" viewBox="0 0 35 42" width="35" xmlns="http://www.w3.org/2000/svg" xmlns:xlink="http://www.w3.org/1999/xlink"><clipPath id="a"><path d="m0 0h34.4227v42h-34.4227z"/></clipPath><g clip-path="url(#a)"><path d="m4.42331 40.5948-2.03585-38.08079-2.38746.16406 1.56787 37.91673zm15.47709-31.72534c5.2789 0 8.3114 2.88534 8.1617 8.73104l-6.0277.1498c.1123-3.1477-1.2355-3.4474-1.9843-3.4474-.7114 0-1.9094.2248-1.9094 1.9111 0 4.1594 10.2584 3.9345 10.2584 12.3283 0 4.7215-3.6691 6.8947-8.349 6.8947-4.8296 0-9.0602-1.6487-8.5735-8.8809h6.3271c-.0749 2.9229.5618 3.9722 2.1716 3.9722 1.2355 0 1.797-.7121 1.797-1.9111 0-4.2719-10.1085-4.4217-10.1085-12.2534 0-4.4966 2.9576-7.49434 8.2366-7.49434zm14.5223-8.86946-3.2766.267586v6.345444l-2.6631-2.65338-2.5402 2.98159v-6.410826l-21.30008 1.655476 2.19977 38.40901 27.58021 1.4051z" fill="#a86338"/></g></svg>