<svg fill="none" height="42" viewBox="0 0 43 42" width="43" xmlns="http://www.w3.org/2000/svg" xmlns:xlink="http://www.w3.org/1999/xlink"><clipPath id="a"><path d="m.718872 0h42v42h-42z"/></clipPath><g clip-path="url(#a)"><path d="m32.8751 0h-22.3125c-5.43653 0-9.843728 4.4072-9.843728 9.84375v22.31245c0 5.4366 4.407198 9.8438 9.843728 9.8438h22.3125c5.4366 0 9.8438-4.4072 9.8438-9.8438v-22.31245c0-5.43655-4.4072-9.84375-9.8438-9.84375z" fill="#a86338"/><path d="m10.0066 21.1394-.01331 1.72h5.46651v15.5333h3.867v-15.5333h5.4666v-1.6867c0-.9334-.0199-1.7133-.0466-1.7333-.02-.0266-3.3467-.0401-7.3801-.0333l-7.3399.02zm24.6021-1.7622c1.0666.2668 1.88.7401 2.6267 1.5133.3867.4134.9599 1.1668 1.0067 1.3468.0132.0533-1.8134 1.28-2.92 1.9666-.0401.0268-.2002-.1467-.3802-.4133-.5399-.7866-1.1066-1.1267-1.9733-1.1866-1.2733-.0868-2.0933.5799-2.0865 1.6933 0 .3266.0465.5199.1799.7866.2799.58.8.9267 2.4334 1.6333 3.0066 1.2935 4.2932 2.1467 5.0933 3.36.8933 1.3533 1.0933 3.5134.4866 5.1201-.6666 1.7466-2.32 2.9332-4.6467 3.3266-.7199.1267-2.4267.1067-3.1999-.0333-1.6867-.3-3.2866-1.1333-4.2733-2.2266-.3867-.4267-1.1401-1.5401-1.0933-1.6201.0198-.0266.1932-.1333.3865-.2466.1867-.1067.8935-.5134 1.5601-.9001l1.2066-.7.2534.3734c.3534.5399 1.1266 1.28 1.5933 1.5266 1.3399.7068 3.1801.6067 4.0867-.2066.3867-.3534.5466-.72.5466-1.26 0-.4867-.06-.7-.3133-1.0667-.3267-.4666-.9933-.86-2.8867-1.68-2.1666-.9334-3.1-1.5133-3.9533-2.4334-.4933-.5332-.9601-1.3866-1.1533-2.1-.16-.5932-.2-2.08-.0734-2.6799.4466-2.0933 2.0267-3.5533 4.3067-3.9868.7401-.1399 2.4599-.0866 3.1867.0934z" fill="#181310"/></g></svg>