<svg fill="none" height="42" viewBox="0 0 43 42" width="43" xmlns="http://www.w3.org/2000/svg" xmlns:xlink="http://www.w3.org/1999/xlink"><clipPath id="a"><path d="m.311279 0h42v42h-42z"/></clipPath><g clip-path="url(#a)"><path d="m24.3563 1.84278c-.0933-.00032-.1861.01446-.2748.04375-.1776.05927-.3312.17475-.4375.329l-10.0415 14.51797c-.0803.116-.1308.2501-.147.3903-.0157.1402.0036.282.056.413.0527.131.1368.247.245.3377.1085.0912.2377.1544.3763.1838l6.4872 1.3755-.4025 8.015c-.0091.1865.0431.371.1488.525.1059.155.2595.2711.4375.3307.1778.0591.3699.0591.5477 0 .1774-.0589.3309-.1737.4375-.3272l10.0415-14.518c.0805-.116.131-.25.147-.3903.0158-.1402-.0035-.282-.056-.413-.0522-.1317-.1364-.2484-.245-.3395-.1086-.0906-.2378-.1531-.3762-.182l-6.4873-1.3772.4025-8.01502c.0092-.18656-.043-.37098-.1487-.525-.1061-.15443-.2597-.26996-.4375-.329-.088-.02973-.1802-.04509-.273-.0455zm-22.02025 15.28622c-.53725.0018-1.05.217-1.429754.595-.379306.3794-.593194.8933-.595 1.4298-.002182.5367.207922 1.0525.5845 1.435l18.973504 18.9735c.1887.189.4129.3389.6597.441.2469.1021.5116.1545.7788.154h.007c.2672.0005.5319-.0519.7787-.154.2469-.1021.4711-.2519.6598-.441l18.9735-18.9753c.3764-.3825.5865-.8983.5845-1.435-.0025-.5358-.2163-1.0489-.595-1.428-.3795-.3791-.8933-.593-1.4298-.595-.5367-.0023-1.0526.2078-1.435.5845l-9.45 9.45-.0455.035-8.0447 8.0465-8.0465-8.0447c-.0123-.014-.028-.0228-.042-.035l-9.45175-9.4518c-.38245-.3766-.89828-.5867-1.435-.5845z" fill="#a86338"/></g></svg>