<svg width="24" height="24" viewBox="0 0 24 24" fill="none" xmlns="http://www.w3.org/2000/svg">
<path fill-rule="evenodd" clip-rule="evenodd" d="M15 3C16.5977 3 17.9037 4.24892 17.9949 5.82373L18 6V20C18 20.7384 17.2347 21.2087 16.5867 20.911L16.4855 20.8575L11.999 18.166L7.5145 20.8575C6.8813 21.2374 6.08434 20.8231 6.00623 20.1143L6 20V6C6 4.40232 7.24892 3.09634 8.82373 3.00509L9 3H15ZM8.88278 5.00673C8.4237 5.06005 8.05945 5.4243 8.00613 5.88338L7.9994 6V18.233L11.4849 16.1425C11.762 15.9762 12.0995 15.9555 12.3917 16.0802L12.5139 16.1425L15.9994 18.234V6C15.9994 5.48716 15.6134 5.06449 15.116 5.00673L14.9994 5H8.9994L8.88278 5.00673Z" fill="#A86338"/>
</svg>
