<svg width="24" height="24" viewBox="0 0 24 24" fill="none" xmlns="http://www.w3.org/2000/svg">
<path fill-rule="evenodd" clip-rule="evenodd" d="M9.5 2C5.35786 2 2 5.35786 2 9.5C2 13.4741 5.09098 16.7263 9 16.9836V19C9 20.6569 10.3431 22 12 22H19C20.6569 22 22 20.6569 22 19V12C22 10.3431 20.6569 9 19 9H16.9836C16.7263 5.09098 13.4741 2 9.5 2ZM14.9776 9C14.725 6.19675 12.369 4 9.5 4C6.46243 4 4 6.46243 4 9.5C4 12.369 6.19675 14.725 9 14.9776V12C9 10.3431 10.3431 9 12 9H14.9776ZM11 14.793V12C11 11.4477 11.4477 11 12 11H14.793C14.2749 12.8317 12.8317 14.2749 11 14.793ZM11 16.85C13.9387 16.2534 16.2534 13.9387 16.85 11H19C19.5523 11 20 11.4477 20 12V19C20 19.5523 19.5523 20 19 20H12C11.4477 20 11 19.5523 11 19V16.85Z" />
</svg>
