<svg width="24" height="25" viewBox="0 0 24 25" fill="none" xmlns="http://www.w3.org/2000/svg">
<g style="mix-blend-mode:screen">
<path fill-rule="evenodd" clip-rule="evenodd" d="M13 2.5H11C9.69378 2.5 8.58254 3.33481 8.17071 4.5H7L6.82373 4.50509C5.24892 4.59634 4 5.90232 4 7.5V19.5L4.00509 19.6763C4.09634 21.2511 5.40232 22.5 7 22.5H17L17.1763 22.4949C18.7511 22.4037 20 21.0977 20 19.5V7.5L19.9949 7.32373C19.9037 5.74892 18.5977 4.5 17 4.5H15.8293C15.4175 3.33481 14.3062 2.5 13 2.5ZM15.8293 6.5H17L17.1166 6.50673C17.614 6.56449 18 6.98716 18 7.5V19.5L17.9933 19.6166C17.9355 20.114 17.5128 20.5 17 20.5H7L6.88338 20.4933C6.38604 20.4355 6 20.0128 6 19.5V7.5L6.00673 7.38338C6.06449 6.88604 6.48716 6.5 7 6.5H8.17071C8.58254 7.66519 9.69378 8.5 11 8.5H13C14.3062 8.5 15.4175 7.66519 15.8293 6.5ZM10 5.5C10 6.05228 10.4477 6.5 11 6.5H13C13.5523 6.5 14 6.05228 14 5.5C14 4.94772 13.5523 4.5 13 4.5H11C10.4477 4.5 10 4.94772 10 5.5Z" fill="#828282"/>
</g>
</svg>
