<svg width="24" height="24" viewBox="0 0 24 24" fill="none" xmlns="http://www.w3.org/2000/svg">
<path fill-rule="evenodd" clip-rule="evenodd" d="M2.0876 10.6846C2.74355 5.71117 6.98283 1.9934 11.9993 1.99219L12.0581 1.99387L12.116 1.99889L12.3926 2.00019C13.2634 2.00019 13.7017 3.0233 13.1508 3.65297L13.0733 3.73275C10.7759 5.86749 10.3303 9.33822 12.014 11.9841C13.6976 14.6299 17.0304 15.6963 19.9373 14.5193C20.76 14.1862 21.5767 15.0103 21.236 15.83C19.3108 20.4623 14.2513 22.9514 9.4067 21.6496C4.56205 20.3478 1.43165 15.658 2.0876 10.6846ZM10.043 4.40853L10.1566 4.20719L10.0156 4.2414C6.91514 5.03476 4.50587 7.64461 4.07043 10.9461C3.54567 14.9249 6.04999 18.6767 9.92571 19.7181C13.0431 20.5558 16.2717 19.4314 18.2173 17.0308L18.2726 16.9582L18.101 16.9741C15.1431 17.1843 12.2115 15.8299 10.4766 13.2854L10.3266 13.0578C8.62531 10.3842 8.58656 7.06651 10.043 4.40853ZM17 3L17.1166 3.00673C17.5757 3.06005 17.94 3.4243 17.9933 3.88338L18 4C18 4.51284 18.386 4.93551 18.8834 4.99327L19 5C20.2874 5 20.3317 6.86445 19.1332 6.99303L19 7C18.4872 7 18.0645 7.38604 18.0067 7.88338L18 8C18 9.28736 16.1356 9.33175 16.007 8.13317L16 8C16 7.48716 15.614 7.06449 15.1166 7.00673L15 7C13.7126 7 13.6683 5.13555 14.8668 5.00697L15 5C15.5128 5 15.9355 4.61396 15.9933 4.11662L16 4C16 3.48716 16.386 3.06449 16.8834 3.00673L17 3ZM18.8834 10.0067C18.386 10.0645 18 10.4872 18 11C18 11.5523 18.4477 12 19 12L19.0067 12.1166C19.0645 12.614 19.4872 13 20 13C20.5523 13 21 12.5523 21 12L21.1166 11.9933C21.614 11.9355 22 11.5128 22 11C22 10.4477 21.5523 10 21 10L20.9933 9.88338C20.9355 9.38604 20.5128 9 20 9C19.4477 9 19 9.44772 19 10L18.8834 10.0067Z" />
</svg>
