<svg width="20" height="20" viewBox="0 0 20 20" fill="none" xmlns="http://www.w3.org/2000/svg">
<g clip-path="url(#clip0_27_327)">
<path d="M10.0858 0C15.555 0 20 4.57083 20 9.9975C20 15.4225 15.5583 19.9892 10.0833 19.9892L0 20V9.825C0 4.4 4.61 0 10.0858 0ZM10.1825 3.8025C9.12053 3.80134 8.07629 4.07464 7.15105 4.59588C6.2258 5.11713 5.45096 5.86863 4.90167 6.7775C4.3569 7.68207 4.05883 8.71366 4.03719 9.76938C4.01555 10.8251 4.27109 11.868 4.77833 12.7942L3.66667 16.3417L7.66167 15.4467C8.77956 15.9462 10.0205 16.1028 11.2275 15.8966C12.4344 15.6904 13.553 15.1307 14.4417 14.2883C15.3254 13.4521 15.9363 12.3687 16.1945 11.1798C16.4528 9.99085 16.3464 8.75166 15.8892 7.62417C15.4267 6.49266 14.6374 5.52475 13.6221 4.84414C12.6067 4.16354 11.4115 3.80116 10.1892 3.80333L10.1825 3.8025Z" fill="#828282"/>
</g>
<defs>
<clipPath id="clip0_27_327">
<rect width="20" height="20" fill="white"/>
</clipPath>
</defs>
</svg>
