<svg width="20" height="20" viewBox="0 0 20 20" fill="none" xmlns="http://www.w3.org/2000/svg">
<path fill-rule="evenodd" clip-rule="evenodd" d="M6.34408 5.17475C6.01717 4.92057 5.54448 4.94367 5.24408 5.24408L5.17475 5.32258C4.92057 5.64949 4.94367 6.12219 5.24408 6.42259L8.82083 10L5.24408 13.5774L5.17475 13.6559C4.92057 13.9828 4.94367 14.4555 5.24408 14.7559C5.56951 15.0814 6.09715 15.0814 6.42259 14.7559L10.5893 10.5893L10.6586 10.5107C10.9128 10.1838 10.8897 9.71115 10.5893 9.41074L6.42259 5.24408L6.34408 5.17475ZM11.3441 5.17475C11.0172 4.92057 10.5445 4.94367 10.2441 5.24408L10.1748 5.32258C9.92057 5.64949 9.94367 6.12219 10.2441 6.42259L13.8208 10L10.2441 13.5774L10.1748 13.6559C9.92057 13.9828 9.94367 14.4555 10.2441 14.7559C10.5695 15.0814 11.0972 15.0814 11.4226 14.7559L15.5893 10.5893L15.6586 10.5107C15.9128 10.1838 15.8897 9.71115 15.5893 9.41074L11.4226 5.24408L11.3441 5.17475Z" />
</svg>
