<svg width="24" height="24" viewBox="0 0 24 24" fill="none" xmlns="http://www.w3.org/2000/svg">
<path fill-rule="evenodd" clip-rule="evenodd" d="M15.5193 7.42426H15.5183C13.9552 7.42426 12.4518 6.81485 11.3367 5.7259C9.88074 4.29306 7.61117 4.20336 6.06156 5.45597V12.1096C8.24478 11.1095 10.9047 11.5019 12.7223 13.2868C14.173 14.7142 16.4507 14.7998 18.0088 13.5428V6.85685C17.2264 7.2134 16.3702 7.40228 15.4984 7.40228L15.5193 7.42426ZM19.4716 14.8894C19.7854 14.7208 20 14.3883 20 14.008V5.01668C20 4.67857 19.8364 4.38424 19.586 4.20427C19.1957 3.90723 18.6385 3.93174 18.2861 4.28528C16.733 5.80382 14.2539 5.80382 12.7106 4.28528C10.3809 1.99849 6.66719 1.99849 4.34739 4.28628C4.31752 4.31625 4.27769 4.35622 4.24783 4.39618C3.99094 4.68877 3.9374 5.08339 4.07031 5.4208V21.0013C4.07031 21.5507 4.50839 22.0003 5.06594 22.0003C5.61353 22.0003 6.06156 21.5507 6.06156 21.0013V14.4488C7.61121 13.1948 9.88192 13.284 11.3384 14.7174C12.4535 15.8063 13.9569 16.4157 15.52 16.4157L15.4902 16.3928C16.953 16.3928 18.3716 15.8611 19.4716 14.8894Z" fill="#A86338"/>
</svg>
