<svg width="24" height="24" viewBox="0 0 24 24" fill="none" xmlns="http://www.w3.org/2000/svg">
<path fill-rule="evenodd" clip-rule="evenodd" d="M11.9671 5.49838L12.004 5.53185L12.0383 5.50118C13.3231 4.37335 15.0451 3.83599 16.7708 4.06092L17.0174 4.09826C19.2354 4.4813 21.0525 6.07355 21.7235 8.2221C22.3945 10.3706 21.8065 12.714 20.2007 14.2913L20.153 14.3319L12.7037 21.7104C12.3439 22.0667 11.7812 22.0941 11.3902 21.7926L11.2963 21.7104L3.79198 14.2779L3.62038 14.1034C2.14008 12.5331 1.61285 10.2804 2.25756 8.20697C2.92806 6.05057 4.75257 4.45327 6.9787 4.07378C8.79258 3.76456 10.6228 4.30655 11.9671 5.49838Z" fill="#A86338"/>
</svg>
