<svg width="24" height="24" viewBox="0 0 24 24" fill="none" xmlns="http://www.w3.org/2000/svg">
<path fill-rule="evenodd" clip-rule="evenodd" d="M12 15C13.6569 15 15 13.6569 15 12C15 10.3431 13.6569 9 12 9C10.3431 9 9 10.3431 9 12C9 13.6569 10.3431 15 12 15ZM12 17C14.7614 17 17 14.7614 17 12C17 9.23858 14.7614 7 12 7C9.23858 7 7 9.23858 7 12C7 14.7614 9.23858 17 12 17Z"/>
<path d="M11 3C11 2.44772 11.4477 2 12 2C12.5523 2 13 2.44772 13 3V4C13 4.55228 12.5523 5 12 5C11.4477 5 11 4.55228 11 4V3Z"/>
<path d="M5.636 7.05086C6.02653 7.44138 6.65969 7.44138 7.05022 7.05086C7.44074 6.66033 7.44074 6.02717 7.05022 5.63664L6.34311 4.92954C5.95259 4.53901 5.31942 4.53901 4.9289 4.92954C4.53837 5.32006 4.53837 5.95323 4.9289 6.34375L5.636 7.05086Z"/>
<path d="M19.0711 4.92976C18.6806 4.53924 18.0474 4.53924 17.6569 4.92976L16.9498 5.63687C16.5593 6.02739 16.5593 6.66056 16.9498 7.05108C17.3403 7.44161 17.9735 7.44161 18.364 7.05108L19.0711 6.34398C19.4616 5.95345 19.4616 5.32029 19.0711 4.92976Z"/>
<path d="M7.05037 16.9493C6.65984 16.5588 6.02668 16.5588 5.63615 16.9493L4.92905 17.6564C4.53852 18.0469 4.53852 18.6801 4.92905 19.0706C5.31957 19.4611 5.95274 19.4611 6.34326 19.0706L7.05037 18.3635C7.44089 17.973 7.44089 17.3398 7.05037 16.9493Z"/>
<path d="M19.071 19.0704C18.6804 19.4609 18.0473 19.4609 17.6568 19.0704L16.9496 18.3633C16.5591 17.9728 16.5591 17.3396 16.9496 16.9491C17.3402 16.5585 17.9733 16.5585 18.3639 16.9491L19.071 17.6562C19.4615 18.0467 19.4615 18.6799 19.071 19.0704Z"/>
<path d="M12 19C11.4477 19 11 19.4477 11 20V21C11 21.5523 11.4477 22 12 22C12.5523 22 13 21.5523 13 21V20C13 19.4477 12.5523 19 12 19Z" />
<path d="M21 11C21.5523 11 22 11.4477 22 12C22 12.5523 21.5523 13 21 13H20C19.4477 13 19 12.5523 19 12C19 11.4477 19.4477 11 20 11H21Z" />
<path d="M5 12C5 11.4477 4.55228 11 4 11H3C2.44772 11 2 11.4477 2 12C2 12.5523 2.44772 13 3 13H4C4.55228 13 5 12.5523 5 12Z" />
</svg>
