<svg width="24" height="24" viewBox="0 0 24 24" fill="none" xmlns="http://www.w3.org/2000/svg">
<path fill-rule="evenodd" clip-rule="evenodd" d="M19.7071 4.29327C17.9359 2.52203 15.0641 2.52203 13.2929 4.29327L12.7929 4.79327L12.7097 4.88748C12.4047 5.27977 12.4324 5.847 12.7929 6.20748C13.1834 6.59801 13.8166 6.59801 14.2071 6.20748L14.7071 5.70748L14.8397 5.58395C15.8357 4.71917 17.3458 4.76035 18.2929 5.70748C19.2831 6.69767 19.2831 8.30308 18.2929 9.29327L14.2929 13.2933L14.1448 13.4329C13.6865 13.8318 13.1047 14.0509 12.5 14.0509C11.8281 14.0509 11.1845 13.7804 10.7143 13.3005C10.3278 12.906 9.69465 12.8996 9.30016 13.2861C8.90567 13.6726 8.89921 14.3057 9.28573 14.7002C10.1321 15.5641 11.2906 16.0509 12.5 16.0509C13.7094 16.0509 14.8679 15.5641 15.7143 14.7002L19.7071 10.7075L19.868 10.5383C21.4766 8.75784 21.423 6.00916 19.7071 4.29327ZM14.7143 9.30052C13.8679 8.43667 12.7094 7.94987 11.5 7.94987C10.2906 7.94987 9.13213 8.43667 8.28573 9.30052L4.2929 13.2933L4.13204 13.4625C2.5234 15.2429 2.57702 17.9916 4.2929 19.7075C6.06414 21.4787 8.93588 21.4787 10.7071 19.7075L11.2071 19.2075L11.2903 19.1133C11.5953 18.721 11.5676 18.1538 11.2071 17.7933C10.8166 17.4027 10.1834 17.4027 9.7929 17.7933L9.2929 18.2933L9.16036 18.4168C8.16428 19.2816 6.65425 19.2404 5.70712 18.2933C4.71693 17.3031 4.71693 15.6977 5.70712 14.7075L9.70712 10.7075L9.85519 10.5679C10.3135 10.1689 10.8953 9.94987 11.5 9.94987C12.1719 9.94987 12.8155 10.2203 13.2857 10.7002C13.6722 11.0947 14.3054 11.1012 14.6999 10.7147C15.0944 10.3281 15.1008 9.69501 14.7143 9.30052Z" fill="#A86338"/>
</svg>
