<svg width="24" height="24" viewBox="0 0 24 24" fill="none" xmlns="http://www.w3.org/2000/svg">
<path fill-rule="evenodd" clip-rule="evenodd" d="M9.70711 12.2929C10.0676 12.6534 10.0953 13.2206 9.7903 13.6129L9.70711 13.7071C9.34662 14.0676 8.77939 14.0953 8.3871 13.7903L8.29289 13.7071L4.29289 9.70711C4.2575 9.67171 4.22531 9.63433 4.19633 9.59531L4.12467 9.48406L4.07123 9.37134L4.03585 9.26599L4.01102 9.14847L4.00398 9.0898L4 9L4.00279 8.92476L4.02024 8.79927L4.04974 8.68786L4.09367 8.57678L4.146 8.47929L4.2097 8.3871L4.29289 8.29289L8.29289 4.29289C8.68342 3.90237 9.31658 3.90237 9.70711 4.29289C10.0676 4.65338 10.0953 5.22061 9.7903 5.6129L9.70711 5.70711L7.415 8H16C18.7614 8 21 10.2386 21 13C21 15.6888 18.8777 17.8818 16.2169 17.9954L16 18H15C14.4477 18 14 17.5523 14 17C14 16.4872 14.386 16.0645 14.8834 16.0067L15 16H16C17.6569 16 19 14.6569 19 13C19 11.4023 17.7511 10.0963 16.1763 10.0051L16 10H7.415L9.70711 12.2929Z" fill="#A86338"/>
</svg>
