<?xml version="1.0" encoding="utf-8"?>
<svg version="1.1" id="Layer_1" xmlns="http://www.w3.org/2000/svg" xmlns:xlink="http://www.w3.org/1999/xlink" x="0px" y="0px"
	 viewBox="0 0 24 24" xml:space="preserve">
<path d="M8.2,21.8c-0.1,0-0.2,0-0.3-0.1c-0.3-0.1-0.5-0.4-0.5-0.7v-4c-0.9-0.1-1.8-0.2-2.7-0.3c-1.9-0.3-3.3-2-3.3-4v-6
	c0-2,1.4-3.7,3.3-4C7.2,2.4,9.6,2.2,12,2.2c0,0,0,0,0,0c2.4,0,4.8,0.2,7.1,0.5c1.9,0.3,3.3,2,3.3,4v6c0,2-1.4,3.7-3.3,4
	c-1.9,0.3-3.8,0.4-5.8,0.5c-0.2,0-0.4,0.1-0.5,0.2l-4.1,4.1C8.6,21.7,8.4,21.8,8.2,21.8z M12,3.8C12,3.8,12,3.8,12,3.8
	c-2.3,0-4.7,0.2-7,0.5C3.9,4.4,3,5.5,3,6.7v6c0,1.3,0.9,2.3,2.1,2.5c1.1,0.2,2.1,0.3,3.2,0.4C8.7,15.6,9,16,9,16.4v2.8l2.8-2.8
	c0.4-0.4,1-0.6,1.5-0.7c1.9-0.1,3.7-0.2,5.6-0.5c1.2-0.2,2.1-1.2,2.1-2.5v-6c0-1.3-0.9-2.3-2.1-2.5C16.7,3.9,14.3,3.8,12,3.8z"/>
</svg>
