<svg width="24" height="24" viewBox="0 0 24 24" xmlns="http://www.w3.org/2000/svg">
<path d="M8.24295 7.33995L1.86352 8.26529L1.74968 8.2882C1.01366 8.47934 0.743465 9.4206 1.30944 9.97153L5.93195 14.471L4.84235 20.8259L4.82932 20.936C4.77991 21.6974 5.59302 22.2483 6.29332 21.8801L11.999 18.88L17.6918 21.8796L17.7925 21.9262C18.5014 22.2092 19.2774 21.6061 19.1436 20.8259L18.053 14.471L22.6765 9.97153L22.7551 9.8861C23.2384 9.299 22.9041 8.37858 22.1224 8.26529L15.742 7.33995L12.8897 1.55939C12.5229 0.81614 11.463 0.81614 11.0962 1.55939L8.24295 7.33995Z" />
</svg>
