<svg width="24" height="24" viewBox="0 0 24 24" fill="none" xmlns="http://www.w3.org/2000/svg">
<path d="M12.244 4C12.778 4.003 14.114 4.016 15.534 4.073L16.038 4.095C17.467 4.162 18.895 4.278 19.604 4.475C20.549 4.741 21.291 5.515 21.542 6.497C21.942 8.057 21.992 11.099 21.998 11.836L21.999 11.988V12.162C21.992 12.899 21.942 15.942 21.542 17.501C21.288 18.486 20.545 19.261 19.604 19.523C18.895 19.72 17.467 19.836 16.038 19.903L15.534 19.926C14.114 19.982 12.778 19.996 12.244 19.998L12.009 19.999H11.754C10.624 19.992 5.898 19.941 4.394 19.523C3.45 19.257 2.707 18.483 2.456 17.501C2.056 15.941 2.006 12.899 2 12.162V11.836C2.006 11.099 2.056 8.056 2.456 6.497C2.71 5.512 3.453 4.737 4.395 4.476C5.898 4.057 10.625 4.006 11.755 4H12.244ZM9.999 8.5V15.5L15.999 12L9.999 8.5Z" />
</svg>
